<svg width="128" height="117" viewBox="0 0 128 117" fill="none" xmlns="http://www.w3.org/2000/svg">
<g clip-path="url(#clip0)">
<path d="M63.7001 69.3001C46.9001 69.3001 33.3 55.7001 33.3 39.0001C33.3 37.5001 33.5 36.0001 33.8 34.2001C36.1 19.5001 48.7001 8.70007 63.7001 8.70007C80.4001 8.70007 94 22.3001 94 39.0001C94 55.7001 80.4001 69.3001 63.7001 69.3001Z" fill="#F0D907"/>
<path opacity="0.3" d="M63.7001 71.8001C45.3001 71.8001 30.3 56.8001 30.3 38.4001C30.3 36.8001 30.5 35.1001 30.8 33.1001C33.3 16.9001 47.2001 5.00006 63.7001 5.00006C82.1001 5.00006 97.1 20.0001 97.1 38.4001C97.1 56.8001 82.1001 71.8001 63.7001 71.8001Z" fill="#5D2978"/>
<path d="M63.7001 69.3001C46.9001 69.3001 33.3 55.7001 33.3 39.0001C33.3 37.5001 33.5 36.0001 33.8 34.2001C36.1 19.5001 48.7001 8.70007 63.7001 8.70007C80.4001 8.70007 94 22.3001 94 39.0001C94 55.7001 80.4001 69.3001 63.7001 69.3001Z" fill="#5D2978"/>
<path d="M68.8528 63.5555C82.4198 60.7095 91.111 47.4041 88.2651 33.8371C85.4191 20.27 72.1138 11.5788 58.5467 14.4247C44.9796 17.2707 36.2884 30.576 39.1344 44.1431C41.9803 57.7102 55.2857 66.4014 68.8528 63.5555Z" fill="white"/>
<path d="M39.5 32.6C40.3 45.7 51.1 56.2 64.4 56.2C76 56.2 85.7 48.3 88.5 37.6C88.5 38.1 88.6 38.6 88.6 39.1C88.6 52.9 38.5 52.9 38.5 39.1C38.6 36.8 39 34.6 39.5 32.6Z" fill="#E8E8E8"/>
<path d="M44.2001 32.6C44.2001 39.5 49.8001 45.1 56.7001 45.1C63.6001 45.1 69.2001 39.5 69.2001 32.6C69.2001 25.7 44.2001 25.7 44.2001 32.6Z" fill="black"/>
<path d="M58.7001 28.2C58.7001 31 60.9001 33.2 63.7001 33.2C66.5001 33.2 68.7001 31 68.7001 28.2C68.7001 25.4 66.5001 23.2 63.7001 23.2C60.9001 23.2 58.7001 25.4 58.7001 28.2Z" fill="white"/>
<path d="M45.8 39C45.8 40.7 47.1 42 48.8 42C50.5 42 51.8 40.7 51.8 39C51.8 37.4 50.5 36 48.8 36C47.1 36 45.8 37.3 45.8 39Z" fill="white"/>
<path opacity="0.3" d="M99.2 64.9C95.3 62.9 92 67.3 92 67.3C85.8 74.6 77.6 79.6 67.8 81.3V81.2C66.5 81.4 65.2 81.5 64 81.6C52.7 82.3 42.7 78.5 34.5 71.6C34.5 71.6 30.6 67.7 27 70.3C23.7 72.7 26.5 109.8 60.6 111V111.1C61.5 111.2 62.5 111.2 63.4 111.2C64.7 111.2 66 111.1 67.2 111C106.2 107.6 103 66.9 99.2 64.9Z" fill="#7F3A91"/>
<path d="M99.2 62.3001C95.3 60.3001 92 64.7001 92 64.7001C85.8 72.0001 77.6 77.0001 67.8 78.7001V78.6001C66.5 78.8001 65.2 78.9001 64 79.0001C52.7 79.7001 42.6 76.0001 34.5 69.0001C34.5 69.0001 30.6 65.1001 27 67.7001C23.7 70.1001 26.5 107.2 60.6 108.4V108.5C61.5 108.6 62.5 108.6 63.4 108.6C64.7 108.6 66 108.5 67.2 108.4C106.2 104.9 103 64.2001 99.2 62.3001Z" fill="#7F3A91"/>
<path d="M64.8 82.1C52 83.3 40.1 79.5001 31.3 72.4001C31.2 74.0001 31.1 75.7001 31.3 77.4001C32.8 93.8001 48.8 105.7 66.9 104C85 102.3 98.4 87.6 96.9 71.2C96.7 69.5 96.4 67.9 95.9 66.3C88.6 74.9 77.6 80.9 64.8 82.1Z" fill="#45155E"/>
<path d="M81 86.3001C77.6 96.3001 55.8 96.8001 55.8 96.8001C55.8 96.8001 56.1001 100.6 56.2001 103.3C59.6001 104 63.2001 104.2 66.9001 103.9C78.6001 102.8 88.4001 96.2001 93.4001 87.3001C89.9001 82.7001 83.7001 78.2001 81 86.3001Z" fill="white"/>
<path d="M50.9 101.9C47.9 95.8001 48.8 85.0001 46 88.4001C44.3 90.4001 42.9 93.9001 41.9 96.8001C44.7 98.9001 47.7 100.6 50.9 101.9Z" fill="white"/>
<path d="M88.3 73.2001C89.6 74.4001 91.1 76.0001 92 77.8001C93.7 81.2001 94.8001 72.1001 93.8001 68.4001C92.2001 70.2001 90.3 71.7001 88.3 73.2001Z" fill="white"/>
<path d="M45.1 79.8001C43.1 79.1001 41.1 78.3001 39.2 77.4001C38.7 79.7001 38.2 83.2001 38.7 86.0001C39.4 90.3001 41.5 82.9001 45.1 79.8001Z" fill="white"/>
</g>
<defs>
<clipPath id="clip0">
<rect width="75.3" height="106.3" fill="white" transform="translate(26 5.00006)"/>
</clipPath>
</defs>
</svg>
