<svg width="128" height="117" viewBox="0 0 128 117" fill="none" xmlns="http://www.w3.org/2000/svg">
<g clip-path="url(#clip0)">
<path d="M83.464 57.3293C69.4772 57.3293 58.0009 45.9725 58.0009 31.8662C58.0009 30.6707 58.1204 29.3557 58.3595 27.8016C60.3918 15.4884 70.9118 6.40298 83.464 6.40298C97.4508 6.40298 108.927 17.8793 108.927 31.8662C108.927 45.853 97.4508 57.3293 83.464 57.3293Z" fill="#F0D907"/>
<path opacity="0.5" d="M83.464 0.186584C71.3899 0.186584 60.9894 7.47886 56.4467 18.1184C51.904 12.3802 44.8508 8.67431 36.9608 8.67431C24.6476 8.67431 14.3667 17.5207 12.454 29.5948C12.2149 31.0293 12.0953 32.3443 12.0953 33.5398C12.0953 47.2875 23.2131 58.4052 36.9608 58.4052C46.2853 58.4052 54.4144 53.2648 58.7181 45.6139C63.9781 53.743 73.0635 59.1225 83.3444 59.1225C99.6026 59.1225 112.753 45.9725 112.753 29.7143C112.753 13.4561 99.7222 0.186584 83.464 0.186584Z" fill="url(#paint0_radial)"/>
<path opacity="0.5" d="M83.464 56.8513C74.259 56.8513 65.6517 52.189 60.6308 44.4185L58.5985 41.3103L56.8053 44.4185C52.7408 51.5913 45.2094 56.134 36.9608 56.134C24.5281 56.134 14.3667 45.9726 14.3667 33.5399C14.3667 32.464 14.4862 31.3881 14.7253 29.9535C16.5185 18.8358 25.8431 10.8263 36.9608 10.8263C43.8944 10.8263 50.3499 13.9344 54.6535 19.4335L56.9249 22.3026L58.3594 18.9553C62.6631 8.91353 72.4658 2.33853 83.464 2.33853C98.5267 2.33853 110.72 14.5322 110.72 29.5949C110.72 44.6576 98.4072 56.8513 83.464 56.8513Z" fill="url(#paint1_radial)"/>
<path d="M83.464 57.3293C69.4772 57.3293 58.0009 45.9725 58.0009 31.8662C58.0009 30.6707 58.1204 29.3557 58.3595 27.8016C60.3918 15.4884 70.9118 6.40298 83.464 6.40298C97.4508 6.40298 108.927 17.8793 108.927 31.8662C108.927 45.853 97.4508 57.3293 83.464 57.3293Z" fill="url(#paint2_radial)"/>
<path opacity="0.6" d="M83.464 54.4604C71.0312 54.4604 60.8699 44.2991 60.8699 31.8663C60.8699 30.7904 60.9894 29.595 61.2285 28.28C62.9021 17.2818 72.3462 9.27225 83.464 9.27225C95.8967 9.27225 106.058 19.4336 106.058 31.8663C106.058 44.2991 95.8967 54.4604 83.464 54.4604Z" fill="url(#paint3_radial)"/>
<path d="M62.424 31.8661C62.424 43.462 71.868 52.9061 83.4639 52.9061C95.0599 52.9061 104.504 43.462 104.504 31.8661C104.504 20.2702 95.0599 10.8261 83.4639 10.8261C71.868 10.8261 62.424 20.2702 62.424 31.8661Z" fill="white"/>
<path d="M63.2608 26.4868C63.978 37.485 72.944 46.2118 84.1812 46.2118C93.8644 46.2118 101.993 39.5172 104.384 30.5513C104.384 31.0295 104.504 31.3881 104.504 31.8663C104.504 43.4622 95.0599 52.9063 83.4639 52.9063C71.868 52.9063 62.424 43.4622 62.424 31.8663C62.424 29.9536 62.7826 28.1604 63.2608 26.4868Z" fill="#E8E8E8"/>
<path d="M67.0862 26.4867C67.0862 32.2249 71.7485 37.0067 77.6062 37.0067C83.3444 37.0067 88.1262 32.3445 88.1262 26.4867C88.1262 20.629 83.4639 15.9667 77.6062 15.9667C71.7485 15.9667 67.0862 20.629 67.0862 26.4867Z" fill="black"/>
<path d="M79.2799 22.7808C79.2799 25.0521 81.1926 26.9649 83.464 26.9649C85.7354 26.9649 87.6481 25.0521 87.6481 22.7808C87.6481 20.5094 85.7354 18.5967 83.464 18.5967C81.1926 18.5967 79.2799 20.5094 79.2799 22.7808Z" fill="white"/>
<path d="M34.2113 55.1776C45.6877 56.7317 56.3272 48.7222 57.8813 37.2458C58.0009 36.2894 58.0009 35.2135 58.0009 33.8985C57.7618 23.6176 50.2304 15.0104 39.83 13.5758C28.3536 12.0217 17.714 20.0313 16.16 31.5076C14.6059 42.984 22.735 53.6235 34.2113 55.1776Z" fill="#F0D907"/>
<path d="M34.2113 55.1776C45.6877 56.7317 56.3272 48.7222 57.8813 37.2458C58.0009 36.2894 58.0009 35.2135 58.0009 33.8985C57.7618 23.6176 50.2304 15.0104 39.83 13.5758C28.3536 12.0217 17.714 20.0313 16.16 31.5076C14.6059 42.984 22.735 53.6235 34.2113 55.1776Z" fill="url(#paint4_radial)"/>
<path opacity="0.4" d="M34.4504 53.1452C44.7313 54.5797 54.295 47.2874 55.7295 37.0065C55.8491 36.0502 55.849 35.0938 55.849 34.0179C55.7295 24.5738 48.7959 16.9229 39.5909 15.6079C29.31 14.1733 19.7463 21.4656 18.3118 31.7465C16.8772 42.147 24.1695 51.7106 34.4504 53.1452Z" fill="url(#paint5_radial)"/>
<path d="M54.2949 36.7675C52.9799 46.2116 44.2531 52.9061 34.6895 51.5911C25.1258 50.2761 18.5508 41.5493 19.8658 31.9857C21.1808 22.422 29.9076 15.847 39.4713 17.162C48.9154 18.477 55.4904 27.2039 54.2949 36.7675Z" fill="white"/>
<path d="M54.1754 32.2247C52.3822 41.1906 44.0141 47.2874 34.9286 46.092C26.9191 45.0161 21.0613 38.6801 20.105 31.0292C19.9854 31.3879 19.8659 31.7465 19.8659 32.1051C18.5509 41.5492 25.2454 50.2761 34.6895 51.5911C44.1336 52.9061 52.98 46.2115 54.295 36.7674C54.4145 35.2133 54.4145 33.6592 54.1754 32.2247Z" fill="#E8E8E8"/>
<path d="M51.0672 31.7464C50.4695 36.5282 46.0463 39.7559 41.2645 39.1582C36.4827 38.5605 33.2549 34.1373 33.8527 29.3555C34.4504 24.5736 38.8736 21.3459 43.6554 21.9436C48.3177 22.6609 51.6649 27.0841 51.0672 31.7464Z" fill="black"/>
<path d="M50.589 27.3232C50.3499 29.236 48.5567 30.551 46.644 30.3119C44.7313 30.0728 43.4163 28.2796 43.6554 26.3669C43.8944 24.4541 45.6876 23.1391 47.6004 23.3782C49.5131 23.7369 50.8281 25.4105 50.589 27.3232Z" fill="white"/>
<path d="M60.9895 66.1757C37.4391 66.1757 16.16 59.3617 0.140869 48.1244C0.260415 48.6026 0.140869 49.2003 0.140869 49.6785C0.140869 86.3789 28.5927 116.026 63.7391 116.026C98.8854 116.026 127.337 86.2594 127.337 49.6785C127.337 47.7657 127.218 45.9726 127.098 44.1794C110.72 57.5685 87.17 66.1757 60.9895 66.1757Z" fill="#A41417"/>
<path d="M45.6877 65.0998C38.1563 64.1434 31.1031 62.4698 24.4086 60.1984C27.1581 69.523 30.6249 78.9671 33.9722 82.673C35.0481 83.988 43.4163 74.5439 45.6877 65.0998Z" fill="white"/>
<path d="M80.7145 108.017C80.4754 92.117 61.7067 76.5761 61.7067 76.5761C61.7067 76.5761 53.3386 84.227 50.4695 90.0847C45.0899 101.322 46.1658 113.157 46.1658 113.516C47.6004 113.994 49.0349 114.352 50.589 114.711C50.7086 114.711 50.8281 114.831 50.9477 114.831C55.0122 115.667 59.3158 116.146 63.6195 116.146C68.4013 116.146 72.944 115.548 77.4867 114.472C79.519 113.037 80.834 111.005 80.7145 108.017Z" fill="white"/>
<path d="M82.8663 64.0238C82.9859 66.0561 83.225 68.0884 83.5836 70.3598C84.6595 75.8588 90.3977 82.6729 90.3977 82.6729C90.3977 82.6729 101.515 70.4793 103.309 58.0466C96.9727 60.557 90.1586 62.5893 82.8663 64.0238Z" fill="white"/>
<path d="M63.7391 106.223C31.4618 106.223 4.80314 80.9994 0.738596 48.3635C0.619051 48.2439 0.37996 48.1244 0.260415 48.0048C0.260415 48.6026 0.140869 49.2003 0.140869 49.6785C0.140869 86.3789 28.5927 116.026 63.7391 116.026C98.8854 116.026 127.337 86.2594 127.337 49.6785C127.337 48.0048 127.218 46.4507 127.098 44.7771C124.588 79.2062 97.2118 106.223 63.7391 106.223Z" fill="#FFA6C6"/>
<path d="M37.5586 31.6271C35.0481 31.6271 35.5263 35.4525 38.0367 35.4525C40.5472 35.4525 40.069 31.6271 37.5586 31.6271Z" fill="white"/>
<path d="M71.9877 29.5949C71.0313 29.5949 70.314 30.4317 70.4336 31.3881C70.4336 32.3444 71.2704 32.9422 72.2267 32.9422C73.1831 32.9422 73.9004 32.1053 73.7808 31.149C73.6613 30.1926 72.8245 29.5949 71.9877 29.5949Z" fill="white"/>
</g>
<defs>
<radialGradient id="paint0_radial" cx="0" cy="0" r="1" gradientUnits="userSpaceOnUse" gradientTransform="translate(62.5355 29.5925) scale(41.216)">
<stop stop-color="#FF80A6"/>
<stop offset="1" stop-color="#E8366C"/>
</radialGradient>
<radialGradient id="paint1_radial" cx="0" cy="0" r="1" gradientUnits="userSpaceOnUse" gradientTransform="translate(62.5355 29.5926) scale(39.1022)">
<stop stop-color="#FF80A6"/>
<stop offset="1" stop-color="#E8366C"/>
</radialGradient>
<radialGradient id="paint2_radial" cx="0" cy="0" r="1" gradientUnits="userSpaceOnUse" gradientTransform="translate(83.4578 31.848) scale(25.4372)">
<stop stop-color="#FF80A6"/>
<stop offset="1" stop-color="#E8366C"/>
</radialGradient>
<radialGradient id="paint3_radial" cx="0" cy="0" r="1" gradientUnits="userSpaceOnUse" gradientTransform="translate(83.4571 31.8482) scale(22.5715)">
<stop stop-color="#FF80A6"/>
<stop offset="1" stop-color="#E8366C"/>
</radialGradient>
<radialGradient id="paint4_radial" cx="0" cy="0" r="1" gradientUnits="userSpaceOnUse" gradientTransform="translate(37.0227 34.3675) scale(21.0098)">
<stop stop-color="#FF80A6"/>
<stop offset="1" stop-color="#E8366C"/>
</radialGradient>
<radialGradient id="paint5_radial" cx="0" cy="0" r="1" gradientUnits="userSpaceOnUse" gradientTransform="translate(37.0254 34.3677) scale(18.8969)">
<stop stop-color="#FF80A6"/>
<stop offset="1" stop-color="#E8366C"/>
</radialGradient>
<clipPath id="clip0">
<rect width="127.077" height="115.84" fill="white" transform="translate(0.140869 0.186371)"/>
</clipPath>
</defs>
</svg>
