<svg width="47" height="25" viewBox="0 0 47 25" fill="none" xmlns="http://www.w3.org/2000/svg">
<path fill-rule="evenodd" clip-rule="evenodd" d="M24.1396 8.60191V6.65355C26.088 5.57112 28.8157 2.75682 24.1396 0.159001C22.8407 -0.0574835 20.2429 0.288892 20.2429 3.40627C20.2429 3.83924 20.5027 4.57528 21.5418 4.05572C21.7583 3.18978 22.3212 1.58779 22.8407 2.10736C23.4902 1.89088 24.7891 1.84759 24.7891 3.40627C24.7891 3.62276 24.6592 4.18561 24.1396 4.70517C23.8916 4.95324 23.7382 5.01181 23.6073 5.06182C23.3954 5.14275 23.2421 5.20131 22.8407 6.00408C22.6242 6.43705 22.3212 7.56277 22.8407 8.6019L23.4634 8.60191C20.3658 8.60684 19.1598 9.46906 18.944 9.90079C13.7483 17.0448 3.35709 20.9415 1.40873 21.591C-0.149961 22.1105 -0.106664 23.5393 0.109821 24.1888C0.185639 24.9676 1.00735 24.9463 1.40873 24.8382L6.60435 22.2404C8.16304 21.7209 15.9132 16.8283 19.5934 14.447C22.7108 10.81 26.521 13.3646 28.0363 15.0964L40.376 22.2404C41.8917 22.7457 43.1126 23.4474 44.077 24.0017C45.5919 24.8725 46.4737 25.3793 46.8705 24.1888C47.3901 22.6301 46.2211 21.8075 45.5716 21.591C35.6999 17.954 29.7682 12.2821 28.0363 9.90079C27.8205 9.46907 26.6145 8.60688 23.5171 8.60191L24.1396 8.60191Z" fill="#DE961C"/>
</svg>
