<svg width="1440" height="3741" viewBox="0 0 1440 3741" fill="none" xmlns="http://www.w3.org/2000/svg">
<g opacity="0.2" clip-path="url(#clip0)">
<path d="M743 1994.38C756 1986.38 766 1975.38 766 1958.39C766 1951.39 770 1945.39 773 1936.39C788 1933.39 794 1918.4 802 1906.4C813 1888.4 821 1869.41 830 1850.41C832 1846.41 833 1841.41 834 1836.41C839 1835.41 845 1836.41 850 1834.41C861 1830.42 871 1824.42 878 1814.42C887 1800.42 898 1789.42 913 1781.43C924 1775.43 932 1765.43 938 1754.43C943 1744.43 950 1736.44 960 1731.44C977 1722.44 990 1706.44 1009 1700.44C1010 1700.44 1012 1698.44 1013 1697.44C1025 1686.45 1037 1675.45 1049 1663.45C1067 1667.45 1083 1657.45 1099 1650.45C1104 1648.45 1109 1646.46 1114 1645.46C1122 1643.46 1131 1641.46 1139 1639.46C1148 1636.46 1157 1629.46 1167 1638.46C1176 1635.46 1182 1638.46 1191 1642.46C1197 1645.46 1206 1642.46 1215 1642.46C1221 1649.45 1226 1658.45 1238 1656.45C1239 1656.45 1241 1657.45 1242 1658.45C1251 1665.45 1261 1669.45 1270 1667.45C1273 1670.45 1275 1671.45 1275 1672.45C1275 1692.45 1287 1705.44 1301 1717.44C1306 1722.44 1311 1726.44 1313 1733.44C1315 1739.43 1322 1744.43 1325 1750.43C1331 1763.43 1340 1775.43 1343 1790.42C1347 1807.42 1358 1821.42 1370 1833.41C1380 1843.41 1384 1855.41 1388 1866.41C1392 1876.41 1395 1887.4 1401 1896.4C1412 1914.4 1421 1933.39 1440 1945.39C1439 1952.39 1438 1958.39 1436 1965.39C1449 1986.38 1462 2008.38 1476 2029.37C1480 2035.37 1487 2040.37 1485 2049.37C1485 2051.37 1486 2054.37 1488 2055.37C1496 2060.37 1497 2069.36 1500 2077.36C1506 2091.36 1514 2104.36 1524 2115.35C1535 2127.35 1542 2142.35 1555 2152.35C1557 2154.34 1558 2157.34 1559 2160.34C1564 2177.34 1578 2188.34 1586 2203.33C1601 2208.33 1607 2223.33 1617 2233.33C1624 2239.33 1632 2244.33 1640 2250.32C1640 2255.32 1640 2261.32 1640 2269.32C1665 2280.32 1685 2302.31 1713 2312.31C1714 2322.31 1721 2330.31 1729 2337.31C1750 2355.3 1772 2372.3 1798 2383.3C1812 2389.29 1824 2400.29 1839 2404.29C1841 2404.29 1843 2407.29 1844 2409.29C1846 2421.29 1856 2425.29 1865 2429.29C1887 2437.28 1907 2448.28 1927 2460.28C1930 2462.28 1934 2464.28 1935 2467.28C1938 2476.27 1945 2480.27 1954 2483.27C1965 2487.27 1976 2491.27 1988 2496.27C1988 2497.27 1990 2500.27 1991 2503.27C1991 2510.27 1994 2515.27 2000 2518.27C2021 2526.26 2032 2544.26 2046 2559.26C2064 2580.25 2083 2599.25 2107 2615.24C2107 2619.24 2107 2625.24 2109 2630.24C2112 2636.24 2117 2641.24 2122 2646.24C2130 2654.24 2138 2661.23 2146 2668.23C2145 2674.23 2143 2679.23 2142 2685.23C2146 2690.23 2150 2696.23 2154 2701.23C2159 2706.22 2164 2710.22 2165 2718.22C2166 2723.22 2172 2728.22 2176 2733.22C2174 2740.22 2171 2748.22 2171 2755.21C2171 2762.21 2177 2769.21 2178 2777.21C2180 2785.21 2185 2792.21 2185 2801.2C2185 2806.2 2190 2812.2 2192 2818.2C2185 2838.2 2185 2839.2 2196 2870.19C2193 2877.19 2187 2883.19 2188 2893.18C2189 2906.18 2187 2919.18 2186 2932.18C2186 2934.18 2185 2937.17 2184 2938.17C2177 2949.17 2176 2961.17 2174 2974.17C2172 2988.16 2170 3001.16 2167 3015.16C2164 3027.16 2157 3037.15 2153 3049.15C2150 3057.15 2145 3065.15 2140 3076.14C2116 3090.14 2090 3107.14 2072 3132.13C2067 3138.13 2061 3143.13 2056 3148.13C2054 3150.13 2052 3151.13 2051 3152.13C2036 3176.12 2010 3187.12 1991 3206.12C1983 3214.11 1976 3223.11 1966 3227.11C1956 3231.11 1948 3238.11 1938 3243.11C1927 3249.11 1920 3257.11 1911 3265.1C1904 3272.1 1904 3272.1 1890 3275.1C1885 3283.1 1879 3291.1 1873 3299.1C1867 3307.09 1864 3316.09 1863 3327.09C1863 3337.09 1860 3347.09 1858 3357.08C1858 3359.08 1857 3362.08 1856 3363.08C1845 3371.08 1846 3383.08 1844 3395.08C1842 3404.07 1845 3416.07 1833 3421.07C1833 3421.07 1833 3422.07 1832 3423.07C1827 3435.07 1822 3447.06 1814 3457.06C1809 3463.06 1807 3471.06 1804 3478.06C1797 3484.06 1786 3475.06 1781 3485.06C1773 3486.06 1764 3486.06 1758 3494.05C1748 3489.05 1740 3482.06 1730 3489.05C1704 3483.06 1678 3492.05 1652 3485.06C1648 3484.06 1643 3485.06 1637 3485.06C1632 3479.06 1627 3473.06 1618 3472.06C1605 3470.06 1592 3462.06 1579 3458.06C1572 3456.06 1566 3454.06 1559 3452.06C1547 3449.06 1547 3449.06 1535 3459.06C1524 3459.06 1520 3449.06 1511 3445.06C1482 3443.07 1453 3449.06 1424 3456.06C1411 3459.06 1398 3461.06 1385 3464.06C1372 3467.06 1363 3478.06 1349 3480.06C1345 3480.06 1342 3483.06 1339 3485.06C1320 3498.05 1299 3508.05 1282 3524.05C1271 3534.05 1258 3544.04 1257 3561.04C1257 3564.04 1254 3568.04 1252 3571.04C1248 3576.04 1243 3581.03 1239 3587.03C1236 3592.03 1234 3598.03 1231 3604.03C1225 3608.03 1215 3605.03 1212 3615.03C1211 3617.03 1209 3619.03 1207 3620.03C1182 3626.03 1167 3647.02 1147 3662.02C1146 3663.02 1144 3664.02 1144 3665.02C1144 3681.01 1131 3682.01 1121 3687.01C1110 3692.01 1100 3697.01 1093 3706.01C1078 3700.01 1064 3705.01 1053 3713.01C1046 3717.01 1040 3720 1032 3722C1027 3723 1021 3724 1016 3727C1009 3731 1004 3733 996 3729C994 3728 990 3728 987 3729C967 3737 945 3735 926 3744C916 3731 904 3724 888 3726C885 3726 883 3723 880 3722C875 3720 870 3718.01 865 3716.01C862 3715.01 856 3714.01 855 3711.01C851 3702.01 842 3704.01 836 3701.01C829 3693.01 835 3685.01 833 3676.01C823 3668.02 814 3657.02 810 3644.02C798 3634.02 796 3617.03 787 3605.03C784 3601.03 782 3596.03 779 3594.03C770 3588.03 767 3578.04 761 3570.04C758 3565.04 754 3560.04 751 3554.04C749 3551.04 748 3547.04 747 3544.04C745 3540.04 745 3534.05 742 3532.05C731 3522.05 723 3509.05 713 3499.05C699 3484.06 682 3471.06 665 3456.06C668 3446.06 660 3440.07 651 3434.07C641 3427.07 630 3421.07 620 3414.07C619 3413.07 617 3413.07 616 3412.07C604 3391.08 580 3385.08 564 3370.08C562 3368.08 560 3368.08 558 3367.08C546 3361.08 534 3356.08 522 3350.09C511 3344.09 501 3337.09 490 3331.09C486 3328.09 482 3324.09 478 3321.09C468 3316.09 459 3311.09 449 3307.09C444 3305.09 439 3304.1 436 3299.1C434 3295.1 429 3293.1 425 3291.1C401 3281.1 380 3266.1 356 3258.11C354 3257.11 351 3256.11 351 3254.11C348 3242.11 337 3243.11 329 3239.11C329 3234.11 328 3229.11 328 3225.11C327 3222.11 327 3218.11 325 3217.11C315 3213.11 313 3203.12 309 3195.12C301 3181.12 287 3173.12 275 3164.13C271 3161.13 268 3159.13 266 3154.13C250 3121.13 234 3089.14 217 3056.15C215 3052.15 214 3048.15 212 3043.15C211 3040.15 212 3036.15 211 3034.15C201 3021.16 200 3004.16 191 2989.16C199 2975.17 192 2961.17 188 2947.17C186 2941.17 184 2936.18 185 2929.18C186 2922.18 184 2914.18 181 2907.18C178 2900.18 178 2894.18 179 2887.19C182 2873.19 180 2858.19 184 2844.2C184 2843.2 185 2841.2 185 2839.2C184 2827.2 181 2816.2 183 2804.2C185 2792.21 184 2781.21 180 2769.21C188 2761.21 189 2750.22 190 2739.22C192 2716.22 186 2695.23 181 2673.23C180 2669.23 178 2664.23 175 2658.24C182 2649.24 183 2637.24 182 2624.24C181 2610.25 181 2596.25 180 2582.25C180 2576.25 180 2570.25 174 2565.26C172 2563.26 171 2558.26 171 2554.26C173 2535.26 172 2517.27 162 2500.27C165 2497.27 166 2494.27 169 2492.27C175 2488.27 177 2482.27 176 2476.27C175 2467.28 177 2459.28 181 2451.28C183 2445.28 184 2437.28 185 2430.29C186 2427.29 185 2422.29 187 2421.29C199 2414.29 194 2401.29 198 2390.29C204 2386.29 212 2382.3 212 2372.3C212 2370.3 216 2367.3 218 2366.3C223 2365.3 227 2363.3 229 2359.3C230 2357.3 234 2354.3 236 2354.3C247 2355.3 253 2348.3 260 2342.3C263 2339.3 265 2336.31 269 2335.31C283 2330.31 292 2320.31 302 2310.31C304 2308.31 306 2307.31 308 2306.31C314 2308.31 319 2310.31 326 2313.31C331 2310.31 337 2306.31 344 2302.31C349 2304.31 354 2307.31 361 2310.31C365 2309.31 369 2307.31 373 2305.31C389 2299.31 405 2289.32 423 2289.32C429 2289.32 435 2286.32 441 2284.32C450 2282.32 458 2274.32 467 2281.32C476 2278.32 485 2276.32 493 2272.32C501 2268.32 509 2265.32 519 2264.32C536 2262.32 551 2254.32 566 2245.33C569 2243.33 574 2240.33 576 2241.33C584 2244.33 589 2242.33 595 2237.33C599 2234.33 605 2232.33 610 2230.33C625 2224.33 640 2217.33 650 2203.33C654 2198.34 661 2194.34 667 2190.34C678 2183.34 685 2173.34 689 2161.34C696 2141.35 703 2121.35 710 2102.36C712 2095.36 715 2089.36 719 2083.36C730 2067.36 734 2047.37 739 2029.37C741 2018.37 741 2006.38 743 1994.38Z" fill="#E8E0D5"/>
<path d="M402 1760.43C426 1752.43 449 1752.43 470 1742.43C479 1737.44 490 1738.43 500 1741.43C507 1743.43 515 1744.43 522 1745.43C528 1746.43 534 1747.43 540 1744.43C548 1740.43 556 1742.43 564 1742.43C594 1745.43 623 1743.43 651 1729.44C655 1727.44 658 1726.44 662 1724.44C671 1721.44 679 1716.44 686 1710.44C695 1701.44 708 1697.44 716 1687.45C718 1685.45 721 1684.45 722 1682.45C725 1669.45 736 1665.45 746 1658.45C753 1653.45 760 1648.45 769 1647.45C777 1646.45 785 1640.46 792 1635.46C808 1626.46 824 1615.46 842 1608.46C850 1605.46 857 1603.46 865 1602.46C878 1601.46 892 1599.47 905 1597.47C912 1596.47 919 1596.47 926 1600.46C937 1606.46 948 1608.46 961 1611.46C975 1614.46 989 1621.46 1003 1627.46C1010 1630.46 1016 1633.46 1023 1635.46C1040 1641.46 1056 1648.45 1072 1655.45C1076 1657.45 1081 1660.45 1083 1664.45C1090 1676.45 1102 1682.45 1112 1689.45C1129 1700.44 1144 1713.44 1155 1731.44C1164 1744.43 1173 1758.43 1185 1768.43C1191 1773.43 1194 1781.43 1199 1788.42C1209 1804.42 1219 1820.42 1229 1836.41C1230 1838.41 1230 1840.41 1232 1841.41C1254 1865.41 1261 1897.4 1281 1922.4C1284 1926.39 1286 1930.39 1287 1935.39C1291 1956.39 1297 1977.38 1306 1997.38C1307 1998.38 1307 2000.38 1307 2001.38C1312 2031.37 1324 2058.37 1333 2086.36C1339 2106.36 1345 2126.35 1347 2147.35C1348 2155.34 1348 2163.34 1355 2169.34C1356 2170.34 1357 2173.34 1357 2175.34C1357 2193.34 1365 2210.33 1365 2229.33C1365 2249.32 1363 2270.32 1371 2289.32C1373 2293.31 1372 2298.31 1372 2303.31C1371 2321.31 1372 2339.3 1372 2358.3C1372 2383.3 1373 2408.29 1364 2432.28C1360 2443.28 1355 2455.28 1357 2467.28C1357 2468.28 1357 2470.28 1356 2471.28C1345 2491.27 1347 2515.27 1336 2534.26C1334 2538.26 1334 2543.26 1333 2548.26C1331 2561.26 1329 2573.25 1326 2586.25C1324 2594.25 1323 2602.25 1315 2607.25C1313 2608.25 1312 2612.25 1312 2614.25C1314 2623.24 1309 2629.24 1305 2636.24C1299 2644.24 1294 2653.24 1287 2660.24C1279 2667.23 1274 2677.23 1267 2686.23C1272 2697.23 1267 2705.23 1259 2712.22C1246 2723.22 1235 2736.22 1226 2750.22C1220 2758.21 1214 2766.21 1212 2777.21C1210 2784.21 1206 2789.21 1201 2793.21C1197 2796.21 1194 2799.2 1190 2803.2C1172 2820.2 1161 2840.2 1155 2863.19C1154 2868.19 1151 2873.19 1149 2878.19C1146 2884.19 1144 2890.19 1141 2896.18C1138 2901.18 1137 2908.18 1133 2912.18C1120 2923.18 1117 2939.17 1113 2953.17C1108 2970.17 1100 2985.16 1094 3002.16C1092 3007.16 1090 3012.16 1088 3017.16C1087 3021.16 1086 3026.16 1084 3031.15C1072 3057.15 1061 3082.14 1049 3108.14C1046 3114.14 1044 3120.14 1043 3127.13C1040 3142.13 1035 3157.13 1034 3173.12C1034 3179.12 1030 3186.12 1026 3191.12C1019 3202.12 1013 3213.12 1007 3224.11C995 3245.11 982 3266.1 969 3286.1C964 3294.1 956 3300.1 950 3307.09C948 3309.09 946 3311.09 943 3311.09C928 3315.09 916 3323.09 904 3332.09C893 3341.09 881 3345.09 867 3346.09C854 3347.09 839 3349.09 828 3360.08C823 3365.08 814 3365.08 807 3363.08C799 3361.08 791 3360.08 783 3363.08C776 3365.08 769 3365.08 762 3359.08C758 3355.08 750 3355.08 745 3355.08C735 3356.08 726 3354.08 717 3353.08C707 3352.09 697 3353.08 687 3353.08C680 3353.08 673 3355.08 667 3352.08C652 3345.09 637 3347.09 622 3346.09C617 3346.09 612 3346.09 608 3346.09C588 3343.09 568 3342.09 548 3348.09C544 3349.09 538 3349.09 534 3347.09C519 3342.09 506 3348.09 494 3353.08C483 3358.08 472 3364.08 459 3360.08C453 3358.08 447 3363.08 443 3367.08C433 3374.08 422 3379.08 410 3380.08C406 3380.08 401 3383.08 397 3385.08C388 3388.08 380 3394.08 370 3388.08C368 3387.08 365 3388.08 362 3389.08C359 3390.08 356 3391.08 352 3391.08C340 3392.08 328 3391.08 317 3397.08C315 3398.08 313 3398.08 311 3398.08C275 3399.07 240 3400.07 204 3400.07C200 3400.07 196 3399.07 192 3398.08C176 3394.08 159 3389.08 143 3384.08C140 3383.08 137 3381.08 134 3380.08C118 3371.08 103 3361.08 87.0003 3353.08C77.0003 3348.09 66.0003 3345.09 55.0003 3341.09C45.0003 3337.09 36.0003 3333.09 29.0003 3324.09C25.0003 3319.09 17.0003 3315.09 10.0003 3314.09C-0.999725 3313.09 -6.99976 3309.09 -13.9998 3302.1C-24.9998 3291.1 -36.9997 3279.1 -48.9997 3268.1C-49.9997 3267.1 -50.9997 3267.1 -51.9997 3266.1C-59.9997 3258.11 -66.9997 3248.11 -75.9997 3241.11C-84.9997 3235.11 -95.9997 3230.11 -105 3222.11C-112 3216.11 -121 3212.12 -129 3206.12C-134 3203.12 -139 3199.12 -143 3194.12C-150 3186.12 -150 3186.12 -150 3173.12C-172 3149.13 -193 3125.13 -214 3102.14C-221 3094.14 -228 3087.14 -228 3076.14C-228 3073.15 -232 3071.15 -233 3068.15C-244 3053.15 -256 3038.15 -267 3023.16C-269 3020.16 -273 3016.16 -273 3013.16C-274 2999.16 -284 2991.16 -293 2981.17C-301 2972.17 -307 2964.17 -308 2951.17C-309 2945.17 -313 2939.17 -317 2933.18C-324 2922.18 -330 2911.18 -330 2898.18C-330 2892.18 -332 2886.19 -337 2882.19C-345 2875.19 -347 2866.19 -349 2857.19C-353 2841.2 -358 2826.2 -362 2810.2C-364 2804.2 -365 2798.21 -366 2792.21C-366 2789.21 -366 2786.21 -365 2784.21C-359 2772.21 -361 2758.21 -357 2745.22C-353 2734.22 -349 2723.22 -344 2713.22C-339 2702.23 -337 2691.23 -335 2680.23C-334 2673.23 -331 2666.23 -329 2659.24C-328 2656.24 -325 2653.24 -323 2652.24C-315 2649.24 -311 2644.24 -310 2636.24C-309 2627.24 -304 2620.24 -298 2613.25C-285 2596.25 -273 2579.25 -261 2562.26C-259 2559.26 -257 2555.26 -254 2552.26C-242 2538.26 -236 2523.26 -235 2505.27C-235 2502.27 -235 2499.27 -234 2497.27C-231 2489.27 -227 2481.27 -224 2473.28C-222 2465.28 -223 2457.28 -221 2449.28C-218 2435.28 -212 2422.29 -209 2408.29C-207 2399.29 -205 2390.29 -199 2382.3C-196 2379.3 -197 2373.3 -196 2368.3C-194 2358.3 -192 2348.3 -182 2343.3C-181 2342.3 -180 2341.3 -179 2340.3C-173 2324.31 -159 2313.31 -149 2300.31C-147 2298.31 -145 2294.31 -145 2291.32C-145 2278.32 -138 2270.32 -128 2263.32C-122 2259.32 -116 2255.32 -110 2250.32C-108 2248.32 -105 2247.32 -104 2245.33C-102 2234.33 -92.9997 2232.33 -84.9997 2230.33C-78.9997 2228.33 -73.9997 2226.33 -67.9997 2223.33C-65.9997 2222.33 -63.9997 2220.33 -62.9997 2220.33C-46.9997 2218.33 -33.9998 2208.33 -18.9998 2203.33C-11.9998 2201.33 -4.99973 2198.34 2.00027 2204.33C4.00027 2206.33 9.00027 2206.33 12.0003 2205.33C28.0003 2197.34 46.0003 2198.34 63.0003 2195.34C75.0003 2193.34 87.0003 2191.34 99.0003 2191.34C116 2191.34 132 2186.34 146 2176.34C153 2170.34 161 2165.34 171 2163.34C177 2162.34 180 2158.34 184 2153.35C199 2135.35 210 2115.35 214 2092.36C215 2088.36 215 2084.36 216 2080.36C225 2061.37 227 2040.37 232 2020.37C237 1996.38 242 1971.38 240 1946.39C239 1941.39 240 1936.39 242 1932.39C253 1913.4 254 1892.4 259 1872.41C263 1855.41 268 1838.41 283 1826.42C286 1823.42 289 1820.42 291 1817.42C298 1805.42 309 1799.42 321 1795.42C322 1795.42 324 1795.42 325 1794.42C344 1781.43 368 1778.43 390 1773.43C394 1771.43 401 1769.43 402 1760.43Z" fill="#DEB696"/>
<path d="M2495 -244.134C2522 -247.133 2547 -241.135 2572 -248.133C2583 -251.132 2594 -247.133 2604 -243.134C2611 -240.135 2619 -236.136 2626 -233.136C2632 -230.137 2638 -229.137 2645 -230.137C2654 -232.136 2662 -229.137 2671 -226.138C2702 -216.14 2734 -211.141 2766 -220.139C2770 -221.139 2775 -222.139 2779 -222.139C2789 -223.138 2799 -226.138 2808 -232.136C2820 -239.135 2835 -241.135 2846 -250.133C2848 -252.132 2852 -252.132 2853 -254.132C2859 -267.129 2872 -269.128 2884 -274.127C2893 -278.126 2901 -281.126 2911 -280.126C2920 -279.126 2929 -284.125 2938 -287.125C2958 -293.123 2977 -301.121 2997 -304.121C3006 -305.121 3014 -306.12 3023 -304.121C3037 -302.121 3052 -301.121 3067 -300.122C3075 -299.122 3082 -297.122 3089 -292.123C3099 -283.125 3111 -278.126 3123 -272.128C3138 -266.129 3151 -255.131 3164 -246.133C3171 -241.135 3177 -237.135 3184 -232.136C3200 -222.139 3216 -211.141 3231 -200.143C3235 -197.144 3239 -193.145 3240 -188.146C3245 -174.149 3256 -165.151 3265 -155.153C3280 -139.157 3293 -122.16 3301 -101.165C3307 -85.1684 3314 -69.1719 3324 -54.1751C3329 -47.1767 3331 -38.1786 3334 -30.1803C3341 -11.1844 3348 8.81122 3354 27.8071C3355 29.8067 3355 32.806 3356 33.8058C3374 63.7993 3374 100.791 3389 131.785C3391 135.784 3392 141.782 3392 146.781C3391 170.776 3393 193.771 3398 216.766C3398 217.766 3399 219.765 3398 220.765C3396 253.758 3403 285.751 3406 317.744C3408 340.739 3409 362.734 3407 385.729C3406 394.727 3404 402.726 3410 410.724C3411 411.724 3411 414.723 3411 416.723C3407 435.719 3411 455.714 3407 475.71C3403 496.705 3396 518.7 3399 540.696C3400 545.695 3398 550.693 3397 555.692C3391 574.688 3388 594.684 3384 613.68C3379 639.674 3374 666.668 3358 690.663C3351 701.661 3343 712.658 3343 726.655C3343 727.655 3342 729.655 3341 730.654C3325 748.651 3322 775.645 3305 793.641C3302 797.64 3301 802.639 3299 807.638C3294 820.635 3288 833.632 3283 846.629C3279 854.627 3276 862.626 3266 865.625C3264 866.625 3261 869.624 3261 872.624C3261 882.621 3255 888.62 3248 894.619C3240 902.617 3233 909.615 3223 915.614C3213 921.613 3205 930.611 3196 938.609C3198 950.607 3192 958.605 3181 964.604C3165 973.602 3150 984.599 3137 997.596C3129 1005.59 3121 1012.59 3116 1022.59C3113 1029.59 3107 1033.59 3100 1037.59C3095 1039.59 3091 1042.59 3087 1045.59C3064 1058.58 3048 1078.58 3036 1101.57C3033 1106.57 3030 1111.57 3026 1116.57C3022 1122.57 3017 1128.57 3013 1134.57C3009 1139.57 3006 1146.56 3000 1149.56C2984 1158.56 2977 1174.56 2969 1188.55C2960 1205.55 2948 1220.55 2937 1235.54C2934 1240.54 2931 1245.54 2928 1250.54C2925 1254.54 2924 1259.54 2921 1263.54C2903 1288.53 2884 1312.53 2865 1337.52C2860 1343.52 2857 1349.52 2854 1356.52C2847 1371.52 2838 1386.51 2834 1402.51C2832 1409.51 2827 1415.51 2821 1420.5C2811 1430.5 2802 1440.5 2793 1451.5C2776 1471.49 2757 1490.49 2738 1508.49C2731 1515.48 2721 1520.48 2713 1526.48C2711 1528.48 2708 1529.48 2705 1529.48C2688 1529.48 2673 1535.48 2659 1542.48C2645 1549.48 2632 1551.48 2616 1549.48C2601 1547.48 2586 1546.48 2571 1555.48C2564 1559.47 2555 1557.47 2548 1553.48C2540 1549.48 2532 1547.48 2523 1547.48C2515 1547.48 2508 1546.48 2502 1537.48C2499 1532.48 2491 1530.48 2484 1529.48C2473 1528.48 2464 1524.48 2454 1521.48C2444 1518.48 2432 1516.48 2422 1514.48C2415 1512.48 2406 1512.48 2401 1508.49C2387 1497.49 2370 1495.49 2354 1491.49C2349 1490.49 2344 1489.49 2339 1487.49C2318 1479.49 2297 1473.49 2275 1476.49C2270 1477.49 2265 1475.49 2260 1472.49C2245 1463.5 2230 1466.49 2215 1469.49C2202 1472.49 2190 1475.49 2176 1469.49C2170 1466.49 2163 1470.49 2157 1472.49C2145 1477.49 2132 1480.49 2118 1478.49C2113 1477.49 2108 1480.49 2103 1480.49C2093 1481.49 2083 1485.49 2074 1477.49C2072 1475.49 2068 1476.49 2066 1476.49C2062 1476.49 2059 1477.49 2055 1476.49C2042 1474.49 2030 1470.49 2016 1474.49C2014 1475.49 2012 1474.49 2009 1474.49C1971 1467.49 1933 1459.5 1894 1451.5C1890 1450.5 1886 1448.5 1882 1446.5C1866 1438.5 1849 1429.5 1833 1420.5C1830 1418.51 1827 1416.51 1824 1413.51C1809 1400.51 1795 1386.51 1780 1373.51C1770 1365.52 1759 1360.52 1748 1353.52C1738 1347.52 1729 1340.52 1724 1328.52C1721 1322.53 1713 1315.53 1706 1313.53C1695 1310.53 1689 1303.53 1683 1294.53C1674 1279.54 1663 1265.54 1654 1250.54C1653 1249.54 1652 1248.54 1651 1247.54C1645 1236.54 1640 1224.55 1631 1215.55C1623 1206.55 1613 1199.55 1605 1188.55C1599 1180.56 1591 1173.56 1584 1166.56C1580 1161.56 1575 1156.56 1572 1150.56C1566 1140.57 1566 1139.57 1569 1126.57C1552 1095.58 1535 1065.58 1518 1035.59C1512 1025.59 1507 1016.59 1509 1004.59C1509 1001.6 1507 997.596 1505 994.597C1496 975.601 1488 956.605 1479 938.609C1477 934.61 1474 929.611 1475 925.612C1478 909.615 1468 899.618 1461 887.62C1455 876.623 1450 865.625 1452 852.628C1453 845.629 1449 838.631 1447 831.632C1442 818.635 1438 805.638 1441 790.641C1442 783.643 1441 777.644 1437 771.646C1431 762.647 1430 752.65 1430 742.652C1430 724.656 1428 707.659 1427 689.663C1427 682.665 1427 676.666 1427 669.668C1427 666.668 1429 663.669 1430 661.669C1439 649.672 1441 634.675 1448 622.678C1455 611.68 1462 601.682 1469 591.685C1476 581.687 1482 570.689 1486 558.692C1489 551.693 1493 544.695 1498 537.696C1500 534.697 1503 531.698 1506 531.698C1515 530.698 1521 525.699 1524 517.701C1528 508.703 1534 501.704 1542 495.705C1559 480.709 1576 465.712 1593 450.715C1596 447.716 1599 444.717 1603 441.717C1619 429.72 1629 414.723 1635 395.727C1636 392.728 1636 389.728 1638 387.729C1643 379.731 1650 372.732 1654 363.734C1658 355.736 1658 346.738 1662 338.74C1669 324.743 1678 311.745 1685 298.748C1690 289.75 1693 279.752 1702 272.754C1706 269.755 1706 263.756 1709 258.757C1714 248.759 1718 238.761 1730 235.762C1731 235.762 1733 234.762 1733 233.762C1743 217.766 1760 209.768 1775 197.77C1778 195.771 1781 192.771 1781 189.772C1784 175.775 1793 168.776 1805 163.778C1813 160.778 1820 157.779 1828 154.779C1831 153.78 1834 152.78 1835 150.78C1840 139.783 1850 139.783 1859 138.783C1865 137.783 1872 136.783 1878 135.784C1880 135.784 1882 133.784 1884 133.784C1902 135.784 1918 127.785 1935 125.786C1943 124.786 1951 123.786 1957 131.785C1959 133.784 1964 135.784 1967 134.784C1986 129.785 2005 134.784 2024 135.784C2037 135.784 2050 136.783 2063 139.783C2081 143.782 2100 142.782 2117 134.784C2126 130.785 2136 125.786 2147 126.786C2153 126.786 2158 122.786 2163 119.787C2184 104.79 2199 84.7947 2210 61.7997C2212 57.8006 2213 52.8016 2215 49.8023C2229 31.8062 2236 9.81097 2246 -10.1847C2258 -35.1793 2269 -60.1738 2271 -87.1679C2272 -92.1668 2273 -98.1656 2276 -101.165C2292 -118.161 2299 -140.156 2308 -161.152C2316 -178.148 2326 -195.145 2344 -204.143C2348 -206.142 2351 -209.141 2354 -212.141C2364 -223.138 2377 -226.138 2391 -228.137C2392 -228.137 2394 -228.137 2395 -228.137C2419 -238.135 2444 -235.136 2469 -235.136C2483 -234.136 2492 -234.136 2495 -244.134Z" fill="#E8E0D5"/>
<path d="M1169 1421.5C1165 1422.5 1162 1423.5 1159 1423.5C1153 1424.5 1147 1424.5 1141 1425.5C1134 1426.5 1128 1427.5 1124 1434.5C1120 1432.5 1117 1431.5 1115 1429.5C1111 1425.5 1108 1422.5 1102 1420.5C1100 1419.5 1099 1417.5 1097 1416.5C1094 1412.51 1090 1407.51 1089 1403.51C1086 1393.51 1079 1385.51 1079 1375.51C1079 1373.51 1078 1370.51 1077 1369.52C1072 1365.52 1071 1359.52 1072 1354.52C1073 1342.52 1073 1330.52 1071 1319.53C1070 1309.53 1070 1299.53 1070 1289.53C1070 1285.53 1069 1280.53 1069 1276.54C1069 1273.54 1069 1270.54 1070 1267.54C1072 1260.54 1073 1252.54 1074 1245.54C1076 1234.54 1076 1224.55 1076 1214.55C1076 1209.55 1076 1203.55 1077 1198.55C1083 1175.56 1082 1158.56 1074 1138.57C1070 1129.57 1067 1119.57 1062 1110.57C1058 1103.57 1055 1095.57 1052 1087.58C1051 1085.58 1051 1082.58 1050 1079.58C1049 1072.58 1047 1065.58 1047 1058.58C1047 1052.58 1044 1049.58 1040 1047.59C1040 1045.59 1039 1045.59 1039 1044.59C1037 1033.59 1041 1024.59 1050 1016.59C1056 1010.59 1060 1003.59 1065 997.596C1065 995.596 1065 994.597 1065 994.597C1061 985.599 1062 982.599 1071 979.6C1073 978.6 1075 978.6 1077 977.6C1083 975.601 1090 974.601 1096 972.601C1104 970.602 1111 968.602 1119 969.602C1125 970.602 1132 968.602 1139 969.602C1148 970.602 1156 971.602 1166 972.601C1170 966.603 1176 967.603 1182 970.602C1186 972.602 1190 974.601 1193 977.6C1202 982.599 1212 985.599 1222 989.598C1227 991.597 1232 994.597 1237 998.596C1239 999.596 1240 1001.6 1242 1002.59C1256 1009.59 1266 1021.59 1277 1031.59C1278 1032.59 1279 1033.59 1281 1034.59C1283 1034.59 1285 1033.59 1287 1033.59C1289 1033.59 1292 1034.59 1293 1036.59C1295 1039.59 1297 1043.59 1298 1046.59C1300 1052.58 1302 1058.58 1304 1063.58C1305 1065.58 1307 1067.58 1308 1069.58C1309 1071.58 1311 1073.58 1312 1076.58C1313 1079.58 1313 1083.58 1313 1086.58C1312 1099.57 1314 1111.57 1316 1124.57C1317 1128.57 1317 1132.57 1316 1136.57C1314 1142.56 1315 1146.56 1317 1151.56C1319 1158.56 1321 1165.56 1317 1172.56C1316 1173.56 1317 1175.56 1317 1177.56C1317 1182.56 1317 1188.55 1316 1193.55C1315 1199.55 1314 1206.55 1314 1212.55C1314 1216.55 1314 1220.55 1311 1223.55C1310 1224.55 1310 1227.55 1309 1229.55C1307 1236.54 1304 1242.54 1300 1248.54C1297 1253.54 1294 1258.54 1291 1263.54C1290 1264.54 1290 1266.54 1289 1266.54C1278 1274.54 1273 1288.53 1261 1295.53C1255 1303.53 1246 1308.53 1238 1314.53C1234 1317.53 1230 1321.53 1227 1325.52C1225 1328.52 1222 1331.52 1219 1333.52C1213 1339.52 1208 1345.52 1205 1353.52C1203 1358.52 1200 1363.52 1196 1368.52C1190 1375.51 1185 1383.51 1182 1392.51C1180 1398.51 1177 1404.51 1175 1410.51C1171 1412.51 1170 1416.5 1169 1421.5Z" fill="#DEB696"/>
<path d="M1392 2527.26C1394 2527.26 1396 2528.26 1397 2530.26L1403 2537.26C1408 2542.26 1413 2547.26 1417 2552.26C1427 2563.26 1438 2573.25 1448 2584.25C1457 2594.25 1467 2603.25 1476 2613.25C1496 2634.24 1514 2658.24 1531 2688.23C1536 2697.23 1540 2705.23 1543 2714.22C1546 2723.22 1548 2731.22 1551 2738.22C1556 2752.21 1564 2765.21 1575 2778.21C1591 2797.21 1607 2816.2 1623 2835.2L1636 2850.19C1637 2851.19 1638 2851.19 1639 2852.19C1639 2852.19 1640 2852.19 1641 2853.19L1645 2855.19L1643 2848.19C1643 2847.19 1642 2846.19 1642 2845.19C1641 2842.2 1640 2839.2 1639 2835.2C1637 2828.2 1634 2821.2 1632 2814.2C1626 2790.21 1619 2764.21 1616 2738.22C1614 2724.22 1612 2705.23 1613 2685.23C1614 2660.24 1619 2635.24 1628 2609.25C1641 2571.25 1647 2531.26 1647 2491.27V2482.27C1647 2462.28 1647 2441.28 1644 2421.29C1644 2420.29 1644 2420.29 1644 2419.29C1645 2419.29 1646 2419.29 1647 2419.29C1647 2419.29 1647 2419.29 1648 2421.29C1651 2433.28 1655 2445.28 1658 2457.28C1663 2478.27 1668 2500.27 1671 2526.26C1673 2542.26 1675 2559.26 1676 2576.25C1677 2606.25 1677 2637.24 1675 2668.23C1673 2697.23 1673 2723.22 1677 2749.22C1681 2777.21 1685 2804.2 1689 2830.2C1691 2844.2 1694 2859.19 1697 2872.19C1698 2877.19 1699 2883.19 1700 2888.19C1700 2890.19 1701 2891.18 1701 2893.18L1702 2897.18H1704C1706 2897.18 1707 2895.18 1708 2894.18C1708 2893.18 1708 2893.18 1708 2892.18C1710 2876.19 1715 2860.19 1720 2845.19C1722 2840.2 1724 2834.2 1727 2829.2C1728 2826.2 1729 2824.2 1731 2821.2C1737 2805.2 1740 2788.21 1739 2770.21C1738 2750.22 1740 2728.22 1745 2704.23V2702.23C1746 2700.23 1746 2697.23 1746 2695.23C1746 2692.23 1747 2690.23 1747 2687.23C1748 2680.23 1749 2672.23 1750 2665.23C1751 2648.24 1753 2631.24 1754 2615.24C1755 2607.25 1755 2599.25 1756 2591.25C1756 2589.25 1756 2587.25 1757 2584.25V2582.25C1759 2582.25 1761 2582.25 1761 2582.25C1761 2582.25 1762 2583.25 1762 2585.25C1762 2593.25 1762 2601.25 1762 2609.25C1762 2630.24 1762 2658.24 1768 2686.23C1770 2695.23 1772 2707.22 1774 2718.22C1775 2725.22 1777 2733.22 1778 2740.22C1779 2745.22 1780 2750.22 1781 2755.21C1781 2756.21 1781 2759.21 1785 2760.21H1786L1788 2757.21C1789 2756.21 1789 2754.21 1790 2753.21C1794 2744.22 1799 2735.22 1806 2726.22C1814 2715.22 1822 2706.23 1831 2699.23C1846 2685.23 1858 2669.23 1868 2648.24C1876 2630.24 1884 2612.25 1892 2594.25L1903 2570.25C1903 2569.25 1904 2569.25 1904 2568.25C1905 2566.26 1905 2565.26 1906 2564.26C1907 2563.26 1908 2562.26 1909 2562.26C1909 2562.26 1910 2562.26 1911 2562.26V2563.26C1911 2564.26 1911 2565.26 1911 2566.26L1909 2577.25C1907 2587.25 1905 2598.25 1902 2608.25C1896 2633.24 1893 2653.24 1892 2672.23C1892 2675.23 1892 2678.23 1891 2681.23V2685.23C1890 2699.23 1887 2712.22 1882 2726.22C1880 2730.22 1879 2734.22 1877 2738.22C1871 2751.22 1863 2764.21 1852 2778.21C1838 2797.21 1827 2816.2 1820 2836.2V2837.2C1819 2840.2 1818 2842.2 1817 2845.19L1816 2846.19C1806 2868.19 1793 2889.19 1777 2907.18C1769 2916.18 1761 2923.18 1752 2929.18C1750 2930.18 1748 2932.18 1745 2933.18C1742 2935.18 1740 2936.18 1737 2938.17L1736 2939.17C1731 2942.17 1726 2946.17 1722 2950.17C1718 2954.17 1715 2958.17 1713 2963.17C1711 2968.17 1710 2973.17 1711 2978.17C1712 2997.16 1715 3023.16 1723 3047.15C1723 3048.15 1724 3051.15 1728 3051.15H1729L1732 3044.15C1734 3039.15 1736 3033.15 1738 3028.16L1739 3025.16C1743 3015.16 1746 3006.16 1750 2996.16V2995.16C1758 2974.17 1772 2958.17 1790 2946.17L1792 2944.17C1794 2943.17 1797 2941.17 1799 2940.17L1803 2938.17C1810 2934.18 1817 2930.18 1825 2926.18C1844 2916.18 1860 2903.18 1874 2885.19L1890 2864.19C1898 2853.19 1908 2844.2 1919 2835.2L1928 2828.2C1933 2824.2 1938 2820.2 1943 2816.2C1975 2791.21 2001 2766.21 2021 2737.22C2028 2728.22 2035 2718.22 2043 2710.22C2046 2707.22 2048 2704.23 2051 2700.23C2053 2698.23 2054 2696.23 2056 2695.23C2058 2694.23 2059 2693.23 2061 2696.23C2061 2697.23 2060 2698.23 2060 2699.23C2059 2701.23 2059 2702.23 2058 2704.23C2058 2705.23 2057 2706.22 2057 2707.22C2050 2723.22 2040 2738.22 2029 2751.22C2023 2758.21 2017 2764.21 2012 2770.21L2008 2774.21C1996 2787.21 1986 2799.2 1978 2811.2C1966 2830.2 1955 2849.19 1946 2865.19C1932 2890.19 1914 2913.18 1892 2931.18C1853 2964.17 1818 2988.16 1782 3007.16C1761 3018.16 1746 3036.15 1736 3061.15C1735 3062.15 1735 3064.15 1734 3065.15C1731 3074.15 1731 3082.14 1733 3090.14C1734 3093.14 1735 3097.14 1736 3101.14C1736 3103.14 1737 3104.14 1737 3106.14L1742 3125.13C1748 3151.13 1755 3179.12 1760 3206.12C1760 3208.12 1761 3210.12 1761 3212.12C1761 3214.11 1762 3216.11 1762 3218.11C1761 3214.11 1759 3210.12 1758 3206.12C1754 3193.12 1750 3180.12 1746 3167.12C1742 3153.13 1738 3140.13 1734 3126.13C1733 3123.13 1732 3120.14 1729 3118.14C1718 3111.14 1708 3104.14 1695 3101.14C1683 3098.14 1674 3097.14 1665 3096.14C1634 3094.14 1602 3097.14 1570 3103.14C1530 3112.14 1488 3114.14 1446 3110.14C1424 3108.14 1404 3099.14 1386 3084.14C1381 3080.14 1376 3075.14 1370 3069.15C1352 3052.15 1333 3036.15 1312 3020.16C1305 3015.16 1298 3009.16 1291 3004.16L1289 3002.16C1287 3001.16 1285 2999.16 1284 2998.16C1284 2997.16 1284 2996.16 1284 2995.16C1284 2994.16 1285 2993.16 1287 2993.16C1289 2994.16 1291 2994.16 1294 2995.16C1312 3001.16 1328 3010.16 1348 3022.16C1376 3039.15 1406 3054.15 1435 3066.15C1443 3069.15 1451 3072.15 1460 3075.14C1479 3081.14 1497 3080.14 1516 3072.15C1523 3069.15 1531 3065.15 1540 3061.15C1551 3056.15 1559 3052.15 1568 3050.15C1599 3042.15 1628 3044.15 1656 3057.15C1666 3061.15 1675 3067.15 1684 3073.15C1699 3083.14 1710 3092.14 1720 3101.14C1720 3101.14 1720 3101.14 1721 3102.14C1722 3103.14 1724 3105.14 1728 3104.14L1729 3103.14V3101.14C1724 3079.14 1716 3056.15 1710 3038.15V3037.15L1700 3038.15C1694 3038.15 1689 3039.15 1684 3039.15C1668 3040.15 1651 3040.15 1633 3040.15C1608 3039.15 1584 3038.15 1562 3038.15C1552 3038.15 1542 3038.15 1532 3038.15C1523 3038.15 1514 3038.15 1505 3038.15C1489 3038.15 1474 3036.15 1460 3034.15C1442 3031.15 1424 3025.16 1407 3015.16C1377 2999.16 1349 2987.16 1323 2977.17C1317 2975.17 1311 2972.17 1305 2969.17L1300 2967.17C1298 2966.17 1296 2965.17 1294 2964.17C1294 2964.17 1293 2963.17 1294 2961.17C1295 2959.17 1296 2957.17 1299 2958.17C1301 2958.17 1304 2959.17 1306 2960.17C1327 2967.17 1349 2974.17 1370 2981.17C1386 2986.16 1401 2989.16 1416 2990.16C1439 2992.16 1461 2991.16 1483 2987.16C1514 2982.16 1541 2985.16 1566 2995.16C1575 2999.16 1585 3003.16 1594 3006.16C1601 3009.16 1608 3011.16 1614 3014.16C1641 3025.16 1669 3030.15 1698 3030.15H1699C1701 3030.15 1703 3030.15 1705 3028.16V3027.16L1699 2980.17L1671 2960.17C1647 2943.17 1620 2935.18 1592 2938.17C1559 2941.17 1526 2938.17 1493 2928.18C1489 2927.18 1485 2926.18 1482 2925.18C1477 2923.18 1472 2922.18 1466 2920.18C1450 2915.18 1434 2912.18 1417 2912.18C1410 2912.18 1403 2912.18 1396 2912.18C1379 2912.18 1361 2912.18 1343 2912.18C1319 2913.18 1298 2910.18 1277 2905.18C1272 2904.18 1267 2901.18 1261 2899.18C1258 2898.18 1258 2896.18 1258 2895.18C1258 2895.18 1258 2895.18 1258 2894.18C1259 2893.18 1260 2892.18 1262 2891.18C1264 2891.18 1265 2890.19 1267 2890.19C1271 2890.19 1274 2890.19 1278 2889.19H1281C1309 2888.19 1334 2885.19 1357 2881.19C1377 2877.19 1396 2875.19 1415 2875.19C1432 2875.19 1449 2875.19 1465 2875.19H1485C1525 2875.19 1560 2882.19 1593 2896.18L1595 2893.18L1593 2891.18C1592 2890.18 1591 2888.19 1589 2887.19C1572 2870.19 1556 2850.19 1542 2830.2C1532 2814.2 1523 2797.21 1516 2776.21C1511 2761.21 1505 2746.22 1498 2731.22C1493 2719.22 1487 2708.22 1482 2697.23C1478 2689.23 1474 2680.23 1470 2672.23C1453 2635.24 1438 2605.25 1421 2578.25C1416 2569.25 1410 2561.26 1405 2552.26C1402 2547.26 1398 2542.26 1395 2537.26C1393 2534.26 1391 2531.26 1390 2528.26V2527.26C1390 2528.26 1391 2527.26 1392 2527.26ZM1640 2938.17L1636 2934.18C1610 2911.18 1585 2897.18 1556 2890.19C1534 2885.19 1511 2883.19 1488 2883.19C1460 2883.19 1437 2884.19 1416 2884.19C1396 2884.19 1377 2887.19 1355 2891.18C1341 2893.18 1326 2895.18 1311 2897.18C1305 2898.18 1298 2898.18 1291 2898.18C1288 2898.18 1284 2898.18 1280 2898.18L1279 2902.18L1283 2903.18C1285 2904.18 1286 2904.18 1287 2904.18C1300 2907.18 1315 2908.18 1333 2908.18C1341 2908.18 1350 2908.18 1358 2907.18C1366 2907.18 1373 2907.18 1381 2907.18C1395 2907.18 1405 2906.18 1415 2905.18C1443 2903.18 1472 2903.18 1505 2907.18H1507C1528 2909.18 1550 2912.18 1570 2917.18C1588 2921.18 1604 2927.18 1619 2933.18C1624 2935.18 1628 2937.17 1636 2937.17L1640 2938.17ZM1687 2964.17V2961.17C1687 2957.17 1685 2955.17 1684 2953.17L1683 2952.17C1657 2922.18 1632 2892.18 1606 2861.19C1585 2837.2 1569 2814.2 1555 2792.21C1546 2777.21 1538 2761.21 1531 2746.22L1527 2737.22C1509 2700.23 1489 2664.23 1465 2626.24C1459 2616.24 1452 2608.25 1445 2601.25L1442 2603.25V2604.25C1442 2605.25 1443 2606.25 1443 2607.25C1461 2640.24 1477 2674.23 1492 2707.22C1497 2717.22 1501 2727.22 1506 2737.22C1512 2749.22 1516 2762.21 1521 2775.21L1524 2784.21C1529 2797.21 1535 2809.2 1542 2821.2C1554 2841.2 1569 2859.19 1585 2875.19C1612 2902.18 1634 2923.18 1655 2940.17C1661 2945.17 1667 2949.17 1672 2953.17L1678 2957.17C1679 2958.17 1680 2958.17 1681 2959.17C1682 2959.17 1682 2959.17 1683 2960.17L1687 2964.17ZM1465 2620.24L1466 2621.24L1475 2636.24C1484 2650.24 1492 2665.23 1501 2679.23C1513 2700.23 1525 2724.22 1538 2751.22C1553 2784.21 1574 2817.2 1602 2851.19C1617 2870.19 1632 2888.19 1647 2907.18L1671 2936.17C1672 2937.17 1673 2938.17 1674 2939.17L1677 2942.17L1680 2940.17C1680 2939.17 1679 2937.17 1679 2936.17C1679 2934.18 1678 2933.18 1678 2932.18C1672 2918.18 1666 2904.18 1660 2889.19C1659 2886.19 1657 2883.19 1655 2880.19C1645 2865.19 1634 2851.19 1621 2836.2L1610 2823.2C1601 2812.2 1591 2801.2 1582 2790.21C1569 2775.21 1560 2762.21 1554 2749.22C1549 2740.22 1546 2730.22 1543 2721.22L1541 2716.22C1538 2706.22 1534 2697.23 1528 2687.23C1512 2660.23 1495 2637.24 1476 2616.24C1474 2614.24 1473 2612.25 1471 2610.25L1470 2609.25L1471 2608.25L1469 2607.25L1467 2605.25V2606.25C1466 2606.25 1465 2606.25 1464 2608.25V2609.25V2610.25C1464 2611.25 1465 2611.25 1466 2612.25C1463 2617.24 1464 2618.24 1465 2620.24ZM1352 3048.15C1352 3049.15 1352 3049.15 1353 3050.15C1356 3053.15 1359 3056.15 1363 3059.15C1371 3067.15 1379 3075.14 1388 3082.14C1404 3097.14 1424 3105.14 1447 3107.14C1485 3110.14 1522 3108.14 1559 3100.14C1597 3092.14 1631 3089.14 1663 3091.14C1664 3091.14 1665 3091.14 1666 3091.14C1667 3091.14 1668 3091.14 1669 3091.14L1676 3090.14C1678 3091.14 1680 3091.14 1681 3092.14C1685 3093.14 1689 3095.14 1693 3096.14L1701 3099.14V3096.14V3095.14C1701 3094.14 1701 3093.14 1700 3092.14C1685 3082.14 1667 3071.15 1648 3063.15C1621 3053.15 1593 3052.15 1566 3060.15C1558 3062.15 1551 3066.15 1543 3069.15C1543 3069.15 1535 3073.15 1533 3074.15C1526 3077.14 1518 3081.14 1511 3083.14C1495 3088.14 1479 3088.14 1463 3084.14C1454 3081.14 1444 3078.14 1435 3074.15C1412 3065.15 1390 3054.15 1368 3042.15C1366 3041.15 1365 3040.15 1363 3039.15L1357 3036.15L1358 3040.15C1358 3041.15 1358 3041.15 1358 3041.15C1358 3042.15 1358 3043.15 1359 3044.15C1362 3047.15 1365 3049.15 1368 3052.15C1367 3051.15 1366 3050.15 1364 3049.15C1363 3048.15 1361 3047.15 1359 3046.15L1357 3045.15C1355 3042.15 1353 3039.15 1349 3038.15C1348 3034.15 1344 3033.15 1342 3033.15L1338 3032.15L1340 3036.15C1341 3038.15 1343 3041.15 1346 3042.15C1346 3045.15 1348 3047.15 1352 3048.15ZM1605 3035.15H1611H1613H1617C1619 3037.15 1622 3036.15 1624 3036.15C1625 3036.15 1625 3036.15 1625 3036.15L1630 3038.15L1632 3035.15C1629 3032.15 1627 3032.15 1626 3033.15C1623 3031.15 1621 3032.15 1619 3032.15C1616 3030.15 1614 3031.15 1612 3032.15C1611 3031.15 1610 3031.15 1609 3031.15C1606 3031.15 1603 3030.15 1600 3030.15C1595 3029.15 1589 3029.15 1584 3028.16C1575 3027.16 1567 3027.16 1558 3026.16C1546 3025.16 1533 3024.16 1521 3023.16C1485 3020.16 1448 3012.16 1413 3004.16L1400 3001.16V3003.16C1400 3007.16 1402 3008.16 1404 3008.16C1428 3022.16 1454 3030.15 1481 3032.15C1498 3033.15 1516 3034.15 1532 3034.15H1534C1550 3034.15 1567 3035.15 1583 3035.15H1605ZM1596 2931.18L1597 2928.18L1596 2927.18C1595 2927.18 1595 2927.18 1594 2926.18C1593 2925.18 1591 2925.18 1590 2925.18C1586 2924.18 1582 2923.18 1577 2922.18C1567 2920.18 1556 2917.18 1545 2916.18C1518 2912.18 1490 2910.18 1461 2909.18C1460 2909.18 1459 2909.18 1458 2909.18H1456H1450L1455 2912.18C1456 2912.18 1456 2913.18 1456 2913.18C1457 2914.18 1457 2914.18 1458 2914.18C1482 2922.18 1506 2929.18 1530 2932.18C1545 2934.18 1561 2934.18 1581 2933.18C1584 2933.18 1594 2932.18 1594 2932.18L1596 2931.18ZM1620 3027.16L1615 3025.16L1614 3024.16C1613 3023.16 1612 3023.16 1611 3023.16C1605 3021.16 1599 3018.16 1592 3016.16C1580 3011.16 1567 3007.16 1554 3002.16C1534 2994.16 1513 2992.16 1489 2995.16C1469 2998.16 1451 2999.16 1434 2999.16C1431 2999.16 1428 2999.16 1425 3001.16L1420 3003.16L1425 3004.16C1464 3013.16 1503 3019.16 1540 3022.16C1555 3023.16 1570 3025.16 1584 3027.16C1591 3028.15 1597 3028.16 1604 3029.15C1607 3029.15 1610 3030.15 1614 3029.15L1620 3027.16ZM1685 2873.19C1686 2869.19 1685 2866.19 1685 2864.19V2862.19C1685 2859.19 1684 2855.19 1684 2852.19C1683 2843.2 1681 2833.2 1680 2824.2C1677 2804.2 1674 2783.21 1671 2762.21C1667 2732.22 1666 2703.23 1668 2674.23C1670 2644.24 1671 2613.25 1671 2581.25C1671 2561.26 1668 2540.26 1666 2520.27C1666 2519.27 1666 2519.27 1665 2518.27C1665 2518.27 1665 2517.27 1664 2517.27L1661 2511.27L1660 2518.27C1660 2519.27 1660 2520.27 1660 2521.27C1660 2523.26 1660 2524.26 1660 2526.26C1660 2550.26 1656 2573.25 1651 2595.25C1648 2608.25 1645 2621.24 1643 2634.24C1638 2659.24 1637 2681.23 1638 2703.23C1640 2727.22 1644 2750.22 1652 2774.21C1656 2788.21 1661 2801.2 1665 2815.2L1673 2841.2L1683 2873.19H1685ZM1688 2920.18L1686 2909.18C1684 2898.18 1681 2887.19 1678 2876.19C1675 2866.19 1672 2856.19 1669 2847.19L1666 2837.2L1662 2824.2C1657 2807.2 1652 2791.21 1646 2774.21C1630 2724.22 1627 2676.23 1637 2629.24C1637 2627.24 1638 2626.24 1638 2624.24C1638 2621.24 1639 2619.24 1640 2617.24C1640 2616.24 1641 2615.24 1642 2614.25L1643 2613.25L1642 2612.25C1642 2611.25 1642 2611.25 1642 2610.25C1642 2610.25 1642 2610.25 1643 2609.25L1644 2607.25L1642 2605.25L1640 2606.25V2605.25C1639 2606.25 1638 2606.25 1637 2607.25C1637 2608.25 1637 2608.25 1637 2609.25H1635L1633 2615.24C1632 2618.24 1631 2622.24 1630 2626.24C1621 2662.23 1618 2695.23 1622 2730.22C1626 2760.21 1631 2788.21 1639 2815.2C1642 2825.2 1645 2835.2 1649 2845.19C1650 2849.19 1652 2853.19 1653 2858.19C1654 2862.19 1655 2865.19 1657 2869.19L1659 2875.19C1663 2887.19 1668 2897.18 1674 2906.18C1676 2910.18 1678 2913.18 1680 2917.18C1681 2919.18 1682 2921.18 1683 2923.18C1683 2924.18 1684 2925.18 1685 2925.18L1686 2927.18H1687C1688 2927.18 1689 2926.18 1690 2925.18C1689 2922.18 1688 2921.18 1688 2920.18ZM1766 2823.2L1767 2821.2C1769 2812.2 1772 2803.2 1775 2794.21C1779 2782.21 1780 2769.21 1777 2754.21C1775 2742.22 1772 2729.22 1769 2717.22C1768 2712.22 1767 2707.22 1766 2702.23C1764 2695.23 1763 2688.23 1761 2681.23L1759 2671.23L1754 2672.23C1754 2672.23 1752 2684.23 1751 2690.23C1748 2703.23 1746 2717.22 1743 2730.22C1742 2737.22 1741 2745.22 1741 2754.21C1741 2768.21 1741 2783.21 1743 2801.2C1746 2834.2 1744 2863.19 1737 2888.19V2889.19C1736 2891.18 1735 2893.18 1738 2896.18L1739 2898.18L1740 2896.18C1742 2894.18 1743 2891.18 1744 2888.19L1745 2886.19C1747 2882.19 1748 2879.19 1749 2875.19C1755 2861.19 1760 2844.2 1766 2823.2ZM1642 3032.15L1636 3031.15H1633L1634 3037.15L1642 3032.15ZM1724 2913.18C1735 2885.19 1742 2835.2 1739 2817.2L1738 2811.2L1735 2816.2C1732 2823.2 1729 2830.2 1726 2837.2C1713 2870.19 1707 2903.18 1706 2939.17V2943.17L1709 2941.17C1714 2937.17 1716 2933.18 1724 2913.18ZM1741 2909.18C1740 2910.18 1740 2911.18 1740 2912.18C1740 2913.18 1740 2914.18 1740 2914.18V2915.18H1741C1744 2915.18 1746 2913.18 1747 2912.18L1748 2911.18C1766 2893.18 1778 2874.19 1786 2854.19C1788 2849.19 1790 2844.2 1791 2839.2C1792 2837.2 1792 2834.2 1793 2832.2C1794 2827.2 1796 2822.2 1797 2817.2C1799 2806.2 1803 2795.21 1807 2784.21C1814 2765.21 1824 2747.22 1837 2730.22C1847 2716.22 1859 2699.23 1869 2680.23C1874 2671.23 1879 2661.23 1883 2650.24C1887 2639.24 1891 2628.24 1894 2615.24C1894 2614.25 1895 2612.25 1895 2611.25L1896 2607.25H1894C1892 2607.25 1890 2608.25 1890 2610.25V2611.25C1889 2614.24 1888 2617.24 1887 2619.24C1885 2624.24 1883 2629.24 1881 2634.24C1877 2644.24 1872 2654.24 1867 2664.23C1861 2676.23 1853 2687.23 1843 2696.23C1838 2701.23 1832 2707.22 1827 2712.22C1812 2728.22 1801 2745.22 1793 2764.21C1792 2767.21 1791 2770.21 1790 2773.21L1789 2777.21C1784 2792.21 1780 2807.2 1776 2822.2C1771 2843.2 1765 2862.19 1758 2878.19C1750 2890.19 1745 2900.18 1741 2909.18ZM1782 2870.19C1782 2871.19 1781 2871.19 1781 2872.19L1780 2874.19C1780 2875.19 1780 2876.19 1780 2876.19V2877.19H1781C1785 2878.19 1786 2875.19 1787 2873.19C1793 2863.19 1798 2854.19 1803 2844.2C1804 2842.2 1805 2839.2 1806 2836.2C1815 2813.2 1828 2790.21 1847 2765.21C1853 2757.21 1859 2748.22 1864 2739.22C1867 2733.22 1870 2727.22 1873 2720.22C1878 2707.22 1881 2694.23 1882 2681.23C1882 2679.23 1882 2678.23 1882 2676.23C1883 2670.23 1883 2665.23 1883 2657.24V2650.24L1880 2657.24L1878 2660.24C1877 2661.23 1877 2662.23 1876 2663.23C1867 2686.23 1854 2706.22 1844 2721.22C1842 2724.22 1840 2727.22 1838 2730.22C1832 2738.22 1827 2747.22 1822 2755.21C1816 2765.21 1811 2776.21 1807 2787.21C1803 2796.21 1800 2806.2 1798 2817.2C1797 2822.2 1795 2828.2 1794 2833.2L1792 2840.2C1790 2846.19 1789 2852.19 1786 2858.19C1786 2861.19 1784 2866.19 1782 2870.19ZM1928 2852.19L1926 2856.19C1908 2885.19 1883 2908.18 1852 2926.18C1833 2937.17 1814 2949.17 1800 2958.17C1791 2964.17 1783 2970.17 1776 2976.17L1775 2977.17C1762 2987.16 1755 3002.16 1750 3015.16L1749 3016.16L1750 3017.16C1752 3019.16 1754 3018.16 1756 3016.16C1762 3009.16 1770 3003.16 1780 2998.16C1811 2981.17 1842 2959.17 1877 2930.18C1903 2908.18 1923 2885.19 1937 2859.19C1942 2850.19 1948 2841.2 1953 2831.2C1955 2827.2 1961 2818.2 1961 2818.2L1960 2815.2C1960 2814.2 1960 2813.2 1960 2812.2C1962 2812.2 1964 2811.2 1966 2808.2V2807.2L1967 2803.2L1958 2807.2L1956 2805.2L1955 2808.2L1950 2810.2L1954 2811.2C1953 2812.2 1952 2812.2 1951 2813.2C1950 2813.2 1950 2814.2 1949 2814.2C1938 2823.2 1929 2830.2 1920 2836.2C1905 2847.19 1893 2859.19 1882 2873.19C1880 2875.19 1879 2877.19 1877 2879.19C1876 2881.19 1874 2883.19 1873 2885.19C1859 2904.18 1841 2919.18 1820 2930.18C1810 2935.18 1800 2941.17 1788 2948.17C1778 2954.17 1769 2962.17 1762 2971.17C1761 2972.17 1760 2974.17 1759 2975.17L1758 2977.17L1756 2980.17H1759H1760C1761 2980.17 1762 2981.17 1763 2980.17C1779 2964.17 1799 2952.17 1818 2941.17C1829 2935.18 1839 2929.18 1850 2923.18C1877 2908.18 1899 2889.19 1916 2866.19C1919 2863.19 1921 2859.19 1923 2856.19C1926 2854.19 1927 2853.19 1928 2852.19ZM1383 3067.15C1391 3073.15 1399 3078.14 1408 3083.14C1424 3091.14 1441 3095.14 1460 3096.14C1495 3098.14 1527 3094.14 1556 3084.14C1566 3081.14 1575 3079.14 1584 3077.14C1575 3079.14 1565 3081.14 1555 3084.14C1523 3095.14 1489 3099.14 1454 3096.14C1428 3094.14 1404 3085.14 1384 3069.15C1384 3068.15 1384 3068.15 1383 3067.15Z" fill="#AB8764"/>
<path d="M1271 819.635L1272 820.635C1273 820.635 1272 819.635 1271 819.635Z" fill="#DFCDC4"/>
<path d="M1201 858.626C1201 858.626 1201 860.626 1201 863.625C1201 864.625 1202 866.624 1202 867.624C1202 868.624 1203 869.624 1203 869.624C1204 871.623 1203 870.624 1204 871.623C1204 871.623 1205 872.623 1205 873.623V874.623V875.623C1205 876.622 1205 876.622 1206 877.622C1207 879.622 1208 882.621 1210 883.621C1211 885.62 1212 886.62 1213 886.62L1212 885.62C1213 885.62 1213 886.62 1213 886.62V887.62L1214 888.62V889.62C1216 890.619 1216 890.619 1216 890.619C1216 890.619 1216 890.619 1218 891.619C1219 891.619 1220 891.619 1220 892.619H1221H1222H1223C1223 892.619 1224 892.619 1224 893.619H1225C1226 893.619 1227 893.619 1228 893.619C1229 893.619 1229 893.619 1230 893.619H1229C1230 893.619 1231 893.619 1232 892.619C1232 892.619 1234 891.619 1235 890.619C1236 889.62 1237 887.62 1237 886.62H1236V885.62L1237 886.62C1237 885.62 1238 884.621 1238 883.621C1238 881.621 1238 880.622 1238 878.622C1237 874.623 1235 871.623 1235 870.624C1235 869.624 1235 870.624 1235 870.624C1234 869.624 1234 870.624 1234 869.624C1234 869.624 1234 868.624 1233 868.624C1233 869.624 1233 869.624 1233 869.624L1232 868.624C1232 868.624 1231 868.624 1230 867.624C1229 866.624 1228 864.625 1226 863.625C1226 863.625 1226 863.625 1227 863.625C1227 863.625 1227 863.625 1226 862.625C1226 862.625 1225 862.625 1226 862.625C1225 862.625 1224 860.626 1223 860.626C1223 860.626 1220 857.626 1219 856.627H1218C1217 856.627 1217 856.627 1217 855.627H1218C1217 855.627 1218 855.627 1218 855.627C1218 855.627 1217 855.627 1217 854.627H1216C1215 854.627 1216 854.627 1215 853.627C1213 852.627 1210 851.628 1208 851.628C1207 851.628 1206 851.628 1205 851.628C1204 851.628 1202 852.627 1202 853.627C1203 854.627 1202 856.627 1201 858.626C1202 857.626 1202 858.626 1201 858.626Z" fill="#DFCDC4"/>
<path d="M1300 671.667C1300 671.667 1300 672.667 1300 673.667C1300 674.667 1300 674.667 1301 675.666V676.666C1302 677.666 1301 676.666 1302 677.666C1302 677.666 1302 678.666 1303 678.666C1303 678.666 1303 678.666 1303 679.665C1303 679.665 1303 679.665 1303 680.665C1303 680.665 1303 680.665 1303 681.665C1304 682.665 1304 683.665 1305 684.664C1306 685.664 1306 685.664 1306 686.664C1306 686.664 1306 686.664 1306 685.664C1306 685.664 1306 685.664 1307 686.664C1307 686.664 1307 686.664 1307 687.664C1308 688.663 1308 688.663 1308 688.663C1308 688.663 1308 688.663 1309 689.663H1310C1310 689.663 1311 689.663 1310 689.663C1310 689.663 1311 689.663 1310 689.663H1311C1311 689.663 1311 689.663 1312 689.663H1313C1313 689.663 1314 689.663 1314 688.663C1314 688.663 1315 687.664 1315 686.664V687.664V686.664C1315 685.664 1315 685.664 1314 684.664C1313 682.665 1312 681.665 1312 680.665C1312 679.665 1312 680.665 1311 679.665V678.666C1311 678.666 1311 678.666 1310 677.666C1309 676.666 1309 676.666 1308 675.666C1307 675.666 1307 674.667 1307 674.667C1307 674.667 1306 673.667 1305 672.667C1305 672.667 1305 672.667 1304 672.667C1303 671.667 1302 671.667 1301 671.667H1300C1300 671.667 1299 671.667 1299 672.667C1300 669.668 1300 670.668 1300 671.667Z" fill="#DFCDC4"/>
<path d="M1187 1127.57C1187 1127.57 1187 1126.57 1186 1124.57C1186 1123.57 1185 1122.57 1185 1122.57C1185 1121.57 1184 1121.57 1184 1121.57C1183 1120.57 1184 1121.57 1183 1119.57L1182 1118.57C1182 1118.57 1182 1118.57 1182 1117.57V1116.57C1182 1116.57 1182 1115.57 1181 1115.57C1180 1114.57 1179 1112.57 1178 1111.57C1177 1110.57 1177 1109.57 1176 1109.57L1177 1110.57C1177 1110.57 1177 1109.57 1176 1109.57C1176 1109.57 1176 1109.57 1176 1108.57C1176 1108.57 1176 1108.57 1175 1107.57C1174 1106.57 1174 1106.57 1174 1106.57C1174 1106.57 1174 1106.57 1173 1105.57C1172 1105.57 1172 1105.57 1172 1104.57C1172 1104.57 1172 1104.57 1171 1104.57C1171 1104.57 1171 1104.57 1170 1104.57C1170 1104.57 1169 1104.57 1170 1104.57C1170 1104.57 1169 1104.57 1170 1104.57C1169 1104.57 1169 1104.57 1169 1104.57H1168C1167 1104.57 1167 1104.57 1167 1104.57C1167 1104.57 1166 1104.57 1165 1105.57C1165 1106.57 1164 1107.57 1164 1107.57C1164 1107.57 1164 1107.57 1164 1108.57C1164 1108.57 1163 1107.57 1164 1107.57C1164 1107.57 1164 1108.57 1164 1109.57C1164 1110.57 1164 1111.57 1165 1112.57C1166 1114.57 1167 1117.57 1168 1117.57C1168 1118.57 1168 1117.57 1168 1117.57C1169 1118.57 1168 1117.57 1169 1118.57V1119.57C1169 1119.57 1170 1119.57 1170 1120.57C1171 1121.57 1172 1122.57 1172 1123.57C1173 1123.57 1173 1124.57 1174 1125.57C1174 1125.57 1176 1127.57 1177 1128.57H1178H1177C1177 1128.57 1177 1128.57 1178 1128.57C1178 1128.57 1178 1128.57 1179 1129.57C1180 1130.57 1182 1130.57 1183 1131.57C1184 1131.57 1184 1131.57 1185 1131.57C1186 1131.57 1186 1131.57 1187 1130.57C1186 1129.57 1186 1128.57 1187 1127.57Z" fill="#DFCDC4"/>
<path d="M1234 978.6C1234 978.6 1233 977.6 1232 977.6C1232 977.6 1233 978.6 1234 978.6Z" fill="#DFCDC4"/>
<path d="M1228 963.603C1228 963.603 1228 964.603 1228 963.603C1228 963.603 1227 963.603 1228 963.603C1227 963.603 1226 962.604 1226 963.603C1226 963.603 1225 962.604 1226 962.604C1226 962.604 1226 962.604 1225 962.604C1224 962.604 1224 961.604 1223 961.604C1222 961.604 1222 960.604 1221 960.604H1222C1221 959.604 1220 959.604 1218 959.604C1217 959.604 1215 959.604 1212 960.604C1209 961.604 1208 962.604 1207 962.604C1207 962.604 1207 962.604 1208 962.604L1207 963.603V962.604C1206 963.603 1202 965.603 1201 968.602C1199 972.602 1200 976.601 1200 977.6C1200 978.6 1199 977.6 1199 977.6C1199 978.6 1200 977.601 1200 978.6V979.6C1200 978.6 1200 979.6 1201 978.6V979.6C1201 979.6 1202 979.6 1202 980.6C1203 982.599 1204 983.599 1205 984.599C1205 984.599 1205 984.599 1204 984.599C1204 984.599 1204 984.599 1204 985.599H1205C1206 985.599 1207 987.598 1208 987.598C1208 987.598 1211 990.598 1212 990.598H1213C1214 990.598 1214 990.598 1214 990.598H1213C1214 990.598 1213 990.598 1213 990.598H1214C1214 990.598 1215 990.598 1216 990.598C1216 990.598 1216 990.598 1217 991.598C1217 991.598 1219 991.598 1220 992.597C1221 992.597 1223 993.597 1224 993.597C1227 993.597 1229 993.597 1231 993.597C1232 993.597 1233 992.597 1234 991.598H1235C1235 991.598 1236 990.598 1237 989.598C1238 988.598 1238 988.598 1239 987.598C1239 986.599 1240 986.599 1240 986.599C1241 985.599 1241 986.599 1241 985.599C1241 984.599 1242 983.599 1242 983.599C1242 983.599 1242 982.599 1242 983.599V982.599V981.6C1242 980.6 1242 977.601 1241 974.601C1240 971.602 1236 968.602 1234 967.603L1235 968.602C1234 968.602 1234 967.603 1233 967.603C1233 966.603 1232 966.603 1232 965.603H1231C1228 963.603 1230 965.603 1227 963.603C1229 964.603 1228 964.603 1228 963.603Z" fill="#DFCDC4"/>
<path d="M1145 1074.58L1144 1073.58C1144 1074.58 1144 1074.58 1145 1074.58Z" fill="#DFCDC4"/>
<path d="M1182 1037.59C1182 1036.59 1183 1036.59 1182 1037.59C1182 1035.59 1181 1031.59 1179 1027.59C1177 1023.59 1173 1020.59 1171 1019.59C1171 1019.59 1172 1020.59 1172 1021.59C1171 1021.59 1171 1020.59 1170 1020.59C1170 1019.59 1168 1019.59 1168 1018.59C1164 1017.59 1167 1018.59 1164 1017.59C1162 1017.59 1161 1017.59 1160 1017.59C1160 1017.59 1161 1017.59 1160 1017.59C1160 1017.59 1159 1017.59 1158 1017.59C1157 1017.59 1156 1017.59 1156 1018.59C1156 1018.59 1154 1018.59 1155 1018.59H1154H1155C1154 1018.59 1154 1018.59 1153 1018.59H1152C1151 1018.59 1151 1018.59 1151 1018.59H1152C1151 1018.59 1150 1018.59 1149 1019.59C1148 1019.59 1146 1020.59 1144 1021.59C1142 1022.59 1139 1023.59 1138 1024.59H1139L1138 1025.59V1024.59C1137 1024.59 1136 1025.59 1135 1027.59C1134 1029.59 1132 1031.59 1132 1034.59C1131 1039.59 1134 1044.59 1134 1045.59C1134 1046.59 1134 1046.59 1134 1046.59C1135 1047.59 1135 1046.59 1135 1047.59C1135 1047.59 1135 1048.59 1136 1048.59C1136 1047.59 1136 1047.59 1136 1047.59L1137 1048.59C1137 1048.59 1138 1048.59 1139 1049.58C1140 1051.58 1142 1052.58 1144 1053.58H1143C1143 1053.58 1144 1053.58 1144 1054.58C1144 1053.58 1145 1054.58 1145 1054.58C1147 1054.58 1148 1056.58 1149 1056.58C1149 1056.58 1152 1058.58 1153 1059.58H1154C1155 1059.58 1155 1059.58 1155 1060.58H1154C1155 1060.58 1154 1060.58 1154 1060.58C1154 1060.58 1155 1060.58 1155 1061.58H1156C1157 1061.58 1156 1061.58 1157 1062.58C1162 1064.58 1168 1066.58 1175 1063.58C1177 1062.58 1179 1061.58 1180 1059.58C1181 1059.58 1181 1059.58 1181 1059.58C1181 1059.58 1183 1057.58 1184 1054.58C1185 1053.58 1185 1051.58 1185 1050.58C1185 1049.58 1185 1048.59 1185 1048.59H1184C1184 1046.59 1185 1047.59 1185 1046.59C1184 1045.59 1185 1043.59 1185 1043.59V1042.59C1183 1038.59 1183 1038.59 1182 1037.59C1182 1038.59 1182 1038.59 1182 1038.59V1037.59Z" fill="#DFCDC4"/>
<path d="M1049 1013.59C1049 1014.59 1050 1014.59 1049 1013.59C1050 1014.59 1050 1013.59 1049 1013.59Z" fill="#DFCDC4"/>
<path d="M1026 1032.59C1026 1033.59 1026 1032.59 1026 1033.59C1027 1034.59 1026 1034.59 1026 1035.59C1026 1035.59 1026 1035.59 1026 1036.59V1037.59C1026 1038.59 1026 1041.59 1029 1044.59C1031 1047.59 1034 1050.58 1036 1051.58C1036 1050.58 1035 1050.58 1035 1049.59C1036 1049.59 1036 1050.58 1036 1050.58C1036 1051.58 1037 1051.58 1038 1052.58C1041 1053.58 1039 1052.58 1041 1053.58C1042 1053.58 1043 1053.58 1044 1053.58H1045C1045 1053.58 1046 1053.58 1046 1052.58C1046 1052.58 1047 1052.58 1047 1053.58H1048C1049 1053.58 1049 1053.58 1050 1053.58H1051C1052 1053.58 1052 1052.58 1053 1052.58C1053 1052.58 1054 1051.58 1055 1050.58C1056 1049.59 1056 1048.59 1056 1047.59H1055V1046.59L1056 1047.59C1056 1046.59 1057 1044.59 1057 1042.59C1057 1040.59 1056 1037.59 1056 1037.59C1056 1036.59 1057 1037.59 1057 1037.59C1057 1036.59 1057 1037.59 1056 1036.59C1056 1036.59 1056 1035.59 1056 1036.59C1056 1036.59 1056 1036.59 1055 1037.59V1036.59C1055 1036.59 1054 1036.59 1054 1035.59C1053 1034.59 1053 1033.59 1052 1032.59C1052 1032.59 1052 1032.59 1053 1032.59C1052 1032.59 1052 1031.59 1051 1031.59C1051 1031.59 1049 1029.59 1049 1028.59H1048H1049C1049 1028.59 1049 1028.59 1048 1028.59H1047C1046 1028.59 1047 1028.59 1046 1027.59C1044 1026.59 1042 1026.59 1040 1027.59C1038 1027.59 1038 1028.59 1036 1028.59C1035 1029.59 1034 1029.59 1034 1030.59C1034 1030.59 1034 1030.59 1033 1030.59C1033 1030.59 1032 1031.59 1031 1032.59C1027 1030.59 1026 1032.59 1026 1032.59Z" fill="#DFCDC4"/>
<path d="M1251 672.667C1251 673.665 1252 673.665 1251 672.667C1252 673.665 1251 672.667 1251 672.667Z" fill="#DFCDC4"/>
<path d="M1251 757.648C1251 758.648 1251 757.648 1251 758.648C1252 759.648 1251 759.648 1251 760.648C1251 760.648 1251 760.648 1251 761.647V762.647C1251 763.647 1251 766.646 1253 769.646C1255 772.645 1258 775.644 1260 776.644C1260 775.644 1259 775.644 1259 774.645C1260 774.645 1260 775.644 1260 775.644C1260 776.644 1261 776.644 1262 777.644C1265 778.644 1263 777.644 1265 778.644C1266 778.644 1267 778.644 1268 778.644H1269C1269 778.644 1270 778.644 1270 777.644C1270 777.644 1271 777.644 1271 778.644H1272C1273 778.644 1274 778.644 1274 777.644H1275C1276 777.644 1276 776.644 1277 776.644C1277 776.644 1278 775.644 1279 774.645C1280 773.645 1280 772.645 1280 771.645H1279V770.645L1280 771.645C1280 770.646 1281 768.646 1281 766.646C1281 764.647 1280 761.647 1280 761.647C1280 760.648 1281 761.647 1281 761.647C1281 760.648 1281 761.647 1280 760.648C1280 760.648 1280 759.648 1280 760.648C1280 760.648 1279 760.648 1279 761.647V760.648C1279 760.648 1278 760.648 1278 759.648C1278 758.648 1277 757.648 1276 756.648C1276 756.648 1276 756.648 1277 756.648C1276 756.648 1276 755.649 1275 755.649C1275 755.649 1273 753.649 1273 752.649H1272H1273C1273 752.649 1273 752.649 1272 752.649H1271C1270 752.649 1271 752.649 1270 751.65C1268 750.65 1265 751.65 1264 751.65C1262 751.65 1261 752.649 1260 753.649C1259 754.649 1258 754.649 1258 755.649C1258 755.649 1258 755.649 1257 755.649C1257 755.649 1256 756.648 1255 757.648C1252 756.648 1251 757.648 1251 757.648Z" fill="#DFCDC4"/>
<path d="M1132 748.65C1132 748.65 1132 749.645 1132 748.65C1133 748.65 1132 748.65 1132 748.65Z" fill="#DFCDC4"/>
<path d="M1164 700.661C1164 700.661 1163 701.661 1162 703.66C1161 704.66 1161 706.659 1161 706.659H1162C1162 707.659 1161 706.659 1161 707.659C1162 708.659 1161 709.659 1161 709.659V710.659V711.658V712.658C1161 713.658 1162 716.657 1165 719.657C1167 722.656 1170 724.656 1172 725.655C1172 724.656 1171 724.656 1171 724.656C1172 724.656 1172 725.655 1172 725.655C1172 726.655 1173 726.655 1173 727.655C1176 728.655 1174 727.655 1176 728.655C1177 728.655 1178 728.655 1179 728.655H1180H1181C1181 728.655 1182 728.655 1182 729.655H1183C1184 729.655 1185 729.655 1185 729.655C1186 729.655 1186 729.655 1186 729.655C1187 729.655 1187 729.654 1188 728.655C1188 728.655 1190 727.655 1191 726.655C1192 725.655 1193 723.656 1193 723.656H1192V722.656L1193 723.656C1193 722.656 1195 720.656 1195 717.657C1195 714.658 1195 712.658 1194 711.658C1194 710.659 1195 711.658 1195 711.658C1195 710.659 1195 711.658 1194 710.659V709.659H1193V708.659C1193 708.659 1192 708.659 1192 707.659C1192 706.659 1191 704.66 1190 703.66C1190 703.66 1190 703.66 1191 703.66C1191 703.66 1191 703.66 1191 702.66H1190C1189 702.66 1188 700.661 1187 700.661C1187 700.661 1185 698.661 1184 697.661C1183 697.661 1183 697.661 1183 697.661H1184C1183 697.661 1184 697.661 1184 697.661C1184 697.661 1184 697.661 1183 697.661H1182C1181 697.661 1182 697.661 1181 696.662C1177 695.662 1172 696.662 1169 698.661C1166 698.661 1165 699.661 1164 700.661Z" fill="#DFCDC4"/>
<path d="M1408 957.605C1406 960.604 1407 958.605 1406 960.604C1405 961.604 1406 962.604 1405 963.603V964.603V965.603C1405 965.603 1405 966.603 1404 965.603V966.603C1404 967.603 1404 968.602 1404 968.602C1404 969.602 1404 969.602 1404 969.602V968.602C1404 969.602 1405 970.602 1405 970.602C1405 970.602 1406 972.602 1408 973.601C1409 974.601 1411 975.601 1411 975.601V974.601H1412L1411 975.601C1412 976.601 1414 977.6 1416 977.6C1418 977.6 1419 977.6 1420 977.6V978.6C1420 978.6 1420 978.6 1421 978.6C1421 978.6 1421 977.6 1420 977.6H1421C1421 977.6 1421 976.601 1422 976.601C1423 976.601 1424 975.601 1425 975.601C1425 975.601 1425 975.601 1425 976.601C1425 975.601 1426 975.601 1426 974.601C1426 974.601 1427 973.601 1429 973.601C1429 973.601 1429 974.601 1429 973.601C1429 973.601 1428 973.601 1428 974.601C1428 974.601 1429 974.601 1429 973.601V972.602C1429 972.602 1429 972.602 1430 972.602C1431 970.602 1431 967.603 1431 964.603C1431 963.604 1430 962.604 1430 962.604C1430 962.604 1429 961.604 1429 960.604C1428 959.604 1427 958.605 1427 958.605C1426 957.605 1427 957.605 1427 957.605C1426 957.605 1426 956.605 1425 956.605C1425 956.605 1425 956.605 1424 956.605H1423C1422 956.605 1420 954.605 1417 955.605C1414 955.605 1411 956.605 1410 957.605H1411C1411 957.605 1410 957.605 1410 958.605C1410 956.605 1409 957.605 1408 957.605Z" fill="#DFCDC4"/>
<path d="M1317 886.619C1318 886.619 1318 886.619 1317 886.619C1318 885.623 1317 886.619 1317 886.619Z" fill="#DFCDC4"/>
<path d="M1287 863.625C1285 866.624 1286 864.625 1285 866.625C1284 867.624 1285 868.624 1284 869.624V870.624C1284 870.624 1284 872.623 1284 871.623C1284 871.623 1284 872.623 1283 872.623V873.623C1283 874.623 1283 875.623 1283 876.622C1283 877.622 1283 877.622 1283 877.622V876.622C1283 877.622 1284 878.622 1284 878.622C1284 878.622 1285 879.622 1286 880.622C1287 881.621 1288 881.621 1288 881.621H1289L1288 882.621C1288 882.621 1289 883.621 1291 884.621C1292 884.621 1292 885.62 1293 885.62C1293 885.62 1294 885.621 1294 886.62H1295C1296 886.62 1295 887.62 1295 887.62C1296 887.62 1295 887.62 1296 887.62H1297V886.62H1298C1298 886.62 1298 885.62 1299 885.62C1300 885.62 1301 885.621 1302 884.621C1302 884.621 1302 884.621 1302 885.62C1302 885.62 1302 885.62 1303 885.62C1303 884.621 1305 884.621 1305 883.621C1305 883.621 1307 881.621 1308 881.621V880.622C1308 880.622 1308 880.622 1308 881.621C1308 881.621 1308 881.621 1308 880.622V879.622C1308 879.622 1308 879.622 1309 879.622C1310 876.622 1310 873.623 1308 870.624C1307 869.624 1307 868.624 1306 868.624C1306 868.624 1306 868.624 1306 867.624C1306 867.624 1305 866.624 1304 865.625C1303 864.625 1302 863.625 1302 863.625C1301 863.625 1302 862.625 1301 862.625C1300 863.625 1300 861.625 1299 862.625C1299 862.625 1299 862.625 1298 862.625H1297C1297 862.625 1296 862.625 1295 862.625H1294H1293C1292 862.625 1289 863.625 1288 863.625H1289C1289 863.625 1288 863.625 1288 864.625C1288 862.625 1288 863.625 1287 863.625Z" fill="#DFCDC4"/>
<path d="M1155 825.634C1155 825.634 1155 824.634 1155 825.634C1155 824.634 1156 824.634 1156 824.634C1157 822.634 1157 819.635 1157 816.636C1157 815.636 1156 814.636 1156 814.636C1156 814.636 1155 813.636 1155 812.636C1154 811.637 1153 810.637 1153 810.637C1152 809.637 1153 809.637 1153 809.637C1152 809.637 1152 808.637 1151 808.637C1151 808.637 1151 808.637 1150 808.637H1149C1148 808.637 1146 806.638 1143 807.637C1140 807.637 1137 808.637 1136 809.637H1137C1137 809.637 1136 809.637 1136 810.637C1135 809.637 1135 810.637 1134 810.637C1132 812.636 1134 811.637 1132 812.636C1131 813.636 1132 814.636 1131 815.636V816.636V817.635C1131 817.635 1131 818.635 1130 817.635V818.635C1130 819.635 1130 820.635 1130 820.635C1130 821.635 1130 821.635 1130 821.635V820.635C1130 821.635 1131 822.634 1131 822.634C1131 822.634 1132 824.634 1134 825.634C1135 826.634 1137 827.633 1137 827.633V826.634H1138L1137 827.633C1138 828.633 1140 829.633 1142 829.633C1144 829.633 1145 829.633 1146 829.633V830.633C1146 830.633 1146 830.633 1147 830.633C1147 830.633 1147 829.633 1146 829.633H1147C1147 829.633 1147 828.633 1148 828.633C1149 828.633 1150 827.633 1151 827.633C1151 827.633 1151 827.633 1151 828.633C1151 827.633 1152 827.633 1152 826.634C1151 826.634 1153 825.634 1155 825.634C1155 825.634 1155 824.634 1155 825.634C1155 825.634 1154 825.634 1155 825.634C1155 826.634 1155 825.634 1155 825.634Z" fill="#DFCDC4"/>
<path d="M1439 1024.59C1439 1024.59 1439 1023.59 1439 1024.59C1439 1023.59 1439 1023.59 1439 1024.59C1440 1022.59 1440 1021.59 1440 1020.59C1440 1020.59 1440 1019.59 1439 1019.59C1439 1019.59 1439 1019.59 1438 1018.59L1437 1017.59C1437 1017.59 1437 1017.59 1437 1016.59H1436C1436 1016.59 1435 1015.59 1433 1015.59C1431 1015.59 1430 1016.59 1429 1016.59C1429 1016.59 1429 1016.59 1430 1016.59H1429C1428 1017.59 1429 1016.59 1428 1017.59C1428 1018.59 1428 1018.59 1428 1018.59V1019.59C1428 1019.59 1428 1020.59 1428 1019.59C1428 1020.59 1428 1020.59 1428 1020.59V1021.59C1428 1022.59 1428 1022.59 1429 1022.59L1430 1023.59C1431 1024.59 1431 1024.59 1432 1024.59C1432 1024.59 1433 1025.59 1434 1025.59C1435 1025.59 1436 1025.59 1436 1025.59C1436 1025.59 1437 1025.59 1437 1024.59C1437 1024.59 1438 1024.59 1438 1023.59C1437 1024.59 1438 1024.59 1439 1024.59C1439 1024.59 1439 1023.59 1439 1024.59Z" fill="#DFCDC4"/>
<path d="M1226 623.677C1226 623.677 1226 622.678 1226 623.677C1226 622.678 1226 622.678 1226 623.677C1227 621.678 1227 620.678 1227 619.678C1227 619.678 1227 618.679 1226 618.679C1226 618.679 1226 618.678 1225 617.679L1224 616.679C1224 616.679 1224 616.679 1224 615.679H1223C1223 615.679 1222 614.679 1220 614.679C1218 614.679 1217 615.679 1216 615.679C1216 615.679 1216 615.679 1217 615.679H1216C1215 616.679 1216 615.679 1215 616.679C1215 617.679 1215 617.679 1215 617.679V618.679C1215 618.679 1215 619.678 1215 618.679C1215 619.678 1215 619.678 1215 619.678V620.678C1215 621.678 1215 621.678 1216 621.678L1217 622.678C1218 623.677 1218 623.677 1219 623.677C1219 623.677 1220 624.677 1221 624.677C1222 624.677 1223 624.677 1223 624.677C1223 624.677 1224 624.677 1224 623.677C1224 623.677 1225 623.677 1225 622.678C1224 623.677 1225 623.677 1226 623.677C1226 623.677 1226 622.678 1226 623.677Z" fill="#DFCDC4"/>
<path d="M1222 580.687C1222 579.687 1222 579.687 1222 578.687H1221C1220 578.687 1220 578.687 1220 578.687C1220 578.687 1220 578.687 1220 579.687C1220 579.687 1220 579.687 1221 579.687C1221 579.687 1221 579.687 1222 579.687H1223C1221 581.686 1221 581.686 1222 580.687C1221 581.686 1221 581.686 1222 580.687C1221 581.686 1221 581.686 1222 580.687C1221 581.686 1221 581.686 1222 580.687C1221 580.687 1221 580.687 1222 580.687C1221 580.687 1222 580.687 1222 580.687Z" fill="#DFCDC4"/>
<path d="M1415 1250.54C1415 1249.54 1415 1249.54 1415 1248.54H1414C1413 1248.54 1413 1248.54 1413 1248.54C1413 1248.54 1413 1248.54 1413 1249.54C1413 1249.54 1413 1249.54 1414 1249.54C1414 1249.54 1414 1249.54 1415 1249.54H1416C1414 1251.54 1414 1251.54 1415 1250.54C1415 1251.54 1415 1251.54 1415 1250.54C1415 1251.54 1415 1251.54 1415 1250.54C1415 1251.54 1415 1251.54 1415 1250.54C1415 1251.54 1415 1251.54 1415 1250.54Z" fill="#DFCDC4"/>
<path d="M1090 955.605C1090 954.605 1090 954.605 1090 953.606H1089C1088 953.606 1088 953.606 1088 953.606C1088 953.606 1088 953.606 1088 954.606C1088 954.606 1088 954.606 1089 954.606C1089 954.606 1089 954.606 1090 954.606H1091C1089 956.605 1089 956.605 1090 955.605C1089 956.605 1089 956.605 1090 955.605C1089 956.605 1089 956.605 1090 955.605C1089 956.605 1090 956.605 1090 955.605C1090 956.605 1090 956.605 1090 955.605Z" fill="#DFCDC4"/>
<path d="M1441 834.632C1441 833.632 1441 833.632 1441 832.632H1440C1439 832.632 1439 832.632 1439 832.632C1439 832.632 1439 832.632 1439 833.632C1439 833.632 1439 833.632 1440 833.632C1440 833.632 1440 833.632 1441 833.632H1442C1440 835.631 1440 835.631 1441 834.632C1440 835.631 1440 835.631 1441 834.632C1440 835.631 1440 835.631 1441 834.632C1440 835.631 1440 835.631 1441 834.632C1440 835.631 1440 835.631 1441 834.632C1440 835.631 1441 834.632 1441 834.632Z" fill="#DFCDC4"/>
<path d="M1426 1168.56C1424 1171.56 1425 1169.56 1424 1171.56C1423 1172.56 1424 1173.56 1423 1174.56V1175.56V1176.56C1423 1176.56 1423 1177.56 1422 1176.56V1177.56C1422 1178.56 1422 1179.56 1422 1179.56C1422 1180.56 1422 1180.56 1422 1180.56V1179.56C1422 1180.56 1423 1181.56 1423 1181.56C1423 1181.56 1424 1183.56 1426 1184.56C1427 1185.56 1429 1186.56 1429 1186.56V1185.56H1430L1429 1186.56C1430 1187.55 1432 1188.55 1434 1188.55C1436 1188.55 1437 1188.55 1438 1188.55V1189.55C1438 1189.55 1438 1189.55 1439 1189.55C1439 1189.55 1439 1188.55 1438 1188.55H1439C1439 1188.55 1439 1187.55 1440 1187.55C1441 1187.55 1442 1186.56 1443 1186.56C1443 1186.56 1443 1186.56 1443 1187.55C1443 1186.56 1444 1186.56 1444 1185.56C1444 1185.56 1442 1183.56 1440 1182.56C1440 1182.56 1440 1182.56 1440 1181.56C1442 1182.56 1444 1184.56 1446 1183.56C1446 1183.56 1446 1184.56 1446 1183.56C1446 1183.56 1445 1183.56 1445 1184.56C1445 1184.56 1446 1184.56 1446 1183.56V1182.56C1446 1182.56 1446 1182.56 1447 1182.56C1448 1180.56 1448 1177.56 1448 1174.56C1448 1173.56 1447 1172.56 1447 1172.56C1447 1172.56 1446 1171.56 1446 1170.56C1445 1169.56 1444 1168.56 1444 1168.56C1443 1167.56 1444 1167.56 1444 1167.56C1443 1167.56 1443 1166.56 1442 1166.56C1442 1166.56 1442 1166.56 1441 1166.56H1440C1439 1166.56 1437 1164.56 1434 1165.56C1431 1165.56 1428 1166.56 1427 1167.56H1428C1428 1167.56 1427 1167.56 1427 1168.56C1428 1167.56 1427 1168.56 1426 1168.56Z" fill="#DFCDC4"/>
<path d="M1321 1087.58C1320 1087.58 1320 1088.57 1320 1088.57L1321 1087.58Z" fill="#DFCDC4"/>
<path d="M1271 1052.58C1269 1054.58 1269 1054.58 1269 1054.58C1269 1054.58 1269 1054.58 1268 1055.58C1267 1057.58 1267 1058.58 1267 1059.58C1267 1059.58 1267 1060.58 1266 1060.58V1062.58C1266 1062.58 1266 1064.58 1265 1063.58V1064.58V1063.58C1265 1065.58 1265 1066.58 1265 1066.58V1065.58C1265 1066.58 1265 1067.58 1265 1067.58V1066.58C1265 1068.58 1266 1069.58 1267 1069.58C1268 1070.58 1269 1071.58 1270 1073.58C1271 1074.58 1273 1075.58 1273 1075.58V1074.58H1274C1274 1074.58 1273 1075.58 1273 1074.58C1274 1075.58 1278 1079.58 1282 1080.58C1283 1081.58 1284 1081.58 1285 1081.58C1286 1081.58 1285 1082.58 1285 1082.58C1286 1082.58 1286 1082.58 1287 1082.58H1288C1287 1082.58 1288 1081.58 1288 1081.58H1289C1289 1081.58 1290 1080.58 1291 1080.58C1293 1080.58 1295 1079.58 1296 1079.58C1296 1079.58 1296 1079.58 1295 1080.58H1296C1295 1080.58 1297 1079.58 1296 1080.58C1297 1079.58 1299 1078.58 1299 1077.58C1299 1077.58 1302 1074.58 1303 1074.58V1073.58C1303 1072.58 1303 1072.58 1303 1072.58V1073.58C1303 1072.58 1303 1073.58 1303 1073.58V1072.58C1303 1072.58 1303 1071.58 1303 1070.58C1303 1069.58 1304 1070.58 1304 1069.58C1305 1064.58 1305 1059.58 1303 1055.58C1302 1054.58 1302 1053.58 1301 1052.58V1051.58C1301 1051.58 1300 1050.58 1298 1048.58C1297 1047.59 1296 1047.59 1296 1046.59C1295 1046.59 1295 1045.59 1295 1045.59C1294 1044.59 1295 1044.59 1294 1044.59C1293 1044.59 1292 1043.59 1291 1043.59H1290H1289H1288C1285 1042.59 1276 1043.59 1272 1045.59C1273 1045.59 1273 1044.59 1274 1045.59C1273 1046.59 1273 1045.59 1273 1046.59C1273 1050.58 1272 1052.58 1271 1052.58Z" fill="#DFCDC4"/>
<path d="M1120 916.612L1121 915.614C1120 915.614 1120 916.612 1120 916.612Z" fill="#DFCDC4"/>
<path d="M1070 855.627V854.627C1070 853.627 1071 854.627 1071 853.627C1072 849.628 1072 844.629 1070 841.63C1069 840.63 1069 839.63 1068 838.63V837.631C1068 837.631 1067 836.631 1066 835.631C1065 834.631 1065 834.631 1064 834.631C1063 834.631 1063 833.632 1063 833.632C1062 832.632 1063 832.632 1062 832.632C1061 832.632 1060 831.632 1060 832.632C1060 832.632 1059 832.632 1060 832.632H1059H1058C1057 832.632 1056 832.632 1054 832.632C1052 832.632 1049 832.632 1047 833.632C1045 834.631 1043 835.631 1043 835.631C1043 835.631 1044 834.631 1044 835.631C1044 836.631 1043 835.631 1043 836.631C1042 836.631 1042 837.631 1041 837.631C1040 839.63 1041 838.63 1039 840.63C1038 841.63 1039 842.63 1038 843.629V844.629V845.629C1038 845.629 1037 846.629 1037 845.629V846.629C1037 847.629 1037 848.628 1037 848.628C1037 849.628 1037 849.628 1037 849.628V848.628C1037 849.628 1037 850.628 1038 851.628C1038 852.627 1039 853.627 1041 855.627C1042 856.627 1044 858.626 1044 858.626V857.626H1045C1045 857.626 1044 858.626 1044 857.626C1046 859.626 1050 862.625 1054 863.625C1055 863.625 1054 864.625 1054 864.625C1055 864.625 1055 864.625 1055 864.625H1056V863.625H1057C1057 863.625 1058 862.625 1059 862.625C1061 862.625 1062 861.626 1064 861.626C1064 861.626 1064 861.625 1064 862.625C1064 862.625 1064 862.625 1065 862.625C1066 861.625 1067 861.626 1068 859.626C1068 859.626 1070 857.626 1072 856.627L1070 855.627C1070 855.627 1069 854.627 1070 855.627C1069 855.627 1069 855.627 1070 855.627Z" fill="#DFCDC4"/>
</g>
<defs>
<clipPath id="clip0">
<rect width="4054" height="4602" fill="white" transform="translate(-370 -861)"/>
</clipPath>
</defs>
</svg>
