<svg width="78" height="122" viewBox="0 0 78 122" fill="none" xmlns="http://www.w3.org/2000/svg">
<g clip-path="url(#clip0)">
<path d="M71.9375 112.709C72.9883 113.916 72.8427 116.424 73.0611 116.58C73.5189 116.903 74.4241 114.572 74.4241 114.572L73.1444 110.056C73.1444 110.056 70.5642 107.558 67.6198 104.447C66.7355 105.279 65.9135 106.164 65.2061 107.142C68.1088 109.265 70.6682 111.252 71.9375 112.709Z" fill="#FFA283"/>
<path d="M73.1547 110.056C73.1547 110.056 73.3107 109.671 74.1327 109.993C74.9546 110.316 77.129 113.833 77.129 113.833L76.588 114.416C76.588 114.416 74.8401 111.939 74.7153 112.064C74.5904 112.199 76.1302 114.957 75.9014 115.363C75.6725 115.769 73.7477 117.985 73.1026 117.996C72.4576 117.996 72.9466 116.175 72.9466 116.175C72.9466 116.175 74.1223 115.259 74.1223 114.988C74.1223 114.718 73.1547 110.056 73.1547 110.056Z" fill="#C91414"/>
<path d="M58.496 116.986C58.3607 118.578 56.4464 120.212 56.488 120.483C56.5712 121.034 58.8809 120.077 58.8809 120.077L61.253 116.029C61.253 116.029 61.2739 112.439 61.4715 108.162C60.2647 108.099 59.0474 108.12 57.8509 108.287C58.3191 111.846 58.6624 115.061 58.496 116.986Z" fill="#FFA283"/>
<path d="M61.2524 116.029C61.2524 116.029 61.6478 115.873 61.9807 116.695C62.3137 117.507 61.2836 121.523 61.2836 121.523L60.4929 121.534C60.4929 121.534 61.0756 118.558 60.8883 118.558C60.701 118.558 59.7855 121.575 59.3381 121.7C58.8907 121.815 55.9568 121.971 55.5094 121.503C55.062 121.045 56.7162 120.129 56.7162 120.129C56.7162 120.129 58.1832 120.347 58.3809 120.16C58.5578 119.962 61.2524 116.029 61.2524 116.029Z" fill="#C91414"/>
<path d="M60.3263 39.0336C60.3263 39.0336 59.005 38.7422 57.4444 39.0336C55.8838 39.3249 49.7038 43.477 49.0483 42.8214C48.3928 42.1658 47.7686 39.814 47.7686 39.814L43.3677 40.8963C43.3677 40.8963 43.9399 47.7123 45.7918 48.7009C47.6438 49.6895 51.6181 49.6375 54.4376 48.4095C57.2571 47.192 60.3263 39.0336 60.3263 39.0336Z" fill="#F2E900"/>
<path d="M55.5202 43.0712C50.9841 47.14 51.0361 46.859 51.0361 48.42C51.0361 48.6281 51.0257 48.9299 51.0049 49.3045C52.2014 49.1692 53.3978 48.8778 54.4382 48.42C56.5294 47.5146 58.7663 42.7694 59.7755 40.3968C58.3398 41.0108 56.852 41.8641 55.5202 43.0712Z" fill="#DBCF60"/>
<path d="M47.2488 40.6778C47.2488 40.6778 45.1471 30.896 44.5333 29.3142C43.9195 27.7429 40.767 23.1434 40.4861 23.4139C40.2052 23.6949 41.0687 26.2964 40.9959 26.3797C40.9231 26.4525 40.0283 26.3797 39.8515 26.7959C39.685 27.2122 39.6226 27.4827 39.3104 27.7949C38.9983 28.1071 39.1128 28.5233 39.1128 28.8563C39.1128 29.1997 39.092 30.2508 39.5185 30.6774C39.9451 31.1041 41.1832 30.9896 41.5577 31.8013C41.9323 32.6234 43.3784 41.8537 43.3784 41.8537L47.2488 40.6778Z" fill="#FFA283"/>
<path d="M58.35 66.5267L53.3249 63.9772L53.4913 66.1105C53.4913 66.1105 48.8719 86.8604 49.9851 89.9927C52.5862 97.3186 67.6513 109.66 67.6513 109.66L70.6165 106.944C70.6165 106.944 59.0055 90.9709 59.0055 87.9218C59.0055 84.8728 62.7926 67.5882 62.7926 67.5882L58.35 66.5267Z" fill="black"/>
<path opacity="0.51" d="M59.0052 87.9322C59.0052 84.8832 62.7923 67.5986 62.7923 67.5986L58.3498 66.5267L53.3246 63.9772L53.4911 66.1105C53.4911 66.1105 52.794 69.2324 52.0137 73.2283C54.6147 74.9662 54.7604 88.3901 56.2794 98.9628L60.8676 92.2716C59.7543 90.3153 59.0052 88.7127 59.0052 87.9322Z" fill="black"/>
<path d="M53.3247 63.9772C53.3247 63.9772 53.6056 67.4841 53.6056 67.9732C53.6056 68.4623 58.017 107.194 56.6228 113.448H61.8873C61.8873 113.448 67.6511 77.9632 67.6511 72.1149C67.6511 66.2666 64.8524 62.3955 64.8524 62.3955L53.3247 63.9772Z" fill="#282828"/>
<path d="M64.8524 62.4163L53.3247 63.9772C53.3247 63.9772 53.6056 67.4841 53.6056 67.9732C53.6056 68.0252 53.6576 68.5351 53.7513 69.4196C55.9777 68.6183 58.7348 67.5673 60.3267 66.7452C63.271 65.2155 64.1241 63.5713 65.5183 63.5193C65.1333 62.8013 64.8524 62.4163 64.8524 62.4163Z" fill="#F7604B"/>
<path d="M58.4333 33.3518C58.4333 33.3518 60.1604 37.7952 59.5882 40.6777C59.016 43.5602 57.9443 46.0265 57.9443 46.0265L65.5913 40.1782L64.4469 31.6972L58.4333 33.3518Z" fill="#FF7446"/>
<path opacity="0.68" d="M64.5715 32.665L64.4467 31.7076L58.4331 33.3518C58.4331 33.3518 58.8701 34.4861 59.2342 35.9742C60.129 35.7973 61.1486 35.4851 62.3034 35.0168C63.375 34.5902 64.1345 33.716 64.5715 32.665Z" fill="#FF4900"/>
<path d="M66.5792 38.8671C66.5792 38.8671 60.9401 38.992 56.8618 43.0608C52.7834 47.1296 52.825 46.8487 52.825 48.4096C52.825 49.9705 52.336 56.5576 52.336 60.4287C52.336 64.2998 51.847 66.4435 52.336 66.5163C55.8838 67.0887 61.6788 62.3226 65.2162 62.895C65.2162 62.895 68.3895 57.9937 67.8484 56.0997C67.3178 54.2058 68.1814 52.9259 68.5455 49.5126C68.9305 46.1098 69.794 38.8671 66.5792 38.8671Z" fill="#F2E900"/>
<path d="M66.1738 40.0013C66.1738 40.0013 65.5703 46.0265 63.1358 49.0755C60.7012 52.1349 52.6901 56.0477 52.3468 55.8916C52.2115 58.3058 52.3676 57.8687 52.3468 60.0645C53.7409 60.9698 55.4784 61.1987 56.4148 60.8761C58.1418 60.283 66.3611 51.0631 67.6512 47.9517C68.9413 44.8402 69.3782 40.0013 66.1738 40.0013Z" fill="#DBCF60"/>
<path d="M66.1739 40.0013C66.1739 40.0013 62.9695 39.9285 60.5349 42.7798C58.1004 45.6311 54.1988 51.9789 53.6994 51.9789C53.2104 51.9789 52.118 51.4273 52.118 51.4273C52.118 51.4273 50.2349 51.4273 50.2349 55.1319C50.2349 58.8365 54.6774 60.0124 56.4045 59.4505C58.1316 58.899 66.3508 50.3139 67.6409 47.4105C68.9414 44.5072 69.3784 40.0013 66.1739 40.0013Z" fill="#FEFA92"/>
<path d="M61.6375 24.8708C61.6375 24.8708 59.7024 24.9124 58.5891 26.0259C57.4759 27.1393 54.6772 33.3102 55.624 34.2572C56.5707 35.2041 58.9949 35.4122 62.8652 33.8409C66.7459 32.28 66.5795 24.8708 61.6375 24.8708Z" fill="#FFA283"/>
<path d="M59.6709 24.8708C59.6709 24.8708 60.9506 25.6929 60.5136 28.4089C60.0767 31.1249 62.1367 32.4465 62.8754 33.8409C63.6141 35.2353 63.2915 37.712 66.7457 37.712C70.1998 37.712 70.4495 34.4236 70.4495 32.0302C70.4495 29.6472 68.6184 25.9114 66.5792 24.288C64.3632 22.5294 58.7554 21.8009 59.6709 24.8708Z" fill="#C91414"/>
<path d="M67.6824 25.3911C69.0141 27.2225 70.0025 29.6888 70.0025 31.4266C70.0025 33.8097 69.7528 37.1084 66.257 37.1084C65.0814 37.1084 64.3427 36.8274 63.8433 36.4112C64.2906 37.15 65.0814 37.7224 66.7356 37.7224C70.1898 37.7224 70.4395 34.434 70.4395 32.0406C70.4499 30.0946 69.2326 27.2538 67.6824 25.3911Z" fill="#910D0D"/>
<path d="M69.3782 29.5223C69.3782 29.5223 69.2533 31.5828 70.4498 32.28C71.6463 32.9772 72.3434 32.9772 72.7179 32.28C73.0925 31.5828 74.5698 32.2384 74.3201 30.6774C74.0704 29.1165 74.1537 28.0447 72.9572 27.67C71.7607 27.2954 71.2717 27.67 70.0753 27.67C68.8892 27.67 69.3782 29.5223 69.3782 29.5223Z" fill="#C91414"/>
<path d="M42.6706 40.3344C42.6706 40.3344 42.4522 44.0494 42.8371 44.4344C43.2221 44.8194 49.5686 42.5613 49.6726 41.7808C49.7766 41.0003 48.3721 38.8775 48.0496 38.8775C47.7062 38.8671 42.7019 39.6267 42.6706 40.3344Z" fill="#FEFA92"/>
<path d="M49.2673 31.7076H1.39806C1.0027 31.7076 0.680176 31.385 0.680176 30.9896V0.718026C0.680176 0.322592 1.0027 0 1.39806 0H49.2569C49.6522 0 49.9748 0.322592 49.9748 0.718026V30.9792C49.9852 31.385 49.6626 31.7076 49.2673 31.7076Z" fill="#E4DD41"/>
<path d="M48.5598 31.1145H1.38765C0.992298 31.1145 0.680176 30.7919 0.680176 30.4069V0.70762C0.680176 0.322592 1.0027 0 1.38765 0H48.5598C48.9551 0 49.2673 0.322592 49.2673 0.70762V30.3965C49.2673 30.7919 48.9551 31.1145 48.5598 31.1145Z" fill="#F4E5B3"/>
<path d="M48.539 3.17388H1.40846C1.0027 3.17388 0.680176 2.84089 0.680176 2.44545V0.728432C0.680176 0.322592 1.01311 0 1.40846 0H48.539C48.9447 0 49.2673 0.332998 49.2673 0.728432V2.44545C49.2673 2.85129 48.9447 3.17388 48.539 3.17388Z" fill="#BFCF04"/>
<path d="M33.9314 2.63276H3.36418C2.88559 2.63276 2.49023 2.24773 2.49023 1.75864C2.49023 1.27996 2.87519 0.884521 3.36418 0.884521H33.9314C34.41 0.884521 34.8053 1.26955 34.8053 1.75864C34.8053 2.23732 34.41 2.63276 33.9314 2.63276Z" fill="#FEFA92"/>
<path d="M44.0962 2.36217C44.0962 2.50786 43.9713 2.63273 43.8257 2.63273C43.68 2.63273 43.5552 2.50786 43.5552 2.36217C43.5552 2.21649 43.68 2.09161 43.8257 2.09161C43.9713 2.09161 44.0962 2.21649 44.0962 2.36217Z" fill="#FEFA92"/>
<path d="M44.7417 2.36217C44.7417 2.50786 44.6168 2.63273 44.4712 2.63273C44.3255 2.63273 44.2007 2.50786 44.2007 2.36217C44.2007 2.21649 44.3255 2.09161 44.4712 2.09161C44.6168 2.09161 44.7417 2.21649 44.7417 2.36217Z" fill="#FEFA92"/>
<path d="M45.3862 2.36217C45.3862 2.50786 45.2614 2.63273 45.1157 2.63273C44.9701 2.63273 44.8452 2.50786 44.8452 2.36217C44.8452 2.21649 44.9701 2.09161 45.1157 2.09161C45.2718 2.09161 45.3862 2.21649 45.3862 2.36217Z" fill="#FEFA92"/>
<path d="M34.3787 2.32058L34.1186 1.87311C34.2227 1.78986 34.2851 1.65458 34.2851 1.5089C34.2851 1.25915 34.0874 1.05103 33.8481 1.05103C33.6088 1.05103 33.4111 1.25915 33.4111 1.5089C33.4111 1.75865 33.6088 1.96677 33.8481 1.96677C33.9105 1.96677 33.9626 1.95636 34.0146 1.93555L34.1914 2.41424C34.1914 2.41424 34.1914 2.42464 34.2018 2.42464C34.2331 2.47667 34.2851 2.48708 34.3371 2.45586C34.3891 2.42464 34.3995 2.3622 34.3787 2.32058ZM33.5256 1.5089C33.5256 1.32159 33.6712 1.15509 33.8585 1.15509C34.0458 1.15509 34.1914 1.31118 34.1914 1.5089C34.1914 1.70661 34.0458 1.86271 33.8585 1.86271C33.6712 1.86271 33.5256 1.69621 33.5256 1.5089Z" fill="black"/>
<path d="M41.2458 2.53913H36.5639C36.3246 2.53913 36.127 2.34142 36.127 2.10208V1.33202C36.127 1.09268 36.3246 0.894958 36.5639 0.894958H41.2458C41.4851 0.894958 41.6827 1.09268 41.6827 1.33202V2.10208C41.6827 2.34142 41.4851 2.53913 41.2458 2.53913Z" fill="#F57408"/>
<path d="M41.4746 8.51231H3.12515C2.96909 8.51231 2.84424 8.38744 2.84424 8.23134C2.84424 8.07525 2.96909 7.95038 3.12515 7.95038H41.4746C41.6307 7.95038 41.7555 8.07525 41.7555 8.23134C41.7555 8.38744 41.6307 8.51231 41.4746 8.51231Z" fill="#E4DD41"/>
<path d="M41.1521 7.06575H3.44768C3.11474 7.06575 2.84424 6.79519 2.84424 6.46219V5.09898C2.84424 4.76598 3.11474 4.49542 3.44768 4.49542H41.1521C41.485 4.49542 41.7555 4.76598 41.7555 5.09898V6.45178C41.7555 6.79519 41.485 7.06575 41.1521 7.06575Z" fill="#E4DD41"/>
<path d="M25.0568 13.8819H4.92491C4.52956 13.8819 4.20703 13.5593 4.20703 13.1638V11.811C4.20703 11.4156 4.52956 11.093 4.92491 11.093H25.0568C25.4522 11.093 25.7747 11.4156 25.7747 11.811V13.1638C25.7747 13.5697 25.4522 13.8819 25.0568 13.8819Z" fill="#FEFA92"/>
<path d="M25.0568 18.523H4.92491C4.52956 18.523 4.20703 18.2005 4.20703 17.805V16.4522C4.20703 16.0568 4.52956 15.7342 4.92491 15.7342H25.0568C25.4522 15.7342 25.7747 16.0568 25.7747 16.4522V17.805C25.7747 18.2005 25.4522 18.523 25.0568 18.523Z" fill="#FEFA92"/>
<path d="M25.0568 22.7583H4.92491C4.52956 22.7583 4.20703 22.4357 4.20703 22.0403V20.6875C4.20703 20.2921 4.52956 19.9695 4.92491 19.9695H25.0568C25.4522 19.9695 25.7747 20.2921 25.7747 20.6875V22.0403C25.7747 22.4357 25.4522 22.7583 25.0568 22.7583Z" fill="#FEFA92"/>
<path d="M42.9773 23.2112C43.5585 19.6432 41.1378 16.2795 37.5705 15.6983C34.0033 15.117 30.6403 17.5382 30.0591 21.1061C29.478 24.6741 31.8987 28.0378 35.4659 28.619C39.0332 29.2003 42.3962 26.7791 42.9773 23.2112Z" fill="#FEFA92"/>
<path d="M37.7915 24.2673L36.8863 22.7063C37.2505 22.415 37.4898 21.9467 37.4898 21.416C37.4898 20.521 36.8031 19.7926 35.95 19.7926C35.0968 19.7926 34.4102 20.521 34.4102 21.416C34.4102 22.3109 35.0968 23.0393 35.95 23.0393C36.158 23.0393 36.3661 22.9977 36.543 22.9145L37.188 24.5899C37.1984 24.6107 37.1985 24.6211 37.2089 24.6419C37.3025 24.8084 37.5106 24.8604 37.677 24.7564C37.8435 24.6523 37.8955 24.4338 37.7915 24.2673ZM34.7847 21.416C34.7847 20.7396 35.3049 20.188 35.95 20.188C36.595 20.188 37.1152 20.7396 37.1152 21.416C37.1152 22.0924 36.595 22.6439 35.95 22.6439C35.3049 22.6439 34.7847 22.0924 34.7847 21.416Z" fill="#E4DD41"/>
<path d="M32.9431 20.5938C32.8391 20.5938 32.7559 20.5106 32.7559 20.4065V19.7821C32.7559 19.0225 33.3697 18.4085 34.1292 18.4085H34.8783C34.9823 18.4085 35.0656 18.4918 35.0656 18.5958C35.0656 18.6999 34.9823 18.7831 34.8783 18.7831H34.1292C33.5778 18.7831 33.1304 19.2306 33.1304 19.7821V20.4065C33.1304 20.5002 33.0472 20.5938 32.9431 20.5938Z" fill="#E4DD41"/>
<path d="M34.7743 25.9322H34.1292C33.3697 25.9322 32.7559 25.3183 32.7559 24.5586V24.1944C32.7559 24.0903 32.8391 24.0071 32.9431 24.0071C33.0472 24.0071 33.1304 24.0903 33.1304 24.1944V24.5586C33.1304 25.1101 33.5778 25.5576 34.1292 25.5576H34.7743C34.8783 25.5576 34.9615 25.6408 34.9615 25.7449C34.9615 25.849 34.8783 25.9322 34.7743 25.9322Z" fill="#E4DD41"/>
<path d="M38.9044 25.9322H38.1345C38.0305 25.9322 37.9473 25.849 37.9473 25.7449C37.9473 25.6408 38.0305 25.5576 38.1345 25.5576H38.9044C39.4559 25.5576 39.9032 25.1101 39.9032 24.5586V24.0695C39.9032 23.9655 39.9865 23.8822 40.0905 23.8822C40.1945 23.8822 40.2778 23.9655 40.2778 24.0695V24.5586C40.2882 25.3183 39.6639 25.9322 38.9044 25.9322Z" fill="#E4DD41"/>
<path d="M40.0908 20.2713C39.9867 20.2713 39.9035 20.188 39.9035 20.0839V19.7718C39.9035 19.2202 39.4561 18.7728 38.9047 18.7728H38.3533C38.2493 18.7728 38.166 18.6895 38.166 18.5854C38.166 18.4814 38.2493 18.3981 38.3533 18.3981H38.9047C39.6642 18.3981 40.2781 19.0121 40.2781 19.7718V20.0839C40.2885 20.188 40.1948 20.2713 40.0908 20.2713Z" fill="#E4DD41"/>
</g>
<defs>
<clipPath id="clip0">
<rect width="76.4492" height="121.815" fill="white" transform="translate(0.680176)"/>
</clipPath>
</defs>
</svg>
