<svg width="1440" height="1024" viewBox="0 0 1440 1024" fill="none" xmlns="http://www.w3.org/2000/svg">
<g clip-path="url(#clip0)">
<path d="M1356.48 1216.09C1355.18 1216.09 1355.18 1216.09 1353.88 1216.09C1353.88 1216.09 1353.88 1216.09 1353.88 1214.79C1355.18 1212.2 1356.48 1210.9 1356.48 1210.9L1360.38 1207C1368.17 1200.51 1375.97 1192.72 1385.06 1186.23C1394.15 1179.73 1403.24 1173.24 1412.34 1166.75C1425.33 1157.66 1438.32 1148.57 1450.01 1138.18C1490.27 1107.02 1526.65 1070.66 1563.02 1034.3C1570.81 1026.51 1577.31 1020.02 1583.8 1012.23C1586.4 1008.33 1594.19 1000.54 1594.19 1000.54V999.243C1591.59 988.855 1587.7 981.064 1579.9 973.273L1572.11 965.482C1561.72 953.795 1550.03 942.109 1538.34 931.721C1522.75 917.438 1514.96 899.259 1513.66 871.99C1513.66 870.692 1513.66 868.094 1513.66 865.497C1514.96 859.005 1518.85 856.408 1524.05 855.109C1525.35 855.109 1525.35 855.109 1526.65 855.109C1530.54 855.109 1535.74 857.706 1539.64 859.005C1543.53 860.303 1548.73 862.9 1552.63 864.199C1557.82 866.796 1563.02 868.094 1569.51 870.691C1574.71 871.99 1579.9 873.289 1583.8 873.289C1595.49 871.99 1601.99 864.199 1604.58 851.214C1611.08 813.557 1604.58 783.692 1585.1 757.722C1561.72 725.259 1537.04 692.797 1512.36 660.334C1507.16 653.842 1501.97 647.349 1496.77 639.558C1491.57 631.767 1485.08 625.275 1479.88 617.484C1473.39 608.394 1468.19 600.603 1464.3 591.514C1453.9 570.738 1451.31 548.663 1457.8 527.887C1466.89 495.425 1482.48 466.857 1498.07 439.589C1499.37 435.693 1501.97 433.096 1505.86 427.902C1513.66 418.813 1524.05 413.619 1534.44 412.321C1540.93 412.321 1547.43 412.32 1553.92 414.917C1565.61 418.813 1573.41 424.007 1578.6 430.5L1582.5 435.693C1590.3 444.783 1598.09 455.171 1605.88 465.559C1612.38 474.648 1618.87 485.037 1625.37 495.425C1629.26 500.619 1631.86 507.111 1635.76 512.305C1648.75 533.081 1664.34 548.663 1683.82 560.35C1685.12 561.648 1686.42 561.648 1687.72 562.946C1691.61 565.543 1695.51 568.14 1699.41 569.439C1702.01 570.737 1704.6 570.737 1707.2 570.737C1712.4 570.737 1716.29 568.14 1718.89 562.946C1722.79 556.454 1725.39 549.962 1725.39 540.872C1725.39 518.798 1717.59 498.022 1704.6 481.141C1696.81 470.753 1689.02 461.663 1679.92 452.574L1673.43 446.081C1670.83 442.186 1666.93 439.589 1664.34 435.693C1660.44 431.798 1657.84 429.201 1653.94 425.306C1639.66 409.724 1631.86 392.843 1627.97 372.067C1625.37 356.485 1624.07 340.903 1624.07 326.619C1624.07 311.037 1622.77 294.157 1618.87 273.381C1613.68 246.112 1609.78 224.038 1607.18 203.262C1605.88 191.575 1605.88 178.59 1605.88 166.904V160.411C1605.88 151.322 1607.18 142.232 1611.08 133.143C1617.57 120.158 1625.37 113.665 1635.76 112.367C1639.66 112.367 1644.85 112.367 1650.05 113.665C1663.04 117.561 1674.73 125.352 1683.82 137.038C1691.61 147.426 1698.11 159.113 1704.6 173.396C1715 198.068 1727.99 220.142 1743.57 242.217L1756.56 261.694C1768.25 277.276 1779.94 294.157 1792.93 311.037C1800.73 320.127 1808.52 329.216 1818.91 338.306C1825.41 343.5 1833.2 348.694 1842.29 351.291C1846.19 352.589 1850.09 352.589 1852.69 352.589C1861.78 351.291 1869.57 346.097 1873.47 335.709C1876.07 329.216 1876.07 324.022 1876.07 318.828C1876.07 313.634 1873.47 308.44 1872.17 303.246C1861.78 270.784 1844.89 240.918 1824.11 214.948C1816.32 205.859 1809.82 198.068 1802.03 190.277L1799.43 187.68C1781.24 166.904 1764.36 146.128 1751.37 124.053C1739.68 105.874 1731.88 85.098 1727.99 63.0234C1722.79 37.0534 1725.39 12.3822 1734.48 -9.69232C1744.87 -35.6624 1752.67 -62.9309 1759.16 -94.0949C1763.06 -113.572 1769.55 -133.05 1776.05 -149.931C1778.65 -156.423 1781.24 -164.214 1786.44 -169.408C1790.34 -175.901 1796.83 -178.498 1803.33 -179.796C1811.12 -179.796 1818.91 -177.199 1824.11 -169.408C1825.41 -166.811 1828.01 -164.214 1829.3 -161.617C1830.6 -159.02 1831.9 -157.722 1833.2 -156.423C1835.8 -152.528 1838.4 -148.632 1841 -144.737C1847.49 -134.349 1853.99 -123.96 1861.78 -113.572C1891.66 -73.3189 1894.25 -69.4237 1899.45 -21.3792V-16.1848C1899.45 -10.9908 1900.75 -5.79706 1902.05 -0.603058L1904.64 12.382C1908.54 29.2625 1911.14 47.4415 1916.34 64.322C1924.13 95.486 1939.72 126.65 1961.8 155.217C1968.29 163.008 1974.79 169.501 1981.28 175.993C1985.18 179.889 1990.38 181.187 1994.27 183.784C1996.87 185.083 1998.17 185.083 2000.77 185.083C2004.66 185.083 2007.26 182.486 2009.86 178.59C2013.76 173.396 2015.06 168.202 2016.36 163.008C2026.75 129.247 2030.64 95.4862 2029.35 60.4267C2029.35 50.0386 2026.75 40.949 2020.25 31.8595C2013.76 22.77 2008.56 13.6804 2002.07 4.59085C1994.27 -4.49866 1987.78 -14.8864 1979.98 -23.9759L1970.89 -34.3642C1956.6 -52.5432 1944.91 -72.0206 1934.52 -91.4981C1926.73 -108.379 1921.53 -125.259 1918.93 -142.14C1915.04 -161.617 1917.63 -181.095 1925.43 -199.274C1930.62 -212.259 1939.72 -220.05 1948.81 -220.05C1957.9 -221.348 1966.99 -216.154 1974.79 -207.065C1979.98 -201.871 1985.18 -194.08 1989.08 -184.99C1992.97 -177.199 1996.87 -168.11 2000.77 -160.319C2002.07 -156.423 2004.67 -152.528 2005.96 -149.931C2012.46 -135.647 2018.95 -125.259 2026.75 -116.17C2031.94 -110.976 2035.84 -107.08 2041.04 -104.483C2043.63 -101.886 2047.53 -101.886 2050.13 -101.886C2054.03 -101.886 2057.92 -104.483 2060.52 -109.677C2067.02 -118.767 2068.31 -129.154 2068.31 -139.542C2067.02 -151.229 2064.42 -161.617 2060.52 -173.304L2057.92 -179.796C2054.03 -192.781 2050.13 -205.766 2046.23 -220.05C2041.04 -239.527 2039.74 -260.303 2042.33 -279.781C2043.63 -288.87 2046.23 -295.363 2050.13 -301.855C2055.32 -310.945 2061.82 -314.84 2070.91 -316.139C2074.81 -316.139 2080 -316.139 2085.2 -313.542C2094.29 -309.646 2100.79 -304.452 2108.58 -295.363C2116.38 -286.273 2121.57 -275.885 2128.07 -261.602C2135.86 -240.826 2142.36 -220.05 2144.95 -200.572C2147.55 -181.095 2151.45 -162.916 2155.34 -144.737C2156.64 -136.946 2160.54 -127.856 2163.14 -120.065V-118.767C2164.44 -116.17 2165.74 -114.871 2168.33 -113.572C2169.63 -112.274 2170.93 -112.274 2170.93 -110.976L2173.53 -109.677L2180.03 -120.065C2182.62 -125.259 2185.22 -130.453 2187.82 -134.349C2206 -168.11 2224.19 -197.975 2251.47 -221.348C2259.26 -227.841 2263.16 -236.93 2265.76 -244.721C2270.95 -259.005 2273.55 -274.587 2276.15 -288.87C2281.34 -321.333 2283.94 -325.228 2312.52 -342.109C2326.81 -351.198 2338.5 -360.288 2347.59 -373.273C2350.19 -377.168 2354.09 -381.064 2356.68 -384.96C2363.18 -394.049 2369.67 -403.139 2376.17 -410.93C2382.66 -418.721 2390.46 -426.511 2399.55 -435.601C2403.45 -438.198 2406.04 -440.795 2411.24 -440.795C2415.14 -440.795 2419.03 -439.496 2424.23 -438.198C2435.92 -431.705 2443.71 -418.721 2442.42 -404.437C2441.12 -397.945 2439.82 -391.452 2438.52 -383.661C2429.43 -356.392 2426.83 -327.825 2429.43 -291.467V-284.975C2429.43 -279.781 2430.73 -273.288 2430.73 -268.094C2432.02 -255.109 2429.43 -242.124 2422.93 -231.736L2421.63 -227.841C2413.84 -213.557 2406.04 -199.274 2399.55 -186.289C2386.56 -162.916 2368.37 -144.737 2346.29 -130.453C2341.1 -127.856 2337.2 -125.259 2332 -122.662C2326.81 -120.065 2321.61 -116.169 2316.42 -113.572L2315.12 -112.274C2304.73 -105.782 2293.04 -99.2892 2283.94 -91.4981C2272.25 -82.4086 2263.16 -69.4234 2256.66 -55.1399C2254.07 -48.6474 2252.77 -40.8566 2256.66 -33.0656V-31.767H2257.96C2267.06 -29.17 2274.85 -27.8717 2285.24 -27.8717C2290.44 -27.8717 2295.63 -29.1699 2302.13 -30.4684C2313.82 -33.0654 2326.81 -38.2594 2338.5 -42.1549C2363.18 -51.2444 2386.56 -56.4385 2409.94 -57.737H2415.14C2424.23 -57.737 2432.02 -57.7369 2438.52 -55.1399C2443.71 -53.8414 2446.31 -51.2447 2447.61 -47.3492C2448.91 -43.4537 2447.61 -38.2596 2445.01 -33.0656C2443.71 -31.7671 2442.42 -30.4684 2441.12 -29.1699L2438.52 -26.5731C2435.92 -22.6776 2432.02 -18.7818 2429.43 -16.1848C2422.93 -8.39383 2415.14 -0.602905 2408.64 8.4866C2389.16 31.8596 2365.78 55.2326 2335.9 78.6056C2312.52 96.7846 2286.54 108.471 2257.96 109.77C2251.47 109.77 2243.67 109.77 2237.18 109.77H2235.88C2230.68 109.77 2225.49 108.471 2218.99 109.77C2217.7 109.77 2217.7 109.77 2216.4 109.77C2208.6 111.068 2200.81 112.366 2193.01 114.964C2178.73 121.456 2167.04 130.546 2156.64 144.829C2152.75 150.023 2150.15 155.217 2150.15 161.71C2148.85 169.501 2150.15 174.695 2152.75 177.292C2155.34 181.187 2160.54 182.486 2168.33 182.486C2170.93 182.486 2174.83 182.486 2177.43 182.486C2180.03 182.486 2181.32 182.486 2182.62 181.187L2189.12 179.889C2199.51 177.292 2208.6 175.993 2218.99 172.098C2238.48 165.605 2257.96 157.814 2277.45 151.322C2285.24 148.725 2319.01 135.74 2319.01 135.74C2334.6 130.546 2350.19 124.053 2365.78 118.859C2370.97 116.262 2377.47 114.964 2383.96 114.964C2385.26 114.964 2386.56 114.964 2387.86 114.964C2398.25 114.964 2406.05 122.755 2407.34 133.143C2407.34 138.337 2406.04 144.829 2404.75 150.023C2402.15 155.217 2399.55 161.71 2394.35 168.202C2380.07 188.978 2360.58 205.859 2342.4 221.441C2308.62 251.306 2283.94 281.172 2267.06 314.933C2257.96 334.411 2243.67 347.396 2222.89 353.888C2209.9 357.784 2196.91 361.679 2180.03 362.977C2170.93 364.276 2161.84 365.575 2152.75 366.873C2147.55 368.172 2142.36 368.171 2137.16 369.47C2115.08 372.067 2091.7 399.335 2087.8 420.111C2085.2 434.395 2090.4 443.485 2103.39 449.977C2108.58 452.574 2113.78 453.872 2118.97 455.171C2135.86 459.066 2151.45 459.066 2165.74 459.066C2178.73 457.768 2191.72 455.171 2203.41 451.276C2217.7 446.082 2230.68 439.589 2243.67 433.096C2255.37 426.604 2267.06 418.813 2278.75 411.022L2283.94 407.126C2324.21 379.858 2360.58 357.783 2394.35 339.604C2402.15 335.709 2409.94 331.813 2417.74 329.216L2420.33 327.918C2422.93 326.62 2426.83 325.321 2430.73 325.321C2435.92 325.321 2439.82 326.619 2442.42 329.216C2445.01 331.813 2446.31 335.709 2446.31 340.903C2446.31 346.097 2445.01 351.291 2442.42 355.186C2438.52 364.276 2434.62 372.067 2429.43 382.455C2421.63 396.738 2411.24 408.425 2396.95 416.216C2386.56 422.708 2374.87 427.902 2364.48 434.395C2335.9 449.977 2312.52 469.454 2293.03 491.529C2289.14 496.723 2285.24 500.618 2281.34 505.812C2278.75 509.708 2274.85 512.305 2272.25 516.201C2260.56 529.186 2246.27 539.574 2228.09 547.365C2207.3 556.454 2185.22 561.648 2164.44 562.946C2161.84 562.946 2157.94 562.946 2155.34 562.946C2148.85 562.946 2142.36 562.946 2135.86 562.946C2128.07 562.946 2121.57 562.946 2113.78 562.946C2107.28 562.946 2099.49 562.947 2092.99 564.245C2077.41 565.544 2063.12 566.842 2050.13 570.737C2026.75 575.932 2009.86 587.618 1995.57 605.797C1989.08 614.887 1982.58 623.976 1977.39 634.364C1969.59 648.647 1961.8 657.737 1952.71 665.528C1948.81 669.424 1944.91 673.319 1941.02 677.215L1939.72 678.513C1934.52 683.707 1931.92 690.2 1931.92 699.289C1931.92 708.379 1935.82 713.573 1943.61 716.17C1951.41 718.767 1957.9 720.065 1964.4 720.065C1970.89 720.065 1976.09 720.065 1982.58 720.065C1991.68 718.767 2000.77 717.468 2009.86 714.871C2034.54 707.08 2054.03 700.588 2072.21 694.095C2092.99 686.304 2113.78 678.513 2134.56 670.722C2154.05 662.931 2173.53 656.439 2193.01 648.648C2202.11 644.752 2212.5 642.155 2224.19 640.856C2225.49 640.856 2228.09 640.857 2229.39 639.558C2233.28 639.558 2238.48 639.558 2242.38 639.558C2254.07 640.857 2261.86 651.245 2260.56 662.931C2260.56 665.528 2259.26 669.424 2259.26 673.319C2255.37 690.2 2244.97 705.782 2226.79 721.364C2209.9 735.647 2189.12 748.632 2164.44 759.02C2144.95 766.811 2126.77 774.602 2109.88 781.095C2077.41 792.781 2048.83 810.96 2024.15 833.035C2017.65 839.527 2011.16 844.721 2003.37 851.214C1999.47 855.109 1994.27 859.005 1990.38 862.9C1977.39 874.587 1963.1 882.378 1946.21 886.274L1941.02 887.572C1933.22 888.87 1925.43 891.468 1918.93 891.468C1905.94 892.766 1892.95 894.064 1881.26 895.363L1853.99 897.96C1846.19 899.259 1837.1 899.258 1829.3 900.557C1824.11 900.557 1818.91 901.855 1815.02 903.154C1811.12 904.452 1807.22 907.049 1803.33 909.646C1799.43 912.243 1798.13 916.139 1798.13 920.034C1798.13 923.93 1800.73 927.826 1804.62 931.721C1812.42 938.214 1822.81 940.81 1833.2 942.109C1841 943.407 1847.49 943.408 1855.28 944.706C1860.48 944.706 1866.97 946.004 1872.17 946.004C1879.96 947.303 1886.46 948.602 1891.65 951.199C1898.15 953.796 1902.05 957.691 1902.05 962.885C1903.35 968.079 1900.75 974.571 1895.55 979.765C1892.95 982.362 1889.06 984.959 1886.46 987.557C1879.96 991.452 1873.47 995.347 1865.68 997.944C1847.49 1004.44 1829.3 1009.63 1811.12 1010.93C1792.93 1012.23 1773.45 1010.93 1753.96 1007.03C1730.58 1001.84 1705.9 994.049 1681.22 984.959C1669.53 981.064 1656.54 975.87 1643.55 977.169C1642.25 977.169 1639.66 977.168 1638.36 978.467H1637.06C1637.06 978.467 1627.97 988.855 1624.07 994.049C1614.98 1004.44 1605.88 1014.82 1596.79 1025.21C1573.41 1051.18 1546.13 1074.56 1521.45 1097.93L1512.36 1105.72C1472.09 1142.08 1425.33 1174.54 1369.47 1203.11C1366.87 1213.5 1361.68 1214.79 1356.48 1216.09C1357.78 1216.09 1357.78 1216.09 1356.48 1216.09ZM1935.82 813.557C1911.14 816.154 1886.46 823.945 1863.08 833.035C1851.39 836.93 1838.4 842.124 1826.71 846.02C1813.72 849.915 1800.73 852.512 1789.04 852.512C1778.65 853.811 1768.25 852.512 1759.16 851.214C1757.86 851.214 1756.56 851.214 1755.26 851.214C1752.67 851.214 1751.37 851.214 1748.77 849.915C1747.47 849.915 1746.17 849.915 1744.87 849.915C1740.98 849.915 1737.08 852.512 1734.48 856.408V857.706C1731.88 861.602 1729.28 865.497 1726.69 868.094L1653.94 966.78L1648.75 974.572L1651.35 977.169C1651.35 978.467 1652.65 978.467 1653.94 978.467C1672.13 978.467 1689.02 983.661 1707.2 987.557C1713.7 988.855 1718.89 991.452 1725.39 992.75C1743.57 996.646 1765.66 1001.84 1786.44 1005.74C1798.13 1007.03 1809.82 1008.33 1822.81 1007.03C1835.8 1005.74 1850.09 1003.14 1864.38 999.243C1874.77 995.347 1886.46 991.452 1895.55 982.363C1896.85 977.169 1894.25 971.975 1889.06 970.676C1883.86 969.378 1878.67 969.377 1873.47 968.079H1869.57C1864.38 966.781 1859.18 966.78 1853.99 965.482C1843.59 964.183 1833.2 962.885 1822.81 961.586C1815.02 960.288 1807.22 956.393 1802.03 951.199C1792.93 943.408 1791.63 935.617 1795.53 925.229C1799.43 916.139 1805.92 909.646 1813.72 907.049C1821.51 904.452 1828.01 903.154 1834.5 901.855C1842.29 900.557 1851.39 900.557 1859.18 899.259C1865.68 899.259 1870.87 897.96 1877.37 897.96L1883.86 896.661C1903.35 894.064 1922.83 892.766 1943.61 890.169C1963.1 887.572 1981.28 878.482 1996.87 864.199C2011.16 851.214 2025.45 839.527 2039.74 826.542C2046.23 820.05 2065.72 804.468 2065.72 804.468C2065.72 804.468 2034.54 807.065 2022.85 807.065C2009.86 808.363 1996.87 808.363 1983.88 809.662C1963.1 810.96 1950.11 812.259 1935.82 813.557ZM1620.17 836.93L1618.87 846.02C1617.57 849.915 1617.57 852.512 1616.27 855.109C1612.38 871.99 1600.69 883.676 1585.1 883.676C1579.9 883.676 1574.71 883.676 1569.51 882.378C1564.32 881.079 1559.12 878.482 1553.92 877.184L1548.73 874.587C1544.83 873.288 1540.93 871.99 1537.04 869.393L1529.24 865.497L1527.94 868.094C1527.94 869.393 1526.65 870.691 1526.65 870.691C1525.35 873.288 1525.35 874.587 1525.35 877.184C1526.65 890.169 1530.54 904.452 1546.13 914.84C1552.63 918.736 1559.12 923.93 1564.32 929.124C1566.91 930.422 1568.21 933.019 1570.81 934.318C1585.1 946.004 1598.09 960.288 1607.18 979.765L1608.48 982.363L1611.08 981.064C1616.27 978.467 1618.87 974.571 1621.47 971.974L1624.07 969.378C1625.37 968.079 1625.37 968.079 1626.67 966.78C1629.26 964.183 1631.86 961.587 1633.16 957.691C1635.76 953.796 1637.06 947.303 1637.06 942.109C1639.66 908.348 1634.46 875.885 1629.26 851.214C1627.97 848.617 1627.97 844.721 1626.67 842.124V840.826C1626.67 839.527 1625.37 839.527 1625.37 838.229C1625.37 838.229 1624.07 836.93 1622.77 836.93H1620.17ZM1501.97 464.261C1491.57 482.44 1479.88 507.111 1472.09 533.081C1466.89 549.962 1469.49 566.842 1477.29 581.126C1482.48 590.215 1488.98 600.603 1495.47 609.693C1526.65 652.543 1557.82 694.095 1589 735.647C1629.26 788.886 1648.75 851.214 1650.05 918.736C1650.05 921.333 1650.05 923.93 1650.05 927.825L1651.35 939.512C1651.35 939.512 1661.74 925.228 1665.64 920.034C1673.43 910.945 1679.92 901.856 1686.42 892.766C1698.11 875.885 1711.1 859.005 1722.79 840.826C1733.18 826.542 1743.57 810.96 1753.96 796.677C1756.56 792.781 1760.46 786.289 1759.16 778.498C1759.16 775.901 1757.86 772.005 1757.86 769.408C1757.86 765.513 1757.86 761.617 1756.56 757.722C1752.67 739.543 1743.57 725.259 1727.99 713.573C1713.7 703.185 1699.41 695.394 1683.82 688.901C1679.92 687.603 1676.03 685.006 1673.43 683.707C1630.56 661.633 1594.19 629.17 1566.91 587.618C1553.92 568.141 1542.23 548.663 1531.84 530.484C1516.25 501.917 1513.66 495.424 1507.16 466.857L1505.86 465.559H1504.56H1503.26L1501.97 464.261ZM2112.48 559.051C2120.27 559.051 2126.77 559.051 2134.56 559.051C2142.36 559.051 2151.45 559.051 2159.24 559.051C2161.84 559.051 2165.74 559.051 2168.33 559.051C2187.82 557.753 2206 553.857 2222.89 546.066C2242.38 538.275 2256.66 527.887 2267.06 514.902C2268.35 513.604 2268.35 513.603 2269.65 511.006C2269.65 509.708 2270.95 509.708 2270.95 508.41L2273.55 503.216L2263.16 508.41C2260.56 509.708 2257.96 511.006 2256.66 511.006C2231.98 523.991 2204.71 531.783 2174.83 534.38C2172.23 534.38 2169.63 534.38 2167.04 534.38C2156.64 534.38 2146.25 535.678 2135.86 535.678C2124.17 535.678 2111.18 536.976 2099.49 536.976C2096.89 536.976 2094.29 536.976 2090.4 536.976C2086.5 536.976 2073.51 538.275 2069.61 538.275C2067.02 538.275 2059.22 539.574 2059.22 539.574C2044.93 540.872 2030.64 540.872 2016.36 540.872C2008.56 540.872 1999.47 540.872 1991.68 542.171C1970.89 543.469 1948.81 547.365 1929.32 552.559C1925.43 553.857 1921.53 555.155 1917.63 556.454L1911.14 559.051L1904.64 573.335C1899.45 582.424 1895.55 591.513 1890.36 601.901C1870.87 642.155 1847.49 682.409 1824.11 721.364C1811.12 742.14 1798.13 761.617 1785.14 782.393C1777.35 795.378 1769.55 807.065 1761.76 820.05C1760.46 822.647 1757.86 826.542 1756.56 830.438L1751.37 839.527H1755.26C1768.25 840.826 1777.35 840.826 1786.44 839.527C1796.83 838.229 1805.92 836.93 1815.02 833.035C1850.09 820.05 1878.67 803.169 1903.35 782.393C1911.14 774.602 1920.23 768.11 1929.32 761.617C1933.22 759.02 1937.12 755.125 1941.02 752.528C1942.31 751.229 1943.61 751.229 1944.91 749.931L1950.11 746.035L1935.82 738.244C1926.73 733.05 1921.53 725.259 1922.83 713.573C1922.83 703.185 1926.73 694.095 1934.52 683.707C1935.82 682.409 1937.12 681.11 1938.42 679.812C1957.9 664.229 1970.89 643.454 1981.28 625.275C1983.88 621.379 1985.18 618.782 1987.78 614.886C2005.96 588.917 2029.35 574.633 2057.92 568.141C2073.51 565.544 2087.8 562.947 2102.09 561.648C2102.09 559.051 2107.28 559.051 2112.48 559.051ZM1979.98 792.781L1996.87 791.483C2002.07 791.483 2007.26 791.483 2012.46 791.483C2020.25 791.483 2029.35 791.483 2038.44 790.184C2068.31 787.587 2099.49 781.095 2135.86 769.408C2146.25 765.513 2157.94 761.617 2168.33 757.722L2174.83 755.125C2193.01 748.632 2211.2 736.946 2229.39 720.065C2237.18 712.274 2243.67 704.483 2248.87 695.394C2250.17 692.797 2251.47 691.498 2251.47 688.901C2255.37 678.513 2255.37 670.722 2251.47 665.528C2248.87 661.633 2243.67 657.737 2231.98 659.036C2230.68 659.036 2229.39 659.036 2226.79 659.036C2220.29 660.334 2212.5 662.931 2204.71 665.528C2168.33 679.812 2131.96 692.797 2096.89 707.08L2094.29 708.379C2060.52 721.364 2025.45 735.647 1989.08 743.438C1965.7 748.632 1944.91 760.319 1924.13 777.199C1922.83 778.498 1920.23 779.796 1918.93 781.095C1915.04 784.99 1909.84 788.886 1905.94 794.08L1904.64 796.677L1907.24 797.975C1907.24 797.975 1908.54 797.975 1908.54 799.274C1909.84 799.274 1909.84 800.572 1912.44 800.572C1925.43 797.975 1939.72 795.378 1957.9 794.08C1964.4 792.781 1972.19 792.781 1979.98 792.781ZM1633.16 127.948L1630.56 130.546C1622.77 138.337 1618.87 146.128 1617.57 156.516C1617.57 169.501 1616.27 179.889 1617.57 188.978C1618.87 216.247 1622.77 242.217 1627.97 266.888C1634.46 294.157 1635.76 314.933 1635.76 335.709C1635.76 337.007 1635.76 337.007 1635.76 338.306V339.604C1635.76 375.962 1647.45 405.828 1673.43 430.5C1687.72 444.783 1702.01 460.365 1711.1 473.35C1726.69 492.827 1734.48 516.2 1735.78 544.767C1735.78 555.156 1733.18 564.245 1726.69 573.335C1721.49 581.126 1715 585.021 1708.5 586.32C1704.6 586.32 1699.41 585.021 1694.21 582.424C1673.43 572.036 1655.24 557.753 1640.96 539.574C1634.46 531.783 1629.26 523.992 1624.07 516.201L1620.17 509.708C1616.27 503.216 1612.38 498.021 1608.48 491.529C1601.99 482.439 1596.79 473.35 1590.3 464.261C1583.8 453.873 1574.71 444.783 1564.32 436.992C1556.52 430.5 1547.43 427.902 1537.04 427.902C1527.95 429.201 1518.85 433.096 1513.66 442.186V443.485V444.783C1516.25 464.261 1522.75 483.738 1531.84 503.216C1547.43 534.38 1566.91 564.245 1587.7 592.812C1609.78 623.976 1638.36 648.647 1674.73 666.827C1689.02 674.618 1703.31 682.409 1716.29 690.2C1746.17 707.08 1763.06 729.155 1768.25 759.02C1768.25 760.319 1769.55 762.916 1769.55 764.214C1769.55 765.513 1770.85 765.513 1772.15 766.811L1773.45 768.11L1774.75 766.811C1776.05 765.513 1776.05 765.513 1777.35 764.214C1778.65 761.617 1781.24 760.319 1782.54 757.722C1791.63 743.438 1799.43 729.155 1808.52 713.573C1815.02 701.886 1822.81 690.2 1829.3 678.513C1833.2 672.021 1835.8 664.23 1835.8 655.14C1838.4 592.812 1826.71 540.872 1800.73 498.021L1799.43 496.723C1790.34 482.44 1781.24 466.857 1772.15 452.574C1756.56 429.201 1738.38 403.231 1717.59 373.366C1694.21 340.903 1677.33 304.545 1664.34 264.291C1653.94 230.53 1647.45 200.665 1643.55 172.098C1642.25 164.307 1640.95 155.217 1638.36 147.426L1637.06 143.531C1637.06 140.934 1635.76 139.635 1634.46 137.038C1634.46 135.74 1633.16 134.441 1631.86 133.143L1633.16 127.948ZM1889.06 344.798L1881.26 352.589C1878.67 355.186 1877.37 355.186 1877.37 357.783C1872.17 364.276 1865.68 368.171 1857.88 368.171C1853.98 368.171 1848.79 368.172 1844.89 366.873C1834.5 364.276 1824.11 359.082 1815.02 349.992C1807.22 342.201 1798.13 334.41 1790.34 325.321C1776.05 307.142 1761.76 287.664 1748.77 269.485L1737.08 253.903C1724.09 235.724 1711.1 214.948 1699.41 188.978C1694.21 178.59 1689.02 168.202 1682.52 157.814C1676.03 147.426 1668.23 139.635 1659.14 134.441H1657.84H1656.54C1651.35 135.74 1652.65 139.635 1652.65 142.232L1655.24 155.217C1657.84 164.307 1659.14 174.695 1661.74 183.784C1669.53 224.038 1682.52 262.993 1700.71 304.545C1708.5 321.425 1718.89 338.306 1733.18 360.381L1746.17 378.559C1760.46 399.336 1776.05 421.41 1790.34 443.485C1802.03 461.664 1813.72 481.141 1824.11 499.32C1842.29 531.782 1850.09 569.439 1847.49 608.394C1847.49 613.588 1847.49 618.782 1846.19 625.275V629.17C1846.19 630.469 1847.49 630.469 1847.49 631.767L1848.79 634.364L1850.09 631.767C1860.48 620.081 1881.26 579.827 1907.24 522.693V520.096C1907.24 518.798 1907.24 516.201 1905.94 514.902C1898.15 488.932 1894.25 460.365 1892.95 425.306C1892.95 411.022 1891.65 395.44 1890.36 381.156L1889.06 370.768C1889.06 366.873 1887.76 362.977 1887.76 357.783C1887.76 355.186 1886.46 352.589 1886.46 348.694L1889.06 344.798ZM2038.44 526.589C2042.34 526.589 2044.93 526.589 2048.83 526.589C2070.91 525.29 2092.99 517.499 2112.48 505.812C2120.27 501.917 2126.77 498.021 2134.56 492.827L2146.25 486.335L2144.95 485.036C2142.36 479.842 2138.46 479.842 2135.86 479.842C2134.56 479.842 2134.56 479.842 2133.26 479.842C2129.37 478.544 2124.17 478.544 2120.27 477.246C2113.78 475.947 2107.28 474.648 2100.79 473.35C2089.1 470.753 2081.3 464.26 2076.11 455.171C2070.91 446.081 2070.91 435.694 2074.81 424.007C2081.3 404.529 2091.7 388.947 2107.28 377.261C2116.38 370.768 2125.47 365.574 2134.56 364.276C2142.36 362.977 2150.15 361.679 2157.94 360.381C2163.14 359.082 2168.33 359.082 2173.53 357.783C2177.43 357.783 2180.03 356.485 2183.92 356.485C2193.01 355.186 2202.11 353.888 2211.2 351.291C2233.28 346.097 2248.87 334.411 2257.96 314.933C2261.86 307.142 2265.76 299.351 2270.95 292.858C2273.55 290.261 2274.85 286.366 2277.45 282.47L2282.64 275.978L2276.15 272.082L2274.85 278.575C2273.55 278.575 2273.55 278.575 2272.25 278.575H2270.95C2268.35 279.873 2265.76 281.172 2264.46 283.769L2261.86 285.067C2234.58 305.843 2203.41 318.828 2170.93 325.321C2160.54 327.918 2150.15 329.216 2137.16 330.515C2112.48 334.41 2089.1 339.604 2061.82 348.694C2035.84 357.783 2015.06 373.365 1991.68 394.141C1987.78 396.738 1985.18 401.932 1983.88 407.126C1977.39 418.813 1972.19 430.5 1967 443.485C1961.8 455.171 1955.3 466.857 1950.11 478.544C1946.21 487.633 1941.02 495.424 1937.12 504.514C1934.52 511.006 1930.62 517.499 1928.03 523.991C1926.73 526.588 1925.43 527.887 1925.43 530.484L1924.13 534.38L1925.43 535.678C1928.03 538.275 1929.33 539.574 1933.22 539.574C1934.52 539.574 1935.82 539.573 1937.12 538.275C1959.2 531.782 1982.58 527.887 2007.26 526.589C2013.76 526.589 2025.45 526.589 2038.44 526.589ZM2429.43 339.604C2424.23 340.903 2419.03 342.201 2413.84 344.798C2403.45 349.992 2391.76 356.485 2381.36 362.977C2344.99 386.35 2315.12 405.828 2283.94 426.604C2256.66 444.783 2233.28 457.768 2209.9 469.455C2176.13 483.738 2151.45 498.022 2128.07 513.604L2125.47 514.902C2125.47 514.902 2128.07 517.499 2129.37 518.797C2130.66 520.096 2130.66 520.096 2131.96 520.096C2146.25 520.096 2161.84 520.096 2178.73 518.797C2206 516.2 2228.09 511.007 2248.87 501.917H2250.17C2257.96 498.022 2267.06 494.126 2274.85 488.932C2285.24 482.44 2295.63 475.947 2306.02 469.455C2316.42 462.962 2326.81 456.47 2337.2 449.977L2342.4 447.38C2355.39 439.589 2368.38 431.798 2381.36 425.306C2407.34 413.619 2425.53 392.843 2438.52 361.679C2439.82 356.485 2441.12 351.291 2441.12 347.396C2441.12 344.799 2441.12 343.5 2438.52 340.903C2437.22 339.604 2434.62 338.306 2432.02 338.306L2429.43 339.604ZM1792.93 -151.229L1791.63 -149.931C1791.63 -148.632 1790.34 -148.632 1790.34 -147.334C1789.04 -146.035 1787.74 -143.438 1787.74 -140.841C1782.54 -122.662 1777.35 -104.483 1772.15 -86.3042C1770.85 -79.8117 1768.25 -72.0206 1766.95 -65.5281C1765.66 -57.7371 1763.06 -49.946 1761.76 -43.4534C1759.16 -34.3639 1756.56 -25.2747 1752.67 -14.8867C1733.18 31.8594 1737.08 78.6055 1763.06 121.456C1776.05 142.232 1790.34 161.71 1807.22 179.889C1815.02 187.68 1822.81 196.769 1829.3 205.859C1852.69 233.127 1870.87 265.59 1883.86 304.545C1883.86 305.843 1885.16 307.142 1885.16 308.44C1885.16 311.037 1886.46 313.635 1887.76 314.933C1903.35 348.694 1907.24 383.753 1908.54 416.216C1909.84 435.693 1909.84 452.574 1911.14 468.156C1911.14 473.35 1912.44 478.544 1913.74 483.738L1915.04 487.633C1915.04 488.932 1916.34 490.23 1916.34 491.529C1916.34 492.827 1917.63 494.126 1918.93 495.425L1920.23 499.32L1928.03 485.036C1931.92 478.544 1934.52 472.051 1937.12 465.559C1943.61 452.574 1950.11 439.589 1955.3 426.604C1966.99 403.231 1977.39 379.858 1989.08 355.186C1994.27 346.097 1994.27 337.007 1991.68 326.619C1986.48 305.843 1976.09 288.963 1961.8 275.978C1944.91 259.097 1924.13 239.62 1905.94 218.844C1887.76 198.068 1873.47 175.993 1863.08 151.322C1844.89 109.77 1834.5 74.7101 1831.9 39.6506C1831.9 33.1581 1830.6 27.9641 1829.3 21.4716C1828.01 14.9791 1828.01 9.78519 1826.71 3.29269C1824.11 -29.1699 1817.61 -62.9309 1808.52 -100.587C1805.92 -108.378 1804.62 -117.468 1803.33 -125.259C1802.03 -130.453 1800.73 -136.946 1799.43 -142.14V-143.438C1799.43 -146.035 1798.13 -149.931 1794.23 -151.229H1792.93ZM2381.36 133.143C2369.67 135.74 2360.58 138.336 2351.49 140.934C2335.9 147.426 2320.31 153.919 2304.73 159.113C2293.04 164.307 2280.05 169.501 2268.35 173.396C2251.47 179.889 2233.28 186.381 2215.1 194.172C2200.81 199.366 2186.52 201.963 2173.53 203.262H2172.23C2168.33 203.262 2164.44 203.262 2160.54 203.262C2151.45 201.963 2143.65 198.068 2138.46 192.874C2134.56 186.381 2133.26 178.59 2135.86 169.501C2138.46 157.814 2143.65 147.426 2150.15 140.934C2170.93 117.56 2194.31 105.874 2218.99 103.277C2222.89 103.277 2226.79 103.277 2231.98 103.277C2238.48 103.277 2244.97 103.277 2251.47 103.277C2282.64 100.68 2309.92 87.695 2335.9 64.322L2346.29 55.2327C2364.48 39.6507 2382.66 22.7699 2398.25 4.59085C2399.55 3.29236 2399.55 1.99402 2400.85 0.695526L2408.64 -9.69232L2400.85 -7.09558C2398.25 -5.79706 2396.95 -5.79691 2395.65 -4.49841C2393.06 -3.19989 2390.46 -3.20013 2389.16 -1.90164C2370.97 9.78488 2350.19 18.8745 2322.91 26.6656C2286.54 37.0536 2252.77 52.6355 2217.7 77.307C2204.71 86.3965 2190.42 95.486 2177.43 101.978C2160.54 111.068 2144.95 121.456 2126.77 135.74C2116.38 144.829 2104.69 152.62 2092.99 161.71C2086.5 165.605 2082.6 170.799 2080 177.292C2069.61 203.262 2059.22 229.232 2048.83 255.202C2039.74 278.575 2029.35 300.649 2018.95 324.022L2009.86 346.097C2007.26 351.291 2004.67 356.485 2005.96 365.574V369.47L2008.56 366.873C2054.03 335.709 2103.39 325.321 2141.06 318.828L2150.15 317.53C2155.34 316.231 2160.54 316.232 2165.74 314.933C2203.41 308.44 2238.48 292.858 2268.35 268.187C2286.54 252.605 2306.02 239.62 2329.41 225.336C2350.19 212.351 2368.37 196.769 2385.26 174.695C2389.16 169.501 2391.76 164.307 2394.35 159.113L2395.65 157.814C2396.95 155.217 2398.25 151.322 2398.25 148.725C2398.25 143.531 2398.25 139.635 2394.35 135.74C2391.76 133.143 2387.86 131.844 2383.96 131.844C2382.66 133.143 2382.66 133.143 2381.36 133.143ZM2073.51 -96.6921L2069.61 -92.7967C2068.31 -91.4982 2067.02 -90.1995 2065.72 -88.901C2060.52 -85.0055 2056.62 -82.4085 2051.43 -82.4085C2047.53 -82.4085 2042.34 -83.7072 2037.14 -86.3042C2028.05 -91.4982 2021.55 -97.9907 2016.36 -105.782C2008.56 -117.468 2003.37 -130.453 1996.87 -142.14C1994.27 -147.334 1991.68 -152.528 1990.38 -156.423C1987.78 -162.916 1983.88 -170.707 1979.98 -177.199C1976.09 -184.99 1970.89 -191.483 1964.4 -196.677C1960.5 -200.572 1955.3 -201.871 1951.41 -201.871C1947.51 -201.871 1942.31 -199.274 1938.42 -190.184C1933.22 -178.498 1930.62 -165.513 1930.62 -151.229C1930.62 -135.647 1935.82 -118.767 1944.91 -99.2892C1954.01 -79.8117 1965.7 -60.3339 1978.69 -42.1549C1990.38 -26.5728 2003.37 -10.9911 2015.06 4.59085C2020.25 12.3819 2025.45 20.1731 2030.64 27.9641C2038.44 39.6506 2042.33 53.9342 2042.33 68.2177C2042.33 101.979 2038.44 135.74 2029.35 168.202C2026.75 175.993 2022.85 185.083 2017.65 194.172C2013.76 200.665 2008.56 203.262 2003.37 204.56C2000.77 204.56 1996.87 204.56 1992.97 203.262C1982.58 199.366 1973.49 192.874 1964.4 182.486C1944.91 160.411 1930.62 137.038 1920.23 112.367C1908.54 83.7997 1900.75 52.6357 1894.25 16.2777C1891.66 3.29269 1890.36 -9.69266 1889.06 -21.3792L1887.76 -34.3642C1886.46 -48.6477 1881.26 -60.334 1874.77 -70.722L1868.27 -78.5132C1850.09 -101.886 1831.9 -126.557 1818.91 -152.527L1817.61 -153.826L1811.12 -151.229V-147.334C1811.12 -144.737 1811.12 -143.438 1811.12 -140.841L1812.42 -134.349C1815.02 -123.961 1816.32 -113.573 1820.21 -103.185C1830.6 -62.931 1838.4 -25.2747 1841 11.0834C1841 14.9789 1842.29 18.8744 1842.29 24.0684C1842.29 27.9639 1843.59 31.8594 1843.59 37.0534C1847.49 70.8144 1855.28 104.576 1872.17 144.829C1887.76 183.784 1913.74 218.844 1951.41 255.202L1959.2 261.694C1964.4 266.888 1969.59 270.784 1973.49 275.978C1987.78 290.261 1995.57 304.545 1999.47 320.127C1999.47 321.425 2000.77 322.724 2000.77 324.022L2002.07 325.321L2003.37 326.619H2004.67C2009.86 326.619 2011.16 322.724 2011.16 320.127V318.828C2022.85 291.56 2034.54 264.291 2046.23 237.023C2046.23 237.023 2056.62 212.351 2060.52 205.859C2068.31 188.978 2074.81 172.098 2082.6 155.217C2087.8 144.829 2087.8 135.74 2082.6 126.65C2063.12 85.0983 2057.92 40.9489 2067.02 -8.39413C2070.91 -26.5732 2073.51 -47.3491 2077.41 -72.0206V-74.6174C2078.71 -78.5129 2078.71 -83.707 2074.81 -88.901L2073.51 -96.6921ZM2409.94 -40.8567C2386.56 -39.5582 2368.37 -35.6624 2351.49 -29.1699C2338.5 -23.9759 2325.51 -20.0807 2312.52 -14.8867C2300.83 -10.9911 2291.74 -8.39413 2281.34 -8.39413C2273.55 -8.39413 2267.06 -8.39383 2260.56 -9.69232H2257.96C2255.37 -9.69232 2254.07 -9.69241 2251.47 -10.9909C2243.67 -13.5879 2238.48 -20.0807 2238.48 -27.8717C2238.48 -35.6627 2239.78 -43.4535 2242.38 -51.2445C2247.57 -68.1251 2259.26 -82.4085 2274.85 -95.3935C2283.94 -101.886 2293.04 -108.378 2302.13 -113.572L2306.02 -116.17C2311.22 -120.065 2316.42 -122.662 2322.91 -125.259C2328.11 -127.856 2332 -130.453 2337.2 -134.349C2354.09 -144.737 2368.38 -159.02 2380.07 -178.497C2385.26 -187.587 2390.46 -196.677 2395.65 -205.766C2399.55 -212.259 2402.15 -218.751 2406.04 -223.945C2412.54 -234.333 2415.14 -246.02 2413.84 -259.005V-266.796C2413.84 -273.288 2413.84 -281.079 2413.84 -287.572C2413.84 -322.631 2417.74 -349.9 2425.53 -374.571C2428.13 -379.765 2429.43 -386.258 2429.43 -392.75C2430.73 -399.243 2430.73 -408.332 2422.93 -414.825L2421.63 -416.123L2420.33 -413.526C2420.33 -412.228 2419.03 -412.228 2419.03 -410.93C2417.74 -409.631 2417.74 -408.332 2416.44 -407.034C2412.54 -396.646 2407.34 -386.258 2403.45 -377.168C2395.65 -358.989 2387.86 -340.81 2380.07 -322.631C2372.27 -304.452 2363.18 -286.273 2354.09 -268.094C2337.2 -234.333 2316.42 -201.871 2290.44 -169.408C2263.16 -135.647 2237.18 -104.483 2211.2 -74.6174C2185.22 -44.7519 2161.84 -9.69257 2141.06 31.8595C2125.47 61.725 2112.48 92.889 2096.89 129.247C2095.59 131.844 2094.29 134.441 2094.29 137.038L2092.99 142.232L2098.19 147.426C2098.19 147.426 2103.39 143.531 2104.69 142.232C2108.58 139.635 2112.48 137.038 2115.08 134.441C2133.26 117.56 2154.05 103.277 2177.43 90.2921C2189.12 83.7995 2202.11 76.0087 2215.1 66.9192C2252.77 39.6506 2287.84 22.7701 2324.21 13.6805C2354.09 7.18802 2380.07 -7.0954 2398.25 -17.4834C2403.45 -20.0804 2408.64 -23.9762 2413.84 -27.8717C2416.44 -29.1702 2421.63 -33.0656 2421.63 -33.0656V-34.3642C2419.03 -39.5582 2415.14 -39.5581 2412.54 -39.5581L2409.94 -40.8567ZM2398.25 -416.123C2387.86 -403.138 2378.77 -390.154 2368.38 -378.467C2365.78 -375.87 2364.48 -373.273 2361.88 -370.676C2359.28 -366.78 2356.68 -364.183 2354.09 -360.288C2341.1 -343.407 2328.11 -331.721 2312.52 -326.527C2299.53 -321.333 2293.03 -312.243 2293.03 -296.661C2293.03 -291.467 2291.74 -287.572 2291.74 -282.378C2291.74 -278.482 2290.44 -275.885 2290.44 -271.99C2289.14 -257.706 2285.24 -244.721 2281.34 -233.035C2277.45 -221.348 2270.95 -210.96 2260.56 -201.871C2235.88 -179.796 2218.99 -152.528 2204.71 -129.155C2198.21 -117.468 2191.72 -107.08 2183.92 -97.9907C2180.03 -92.7967 2174.83 -90.1995 2170.93 -88.901C2164.44 -88.901 2159.24 -95.3934 2156.64 -100.587C2152.75 -108.378 2150.15 -117.468 2147.55 -126.557C2143.65 -144.736 2141.06 -164.214 2137.16 -182.393C2131.96 -212.259 2125.47 -235.632 2115.08 -256.408C2109.88 -266.796 2104.69 -277.184 2094.29 -286.273C2090.4 -288.87 2086.5 -292.766 2081.3 -295.363C2077.41 -296.661 2073.51 -297.96 2069.61 -297.96C2061.82 -297.96 2056.62 -292.766 2054.03 -283.676C2051.43 -277.184 2051.43 -269.393 2050.13 -260.303C2048.83 -236.93 2054.03 -213.557 2061.82 -188.886C2068.31 -170.707 2073.51 -151.229 2077.41 -131.752C2078.71 -125.259 2080 -118.766 2082.6 -113.572C2086.5 -99.2889 2087.8 -83.7069 2085.2 -68.1249C2082.6 -44.7519 2080 -25.2745 2076.11 -5.797C2069.61 27.9641 2070.91 59.1279 2080 88.9935C2081.3 95.486 2083.9 101.979 2089.1 109.77L2091.7 112.367L2108.58 76.0084L2118.97 53.9341C2125.47 38.3521 2133.26 24.0686 2139.76 8.4866C2155.34 -22.6774 2174.83 -53.8414 2203.41 -87.6024L2212.5 -97.9907C2230.68 -120.065 2248.87 -142.139 2267.06 -165.512C2300.83 -209.662 2329.41 -256.408 2352.79 -305.751C2360.58 -323.93 2369.67 -340.81 2378.77 -357.691C2383.96 -368.079 2389.16 -378.467 2394.35 -388.855C2398.25 -395.347 2400.85 -403.139 2403.45 -410.93L2407.34 -418.72C2407.34 -420.019 2407.34 -421.317 2406.04 -422.616V-423.915H2404.75H2403.45C2403.45 -421.318 2400.85 -417.422 2398.25 -416.123Z" fill="#E8E0D5"/>
<g style="mix-blend-mode:color-dodge" opacity="0.5">
<path d="M-134.463 296.217C-133.569 295.927 -132.53 296.084 -131.794 296.833L-128.098 299.092C-125.139 300.601 -122.18 302.111 -119.667 303.766C-113.604 307.233 -107.239 310.107 -101.176 313.574C-95.7044 316.739 -89.9311 319.311 -84.4597 322.476C-72.4783 328.962 -60.9559 337.079 -49.0109 348.022C-45.4721 351.32 -42.5252 354.315 -39.8802 357.902C-37.2352 361.49 -35.1821 364.775 -32.8269 367.468C-28.5636 373 -23.1044 377.65 -16.3045 381.866C-6.40051 388.038 3.5035 394.21 13.4075 400.382L21.3911 405.202C21.9829 405.504 22.4297 405.359 23.0216 405.661C23.0216 405.661 23.4685 405.516 24.0604 405.818L26.1378 406.132L24.2296 403.294C24.0847 402.847 23.4928 402.545 23.3479 402.098C22.4663 400.902 21.5846 399.706 20.558 398.064C18.6498 395.225 16.2947 392.532 14.3864 389.693C8.22698 379.838 1.33083 369.233 -3.7777 358.048C-6.70035 352.082 -10.3476 343.881 -12.799 334.798C-15.9749 323.481 -17.3633 311.584 -17.1089 298.66C-16.8058 279.794 -19.921 261.049 -25.7177 243.174L-27.0219 239.152C-29.9202 230.214 -32.9634 220.829 -37.2025 212.326C-37.3474 211.879 -37.3474 211.879 -37.4923 211.432C-37.0454 211.287 -36.5985 211.142 -36.1515 210.997C-36.1515 210.997 -36.1515 210.997 -35.4148 211.746C-32.3351 216.674 -28.8084 221.457 -25.7287 226.385C-20.4509 235.045 -15.0282 244.152 -9.9197 255.337C-6.70722 262.197 -3.34985 269.504 -0.439377 276.957C4.35501 290.218 8.84738 304.072 12.4459 318.216C15.7547 331.465 19.5225 343.085 25.0779 354.124C30.9232 366.057 36.6236 377.544 42.179 388.583C45.1016 394.55 48.6161 400.818 51.8407 406.193C53.0122 408.283 54.3287 410.819 55.5001 412.909C55.79 413.803 56.3818 414.104 56.6717 414.998L57.6982 416.641L58.592 416.351C59.4858 416.061 59.6429 415.023 59.945 414.431C59.8 413.984 59.8 413.984 59.6551 413.537C58.2303 406.097 58.1462 398.222 58.207 390.794C58.3763 388.27 58.4006 385.298 59.0167 382.629C59.0289 381.144 59.186 380.105 59.6451 378.474C60.0079 370.455 58.885 362.423 55.8296 354.524C52.4844 345.731 50.1901 335.609 48.9467 324.159L48.6569 323.265C48.8139 322.227 48.3792 320.886 48.0894 319.992C47.6547 318.652 47.8117 317.613 47.3769 316.272C46.8094 312.999 46.0971 309.279 45.5296 306.006C43.5129 298.264 41.9431 290.377 40.0714 283.082C39.359 279.362 38.1997 275.786 37.4873 272.066C37.1974 271.172 36.9076 270.279 36.9198 268.793L36.6299 267.899C37.5237 267.609 38.4176 267.32 38.4176 267.32C38.4176 267.32 39.0094 267.622 39.2992 268.515C40.4586 272.091 41.6179 275.666 42.7772 279.241C45.8204 288.626 49.8781 301.138 56.6172 312.782C58.8152 316.514 61.448 321.587 63.9359 326.213C65.3972 329.196 67.4504 332.482 68.9117 335.465C70.0832 337.554 71.2548 339.644 72.4262 341.734C72.5712 342.18 73.0059 343.521 74.9384 343.388L75.3854 343.243L75.8444 341.613C76.1464 341.021 75.8566 340.127 76.1586 339.535C76.642 334.934 77.5723 330.187 79.3964 325.15C81.3777 319.075 83.6487 313.894 86.6565 309.461C91.3314 301.031 94.3756 292.142 95.8015 281.308C96.7683 272.104 97.7351 262.901 98.7019 253.698L100.14 241.378C99.9951 240.931 100.442 240.786 100.297 240.339C100.454 239.301 100.309 238.854 100.611 238.262C100.913 237.67 101.215 237.078 101.662 236.933C101.662 236.933 102.109 236.788 102.556 236.643L102.701 237.09C102.846 237.537 102.991 237.984 103.136 238.431L103.836 243.637C104.391 248.395 105.091 253.601 105.2 258.505C106.141 270.547 107.699 279.919 110.005 288.555C110.44 289.896 110.875 291.236 110.863 292.722L111.442 294.51C113.024 300.911 113.567 307.155 113.362 314.136C113.047 316.214 113.18 318.146 112.866 320.224C112.069 326.903 110.377 333.872 107.49 341.723C103.987 352.242 101.824 362.327 101.594 372.28L101.739 372.727C101.727 374.212 101.57 375.251 101.557 376.737L101.255 377.328C99.9744 388.609 97.2078 399.878 92.6657 410.241C90.3946 415.422 87.8338 419.71 84.6811 423.695C83.9321 424.432 83.3282 425.616 82.1324 426.497C81.0814 427.826 80.3325 428.563 79.2816 429.891L78.9797 430.483C77.1799 432.548 75.5249 435.061 74.3169 437.428C73.109 439.795 72.3479 442.017 72.1787 444.542C72.0094 447.066 72.2871 449.445 73.4586 451.535C76.6589 459.881 81.7674 471.065 88.8207 480.631C88.9656 481.078 89.8472 482.274 91.6349 481.694L92.0818 481.549L92.4081 477.986C92.5774 475.462 92.6017 472.491 92.771 469.967L92.7831 468.481C93.1216 463.432 93.1581 458.975 93.4966 453.927L93.3517 453.48C93.8837 442.936 97.8218 433.757 104.127 425.785L104.731 424.602C105.48 423.865 106.531 422.537 107.28 421.8L108.778 420.326C111.327 417.524 113.875 414.722 116.871 411.775C123.913 404.553 129.18 396.425 132.828 386.352L136.935 374.648C138.917 368.573 142.081 363.102 145.693 357.486L148.701 353.053C150.356 350.541 152.011 348.029 153.666 345.516C164.344 329.707 172.341 314.766 177.076 298.908C178.901 293.872 180.58 288.388 182.996 283.654C183.902 281.878 184.361 280.248 185.122 278.026C185.726 276.842 185.883 275.803 186.632 275.066C187.381 274.33 187.683 273.738 189.011 274.789C189.156 275.236 188.854 275.827 188.999 276.274C188.842 277.313 188.987 277.76 188.83 278.799C188.975 279.246 188.673 279.837 188.818 280.284C188.008 288.449 185.713 296.601 182.68 304.005C181.013 308.003 179.201 311.554 177.836 314.96L176.628 317.327C173.149 324.876 170.419 331.688 168.583 338.21C165.973 348.44 163.811 358.525 162.107 366.979C159.473 380.181 154.762 393.068 147.538 404.3C134.891 424.699 122.727 440.497 109.392 454.205C101.601 462.164 97.5056 472.382 96.6593 485.004C96.3573 485.596 96.6472 486.489 96.3452 487.081C96.3087 491.538 97.468 495.113 99.5212 498.398C100.403 499.594 101.429 501.237 102.456 502.879C102.746 503.773 103.338 504.075 103.627 504.969L108.615 512.735C115.065 523.485 122.251 534.983 128.398 546.325C128.688 547.219 129.425 547.968 129.714 548.861C130.004 549.755 130.741 550.504 131.031 551.398C130.004 549.755 128.531 548.257 127.504 546.615C123.833 541.385 120.161 536.155 116.49 530.925C112.673 525.248 109.001 520.018 105.185 514.342C104.303 513.146 103.422 511.95 101.791 511.491C95.8607 509.957 90.3772 508.278 84.1326 508.821C78.3349 509.22 74.1678 510.077 70.0007 510.934C55.8566 514.533 41.9902 520.511 28.5585 527.83C11.9863 537.649 -6.4941 544.63 -25.844 548.929C-35.9659 551.223 -46.2084 550.1 -56.4265 546.005C-59.2407 544.942 -62.1999 543.432 -65.7509 541.62C-76.2588 536.632 -87.0688 532.235 -98.7726 528.128C-102.626 526.908 -106.623 525.241 -110.476 524.021L-111.66 523.417C-112.699 523.26 -113.882 522.656 -114.474 522.354C-114.619 521.907 -114.764 521.461 -114.909 521.014C-115.054 520.567 -114.752 519.975 -113.858 519.685C-112.819 519.842 -111.926 519.552 -110.44 519.564C-101.526 519.637 -93.0712 521.34 -82.3939 523.805C-67.4169 527.344 -51.8358 529.7 -37.1364 530.86C-33.1264 531.041 -29.1163 531.222 -24.6593 531.259C-15.2985 531.187 -7.39904 528.131 -0.0670603 521.802C2.62658 519.447 5.62218 516.5 9.06471 513.408C13.2562 509.58 16.2518 506.633 19.9842 504.435C32.6791 496.367 45.9294 493.058 60.3268 494.81C65.3756 495.148 70.2672 496.525 75.1589 497.902C83.3117 500.198 89.532 502.625 95.3054 505.198C95.3054 505.198 95.3054 505.198 95.8972 505.5C96.4891 505.802 97.6727 506.406 99.3154 505.38L99.6174 504.788L99.3275 503.894C93.9048 494.787 86.9965 485.668 81.7066 478.493L81.5617 478.046L77.2375 479.942C74.556 480.812 72.4663 481.984 70.2318 482.708C63.2261 485.474 55.6287 487.937 47.5843 490.546C36.2666 493.722 25.3958 496.753 15.5637 499.942C11.0946 501.391 6.62548 502.84 2.15636 504.289C-1.86583 505.594 -5.88803 506.898 -9.91022 508.202C-17.0608 510.521 -24.0543 511.801 -30.6009 512.936C-39.08 514.204 -47.9939 514.131 -57.0406 512.126C-72.7666 509.324 -87.0191 508.019 -100.088 507.318C-103.059 507.293 -106.175 506.822 -109.292 506.351L-111.816 506.182C-112.855 506.025 -113.894 505.868 -114.932 505.711C-114.932 505.711 -115.524 505.409 -115.367 504.37C-115.21 503.331 -115.053 502.293 -113.567 502.305C-112.673 502.015 -111.188 502.027 -110.149 502.184C-99.7494 502.269 -88.903 502.209 -78.5034 502.294C-70.6283 502.21 -63.4898 501.376 -56.6412 499.65C-46.0724 497.21 -36.3853 493.575 -27.133 488.599C-14.0033 481.872 -1.5019 479.3 11.12 480.146C15.7219 480.629 20.7706 480.967 25.2275 481.004C28.7907 481.33 32.2089 481.209 35.3251 481.68C48.9858 482.683 62.2239 480.86 75.1844 476.657L75.6312 476.512C76.525 476.222 77.4189 475.933 78.0229 474.749L77.8779 474.302L68.3855 454.168L52.9737 449.288C39.7842 445.169 26.5583 445.506 14.4795 450.905C0.166166 457.028 -15.0166 460.47 -31.2139 460.783C-33.1464 460.916 -35.079 461.049 -36.5646 461.037C-39.089 460.868 -41.4685 461.145 -44.4397 461.121C-52.3149 461.205 -59.9003 462.183 -67.4978 464.647C-70.6262 465.661 -73.7545 466.676 -76.8829 467.69C-84.4804 470.154 -92.5248 472.763 -100.569 475.371C-111.15 479.296 -120.97 480.999 -131.08 481.808C-133.459 482.086 -136.128 481.47 -139.1 481.445C-140.585 481.433 -140.875 480.539 -141.02 480.092C-141.02 480.092 -141.02 480.092 -141.165 479.646C-140.863 479.054 -140.561 478.462 -139.812 477.725C-138.918 477.435 -138.616 476.844 -137.723 476.554C-135.935 475.974 -134.594 475.539 -132.951 474.513L-131.611 474.078C-119.242 469.573 -108.504 464.609 -98.8049 459.489C-90.4463 454.803 -82.2448 451.155 -73.7534 448.402C-66.156 445.938 -58.5585 443.475 -51.4079 441.156L-42.4697 438.257C-24.5932 432.461 -7.93693 430.516 8.83996 431.99L9.29904 430.36L8.11538 429.756C7.52356 429.454 6.78677 428.705 5.74804 428.548C-4.31302 423.415 -14.3619 416.796 -23.5169 409.887C-30.3047 404.186 -36.7905 397.893 -42.9621 389.522C-47.3704 383.544 -52.2256 377.71 -57.5277 372.021C-61.5012 367.383 -65.7768 363.337 -69.6054 359.145C-72.5524 356.15 -75.6442 352.708 -78.5912 349.712C-91.5506 335.641 -102.602 324.408 -114.112 314.806C-117.651 311.508 -121.492 308.802 -125.03 305.505C-127.096 303.705 -129.608 302.051 -131.673 300.251C-133.002 299.2 -134.33 298.149 -135.212 296.954L-135.357 296.507C-135.212 296.954 -134.91 296.362 -134.463 296.217ZM35.9313 443.949L33.564 442.741C18.6112 436.23 5.40963 433.597 -8.5652 434.671C-19.1218 435.625 -29.6906 438.064 -39.9696 441.398C-52.4831 445.456 -62.6171 449.236 -72.0023 452.279C-80.9405 455.177 -88.9971 459.272 -98.2495 464.247C-104.216 467.17 -110.63 470.238 -117.044 473.305C-119.581 474.622 -122.709 475.636 -125.837 476.651C-127.178 477.085 -128.966 477.665 -130.753 478.245L-130.621 480.177L-128.688 480.045C-127.649 480.202 -127.202 480.057 -126.756 479.912C-120.511 479.368 -113.662 477.641 -105.618 475.033C-102.043 473.874 -98.0205 472.569 -94.5901 470.963C-91.0148 469.804 -87.8864 468.789 -84.3111 467.63C-78.0544 465.601 -73.7302 463.705 -69.406 461.809C-57.1823 456.857 -44.2219 452.654 -28.8942 449.659L-28.0004 449.37C-18.3254 447.22 -8.05858 445.372 1.60422 444.708C10.2283 443.887 18.2483 444.25 25.8215 444.758C28.3459 444.927 30.4234 445.241 33.9987 444.081L35.9313 443.949ZM60.7039 448.756L60.2691 447.416C59.6894 445.628 58.5058 445.024 57.769 444.275L57.1772 443.973C41.2101 434.335 25.6898 424.551 9.57777 414.465C-3.28534 406.783 -13.769 398.823 -23.2139 391.021C-29.4098 385.622 -35.3037 379.631 -40.6059 373.942L-43.6978 370.5C-57.1041 356.573 -71.2592 343.383 -87.4919 329.88C-91.6225 326.28 -95.9102 323.72 -100.053 321.606L-101.104 322.934L-100.959 323.381C-100.814 323.828 -100.222 324.13 -100.077 324.577C-87.2507 336.716 -75.173 349.591 -63.6871 362.165C-60.0034 365.909 -56.7666 369.799 -53.0829 373.543C-48.6624 378.036 -44.9908 383.266 -40.8724 388.351L-38.2275 391.938C-34.109 397.023 -29.6886 401.516 -24.8212 405.865C-16.56 413.063 -7.24776 418.934 2.22146 423.765C18.2008 431.918 31.0761 438.115 42.9248 442.669C46.3308 444.034 49.5919 444.952 52.4061 446.014L55.6673 446.932C56.2591 447.234 56.706 447.09 57.2979 447.392C57.7448 447.247 57.7448 447.247 58.3366 447.549L60.7039 448.756ZM-88.3614 327.198L-87.7695 327.5L-81.5736 332.899C-75.5226 337.852 -69.7735 343.396 -63.7225 348.348C-55.3163 355.994 -46.4755 364.98 -36.7529 375.162C-25.267 387.735 -11.0997 399.44 6.34094 410.576C15.798 416.893 25.1102 422.763 34.5672 429.081L49.4957 438.562C50.0875 438.864 50.6793 439.166 51.2711 439.468L53.0466 440.374L54.0975 439.046C53.9526 438.599 53.2158 437.85 53.0709 437.403C52.7811 436.509 52.1893 436.207 52.0444 435.76C47.3341 430.373 42.6238 424.986 37.7686 419.153C36.887 417.957 35.5584 416.906 34.2298 415.855C27.587 410.601 20.6421 405.938 12.6586 401.119L5.85863 396.904C0.242354 393.292 -5.82084 389.826 -11.4371 386.214C-19.4207 381.395 -25.3268 376.889 -29.8922 371.949C-33.431 368.652 -36.2209 364.618 -38.8658 361.031L-40.4842 359.086C-43.2741 355.052 -46.366 351.609 -50.4966 348.01C-61.5599 338.263 -72.4905 330.448 -84.025 323.817C-85.2086 323.213 -85.9454 322.464 -87.129 321.86L-87.7209 321.558L-87.4189 320.966L-88.4577 320.809L-89.6413 320.205L-89.4964 320.652C-89.9433 320.797 -90.3902 320.942 -90.5473 321.981L-90.4024 322.428L-90.2574 322.874C-90.1125 323.321 -89.6656 323.176 -89.0738 323.478C-89.6899 326.148 -89.0981 326.45 -88.3614 327.198ZM-76.8385 534.844C-76.6936 535.291 -76.6935 535.291 -76.1017 535.593C-74.3262 536.499 -72.5508 537.405 -70.3284 538.166C-65.5938 540.582 -60.8592 542.997 -55.8226 544.821C-46.4982 549.206 -36.4007 549.883 -25.8319 547.443C-8.41456 543.277 7.83135 537.021 23.2077 528.084C39.031 519.002 53.7913 512.733 68.3823 508.99C68.8292 508.845 69.2761 508.7 69.723 508.555C70.1699 508.41 70.6168 508.265 71.0637 508.12L74.0472 506.659C75.086 506.816 75.9798 506.526 76.5716 506.828C78.5042 506.695 80.5816 507.009 82.5142 506.877L86.5243 507.058L86.0895 505.717L85.9446 505.27C85.7997 504.823 85.6547 504.377 85.0629 504.075C76.9101 501.779 67.2716 499.472 57.621 498.651C44.1052 498.095 31.4468 501.706 20.5395 509.194C17.2541 511.247 14.7054 514.049 11.5648 516.549C11.5648 516.549 8.56917 519.496 7.82027 520.233C5.12663 522.588 2.13101 525.535 -0.707533 527.443C-7.13354 531.996 -14.2841 534.315 -22.0144 534.846C-26.4713 534.81 -31.3752 534.918 -35.9771 534.435C-47.5602 533.746 -58.9864 532.018 -70.5574 529.844C-71.5961 529.687 -72.1879 529.385 -73.2267 529.228L-76.343 528.757L-75.3163 530.4C-75.1714 530.846 -75.1714 530.846 -75.1714 530.846C-75.0265 531.293 -74.8816 531.74 -74.2898 532.042C-72.5143 532.948 -70.8837 533.407 -69.1082 534.313C-69.7001 534.011 -70.2919 533.709 -71.3307 533.552C-71.9225 533.25 -72.9613 533.093 -74 532.936L-75.0387 532.779C-76.3672 531.728 -77.6959 530.677 -79.6284 530.81C-80.655 529.167 -82.5875 529.3 -83.4813 529.59L-85.4139 529.723L-83.9404 531.221C-83.2037 531.969 -81.8751 533.02 -80.3894 533.032C-79.9547 534.373 -78.7711 534.977 -76.8385 534.844ZM34.3462 492.369L37.0277 491.5L37.9215 491.21L39.7091 490.63C40.8927 491.234 42.0885 490.353 42.9823 490.063C43.4293 489.918 43.4293 489.918 43.4293 489.918L45.9537 490.087L46.4128 488.457C44.6373 487.551 43.7435 487.84 43.4415 488.432C41.8109 487.973 41.062 488.71 40.1681 489C38.5376 488.541 37.7887 489.277 37.0397 490.014C36.4479 489.712 36.001 489.857 35.5541 490.002C34.2134 490.437 32.7278 490.425 31.387 490.86C29.0076 491.137 26.3261 492.007 23.9466 492.285C19.7795 493.142 16.2042 494.301 12.0371 495.159C6.52924 496.451 0.574499 497.888 -4.93334 499.18C-21.4569 503.057 -39.1519 504.844 -55.9532 506.341L-62.1978 506.884L-61.908 507.778C-61.3283 509.565 -60.2896 509.722 -59.3958 509.433C-46.6411 512.211 -33.862 512.018 -21.5056 508.999C-13.7632 506.982 -5.57387 504.821 1.57671 502.502L2.47051 502.212C9.6211 499.893 17.3636 497.876 24.5141 495.558L34.3462 492.369ZM15.2527 447.197L15.2649 445.711L14.6731 445.409C14.2262 445.554 14.2261 445.554 13.6343 445.252C13.0425 444.95 12.1487 445.24 11.7018 445.385C9.76923 445.518 7.83664 445.651 5.45717 445.928C0.698225 446.484 -4.65254 446.737 -9.71348 447.885C-22.3598 450.01 -35.1631 453.174 -48.2684 456.93C-48.7153 457.075 -49.1622 457.22 -49.6091 457.365L-50.5029 457.654L-53.1844 458.524L-50.5152 459.14C-50.0682 458.995 -49.9233 459.442 -49.9233 459.442C-49.3315 459.744 -49.3315 459.744 -48.8846 459.599C-36.9994 459.696 -25.2591 459.346 -14.0985 457.209C-7.105 455.929 0.0456175 453.61 8.83892 450.265C10.1797 449.83 14.5038 447.934 14.5038 447.934L15.2527 447.197ZM39.8905 486.62L37.3661 486.451L36.7743 486.149C36.1824 485.847 35.7356 485.992 35.2887 486.137C32.3174 486.113 29.2011 485.642 25.7829 485.762C19.6954 485.267 13.3059 485.363 6.77144 485.013C-3.3261 484.336 -13.0011 486.486 -23.2922 491.305C-31.7957 495.544 -39.6952 498.599 -47.2926 501.063C-48.6334 501.498 -49.9741 501.932 -51.025 503.261L-52.9697 504.879L-50.5903 504.602C-31.8565 502.972 -13.5574 500.001 3.41301 495.98C10.2616 494.253 17.2551 492.973 23.8017 491.838C27.075 491.27 29.7564 490.401 33.0297 489.833C34.3705 489.398 35.8561 489.41 37.4988 488.384L39.8905 486.62ZM46.6227 408.379C46.49 406.447 45.6083 405.251 45.3185 404.357L45.0287 403.463C44.5939 402.123 43.5673 400.48 43.1326 399.139C41.3814 395.262 39.0385 391.083 37.2873 387.206C33.0483 378.703 28.6643 369.753 24.2804 360.803C18.1453 347.976 13.4958 335.161 10.1871 321.911C6.73344 308.215 2.68796 294.216 -1.94934 279.916C-4.84765 270.978 -9.23157 262.028 -13.0237 253.38C-13.1686 252.933 -13.1687 252.933 -13.7605 252.631C-13.7605 252.631 -13.9054 252.184 -14.3524 252.329L-16.5625 250.082L-15.9951 253.356C-15.8501 253.803 -15.7052 254.249 -15.5603 254.696C-15.2705 255.59 -15.1256 256.037 -14.8357 256.931C-11.3578 267.656 -9.81231 278.514 -8.85873 289.071C-8.31555 295.315 -7.77239 301.559 -6.78231 307.659C-5.39398 319.556 -2.65277 329.532 0.982281 339.219C5.35409 349.654 10.4748 359.353 17.528 368.919C21.3445 374.596 25.463 379.681 29.2794 385.358L36.6225 395.818L45.7289 408.669L46.6227 408.379ZM54.7745 428.948L52.2866 424.322C49.7988 419.696 46.8639 415.215 43.9291 410.734C41.1392 406.7 38.3493 402.666 35.7043 399.079L32.9145 395.045L29.2429 389.815C24.5448 382.942 19.9917 376.517 14.8466 369.789C0.450252 349.763 -7.84646 328.747 -10.1884 306.294C-10.4782 305.4 -10.1762 304.808 -10.466 303.915C-10.9008 302.574 -10.7437 301.535 -10.5866 300.496C-10.7316 300.049 -10.4296 299.458 -10.1276 298.866L-9.82554 298.274L-10.4174 297.972C-10.5623 297.525 -10.5623 297.525 -10.7072 297.078C-10.7072 297.078 -10.7072 297.078 -10.4052 296.487L-10.2482 295.448L-11.4318 294.844L-12.1807 295.581L-12.3256 295.134C-12.6276 295.726 -13.0745 295.87 -13.3765 296.462C-13.2316 296.909 -13.2316 296.909 -13.0867 297.356L-13.9805 297.646L-14.0048 300.617C-14.017 302.103 -13.8843 304.035 -13.7515 305.968C-12.5568 323.36 -9.11528 338.542 -2.25558 353.604C3.87953 366.431 10.1717 378.219 17.6597 389.126C20.4496 393.16 23.2395 397.194 26.4763 401.083C27.5029 402.726 28.9764 404.224 30.1479 406.313C31.1744 407.956 32.0561 409.152 33.5296 410.649L35.2929 413.041C38.8195 417.824 42.5032 421.568 46.4889 424.721C47.9624 426.218 49.291 427.269 50.7645 428.767C51.5012 429.516 52.238 430.265 52.9747 431.014C53.1196 431.46 53.7115 431.763 54.1584 431.618L54.8951 432.366L55.342 432.221C55.7889 432.077 56.0909 431.485 56.3929 430.893C55.5113 429.697 54.9195 429.395 54.7745 428.948ZM75.5768 374.296L75.7338 373.257C75.3234 368.945 75.3599 364.489 75.3964 360.032C75.4451 354.089 74.0081 348.135 70.4936 341.866C67.8608 336.793 64.6361 331.419 61.5564 326.491C60.3849 324.401 59.2135 322.312 58.042 320.222C56.1338 317.384 54.6725 314.4 52.7642 311.562L50.4212 307.383L48.3316 308.554C48.3316 308.554 49.1768 314.207 49.5994 317.033C50.1426 323.278 51.2775 329.824 51.8207 336.068C52.3882 339.341 53.1006 343.061 54.4049 347.083C56.4337 353.34 58.6074 360.043 62.1097 367.797C68.2326 382.11 71.5413 395.36 72.0358 407.547L72.1808 407.994C72.0237 409.032 71.8666 410.071 73.6421 410.977L74.3788 411.726L74.5359 410.687C75.1399 409.503 75.152 408.018 75.1642 406.532L75.3213 405.493C75.6355 403.416 75.6476 401.931 75.5149 399.998C76.1675 392.872 75.9386 384.55 75.5768 374.296ZM50.4471 485.667L47.6208 486.089L46.28 486.524L47.5964 489.06L50.4471 485.667ZM69.8489 420.603C70.7073 406.496 66.5899 383.137 62.6407 375.527L61.3243 372.991L60.7081 375.66C60.3818 379.223 60.0555 382.786 59.7292 386.349C58.7015 402.981 60.8023 418.598 65.5723 434.831L66.152 436.618L67.2028 435.29C68.8577 432.777 69.1719 430.7 69.8489 420.603ZM76.8668 416.352C76.5648 416.943 76.7096 417.39 76.8546 417.837C76.9995 418.284 77.1444 418.731 77.1444 418.731L77.2893 419.178L77.7363 419.033C79.077 418.598 79.6809 417.415 79.9829 416.823L80.285 416.231C85.7209 405.578 88.3304 395.348 89.0074 385.251C89.1767 382.727 89.3459 380.203 89.0682 377.823C89.2253 376.784 88.7905 375.444 88.9476 374.405C88.67 372.026 88.8392 369.501 88.5615 367.122C87.8613 361.916 88.0549 356.421 88.2484 350.925C88.6234 341.42 90.4841 331.927 93.8303 322.446C96.2706 314.74 99.17 305.404 100.886 295.464C101.816 290.717 102.601 285.523 102.795 280.028C102.989 274.532 103.182 269.037 102.639 262.793C102.494 262.346 102.651 261.307 102.506 260.86L102.374 258.927L101.48 259.217C100.586 259.507 99.8369 260.244 100.127 261.138L100.272 261.585C100.259 263.07 100.247 264.556 100.09 265.595C99.921 268.119 99.7518 270.643 99.5826 273.167C99.2441 278.216 98.4586 283.41 97.6733 288.603C96.7308 294.835 94.7495 300.91 91.5847 306.382C90.0747 309.341 88.2627 312.892 86.7527 315.851C82.3677 325.175 79.9153 334.366 79.0934 344.016C79.0812 345.502 79.069 346.988 79.0569 348.473L79.1896 350.406C79.1288 357.834 79.5149 365.117 79.901 372.4C80.7097 382.509 80.7816 391.87 79.9719 400.034C78.1355 406.556 77.3502 411.75 76.8668 416.352ZM89.5384 392.981C89.6833 393.428 89.2364 393.573 89.3813 394.02L89.2242 395.059C89.3691 395.505 89.514 395.952 89.514 395.952L89.659 396.399L90.1059 396.254C92.0385 396.121 92.0506 394.636 92.2077 393.597C93.44 388.259 94.3704 383.512 95.1557 378.319C95.3128 377.28 95.325 375.794 95.3372 374.309C96.0263 362.726 98.5031 350.563 103.372 336.638C104.894 332.193 106.271 327.301 107.201 322.555C107.672 319.439 108.144 316.323 108.47 312.759C108.821 306.225 108.277 299.981 106.84 294.026C106.551 293.133 106.406 292.686 106.116 291.792C105.693 288.966 104.969 286.731 103.809 283.156L102.795 280.028L102.469 283.591L102.01 285.221C101.708 285.813 101.853 286.26 101.551 286.852C100.861 298.435 97.9498 309.256 95.6544 317.409C95.1954 319.04 94.7363 320.67 94.2773 322.301C92.7551 326.745 91.8248 331.492 90.7496 335.792C89.5172 341.13 88.8767 346.771 88.6832 352.266C88.1998 356.868 88.3082 361.771 89.0085 366.977C89.2861 369.356 89.2617 372.328 89.5394 374.707L89.66 378.125C89.6357 381.096 90.0583 383.923 89.5871 387.039C90.0218 388.379 89.8526 390.904 89.5384 392.981ZM152.179 363.778L151.865 365.856C148.023 381.424 140.183 395.326 128.937 407.862C122.04 415.532 115.288 423.648 110.335 429.699C107.183 433.685 104.477 437.525 102.218 441.221L101.916 441.813C97.5553 448.166 96.6006 455.884 96.25 462.418L95.9479 463.01L96.5398 463.312C97.7234 463.916 98.4724 463.179 99.0764 461.995C100.743 457.997 103.449 454.157 107.194 450.473C118.584 438.383 129.251 424.059 140.69 406.027C149.121 392.427 154.727 379.251 157.216 365.602C158.146 360.856 159.523 355.964 160.308 350.771C160.623 348.693 162 343.802 162 343.802L161.118 342.606C160.973 342.159 160.828 341.712 160.683 341.265C161.577 340.975 162.326 340.239 162.785 338.608L162.64 338.161L162.508 336.229L159.065 339.321L157.881 338.717L157.869 340.202L155.925 341.821L157.857 341.688C157.555 342.28 157.108 342.425 156.806 343.016C156.359 343.161 156.504 343.608 156.057 343.753C152.446 349.369 149.438 353.802 146.285 357.787C141.175 364.877 137.551 371.979 134.664 379.83C134.06 381.013 133.903 382.052 133.299 383.236C133.142 384.274 132.538 385.458 132.381 386.497C128.878 397.016 123.007 406.328 115.216 414.288C111.471 417.971 107.872 422.102 103.523 426.969C99.9237 431.1 97.0607 435.979 95.2366 441.016C94.9346 441.607 94.7775 442.646 94.4756 443.238L94.3185 444.277L93.8594 445.907L95.2001 445.472L95.6471 445.327C96.094 445.183 96.6858 445.485 96.9878 444.893C101.82 435.424 109.019 427.162 115.916 419.493C119.963 415.218 123.562 411.087 127.609 406.812C137.502 396.195 144.58 384.516 148.845 371.774C149.751 369.998 150.065 367.921 150.524 366.291C151.575 364.962 151.877 364.37 152.179 363.778ZM-60.2308 538.843C-55.7861 540.365 -51.4862 541.44 -46.7394 542.37C-38.4295 543.626 -30.2524 542.95 -21.6161 540.643C-5.68442 536.465 8.03713 530.04 19.5484 521.368C23.5828 518.578 27.3151 516.38 31.0474 514.182C27.3151 516.38 23.1358 518.723 19.1015 521.513C6.39437 531.066 -8.22101 537.781 -24.2976 541.513C-36.2072 544.387 -48.2373 543.843 -59.4941 539.591C-59.639 539.145 -59.639 539.145 -60.2308 538.843Z" fill="url(#paint0_linear)"/>
</g>
</g>
<defs>
<linearGradient id="paint0_linear" x1="52.2539" y1="266.644" x2="57.3094" y2="564.287" gradientUnits="userSpaceOnUse">
<stop stop-color="#F2D201"/>
<stop offset="0.564236" stop-color="#F2CF01"/>
<stop offset="0.782986" stop-color="#F2CF03"/>
<stop offset="1" stop-color="#EFCC00"/>
</linearGradient>
<clipPath id="clip0">
<rect width="5266" height="5977" fill="white" transform="translate(-1926 -4161)"/>
</clipPath>
</defs>
</svg>
