<svg width="103" height="54" viewBox="0 0 103 54" fill="none" xmlns="http://www.w3.org/2000/svg">
<path fill-rule="evenodd" clip-rule="evenodd" d="M53.0185 14.5306V17.8227C58.7037 18.0749 60.9855 19.7478 61.4205 20.6177C65.1901 25.8009 78.1009 38.1463 99.5877 46.0625C101.001 46.5337 103.546 48.3243 102.415 51.7169C101.551 54.3081 99.6318 53.205 96.3345 51.3097C94.2355 50.1033 91.578 48.5758 88.2789 47.4761L61.4205 31.9265C58.1221 28.1569 49.829 22.5968 43.0437 30.5129C35.0333 35.6961 18.1644 46.3452 14.7717 47.4761L3.46296 53.1305C2.58932 53.3656 0.800788 53.4121 0.635765 51.7169C0.164565 50.3033 0.0703251 47.1934 3.46296 46.0625C7.70376 44.6489 30.3213 36.1673 41.6301 20.6177C42.0596 19.7586 44.2904 18.1164 49.8214 17.8328C49.2381 15.8647 49.7848 13.9299 50.1913 13.1169C51.0649 11.3696 51.3986 11.2422 51.8598 11.066C52.1448 10.9572 52.4785 10.8297 53.0185 10.2897C54.1494 9.15886 54.4321 7.93375 54.4321 7.46256C54.4321 4.74813 52.6222 4.11354 51.1746 4.20964H49.8995C49.8022 4.17987 49.7047 4.18125 49.6076 4.20964H45.0933C46.5876 0.434609 50.7296 0.013079 53.0185 0.394564C63.1964 6.04896 57.2593 12.1746 53.0185 14.5306ZM44.5954 6.31247C44.557 6.67508 44.5369 7.0581 44.5369 7.46256C44.5369 8.40495 45.1023 10.007 47.3641 8.87614C47.5421 8.16389 47.8279 7.1889 48.1755 6.31247H44.5954Z" fill="#DE961C"/>
<circle cx="3.33929" cy="50.4947" r="0.980892" fill="#52370A"/>
<circle cx="100.448" cy="50.4947" r="0.980892" fill="#52370A"/>
</svg>
