<svg width="48" height="25" viewBox="0 0 48 25" fill="none" xmlns="http://www.w3.org/2000/svg">
<path fill-rule="evenodd" clip-rule="evenodd" d="M24.6086 8.49489V6.54652C26.557 5.4641 29.2847 2.64979 24.6086 0.0519762C23.3097 -0.164509 20.7119 0.181867 20.7119 3.29925C20.7119 3.73222 20.9717 4.46826 22.0108 3.94869C22.2273 3.08276 22.5 2 23.3097 2.00033C23.9592 1.78385 25.2581 1.74056 25.2581 3.29925C25.2581 3.51573 25.1282 4.07859 24.6086 4.59815C24.3605 4.84622 24.2132 4.96341 24.0873 5.0635C23.8837 5.22546 23.7363 5.34265 23.3097 5.89706C23.2791 5.95837 23.2304 6.04371 23.171 6.14798C22.8639 6.68683 22.2686 7.73141 22.376 8.58047C20.4153 8.80965 19.5881 9.44344 19.413 9.79377C14.2173 16.9378 3.82609 20.8345 1.87772 21.484C0.319034 22.0035 0.362331 23.4323 0.578815 24.0818C0.654633 24.8606 1.47635 24.8392 1.87772 24.7312L7.07334 22.1334C8.63203 21.6138 16.3822 16.7213 20.0624 14.34C23.1798 10.703 26.9899 13.2575 28.5053 14.9894L40.845 22.1334C42.3607 22.6386 43.5816 23.3404 44.546 23.8947C46.0609 24.7654 46.9427 25.2723 47.3395 24.0818C47.8591 22.5231 46.6901 21.7004 46.0406 21.484C36.1689 17.847 30.2372 12.1751 28.5053 9.79377C28.3034 9.38986 27.2348 8.60917 24.5615 8.50617L24.6086 8.49489Z" fill="#433B11"/>
</svg>
