<svg width="326" height="116" viewBox="0 0 326 116" fill="none" xmlns="http://www.w3.org/2000/svg">
<path fill-rule="evenodd" clip-rule="evenodd" d="M193.695 20.2437H275.976C276.845 20.2437 277.578 20.9753 277.578 21.8441V80.1474C277.578 81.0163 276.845 81.7479 275.976 81.7479H193.695C192.825 81.7479 192.093 81.0163 192.093 80.1474V21.8441C192.139 20.9753 192.825 20.2437 193.695 20.2437Z" fill="#FFD706"/>
<path fill-rule="evenodd" clip-rule="evenodd" d="M194.611 22.713V26.6456H275.06V22.713H194.611ZM194.611 27.9717V36.1113H275.06V27.9717H194.611ZM194.611 37.4374V45.577H275.06V37.4374H194.611ZM194.611 46.9031V55.0427H275.06V46.9031H194.611ZM194.611 56.4145V64.5541H275.06V56.4145H194.611ZM194.611 65.8803V74.0199H275.06V65.8803H194.611ZM194.611 75.346V79.2329H275.06V75.346H194.611Z" fill="#FFD706"/>
<path d="M280.233 83.4399H190.673V86.8238H280.233V83.4399Z" fill="black"/>
<path fill-rule="evenodd" clip-rule="evenodd" d="M280.6 28.246H311.14C311.918 28.246 312.559 28.6576 312.834 29.3892L325.471 59.524C325.563 59.7527 325.609 59.9813 325.609 60.2557V99.2617C325.609 99.9476 325.059 100.496 324.372 100.496H319.198C319.198 91.808 312.147 84.7659 303.448 84.7659C294.748 84.7659 287.697 91.808 287.697 100.496H280.6C279.913 100.496 279.363 99.9476 279.363 99.2617V29.4807C279.363 28.7948 279.913 28.246 280.6 28.246Z" fill="#FFD706"/>
<path fill-rule="evenodd" clip-rule="evenodd" d="M281.699 33.5048C281.699 31.9043 283.026 30.5782 284.629 30.5782H308.896C310.087 30.5782 311.14 31.2641 311.598 32.3616L321.213 55.3171C321.58 56.2316 321.488 57.2377 320.939 58.0608C320.389 58.8839 319.473 59.3869 318.466 59.3869H307.843C307.019 59.3869 306.287 59.0668 305.737 58.518L301.479 54.1739C301.341 54.0367 301.158 53.9452 300.975 53.9452H284.583C282.981 53.9452 281.653 52.6191 281.653 51.0186V33.5048H281.699Z" fill="#FFD706"/>
<path fill-rule="evenodd" clip-rule="evenodd" d="M282.797 33.5048V50.9729C282.797 51.9789 283.622 52.8021 284.629 52.8021H301.021C301.524 52.8021 301.982 52.985 302.349 53.3508L306.607 57.695C306.973 58.0608 307.431 58.2437 307.935 58.2437H318.557C319.198 58.2437 319.748 57.9693 320.068 57.4206C320.435 56.8719 320.48 56.2774 320.252 55.6829L310.636 32.7274C310.361 32.0415 309.675 31.5842 308.942 31.5842H284.675C283.622 31.6757 282.797 32.4988 282.797 33.5048Z" fill="white"/>
<path fill-rule="evenodd" clip-rule="evenodd" d="M283.347 60.8959V92.1282C283.347 92.8141 283.759 93.4543 284.308 93.7286C287.101 85.8177 294.61 80.1474 303.493 80.1474C310.59 80.1474 316.863 83.8057 320.48 89.293V66.3375C320.48 65.3315 319.656 64.5084 318.649 64.5084H306.881C306.378 64.5084 305.92 64.3255 305.554 63.9597L301.295 59.6155C300.929 59.2497 300.471 59.0668 299.968 59.0668H285.178C284.171 59.0668 283.347 59.8899 283.347 60.8959Z" fill="#FFD706"/>
<path fill-rule="evenodd" clip-rule="evenodd" d="M325.608 64.9199H322.632C322.266 64.9199 321.945 65.24 321.945 65.6058V90.3447C321.945 90.7106 322.266 91.0307 322.632 91.0307H325.608V64.9199Z" fill="black"/>
<path fill-rule="evenodd" clip-rule="evenodd" d="M325.608 66.6576H323.502C323.319 66.6576 323.136 66.7948 323.136 67.0234V67.8465C323.136 68.0294 323.273 68.2123 323.502 68.2123H325.608V66.6576ZM325.608 89.2473V87.7382H323.502C323.319 87.7382 323.136 87.8754 323.136 88.1041V88.9272C323.136 89.1101 323.273 89.293 323.502 89.293H325.608V89.2473ZM325.608 86.9151V85.4061H323.502C323.319 85.4061 323.136 85.5433 323.136 85.7719V86.595C323.136 86.7779 323.273 86.9609 323.502 86.9609H325.608V86.9151ZM325.608 84.583V83.074H323.502C323.319 83.074 323.136 83.2112 323.136 83.4398V84.2629C323.136 84.4458 323.273 84.6287 323.502 84.6287H325.608V84.583ZM325.608 82.2509V80.7418H323.502C323.319 80.7418 323.136 80.879 323.136 81.1077V81.9308C323.136 82.1137 323.273 82.2966 323.502 82.2966H325.608V82.2509ZM325.608 79.873V78.364H323.502C323.319 78.364 323.136 78.5012 323.136 78.7298V79.5529C323.136 79.7358 323.273 79.9187 323.502 79.9187H325.608V79.873ZM325.608 77.5409V76.0318H323.502C323.319 76.0318 323.136 76.169 323.136 76.3977V77.2208C323.136 77.4037 323.273 77.5866 323.502 77.5866H325.608V77.5409ZM325.608 75.2087V73.6997H323.502C323.319 73.6997 323.136 73.8369 323.136 74.0655V74.8886C323.136 75.0716 323.273 75.2545 323.502 75.2545H325.608V75.2087ZM325.608 72.8766V71.3676H323.502C323.319 71.3676 323.136 71.5048 323.136 71.7334V72.5565C323.136 72.7394 323.273 72.9223 323.502 72.9223H325.608V72.8766ZM325.608 70.5445V69.0355H323.502C323.319 69.0355 323.136 69.1726 323.136 69.4013V70.2244C323.136 70.4073 323.273 70.5902 323.502 70.5902H325.608V70.5445Z" fill="#4E4E4E"/>
<path fill-rule="evenodd" clip-rule="evenodd" d="M287.056 61.5818H291.085C291.405 61.5818 291.68 61.8562 291.68 62.1763V63.0451C291.68 63.3652 291.405 63.6396 291.085 63.6396H287.056C286.735 63.6396 286.46 63.3652 286.46 63.0451V62.1763C286.46 61.8562 286.735 61.5818 287.056 61.5818Z" fill="#FFD706"/>
<path fill-rule="evenodd" clip-rule="evenodd" d="M325.609 69.9044C324.327 71.0018 323.502 72.7395 323.502 74.6601C323.502 76.5807 324.327 78.3183 325.609 79.4158V69.9044Z" fill="#FFD706"/>
<path fill-rule="evenodd" clip-rule="evenodd" d="M259.355 83.4399H268.421C272.77 83.4399 276.388 87.0067 276.388 91.3966C276.388 95.7407 272.816 99.3533 268.421 99.3533H259.355C255.005 99.3533 251.388 95.7865 251.388 91.3966C251.433 87.0067 255.005 83.4399 259.355 83.4399Z" fill="#FFD706"/>
<path fill-rule="evenodd" clip-rule="evenodd" d="M261.415 83.4399V99.3075H259.354C259.171 99.3075 258.988 99.3075 258.805 99.3075V83.4856C258.988 83.4856 259.171 83.4856 259.354 83.4856H261.415V83.4399ZM266.36 83.4399H268.42C268.603 83.4399 268.786 83.4399 268.97 83.4399V99.2618C268.786 99.2618 268.603 99.2618 268.42 99.2618H266.36V83.4399Z" fill="#F0CB07"/>
<path fill-rule="evenodd" clip-rule="evenodd" d="M303.493 85.9092C311.598 85.9092 318.145 92.4483 318.145 100.542C318.145 108.636 311.598 115.175 303.493 115.175C295.389 115.175 288.841 108.636 288.841 100.542C288.841 92.4483 295.389 85.9092 303.493 85.9092ZM303.493 91.5337C298.502 91.5337 294.473 95.5578 294.473 100.542C294.473 105.527 298.502 109.551 303.493 109.551C308.484 109.551 312.513 105.527 312.513 100.542C312.513 95.5578 308.484 91.5337 303.493 91.5337Z" fill="#111C3E"/>
<path fill-rule="evenodd" clip-rule="evenodd" d="M303.493 91.5338C308.484 91.5338 312.513 95.5578 312.513 100.542C312.513 105.527 308.484 109.551 303.493 109.551C298.502 109.551 294.473 105.527 294.473 100.542C294.473 95.5578 298.502 91.5338 303.493 91.5338ZM300.288 96.3809L301.57 97.6613C301.937 97.387 302.394 97.204 302.852 97.1126V95.2835C301.891 95.4664 300.975 95.8322 300.288 96.3809ZM300.654 98.6216L299.372 97.3412C298.823 98.0729 298.411 98.9417 298.319 99.902H300.151C300.197 99.4447 300.38 98.9874 300.654 98.6216ZM300.105 101.182H298.274C298.411 102.143 298.777 103.012 299.327 103.743L300.609 102.463C300.38 102.097 300.197 101.685 300.105 101.182ZM301.57 103.423L300.288 104.703C301.021 105.252 301.891 105.664 302.852 105.755V103.926C302.394 103.835 301.937 103.652 301.57 103.423ZM304.134 103.926V105.755C305.096 105.618 305.966 105.252 306.698 104.703L305.416 103.423C305.05 103.652 304.638 103.835 304.134 103.926ZM306.378 102.463L307.66 103.743C308.209 103.012 308.621 102.143 308.713 101.182H306.882C306.79 101.685 306.607 102.097 306.378 102.463ZM306.882 99.902H308.713C308.576 98.9417 308.209 98.0729 307.66 97.3412L306.378 98.6216C306.607 98.9874 306.79 99.4447 306.882 99.902ZM305.416 97.707L306.698 96.4267C305.966 95.8779 305.096 95.4664 304.134 95.3749V97.204C304.638 97.2498 305.05 97.4327 305.416 97.707Z" fill="#90A1A1"/>
<path fill-rule="evenodd" clip-rule="evenodd" d="M303.493 92.4483C307.98 92.4483 311.597 96.0608 311.597 100.542C311.597 105.024 307.98 108.636 303.493 108.636C299.006 108.636 295.389 105.024 295.389 100.542C295.389 96.0608 299.006 92.4483 303.493 92.4483ZM303.493 93.7287C299.738 93.7287 296.671 96.7925 296.671 100.542C296.671 104.292 299.738 107.356 303.493 107.356C307.248 107.356 310.315 104.292 310.315 100.542C310.315 96.7925 307.248 93.7287 303.493 93.7287Z" fill="#979797"/>
<path fill-rule="evenodd" clip-rule="evenodd" d="M303.493 99.0331C304.363 99.0331 305.05 99.7191 305.05 100.588C305.05 101.457 304.363 102.143 303.493 102.143C302.623 102.143 301.936 101.457 301.936 100.588C301.982 99.7191 302.669 99.0331 303.493 99.0331Z" fill="#979797"/>
<path fill-rule="evenodd" clip-rule="evenodd" d="M234.996 85.9092C243.1 85.9092 249.648 92.4483 249.648 100.542C249.648 108.636 243.1 115.175 234.996 115.175C226.891 115.175 220.344 108.636 220.344 100.542C220.344 92.4483 226.937 85.9092 234.996 85.9092ZM234.996 91.5337C230.005 91.5337 225.976 95.5578 225.976 100.542C225.976 105.527 230.005 109.551 234.996 109.551C239.987 109.551 244.016 105.527 244.016 100.542C244.016 95.5578 239.987 91.5337 234.996 91.5337Z" fill="#111C3E"/>
<path fill-rule="evenodd" clip-rule="evenodd" d="M234.996 91.5338C239.987 91.5338 244.016 95.5578 244.016 100.542C244.016 105.527 239.987 109.551 234.996 109.551C230.005 109.551 225.976 105.527 225.976 100.542C226.022 95.5578 230.051 91.5338 234.996 91.5338ZM231.791 96.3809L233.073 97.6613C233.439 97.387 233.897 97.204 234.355 97.1126V95.2835C233.394 95.4664 232.524 95.8322 231.791 96.3809ZM232.157 98.6216L230.875 97.3412C230.326 98.0729 229.914 98.9417 229.822 99.902H231.654C231.7 99.4447 231.883 98.9874 232.157 98.6216ZM231.608 101.182H229.776C229.914 102.143 230.28 103.012 230.83 103.743L232.112 102.463C231.883 102.097 231.7 101.685 231.608 101.182ZM233.073 103.423L231.791 104.703C232.524 105.252 233.394 105.664 234.355 105.755V103.926C233.897 103.835 233.439 103.652 233.073 103.423ZM235.683 103.926V105.755C236.645 105.618 237.515 105.252 238.247 104.703L236.965 103.423C236.553 103.652 236.141 103.835 235.683 103.926ZM237.881 102.463L239.163 103.743C239.712 103.012 240.124 102.143 240.216 101.182H238.384C238.293 101.685 238.11 102.097 237.881 102.463ZM238.384 99.902H240.216C240.079 98.9417 239.712 98.0729 239.163 97.3412L237.881 98.6216C238.11 98.9874 238.293 99.4447 238.384 99.902ZM236.965 97.707L238.247 96.4267C237.515 95.8779 236.645 95.4664 235.683 95.3749V97.204C236.141 97.2498 236.553 97.4327 236.965 97.707Z" fill="#90A1A1"/>
<path fill-rule="evenodd" clip-rule="evenodd" d="M234.996 92.4483C239.483 92.4483 243.1 96.0608 243.1 100.542C243.1 105.024 239.483 108.636 234.996 108.636C230.509 108.636 226.892 105.024 226.892 100.542C226.937 96.0608 230.555 92.4483 234.996 92.4483ZM234.996 93.7287C231.241 93.7287 228.174 96.7925 228.174 100.542C228.174 104.292 231.241 107.356 234.996 107.356C238.751 107.356 241.818 104.292 241.818 100.542C241.818 96.7925 238.796 93.7287 234.996 93.7287Z" fill="#979797"/>
<path fill-rule="evenodd" clip-rule="evenodd" d="M234.996 99.0331C235.866 99.0331 236.553 99.7191 236.553 100.588C236.553 101.457 235.866 102.143 234.996 102.143C234.126 102.143 233.439 101.457 233.439 100.588C233.485 99.7191 234.172 99.0331 234.996 99.0331Z" fill="#979797"/>
<path fill-rule="evenodd" clip-rule="evenodd" d="M205.005 85.9092C213.109 85.9092 219.657 92.4483 219.657 100.542C219.657 108.636 213.109 115.175 205.005 115.175C196.9 115.175 190.353 108.636 190.353 100.542C190.353 92.4483 196.9 85.9092 205.005 85.9092ZM205.005 91.5337C200.014 91.5337 195.984 95.5578 195.984 100.542C195.984 105.527 200.014 109.551 205.005 109.551C209.995 109.551 214.025 105.527 214.025 100.542C214.025 95.5578 209.995 91.5337 205.005 91.5337Z" fill="#111C3E"/>
<path fill-rule="evenodd" clip-rule="evenodd" d="M205.005 91.5338C209.995 91.5338 214.025 95.5578 214.025 100.542C214.025 105.527 209.995 109.551 205.005 109.551C200.014 109.551 195.984 105.527 195.984 100.542C195.984 95.5578 200.059 91.5338 205.005 91.5338ZM201.799 96.3809L203.081 97.6613C203.448 97.387 203.906 97.204 204.363 97.1126V95.2835C203.402 95.4664 202.532 95.8322 201.799 96.3809ZM202.166 98.6216L200.884 97.3412C200.334 98.0729 199.922 98.9417 199.831 99.902H201.662C201.708 99.4447 201.891 98.9874 202.166 98.6216ZM201.616 101.182H199.785C199.922 102.143 200.288 103.012 200.838 103.743L202.12 102.463C201.891 102.097 201.708 101.685 201.616 101.182ZM203.081 103.423L201.799 104.703C202.532 105.252 203.402 105.664 204.363 105.755V103.926C203.906 103.835 203.448 103.652 203.081 103.423ZM205.691 103.926V105.755C206.653 105.618 207.523 105.252 208.255 104.703L206.973 103.423C206.561 103.652 206.149 103.835 205.691 103.926ZM207.889 102.463L209.171 103.743C209.721 103.012 210.133 102.143 210.224 101.182H208.393C208.301 101.685 208.118 102.097 207.889 102.463ZM208.393 99.902H210.224C210.087 98.9417 209.721 98.0729 209.171 97.3412L207.889 98.6216C208.118 98.9874 208.301 99.4447 208.393 99.902ZM206.928 97.707L208.21 96.4267C207.477 95.8779 206.607 95.4664 205.646 95.3749V97.204C206.149 97.2498 206.561 97.4327 206.928 97.707Z" fill="#90A1A1"/>
<path fill-rule="evenodd" clip-rule="evenodd" d="M205.004 92.4483C209.491 92.4483 213.109 96.0608 213.109 100.542C213.109 105.024 209.491 108.636 205.004 108.636C200.517 108.636 196.9 105.024 196.9 100.542C196.946 96.0608 200.563 92.4483 205.004 92.4483ZM205.004 93.7287C201.25 93.7287 198.182 96.7925 198.182 100.542C198.182 104.292 201.25 107.356 205.004 107.356C208.759 107.356 211.827 104.292 211.827 100.542C211.827 96.7925 208.805 93.7287 205.004 93.7287Z" fill="#979797"/>
<path fill-rule="evenodd" clip-rule="evenodd" d="M205.004 99.0331C205.874 99.0331 206.561 99.7191 206.561 100.588C206.561 101.457 205.874 102.143 205.004 102.143C204.134 102.143 203.447 101.457 203.447 100.588C203.493 99.7191 204.18 99.0331 205.004 99.0331Z" fill="#979797"/>
<path d="M301.25 57.2376C301.25 56.8718 301.112 56.5517 301.021 56.2316C300.746 55.4999 300.471 54.7683 300.197 54.0366C300.105 53.808 300.013 53.5794 299.922 53.3507C299.784 53.0306 299.647 52.7563 299.555 52.4362C299.51 52.3447 299.464 52.2532 299.418 52.1618C299.235 51.7502 299.052 51.293 298.823 50.8814C298.777 50.7442 298.686 50.607 298.548 50.5156C298.319 50.3327 298.045 50.3784 297.77 50.4241C296.534 50.5613 295.206 50.1955 294.244 49.3724C294.244 50.9271 294.61 52.4819 295.297 53.8995C295.847 55.0427 296.579 56.1401 297.449 57.1004C298.228 57.9235 298.823 58.3351 299.968 58.3351C300.7 58.2893 301.25 57.9692 301.25 57.2376Z" fill="#7F1111"/>
<path d="M301.982 41.1871C302.074 41.8273 302.303 42.4675 302.395 43.1534C302.623 44.388 302.44 45.6684 301.937 46.8116C301.525 47.6805 300.884 48.5493 299.968 48.8237C299.464 48.9608 298.96 49.0066 298.457 49.098C297.495 49.3267 296.625 50.104 296.305 51.0643C294.748 50.4699 293.329 49.6468 292.092 48.595C292.55 46.1714 292.367 43.5649 291.589 41.2328C291.497 40.9127 291.36 40.5469 291.543 40.3182C291.634 40.1811 291.818 40.0896 292.001 39.9981C294.977 38.7635 298.365 38.4891 301.479 39.2208C301.937 39.3122 302.028 39.358 301.937 39.861C301.891 40.2725 301.891 40.7298 301.982 41.1871Z" fill="#EDB38C"/>
<path d="M302.211 41.9187C302.807 42.5589 303.173 43.4277 303.173 44.2966C303.173 45.3483 302.715 46.3543 302.257 47.3146C302.028 47.7719 301.799 48.2749 301.433 48.6407C301.067 49.0066 300.563 49.3267 300.059 49.2809C299.464 49.2352 298.96 48.7779 298.503 48.3664C298.045 47.9548 297.587 47.4975 297.129 47.086C296.946 46.9031 296.763 46.7202 296.717 46.4915C296.808 46.583 296.946 46.5372 296.992 46.4458C297.037 46.3543 297.083 46.2629 297.083 46.1257C297.129 45.4855 297.175 44.7996 297.22 44.1594C297.22 43.9307 297.175 43.4735 297.312 43.2905C297.449 43.1534 297.999 43.1076 298.182 43.0619C299.51 42.6961 300.883 42.3303 302.211 41.9187Z" fill="#FFD706"/>
<path d="M292.184 44.4338C292.092 44.4338 292.001 44.6167 292.138 44.6624C292.184 44.7081 292.275 44.6624 292.275 44.5709C292.23 44.388 292.184 44.2051 292.047 44.0679C291.955 43.9307 291.726 43.7478 291.589 43.885C291.451 44.0222 291.497 44.2508 291.543 44.388C291.634 44.5709 291.818 44.7081 292.001 44.8453C292.092 44.891 292.184 44.7996 292.092 44.7081C291.955 44.5709 291.772 44.6167 291.68 44.7538C291.634 44.8453 291.589 44.9368 291.589 45.0282C291.589 45.1197 291.543 45.2111 291.589 45.3026C291.634 45.4855 291.863 45.4855 292.001 45.3483C292.092 45.3026 292.138 45.2111 292.184 45.1197C292.23 45.0282 292.321 44.891 292.367 44.7996C292.413 44.7081 292.275 44.6167 292.23 44.7081C292.184 44.8453 292.092 44.9368 292.047 45.0739C292.001 45.1197 291.909 45.3026 291.818 45.2569C291.726 45.2111 291.818 45.0282 291.818 44.9368C291.863 44.8453 291.955 44.7081 292.047 44.7996C292.092 44.7538 292.092 44.7081 292.138 44.6624C292.001 44.5709 291.909 44.5252 291.818 44.388C291.726 44.2966 291.634 44.1137 291.726 44.0222C291.772 43.9765 291.818 44.0222 291.863 44.0679C291.909 44.1137 291.955 44.1594 292.001 44.2051C292.092 44.2966 292.138 44.4337 292.138 44.5709C292.184 44.5252 292.23 44.5252 292.275 44.4795C292.275 44.5252 292.275 44.5252 292.23 44.5709C292.321 44.6167 292.321 44.4338 292.184 44.4338Z" fill="#FFD706"/>
<path d="M297.312 45.0739C297.266 45.5312 297.22 45.9885 297.358 46.4001C297.541 46.8116 297.907 47.1317 298.273 47.4061C298.64 47.6804 299.006 47.9548 299.372 48.2292C299.647 48.4121 299.922 48.6407 300.288 48.6865C300.609 48.7322 301.021 48.5036 301.021 48.1377C301.021 47.8634 300.838 47.6347 300.609 47.4518C300.288 47.1317 299.968 46.8573 299.647 46.5372C300.425 46.5372 301.204 46.5372 301.936 46.5372C301.936 46.1714 301.982 45.8056 301.982 45.4398C301.341 45.394 300.746 45.3483 300.105 45.3026C300.7 45.1654 301.295 45.0739 301.891 44.9368C302.028 44.891 302.211 44.891 302.349 44.7538C302.486 44.6167 302.532 44.388 302.532 44.2051C302.532 44.0222 302.44 43.8393 302.349 43.6564C301.708 43.8393 301.112 44.0222 300.471 44.2051C300.38 44.2508 300.288 44.2508 300.197 44.2051C300.105 44.1594 300.059 44.0679 300.059 44.0222C300.563 43.7478 301.066 43.4735 301.616 43.1991C301.799 43.1076 301.936 43.0162 302.028 42.8333C302.12 42.6504 302.074 42.4217 301.891 42.376C301.708 42.3303 301.25 42.5132 301.066 42.5132C300.792 42.5589 300.471 42.6504 300.197 42.6961C299.647 42.8333 299.052 42.9705 298.502 43.1076C298.136 43.1991 297.632 43.2448 297.495 43.5649C297.312 44.0679 297.358 44.6624 297.312 45.0739Z" fill="#A9BB20"/>
<path d="M297.312 43.2906C297.266 43.3363 297.266 43.382 297.221 43.4277C296.305 42.9705 295.435 42.5132 294.519 42.0559C294.428 42.0102 294.244 41.9187 294.336 41.7815C294.428 41.6901 294.657 41.873 294.702 41.873C295.023 42.0102 295.298 42.1474 295.572 42.3303C295.755 42.4217 297.312 43.2906 297.312 43.2906Z" fill="#FFD706"/>
<path d="M292.23 44.7539C293.466 45.2569 294.702 45.7599 295.984 46.2629C296.351 46.4001 296.671 46.5373 297.037 46.6744C297.083 46.7202 297.175 46.6287 297.175 46.583C297.175 46.4915 297.129 46.4458 297.083 46.4458C295.847 45.9428 294.611 45.4398 293.329 44.9368C292.962 44.7996 292.642 44.6624 292.276 44.5252C292.23 44.4795 292.138 44.5709 292.138 44.6167C292.138 44.6624 292.184 44.7081 292.23 44.7539Z" fill="#FFD706"/>
<path d="M298.136 39.3122C300.197 39.2665 302.211 39.4951 304.226 39.7238C304.546 39.7695 304.729 39.358 304.455 39.1293C304.226 38.9464 303.997 38.8092 303.768 38.672C303.264 38.3977 302.715 38.169 302.349 37.7575C301.936 37.2545 301.845 36.6143 301.57 36.0655C301.066 35.0595 300.059 34.3279 298.96 34.0078C297.861 33.6877 296.671 33.7791 295.572 33.962C294.153 34.2364 292.733 34.7852 291.726 35.8369C290.718 36.8886 290.261 38.5349 290.856 39.861C290.947 40.0439 291.039 40.2725 291.222 40.4097C291.451 40.6383 291.543 40.5469 291.817 40.4097C292.275 40.2268 292.779 40.0439 293.283 39.9067C294.29 39.6323 295.343 39.4037 296.396 39.3122C296.946 39.358 297.541 39.3122 298.136 39.3122Z" fill="#FFD706"/>
<path d="M301.936 37.9404C301.433 36.9344 300.837 35.9283 299.967 35.1967C299.097 34.4651 297.953 34.0078 296.854 34.2364C295.572 34.5108 294.61 35.654 294.29 36.8886C294.198 37.2545 294.107 37.666 293.832 37.8947C293.42 38.2148 292.779 38.0776 292.412 38.4434C292.138 38.7178 292.138 39.1293 291.909 39.4037C291.771 39.5409 291.634 39.6323 291.497 39.7238C291.359 39.8152 291.222 39.9524 291.176 40.1353C290.947 41.0042 292.504 40.1353 292.733 40.0439C293.466 39.7695 294.198 39.4951 294.931 39.2665C296.396 38.8092 297.907 38.4891 299.464 38.2605C299.876 38.2148 300.334 38.169 300.746 38.1233C300.837 37.9861 301.936 37.8489 301.936 37.9404Z" fill="#FFD706"/>
<path d="M295.252 42.6961C295.023 42.7418 294.84 42.7418 294.611 42.7875C294.611 42.3303 294.565 41.9187 294.382 41.5072C294.199 41.0956 293.832 40.7755 293.374 40.7755C292.917 40.7755 292.504 41.0956 292.321 41.5072C292.138 41.9187 292.138 42.4217 292.23 42.879C292.321 43.3363 292.459 43.7936 292.55 44.2051C292.642 44.6624 292.642 45.1654 292.459 45.577C292.459 44.891 292.138 44.2508 291.68 43.7936C291.772 43.7936 291.818 43.6564 291.772 43.5649C291.726 43.4735 291.634 43.4277 291.589 43.3363C291.451 43.1534 291.406 42.9247 291.406 42.6961C291.36 42.3303 291.36 41.9644 291.314 41.5986C291.314 41.3242 291.268 41.0499 291.406 40.8212C291.543 40.5469 291.818 40.4097 292.092 40.3182C293.054 39.9067 294.015 39.6323 295.069 39.4494C295.343 39.4037 295.572 39.3579 295.847 39.3579C296.076 39.3122 296.259 39.2665 296.167 39.5408C296.03 39.9981 295.755 40.5011 295.618 40.9584C295.389 41.5529 295.252 42.1016 295.252 42.6961Z" fill="#2D1416"/>
<path d="M299.876 41.0041C300.105 41.0499 300.334 41.0956 300.563 41.1413C300.7 41.187 300.883 41.187 300.929 41.0041C300.975 40.9127 300.929 40.7298 300.838 40.684C300.7 40.6383 300.471 40.7298 300.38 40.7755C300.288 40.8669 299.968 41.0499 299.876 41.0041Z" fill="#E5E2DA"/>
<path d="M301.433 40.0439C301.295 39.9067 301.067 39.861 300.883 39.8152C300.7 39.7695 300.517 39.7695 300.334 39.8152C300.013 39.9067 299.693 40.1353 299.51 40.364C299.739 40.1353 300.059 39.9524 300.38 39.9524C300.517 39.9524 300.7 39.9524 300.838 39.9524C300.929 39.9524 301.021 39.9982 301.067 39.9982C301.158 40.0439 301.25 40.0896 301.341 40.1353C301.433 40.2268 301.479 40.0896 301.433 40.0439Z" fill="#2D1416"/>
<path d="M301.203 40.5469C301.112 40.5469 301.02 40.5469 300.974 40.5926C301.066 40.5469 301.158 40.4097 301.158 40.2725C301.158 40.2268 301.112 40.2268 301.066 40.2725C301.066 40.4097 300.974 40.5012 300.883 40.5469C300.883 40.5469 300.883 40.5469 300.883 40.5926C300.745 40.6383 300.654 40.6383 300.517 40.6841C300.288 40.7755 300.059 40.8213 299.83 40.9584C299.784 40.9584 299.784 41.0499 299.83 41.0499C299.921 41.0956 300.013 41.0956 300.15 41.0956C300.288 41.0956 300.425 41.0956 300.517 41.1413C300.608 41.1413 300.745 41.1413 300.837 41.1871H300.883C300.929 41.1871 301.02 41.1871 301.066 41.2328C301.112 41.2785 301.112 41.3243 301.158 41.3243C301.158 41.2328 301.112 41.1871 301.066 41.1413C301.02 41.1413 300.974 41.0956 300.929 41.0956C300.974 40.9584 301.02 40.8213 300.974 40.6841C301.066 40.6841 301.158 40.6383 301.203 40.5469C301.249 40.5926 301.249 40.5469 301.203 40.5469ZM300.837 40.7298C300.837 40.7755 300.837 40.8213 300.837 40.867C300.837 40.9127 300.837 40.9127 300.791 40.9584C300.745 40.9584 300.7 40.9127 300.7 40.867C300.7 40.8213 300.745 40.8213 300.745 40.7755C300.837 40.7298 300.837 40.7298 300.837 40.7298ZM300.288 41.0499C300.196 41.0499 300.059 41.0499 299.967 41.0042C300.15 40.9127 300.333 40.867 300.517 40.7755H300.562C300.517 40.867 300.517 40.9584 300.562 41.0042C300.562 41.0042 300.562 41.0499 300.608 41.0499C300.517 41.0956 300.379 41.0499 300.288 41.0499Z" fill="#2D1416"/>
<path d="M293.786 41.5529C293.694 41.3242 293.374 41.2328 293.145 41.3242C292.916 41.4157 292.733 41.5986 292.641 41.8272C292.55 42.0559 292.55 42.2845 292.596 42.5589C292.641 43.0619 292.824 43.5649 293.099 43.9765C293.191 44.1136 293.374 44.2966 293.557 44.2508C294.015 44.1136 293.786 43.2905 293.649 43.0162C293.511 42.4674 294.015 41.9644 293.786 41.5529Z" fill="#C48D69"/>
<path d="M297.174 50.1041C297.174 50.5156 297.358 50.8814 297.495 51.2473C297.632 51.6131 297.815 51.9789 297.815 52.3905C297.815 52.802 297.632 53.2136 297.266 53.3965C297.678 53.3965 298.09 53.3965 298.502 53.3965C298.685 55.0884 298.914 56.7346 299.098 58.4266C295.709 58.2894 292.367 58.1522 288.978 58.015C288.887 56.7346 288.475 55.5 288.337 54.2196C288.2 52.9392 288.383 51.5216 289.253 50.6071C289.757 50.0583 290.489 49.6925 290.947 49.098C291.268 48.6865 291.451 48.1835 291.588 47.6805C291.634 47.4975 291.772 46.7659 291.955 46.6744C292.184 46.583 292.413 46.9945 292.55 47.1317C292.916 47.6347 293.374 48.0463 293.832 48.4578C294.29 48.8694 294.839 49.1895 295.389 49.4639C295.572 49.5096 297.174 50.1041 297.174 50.1041Z" fill="#FFD706"/>
<path d="M288.887 53.5794C289.024 54.9969 289.345 56.3688 289.94 57.6492C291.772 57.9693 293.603 58.015 295.435 57.7863C295.435 56.506 295.251 55.2256 294.794 54.0824C294.61 53.6251 294.381 53.2135 294.153 52.7563C293.969 52.3904 293.786 51.9789 293.512 51.6588C292.916 50.8814 291.909 50.4698 290.947 50.4698C290.032 50.4698 289.528 50.7442 289.116 51.5673C288.841 52.2075 288.841 52.8934 288.887 53.5794Z" fill="#FFD706"/>
<path d="M312.009 62.6792C311.597 62.542 311.368 62.0847 311.506 61.6732L314.024 54.4482C314.161 54.0366 314.619 53.808 315.031 53.9452C315.443 54.0823 315.672 54.5396 315.535 54.9512L313.017 62.1762C312.879 62.5878 312.422 62.8164 312.009 62.6792Z" fill="#0B0C0C"/>
<path fill-rule="evenodd" clip-rule="evenodd" d="M284.446 47.9548L315.169 48.0006C315.948 48.0006 316.589 48.4121 316.863 49.1438L319.656 55.7743C319.885 56.3688 320.343 56.9175 320.023 57.4205C319.656 57.9693 319.107 58.2437 318.512 58.2437H307.889C307.385 58.2437 306.927 58.0607 306.561 57.6949L302.303 53.3507C301.937 52.9849 301.479 52.802 300.975 52.802H284.583C284.171 52.802 283.759 52.6648 283.438 52.3905V48.9151C283.484 48.4121 283.942 47.9548 284.446 47.9548Z" fill="#FFEF9E" fill-opacity="0.68"/>
</svg>
