<svg width="152" height="115" viewBox="0 0 152 115" fill="none" xmlns="http://www.w3.org/2000/svg">
<path d="M151.629 113.297H105.171L105.171 6.69202H151.629V113.297Z" fill="#FEDD31"/>
<path d="M123.403 113.33H120.364L120.364 0.397995H123.403L123.403 113.33Z" fill="#C9B714"/>
<path d="M123.397 0.40094C123.397 0.688226 123.375 113.283 123.375 113.283H151.494V6.62786L123.397 0.40094Z" fill="#E8C929"/>
<path d="M148.275 15.9791L148.139 45.7922C148.023 45.7779 147.901 45.7707 147.786 45.7707C146.252 45.7707 144.963 47.0132 144.956 48.5861L129.352 46.6684C129.36 45.232 128.287 44.0254 126.861 43.8459L126.998 12.6394C127.199 12.6825 127.401 12.7041 127.595 12.7041C129.115 12.7041 130.418 11.4759 130.425 9.88867L146.029 13.1925C146.022 14.5355 146.958 15.699 148.275 15.9791ZM147.181 16.7476C146.108 16.2377 145.316 15.2537 145.042 14.0974L131.289 11.1815C130.8 12.5532 129.568 13.5731 128.085 13.7598L127.955 43.0056C129.129 43.4652 130.008 44.4707 130.324 45.6845L144.063 47.3723C144.502 46.0364 145.647 45.0094 147.058 44.7436L147.181 16.7476Z" fill="#FEDD31"/>
<path d="M148.225 70.2978L148.16 105.828C148.16 105.828 148.16 105.828 148.153 105.828C146.591 105.828 145.323 107.092 145.316 108.65L141.241 108.643C141.241 107.085 139.973 105.821 138.411 105.813V69.9387C138.497 69.9459 138.576 69.9459 138.656 69.9459C140.204 69.9459 141.485 68.689 141.485 67.1161L145.626 67.4752C145.633 68.9475 146.756 70.1757 148.225 70.2978ZM147.131 71.1668C145.928 70.7287 145.006 69.7232 144.675 68.4879L142.407 68.294C141.989 69.6227 140.881 70.6497 139.505 70.9514V104.887C140.794 105.26 141.809 106.28 142.184 107.559L144.387 107.566C144.762 106.28 145.784 105.268 147.073 104.894L147.131 71.1668Z" fill="#FEDD31"/>
<path d="M136.596 69.2994V105.806H136.589C135.026 105.806 133.752 107.07 133.752 108.636L130.418 108.629C130.404 107.078 129.144 105.828 127.588 105.821L127.307 69.005C127.394 69.0121 127.473 69.0121 127.552 69.0121C129.108 69.0121 130.397 67.7481 130.382 66.1608L133.997 66.4697C134.004 67.9492 135.127 69.1701 136.596 69.2994ZM135.502 70.1685C134.285 69.7375 133.363 68.7392 133.039 67.4895L131.311 67.3387C131.124 67.942 130.8 68.4878 130.346 68.9475C129.806 69.4862 129.136 69.8525 128.416 70.0176L128.683 104.894C129.964 105.268 130.98 106.273 131.361 107.552H132.823C133.198 106.266 134.22 105.246 135.509 104.88V70.1685H135.502Z" fill="#FEDD31"/>
<path d="M129.813 59.1223C129.181 59.1223 128.668 58.1287 128.668 56.903C128.668 55.6773 129.181 54.6837 129.813 54.6837C130.445 54.6837 130.958 55.6773 130.958 56.903C130.958 58.1287 130.445 59.1223 129.813 59.1223Z" fill="#F7CC7F"/>
<path d="M132.039 56.1201V57.8654H129.641C129.569 57.5781 129.533 57.2549 129.533 56.9173C129.533 56.6372 129.562 56.3715 129.612 56.1201H132.039Z" fill="#F47458"/>
<path d="M133.687 56.903C133.687 58.7488 132.917 60.2427 131.959 60.2427C131.001 60.2427 130.231 58.7488 130.231 56.903C130.231 55.0572 131.001 53.5633 131.959 53.5633C132.917 53.5633 133.687 55.0572 133.687 56.903Z" fill="#FAE0B2"/>
<path d="M132.427 60.2427C131.473 60.2427 130.699 58.7474 130.699 56.903C130.699 55.0585 131.473 53.5633 132.427 53.5633C133.382 53.5633 134.155 55.0585 134.155 56.903C134.155 58.7474 133.382 60.2427 132.427 60.2427Z" fill="#FAE0B2"/>
<path d="M13.575 108.011C13.575 108.011 13.5606 108.119 13.5606 108.299C13.5606 108.837 13.6686 110.022 14.5111 110.898C15.6343 112.062 15.6415 113.513 14.4534 113.764C13.2653 114.015 10.4355 113.685 10.4355 113.685C10.4355 113.685 9.79467 112.579 10.2339 109.613C10.6731 106.647 10.9252 103.4 10.9252 103.4L14.151 102.898L13.575 108.011Z" fill="#FF7446"/>
<path d="M14.2083 109.268C14.2083 109.268 15.4036 110.891 15.6844 111.566C15.9652 112.242 15.9076 113.922 15.6844 114.094C13.7475 115.617 10.0824 114.245 10.0824 114.245C10.0824 114.245 9.83035 113.125 9.70074 111.753C9.57113 110.381 9.64314 109.103 10.0824 109.103C10.5216 109.103 10.5936 109.821 11.5873 109.62C12.5738 109.426 13.1858 109.067 14.2083 109.268Z" fill="#001653"/>
<path d="M9.77246 112.443C10.5213 112.73 11.5294 113.075 12.4727 113.204C13.4808 113.348 14.8345 112.902 15.8498 112.45C15.9002 113.168 15.8282 113.972 15.6769 114.087C13.74 115.61 10.0749 114.238 10.0749 114.238C10.0749 114.238 9.90207 113.484 9.77246 112.443Z" fill="white"/>
<path d="M9.77282 112.443C12.5522 113.276 13.0635 113.419 15.8501 112.457C15.3821 112.708 14.8996 112.909 14.3884 113.075C13.3155 113.405 12.6819 113.376 12.0122 113.225C11.2201 113.046 10.4641 112.773 9.77282 112.443Z" fill="#957447"/>
<path d="M45.8477 57.5997C45.0556 57.8941 43.9971 58.3394 43.9971 58.3394C43.8603 58.009 46.4813 57.456 46.8486 56.6588C47.043 56.235 43.8387 57.8008 43.6155 57.614C43.5219 57.535 47.2374 56.3284 47.0718 56.0411C46.9278 55.7969 43.1619 57.1185 43.1403 56.9389C43.1115 56.6875 46.4021 56.0268 46.1069 55.6605C45.9557 55.4737 41.9666 56.5511 41.5345 56.6157C41.0089 56.6157 42.917 55.3229 42.2618 55.1505C41.3833 54.9135 39.1655 57.4488 38.9927 57.4847C38.4887 57.5853 34.2188 58.1096 32.1306 56.745C30.4457 55.6461 28.8039 53.9511 28.4007 52.4931C28.0047 51.0639 27.4646 49.0242 27.9255 47.4441C26.0245 47.1568 24.1812 47.0922 22.2514 47.322C22.1362 49.6849 24.9732 59.0648 26.1613 59.8333C28.7751 61.5283 33.4339 61.1117 36.7174 60.846C39.3672 60.6305 41.9594 60.1062 44.3428 58.8996C44.8756 58.6267 45.5885 58.3251 46.0061 57.8582C46.1285 57.7289 45.9989 57.5422 45.8477 57.5997Z" fill="#F25C12"/>
<path d="M26.752 39.4935C28.1705 40.9515 29.5962 49.685 29.0706 51.7678C28.1633 53.4556 24.0518 53.7501 22.7197 54.5545C19.6522 53.2976 21.7548 47.6524 21.7548 47.6524L20.6387 36.6638C20.6387 36.6638 24.059 36.714 26.752 39.4935Z" fill="#E6A500"/>
<path d="M22.8849 106.058C22.4673 107.372 22.8777 108.816 23.9506 109.685C24.3178 109.986 24.7499 110.266 25.2395 110.475C27.1188 111.293 29.5526 111.107 29.8911 112.795C30.2295 114.475 17.9741 112.32 17.9741 112.32C17.9741 112.32 18.8238 108.227 18.8814 107.544C18.939 106.862 18.8094 104.341 18.8094 104.341L23.5402 104.004L22.8849 106.058Z" fill="#FF7446"/>
<path d="M18.4707 109.426C18.4707 109.426 18.3195 110.08 17.9811 111.179C17.6354 112.277 17.8514 113.319 17.8514 113.319C17.8514 113.319 29.3291 113.865 29.7972 113.498C30.2652 113.139 30.0204 111.818 29.9052 111.696C29.79 111.581 28.3283 111.186 27.5866 110.726C26.8377 110.266 24.2887 108.528 23.4247 108.6C22.5606 108.672 22.1646 109.304 20.5301 109.376C18.8883 109.448 18.8811 109.11 18.4707 109.426Z" fill="#001653"/>
<path d="M29.7974 113.498C29.3293 113.857 17.8517 113.319 17.8517 113.319C17.8517 113.319 17.7077 112.636 17.8373 111.796C23.8281 112.902 29.8982 111.703 29.8982 111.703C30.0206 111.818 30.2582 113.132 29.7974 113.498Z" fill="white"/>
<path d="M17.8375 111.789C21.9274 112.608 26.4638 112.428 29.8984 111.696C23.6484 112.637 18.608 111.911 18.9608 111.94C18.9536 111.94 17.7655 111.782 17.8375 111.789Z" fill="#957447"/>
<path d="M8.97362 66.3834C7.00067 73.5656 9.44885 105.792 9.44885 105.792L15.3461 105.39C15.3461 105.39 16.6854 73.3357 17.6575 72.3662C17.9455 72.0789 18.2479 72.1722 18.4856 72.3302C18.7232 72.4954 18.8888 72.7396 18.9752 73.0126C19.58 74.9876 23.0507 86.5078 22.3523 89.0287C21.589 91.7867 18.1687 106.582 18.1687 106.582L23.1155 106.776C23.1155 106.776 29.8984 95.4783 29.8984 87.5923C29.8984 79.7063 28.7967 69.2491 25.5925 64.9973C24.1308 63.0581 16.9518 61.5642 16.9518 61.5642C16.9518 61.5642 9.59287 64.1354 8.97362 66.3834Z" fill="#021F6E"/>
<path d="M19.6306 106.56C19.6306 106.56 23.0437 90.7884 23.8141 87.8438C24.3686 85.7035 22.2876 77.5087 21.1139 73.1778C20.7611 71.8779 19.1913 71.3536 18.1257 72.1795C18.1257 72.1795 23.1229 86.2637 22.3524 89.0216C21.5819 91.7796 18.1689 106.575 18.1689 106.575L23.1157 106.769C23.1157 106.769 23.1301 106.747 23.1517 106.711L19.6306 106.56Z" fill="#021753"/>
<path d="M10.1983 64.8896C9.56466 65.3852 9.11104 65.8879 8.97423 66.3835C7.00131 73.5656 9.44944 105.792 9.44944 105.792L10.9111 105.691C10.8319 104.528 8.71501 74.1905 10.1983 64.8896Z" fill="#021753"/>
<path d="M26.7227 66.9149C26.377 66.1823 26.0026 65.5359 25.5922 64.9901C25.4193 64.7674 25.1745 64.5448 24.8721 64.3365C24.0512 64.7531 22.9208 65.2127 21.351 65.6939C16.6275 67.1447 11.5295 66.369 9.4125 65.6365C9.19648 65.8878 9.04527 66.1464 8.98046 66.3906C8.80765 67.0154 8.67085 67.827 8.56285 68.7894C9.62133 69.5723 15.7634 71.4683 21.3582 69.6944C24.9009 68.5596 26.2186 67.8773 26.7227 66.9149Z" fill="#021753"/>
<path d="M9.45565 108.227C10.9678 108.715 14.6041 108.593 15.4681 108.227C16.2674 107.889 16.325 104.916 15.4681 104.758C14.2656 104.528 10.8598 104.557 9.45565 104.758C8.59159 104.88 8.62759 107.961 9.45565 108.227Z" fill="#5D70A2"/>
<path d="M18.4205 106.905C19.9326 107.394 23.5689 107.271 24.433 106.905C25.2322 106.568 25.2898 103.594 24.433 103.436C23.2305 103.206 19.8246 103.235 18.4205 103.436C17.5564 103.551 17.5924 106.632 18.4205 106.905Z" fill="#5D70A2"/>
<path d="M16.1667 36.4195C16.1667 36.4195 11.2487 36.1681 9.23979 38.5454C7.23084 40.9227 7.39645 65.8735 8.21011 66.5702C9.02377 67.2668 16.0155 69.3712 21.5599 67.7337C27.1115 66.0962 27.4644 63.8481 27.4644 63.8481C27.4644 63.8481 25.9882 47.0635 25.9882 42.4813C25.9882 37.899 21.4951 35.1842 16.1667 36.4195Z" fill="#FCC332"/>
<path d="M11.8324 61.6936C11.4004 60.487 11.8612 56.6589 12.3581 53.8794C12.7469 53.9512 13.1141 54.0446 13.4669 54.1451C14.0646 52.3137 14.583 47.5519 14.6046 44.5569C14.6406 38.9405 11.7892 37.3102 11.7892 37.3102C11.2276 37.1809 10.3203 37.7124 8.90898 39.1775C7.27444 43.6305 7.62008 64.3366 8.38335 64.9902C8.70737 65.2703 9.34822 67.0227 10.99 67.3675C11.4148 65.7012 12.2285 62.8068 11.8324 61.6936Z" fill="#E6A500"/>
<path d="M15.7419 36.4698C14.6762 37.4466 14.5898 37.4681 15.6987 38.7466C16.8076 40.0322 20.4727 41.4901 20.9984 41.2388C22.2945 40.6283 21.092 38.5885 20.2207 37.1162C19.9543 36.6637 16.8076 35.493 15.7419 36.4698Z" fill="#E6A500"/>
<path d="M20.5087 32.771C20.5087 32.771 20.7967 39.5222 20.5087 39.8239C20.2207 40.1184 16.1092 38.6891 15.7492 37.8488C15.3891 37.0085 17.2469 24.7988 17.2469 24.7988L20.5087 32.771Z" fill="#F25C12"/>
<path opacity="0.6" d="M20.6313 37.224C19.9041 37.0947 19.2777 36.9079 19.0905 36.6997C17.4127 34.8108 18.6728 31.7368 18.536 30.9396C18.2768 29.3523 17.7368 28.038 18.0032 26.6662L20.5017 32.7638C20.5089 32.771 20.6097 35.213 20.6313 37.224Z" fill="#B5450E"/>
<path d="M42.5788 40.4415C42.8597 41.1454 42.2764 41.8277 41.6643 41.526C41.5203 41.4542 41.4123 41.3249 41.3547 41.1813C41.0739 40.4774 41.6571 39.7951 42.2692 40.0968C42.406 40.1686 42.514 40.2979 42.5788 40.4415Z" fill="#00424C"/>
<path d="M42.1969 40.7863L41.9881 41.0807L41.8585 40.7288C41.6929 40.2763 40.296 36.2615 41.8369 35.3422C42.2905 35.0693 42.7226 35.1555 43.0178 35.5792C43.6946 36.5488 43.4858 38.9764 42.1969 40.7863ZM42.7154 35.8665C42.5713 35.6654 42.3985 35.6008 42.1825 35.6726C42.1321 35.6869 42.0817 35.7157 42.0241 35.7444C41.088 36.2974 41.6785 38.8614 42.1033 40.1758C43.133 38.5095 43.1762 36.5272 42.7154 35.8665Z" fill="#00424C"/>
<path d="M42.0024 40.5636L41.6784 40.6354C41.3832 40.7001 41.0952 40.7288 40.8072 40.7288C39.3743 40.7288 38.1214 39.989 37.819 39.1344C37.6605 38.6819 37.783 38.251 38.1718 37.9493C39.4535 36.951 41.556 39.9244 41.7936 40.262L42.0024 40.5636ZM41.268 40.2404C40.6704 39.4432 39.5543 38.2007 38.7766 38.2007C38.6398 38.2007 38.5102 38.2366 38.4022 38.33C38.1718 38.5095 38.107 38.7106 38.1934 38.962C38.431 39.6371 39.7415 40.42 41.268 40.2404Z" fill="#00424C"/>
<path d="M52.256 58.3179H32.9153C31.8569 58.3179 31 57.4632 31 56.4075V42.7829C31 41.7272 31.8569 40.8725 32.9153 40.8725H52.256C53.3145 40.8725 54.1714 41.7272 54.1714 42.7829V56.4075C54.1714 57.4632 53.3145 58.3179 52.256 58.3179Z" fill="#FCC332"/>
<path d="M52.6594 40.8725H45.4156V58.3179H52.6594C53.4947 58.3179 54.1787 57.2334 54.1787 55.8975V43.2929C54.1715 41.957 53.4947 40.8725 52.6594 40.8725Z" fill="#F29913"/>
<path d="M38.8989 40.8725H38.3301C35.2411 46.4387 37.1348 56.192 37.5956 58.3179H38.0421C37.7252 56.8887 35.5147 46.2807 38.8701 40.9228C38.8773 40.9084 38.8917 40.894 38.8989 40.8725Z" fill="#00424C"/>
<path d="M49.585 58.2533C49.585 58.2748 49.5778 58.2964 49.5778 58.3179H50.0026C51.2483 48.3778 49.873 43.1205 48.9441 40.8725H48.4185C49.2681 42.7542 50.8955 47.9325 49.585 58.2533Z" fill="#00424C"/>
<path d="M15.1877 77.1782H0.750593C0.476971 77.1782 0.253743 76.9556 0.253743 76.6826V67.3386C0.253743 67.0657 0.476971 66.8431 0.750593 66.8431H15.1877C15.4614 66.8431 15.6846 67.0657 15.6846 67.3386V76.6898C15.6774 76.9627 15.4614 77.1782 15.1877 77.1782Z" fill="#50BFA5"/>
<path d="M15.09 75.9896H2.021L2.021 68.0318H15.09L15.09 75.9896Z" fill="white"/>
<path d="M15.7348 74.2838H14.9139C14.7627 74.2838 14.6331 74.1617 14.6331 74.0037V70.0104C14.6331 69.8596 14.7555 69.7303 14.9139 69.7303H15.7348C15.886 69.7303 16.0156 69.8524 16.0156 70.0104V74.0037C16.0084 74.1617 15.886 74.2838 15.7348 74.2838Z" fill="#F29913"/>
<path d="M10.6441 61.6935C11.6162 64.6454 8.18867 71.0303 9.58559 73.0772C10.9753 75.1241 10.2768 77.2644 8.5919 78.3274C6.90696 79.3903 4.81159 77.9036 4.9772 77.092C5.14282 76.2804 5.60364 74.1042 5.81246 73.1059C6.02128 72.1076 2.09695 64.1211 4.86199 59.2803C6.49652 56.4074 4.07713 51.4589 5.35884 48.2629C6.50373 50.3888 11.9258 49.0601 11.6162 51.3943C11.1121 53.3909 10.0968 60.0344 10.6441 61.6935Z" fill="#F25C12"/>
<path d="M22.9208 25.7684C22.9208 25.7684 23.6265 28.196 23.6265 30.1783C23.6265 32.1677 23.5761 35.608 22.1648 35.608C20.7535 35.608 18.7301 35.2201 18.2621 32.4047C17.7941 29.5893 18.2621 26.4867 19.6734 25.7613C21.0919 25.043 22.9208 25.7684 22.9208 25.7684Z" fill="#FF7446"/>
<path d="M22.3738 27.5568C21.9921 27.3988 21.6033 27.7363 21.6753 28.1529C21.7905 28.8208 21.7617 29.5462 21.1425 29.6971C19.94 29.9915 19.3783 29.6971 19.1767 29.8982C18.9823 30.0993 19.7455 31.1766 19.1767 31.3849C18.6079 31.586 18.3054 29.654 17.8014 29.654C17.2973 29.654 17.1893 32.4406 17.8014 33.0727C18.4134 33.7047 17.715 34.5594 16.9085 34.5594C16.1021 34.5594 17.0093 35.5721 15.922 35.9096C14.8348 36.2472 13.9635 36.2472 13.6106 34.8754C13.2578 33.5036 13.6106 32.7423 13.6106 32.7423C13.6106 32.7423 12.5018 31.4495 12.7826 30.1639C12.941 29.4529 13.661 28.1745 13.661 28.1745C13.661 28.1745 14.2227 26.6518 14.3739 25.7756C14.5251 24.8994 16.6925 24.0232 18.1686 23.8652C19.6519 23.7072 18.9103 22.8094 20.1488 22.8094C21.3873 22.8094 21.5601 24.4469 21.5601 24.4469C21.5601 24.4469 23.3386 23.3911 23.4178 23.4414C24.4475 24.0663 23.5907 25.1723 23.5907 25.1723C23.5907 25.1723 24.4403 25.2657 24.6131 26.3646C24.7859 27.4634 24.0659 28.1385 22.9354 27.7794C22.7338 27.7004 22.5394 27.6286 22.3738 27.5568Z" fill="#100062"/>
<path d="M23.6051 23.5563C23.3891 23.5851 23.1011 23.6569 22.7554 23.7574C22.2226 24.0519 21.5745 24.4397 21.5745 24.4397C21.5745 24.4397 19.2559 25.0861 17.931 25.7182C16.2317 26.5297 14.7412 27.3413 13.7331 27.9805C13.6899 28.0955 13.6683 28.1673 13.6683 28.1673C13.6683 28.1673 13.4019 28.6413 13.1571 29.1656C14.2083 28.9358 16.2677 28.1457 18.5647 27.054C21.1569 25.8187 23.7491 23.6784 23.6051 23.5563Z" fill="#0C004A"/>
<path d="M18.5868 29.5031C18.5868 29.5031 17.9891 28.4042 17.4563 29.0147C16.9235 29.6324 17.2043 32.2251 18.0251 32.2251C18.8388 32.2323 18.882 30.1998 18.5868 29.5031Z" fill="#FF7446"/>
<path d="M11.9331 37.3676C11.9331 37.3676 13.6036 38.6388 13.5748 44.2481C13.5604 47.243 12.6748 52.3136 12.1347 54.1451C9.88092 53.434 6.70546 53.3909 4.40847 54.1451C4.09885 51.6959 4.7253 46.4673 5.11413 44.7795C6.07901 40.6283 9.54249 36.4195 11.9331 37.3676Z" fill="#FCC332"/>
<path d="M22.0572 23.8507C20.9483 21.5237 18.1328 20.5469 15.7782 21.6602C13.4237 22.7806 12.4156 25.5744 13.5245 27.9015C13.5677 27.9876 13.6109 28.081 13.6613 28.16L22.1724 24.1165C22.1364 24.0303 22.1004 23.9369 22.0572 23.8507Z" fill="#FCB500"/>
<path d="M20.2858 24.9066C20.2498 24.8132 20.2138 24.727 20.1706 24.6337C19.2417 22.6873 17.1248 21.689 15.0798 22.0624C15.2958 21.9116 15.5262 21.7752 15.7783 21.6602C18.1328 20.5398 20.9483 21.5166 22.0572 23.8508C22.1004 23.937 22.1364 24.0303 22.1724 24.1237L13.6613 28.1673C13.6469 28.1385 20.2858 24.9066 20.2858 24.9066Z" fill="#FCC332"/>
<path d="M25.9738 22.4287C25.8802 22.242 21.4519 24.0447 18.6149 25.3877C15.785 26.738 13.5601 27.9805 13.6465 28.1672C13.7401 28.354 18.4348 27.2551 21.2719 25.912C24.1089 24.5618 26.0674 22.6154 25.9738 22.4287Z" fill="#FC9700"/>
</svg>
