<svg width="52" height="94" viewBox="0 0 52 94" fill="none" xmlns="http://www.w3.org/2000/svg">
<path d="M12.6511 14.9814C13.688 16.1162 13.4575 16.2527 13.5944 16.3963C13.7528 16.5615 16.7554 17.2007 16.7554 17.2007C16.7554 17.2007 25.5833 19.1399 26.0657 19.2261L35.2249 17.1504L37.457 21.5746C37.457 21.5746 27.441 23.5569 26.901 23.5712C26.361 23.5784 14.7392 19.5062 13.7024 19.183C13.7024 19.183 12.3271 19.2692 11.463 19.2979C10.5989 19.3266 9.77086 18.946 9.52604 18.9172C9.49004 18.91 8.68357 18.7592 7.7403 18.2924C6.92663 17.8902 7.87711 17.883 7.87711 17.883C7.87711 17.883 9.51164 18.3427 9.52604 18.2062C9.54044 18.0985 8.62597 17.8974 7.7259 17.4664C7.49548 17.3515 7.26506 17.2438 7.05624 17.1361C6.509 16.8631 6.5162 16.4322 7.13544 16.6189C7.35146 16.6836 7.71869 16.8057 7.96351 16.9278C8.22993 17.0642 8.51075 17.093 8.75557 17.172C9.23081 17.3228 9.57644 17.4449 9.56924 17.4162C9.56204 17.3874 9.67725 17.3443 9.43963 17.2222C9.1444 17.0714 8.45315 16.8919 8.04272 16.6333C7.8123 16.4897 7.30106 16.2096 7.30106 16.2096C7.30106 16.2096 6.4586 15.6565 6.5378 15.5416C6.71782 15.2902 7.30826 15.5416 7.60348 15.7858C7.8699 15.8433 8.39554 16.1449 8.39554 16.1449C8.39554 16.1449 9.59084 16.5112 9.64845 16.3388C9.67005 16.267 9.0508 15.9079 8.43155 15.4842C7.7763 15.0317 7.32986 14.6726 7.39466 14.5289C7.49547 14.2991 8.04272 14.6223 8.04272 14.6223C8.04272 14.6223 8.52516 14.9024 8.69797 14.9886C8.89239 15.082 9.50443 15.319 9.50443 15.319C9.50443 15.319 11.6718 16.0444 11.7078 15.872C11.7438 15.6996 11.6718 15.2256 11.5566 15.1322C11.4414 15.0389 11.1318 14.9886 11.0166 14.8952C10.8941 14.8019 10.6637 14.5792 10.7645 14.414C10.8653 14.2488 11.7654 14.4715 11.7654 14.4715C11.7654 14.4715 12.3559 14.651 12.6511 14.9814Z" fill="#F8A492"/>
<path d="M6.04555 31.7826C7.40646 32.6085 7.32725 32.7091 7.50727 32.8097C7.71609 32.9317 10.9635 32.7881 10.9635 32.7881C10.9635 32.7881 20.5259 32.429 21.0371 32.3931L29.8506 28.1269L33.3213 31.7898C33.3213 31.7898 23.6005 36.1853 23.0533 36.3217C22.506 36.4654 9.50903 35.4886 8.35694 35.4383C8.35694 35.4383 6.97443 35.8692 6.09596 36.1063C5.21749 36.3504 4.26702 36.1996 4.0078 36.2284C3.97179 36.2355 3.10052 36.2858 2.01324 36.0775C1.06996 35.898 2.04204 35.6538 2.04204 35.6538C2.04204 35.6538 3.84218 35.6825 3.82058 35.546C3.79898 35.4383 2.8197 35.4814 1.77562 35.2875C1.5092 35.2372 1.24277 35.1869 0.997955 35.1438C0.364307 35.0218 0.256306 34.6052 0.940357 34.6339C1.18518 34.6411 1.5812 34.6698 1.86922 34.7273C2.17885 34.7919 2.48128 34.7488 2.7477 34.7632C3.27334 34.7919 3.63337 34.8135 3.61896 34.7919C3.60456 34.7632 3.74138 34.6986 3.46055 34.6411C3.12213 34.5693 2.36607 34.5693 1.87643 34.4256C1.59561 34.3466 1.00516 34.2102 1.00516 34.2102C1.00516 34.2102 0.299503 33.7936 0.306705 33.7361C0.335506 33.4345 0.832348 33.5781 1.19958 33.7361C1.4804 33.7218 2.10685 33.8798 2.10685 33.8798C2.10685 33.8798 3.43175 33.9301 3.43895 33.7505C3.43895 33.6787 2.67569 33.6284 1.89083 33.377C0.990757 33.0898 0.760338 32.6876 0.789139 32.5295C0.825142 32.2854 1.33639 32.5152 1.33639 32.5152C1.33639 32.5152 2.03484 32.8312 2.22925 32.8671C2.45967 32.9102 5.4335 32.9605 5.4263 32.7881C5.4191 32.6157 5.13108 32.3859 4.98707 32.3284C4.84306 32.271 4.56224 32.1848 4.41103 32.1273C4.26702 32.0699 4.16621 31.7682 4.22381 31.5887C4.28142 31.4091 4.92946 31.5025 4.92946 31.5025C4.92946 31.5025 5.64952 31.5456 6.04555 31.7826Z" fill="#F8A492"/>
<path d="M46.6467 85.0518C47.6398 86.1923 47.5022 88.5619 47.7086 88.7093C48.1413 89.0141 48.9967 86.8117 48.9967 86.8117L47.7873 82.5446C47.7873 82.5446 45.3489 80.185 42.5663 77.2452C41.7305 78.0317 40.9538 78.8675 40.2852 79.7917C43.0284 81.7974 45.4472 83.6753 46.6467 85.0518Z" fill="#FFA283"/>
<path d="M47.7971 82.5446C47.7971 82.5446 47.9445 82.1808 48.7213 82.4856C49.4981 82.7904 51.553 86.1136 51.553 86.1136L51.0418 86.6642C51.0418 86.6642 49.3899 84.3242 49.2719 84.4422C49.1539 84.57 50.6091 87.1755 50.3928 87.5589C50.1765 87.9424 48.3575 90.0366 47.7479 90.0464C47.1383 90.0464 47.6004 88.3258 47.6004 88.3258C47.6004 88.3258 48.7115 87.4606 48.7115 87.205C48.7115 86.9493 47.7971 82.5446 47.7971 82.5446Z" fill="#C91414"/>
<path d="M33.9432 89.0927C33.8154 90.597 32.0062 92.1407 32.0456 92.3963C32.1242 92.9174 34.307 92.0128 34.307 92.0128L36.5488 88.1882C36.5488 88.1882 36.5685 84.7961 36.7553 80.7551C35.6147 80.6961 34.4643 80.7158 33.3336 80.8731C33.7761 84.2357 34.1005 87.2738 33.9432 89.0927Z" fill="#FFA283"/>
<path d="M36.5489 88.1882C36.5489 88.1882 36.9225 88.0408 37.2371 88.8175C37.5518 89.5844 36.5784 93.3796 36.5784 93.3796L35.8311 93.3894C35.8311 93.3894 36.3817 90.5774 36.2047 90.5774C36.0278 90.5774 35.1625 93.4287 34.7397 93.5467C34.3169 93.6549 31.5442 93.8023 31.1214 93.3599C30.6986 92.9273 32.2619 92.0621 32.2619 92.0621C32.2619 92.0621 33.6483 92.2685 33.8351 92.0916C34.0023 91.9047 36.5489 88.1882 36.5489 88.1882Z" fill="#C91414"/>
<path d="M35.6738 15.4409C35.6738 15.4409 34.4251 15.1656 32.9502 15.4409C31.4753 15.7162 25.7094 19.5052 25.09 18.8858C24.4705 18.2664 20.0493 17.6256 20.0493 17.6256L18.3691 21.8262C18.3691 21.8262 20.3994 22.9924 22.1496 23.9264C23.8998 24.8604 29.1462 24.2465 31.8108 23.0863C34.4754 21.936 35.6738 15.4409 35.6738 15.4409Z" fill="#F2E900"/>
<path d="M31.1314 19.2557C26.8444 23.1 26.8936 22.8346 26.8936 24.3094C26.8936 24.506 27.1901 24.3465 27.1901 24.3465C28.3209 24.2186 29.1255 24.742 30.1088 24.3094C32.0851 23.454 34.1991 18.9706 35.1528 16.7289C33.7959 17.309 32.3899 18.1152 31.1314 19.2557Z" fill="#DBCF60"/>
<path d="M33.8057 41.4172L29.0567 39.0083L29.214 41.0239C29.214 41.0239 24.8484 60.629 25.9004 63.5884C28.3585 70.5102 42.5959 82.171 42.5959 82.171L45.3982 79.6048C45.3982 79.6048 34.4252 64.5126 34.4252 61.6318C34.4252 58.751 38.0042 42.42 38.0042 42.42L33.8057 41.4172Z" fill="black"/>
<path opacity="0.51" d="M34.4248 61.6417C34.4248 58.7609 38.0038 42.4298 38.0038 42.4298L33.8053 41.4172L29.0563 39.0083L29.2136 41.0239C29.2136 41.0239 28.5548 43.9735 27.8174 47.749C30.2755 49.3909 30.4132 62.0743 31.8487 72.0636L36.1848 65.7416C35.1327 63.8932 34.4248 62.3791 34.4248 61.6417Z" fill="black"/>
<path d="M29.0562 39.0083C29.0562 39.0083 29.3216 42.3217 29.3216 42.7838C29.3216 43.2459 33.4906 79.8408 32.173 85.7499H37.1482C37.1482 85.7499 42.5954 52.2226 42.5954 46.697C42.5954 41.1714 39.9505 37.5139 39.9505 37.5139L29.0562 39.0083Z" fill="#282828"/>
<path d="M39.9505 37.5335L29.0562 39.0083C29.0562 39.0083 29.3216 42.3217 29.3216 42.7838C29.3216 42.833 29.3708 43.3148 29.4593 44.1505C31.5634 43.3934 34.169 42.4004 35.6734 41.6236C38.456 40.1783 39.2622 38.6249 40.5798 38.5757C40.216 37.8973 39.9505 37.5335 39.9505 37.5335Z" fill="#F7604B"/>
<path d="M33.8845 10.0726C33.8845 10.0726 35.5167 14.2709 34.9759 16.9944C34.4351 19.7179 33.4224 22.0481 33.4224 22.0481L40.6492 16.5225L39.5676 8.50934L33.8845 10.0726Z" fill="#FF7446"/>
<path opacity="0.68" d="M39.6854 9.42365L39.5674 8.5191L33.8843 10.0726C33.8843 10.0726 34.2972 11.1443 34.6414 12.5502C35.487 12.3831 36.4505 12.0881 37.5419 11.6457C38.5547 11.2426 39.2725 10.4167 39.6854 9.42365Z" fill="#FF4900"/>
<path d="M41.583 15.2836C41.583 15.2836 36.2538 15.4016 32.3995 19.2459C28.5452 23.0903 28.5845 22.8248 28.5845 24.2996C28.5845 25.7744 28.1224 31.9981 28.1224 35.6556C28.1224 39.3131 27.6603 41.3385 28.1224 41.4073C31.4752 41.9481 36.9519 37.445 40.2949 37.9858C40.2949 37.9858 43.2938 33.3549 42.7825 31.5655C42.2811 29.776 43.0971 28.5667 43.4413 25.3418C43.8051 22.1267 44.6212 15.2836 41.583 15.2836Z" fill="#F2E900"/>
<path d="M41.1996 16.3553C41.1996 16.3553 40.6293 22.048 38.3285 24.9288C36.0277 27.8194 28.4568 31.5163 28.1323 31.3688C28.0045 33.6498 27.63 32.3531 27.6104 34.4277C28.9279 35.2831 30.5059 35.6163 31.3908 35.3115C33.023 34.751 41.3766 26.8067 42.5958 23.867C43.815 20.9272 44.228 16.3553 41.1996 16.3553Z" fill="#DBCF60"/>
<path d="M41.2 16.3553C41.2 16.3553 38.1716 16.2864 35.8708 18.9804C33.57 21.6744 29.7627 26.8668 29.2908 26.8668C28.8287 26.8668 27.1905 28.547 27.1905 28.547C27.1905 28.547 26.1367 27.1509 26.1367 30.6511C26.1367 34.1513 29.3388 34.5386 30.971 34.0076C32.6032 33.4865 41.3672 26.0988 42.5864 23.3557C43.8154 20.6125 44.2284 16.3553 41.2 16.3553Z" fill="#FEFA92"/>
<path d="M36.9123 2.05951C36.9123 2.05951 35.0834 2.09884 34.0314 3.15087C32.9793 4.2029 30.3344 10.0333 31.2291 10.928C32.1239 11.8227 34.4148 12.0194 38.0725 10.5347C41.74 9.05993 41.5827 2.05951 36.9123 2.05951Z" fill="#FFA283"/>
<path d="M35.0541 2.05952C35.0541 2.05952 36.2635 2.83625 35.8505 5.40241C35.4375 7.96858 37.3844 9.21725 38.0825 10.5347C38.7806 11.8522 38.4758 14.1923 41.7401 14.1923C45.0045 14.1923 45.2405 11.0853 45.2405 8.82396C45.2405 6.57242 43.51 3.04272 41.5828 1.50892C39.4885 -0.15269 34.1888 -0.840932 35.0541 2.05952Z" fill="#C91414"/>
<path d="M42.6253 2.55109C43.8838 4.28153 44.8179 6.61172 44.8179 8.25367C44.8179 10.5052 44.5819 13.622 41.2782 13.622C40.1671 13.622 39.469 13.3565 38.9971 12.9632C39.4199 13.6613 40.1671 14.2021 41.7305 14.2021C44.9949 14.2021 45.2309 11.0951 45.2309 8.83376C45.2407 6.99517 44.0903 4.31102 42.6253 2.55109Z" fill="#910D0D"/>
<path d="M44.2282 6.45442C44.2282 6.45442 44.1102 8.40116 45.2409 9.05991C46.3716 9.71865 47.0304 9.71865 47.3844 9.05991C47.7384 8.40116 49.1346 9.02058 48.8986 7.54577C48.6626 6.07096 48.7413 5.05826 47.6105 4.70431C46.4798 4.35036 46.0177 4.70431 44.8869 4.70431C43.766 4.70431 44.2282 6.45442 44.2282 6.45442Z" fill="#C91414"/>
<path d="M16.1075 20.5725C16.1075 20.5725 18.3311 22.7531 18.7857 22.7218C19.2403 22.6906 21.3061 17.4441 20.8709 16.9493C20.4358 16.4545 18.324 16.1736 18.1466 16.3771C17.9512 16.588 15.6782 20.1637 16.1075 20.5725Z" fill="#FEFA92"/>
</svg>
