<svg width="9" height="17" viewBox="0 0 9 17" fill="none" xmlns="http://www.w3.org/2000/svg">
<path fill-rule="evenodd" clip-rule="evenodd" d="M1.68121 2.86237C1.68121 1.30558 2.94324 0.0435486 4.50003 0.0435486C6.05682 0.0435486 7.31885 1.30558 7.31885 2.86237V10.3792C7.31885 11.936 6.05682 13.198 4.50003 13.198C2.94324 13.198 1.68121 11.936 1.68121 10.3792V2.86237ZM0.939223 12.0294C0.84482 11.8265 0.743336 11.6093 0.62677 11.3762L0.856398 11.2614C0.974733 11.4981 1.07755 11.7181 1.17199 11.9211L1.18874 11.9571C1.27688 12.1466 1.35756 12.3201 1.43797 12.4801C1.60902 12.8205 1.77396 13.0898 1.99133 13.3039C2.42033 13.7265 3.08282 13.962 4.50493 14.0165C5.51742 14.0553 6.18819 13.8248 6.72128 13.3688C7.26219 12.906 7.67342 12.2018 8.14361 11.2614L8.37324 11.3762C7.90383 12.315 7.473 13.0635 6.88818 13.5639C6.32066 14.0494 5.61925 14.2927 4.62837 14.2767V16.7853H7.31885V16.9565H1.68121V16.7853H4.37164V14.2678C3.0156 14.2039 2.29733 13.9657 1.81117 13.4868C1.56368 13.2431 1.38369 12.9439 1.20857 12.5954C1.12635 12.4317 1.04412 12.2549 0.95651 12.0666L0.956505 12.0666L0.956485 12.0665L0.939223 12.0294Z" fill="#433B11"/>
</svg>
