<svg width="67" height="51" viewBox="0 0 67 51" fill="none" xmlns="http://www.w3.org/2000/svg">
<path d="M64.5115 1.45785L3.46975 27.1049C1.55346 27.91 0.652697 30.1162 1.45784 32.0325L15.9764 66.5876C16.7815 68.5039 18.9877 69.4047 20.904 68.5995L81.9457 42.9525C83.862 42.1473 84.7628 39.9412 83.9576 38.0249L69.4391 3.46977C68.634 1.55348 66.4278 0.65271 64.5115 1.45785Z" fill="#FFC100"/>
<path opacity="0.2" d="M20.3073 25.5666L8.35518 30.5884C7.4336 30.9756 7.00041 32.0366 7.38762 32.9581L9.90684 38.9541C10.294 39.8756 11.355 40.3088 12.2766 39.9216L24.2287 34.8999C25.1503 34.5127 25.5835 33.4517 25.1962 32.5301L22.677 26.5342C22.2898 25.6126 21.2289 25.1794 20.3073 25.5666Z" fill="white"/>
<path opacity="0.4" d="M28.6945 49.2679L16.9841 54.1881C16.6386 54.3333 16.4761 54.7312 16.6213 55.0768L17.5102 57.1924C17.6554 57.538 18.0533 57.7005 18.3989 57.5553L30.1093 52.6351C30.4549 52.4899 30.6173 52.092 30.4721 51.7464L29.5832 49.6308C29.438 49.2852 29.0401 49.1227 28.6945 49.2679Z" fill="white"/>
<path opacity="0.4" d="M43.9299 42.8683L32.2195 47.7885C31.8739 47.9337 31.7115 48.3316 31.8567 48.6771L32.7456 50.7928C32.8908 51.1383 33.2886 51.3008 33.6342 51.1556L45.3446 46.2354C45.6902 46.0902 45.8526 45.6923 45.7074 45.3467L44.8186 43.2311C44.6734 42.8855 44.2755 42.7231 43.9299 42.8683Z" fill="white"/>
<path opacity="0.4" d="M59.1623 36.4687L47.4519 41.3889C47.1063 41.5341 46.9439 41.9319 47.0891 42.2775L47.978 44.3932C48.1232 44.7388 48.521 44.9012 48.8666 44.756L60.577 39.8358C60.9226 39.6906 61.0851 39.2927 60.9399 38.9471L60.051 36.8315C59.9058 36.4859 59.5079 36.3235 59.1623 36.4687Z" fill="white"/>
<path opacity="0.4" d="M74.3987 30.069L62.6883 34.9892C62.3427 35.1344 62.1802 35.5323 62.3254 35.8779L63.2143 37.9935C63.3595 38.3391 63.7574 38.5015 64.103 38.3563L75.8134 33.4361C76.159 33.2909 76.3214 32.8931 76.1762 32.5475L75.2873 30.4319C75.1421 30.0863 74.7442 29.9238 74.3987 30.069Z" fill="white"/>
<g opacity="0.6">
<path opacity="0.6" d="M63.8028 18.208C66.5246 17.5661 68.2108 14.8392 67.5688 12.1173C66.9269 9.39547 64.2 7.70934 61.4782 8.35126C58.7563 8.99317 57.0702 11.7201 57.7121 14.4419C58.354 17.1638 61.0809 18.8499 63.8028 18.208Z" fill="#263238"/>
<path opacity="0.6" d="M60.5553 18.8832C62.2328 16.6457 61.7788 13.4719 59.5413 11.7944C57.3038 10.1169 54.13 10.5708 52.4525 12.8084C50.775 15.0459 51.2289 18.2197 53.4664 19.8972C55.7039 21.5747 58.8777 21.1208 60.5553 18.8832Z" fill="white"/>
</g>
</svg>
