<svg width="82" height="53" viewBox="0 0 82 53" fill="none" xmlns="http://www.w3.org/2000/svg">
<path d="M31.5252 3.23747C31.8565 2.91093 32.304 2.72929 32.7692 2.73247C33.2344 2.73565 33.6793 2.92338 34.0062 3.25442L43.9168 13.3119C44.0793 13.4763 44.2078 13.671 44.295 13.885C44.3822 14.0989 44.4264 14.328 44.4251 14.5591C44.4237 14.7901 44.3769 15.0187 44.2873 15.2316C44.1976 15.4446 44.0669 15.6378 43.9026 15.8003C43.7382 15.9627 43.5435 16.0912 43.3296 16.1784C43.1156 16.2656 42.8865 16.3098 42.6555 16.3085C42.4244 16.3071 42.1959 16.2603 41.9829 16.1707C41.7699 16.081 41.5767 15.9503 41.4142 15.786L31.5036 5.72846C31.3407 5.56389 31.212 5.36872 31.1248 5.15419C31.0377 4.93966 30.9939 4.71001 30.9959 4.47847C30.9979 4.24693 31.0457 4.01807 31.1365 3.80509C31.2274 3.5921 31.3594 3.39919 31.5252 3.23747Z" fill="white" stroke="#263238" stroke-width="0.75" stroke-linecap="round" stroke-linejoin="round"/>
<path d="M41.0082 13.9205L35.5578 8.32648" stroke="#263238" stroke-width="0.75" stroke-linecap="round" stroke-linejoin="round"/>
<path d="M16.4164 -12.0787C16.7078 -12.3665 17.0531 -12.5941 17.4326 -12.7485C17.812 -12.9029 18.2182 -12.9809 18.6278 -12.9783C19.0374 -12.9757 19.4425 -12.8923 19.8199 -12.7331C20.1973 -12.5738 20.5397 -12.3418 20.8274 -12.0502L34.9789 2.30827C35.559 2.89919 35.8807 3.69637 35.873 4.52443C35.8654 5.35249 35.5291 6.14361 34.9382 6.72374C34.3473 7.30388 33.5501 7.62552 32.7221 7.6179C31.894 7.61028 31.1029 7.27402 30.5228 6.6831L16.3941 -7.68097C15.816 -8.26822 15.4938 -9.06041 15.498 -9.88444C15.5022 -10.7085 15.8324 -11.4973 16.4164 -12.0787Z" fill="#263238" stroke="#263238" stroke-width="0.75" stroke-linecap="round" stroke-linejoin="round"/>
<path d="M68.462 40.9946C71.139 38.3562 72.9734 34.9833 73.7334 31.3023C74.4934 27.6213 74.1448 23.7977 72.7317 20.3148C71.3186 16.832 68.9044 13.8464 65.7945 11.7356C62.6846 9.62477 59.0186 8.48356 55.2601 8.45627C51.5016 8.42898 47.8194 9.51683 44.6791 11.5822C41.5389 13.6477 39.0816 16.5979 37.618 20.0598C36.1545 23.5218 35.7504 27.34 36.4569 31.0316C37.1633 34.7233 38.9486 38.1225 41.587 40.7995C45.1254 44.3883 49.9443 46.425 54.9841 46.4616C60.0239 46.4982 64.8718 44.5317 68.462 40.9946ZM44.0925 16.2661C46.3062 14.0851 49.117 12.6095 52.1694 12.0258C55.2218 11.4422 58.3787 11.7768 61.2409 12.9873C64.1032 14.1978 66.5422 16.2298 68.2496 18.8265C69.957 21.4231 70.8561 24.4677 70.8332 27.5753C70.8103 30.6829 69.8664 33.7139 68.1209 36.2851C66.3754 38.8563 63.9067 40.8521 61.027 42.0203C58.1472 43.1885 54.9857 43.4765 51.9423 42.848C48.8988 42.2194 46.1101 40.7025 43.9287 38.4891C41.0041 35.5201 39.3784 31.5111 39.4091 27.3437C39.4398 23.1763 41.1244 19.1917 44.0925 16.2661Z" fill="#263238" stroke="#263238" stroke-width="0.75" stroke-linecap="round" stroke-linejoin="round"/>
<path d="M65.7261 18.3337C66.9297 19.7335 67.8438 21.3579 68.4156 23.1132C68.9874 24.8685 69.2056 26.7197 69.0574 28.5598" stroke="#263238" stroke-width="0.75" stroke-linecap="round" stroke-linejoin="round"/>
<path d="M60.9775 14.7427C62.2719 15.3396 63.467 16.1318 64.5209 17.0915" stroke="#263238" stroke-width="0.75" stroke-linecap="round" stroke-linejoin="round"/>
<path d="M59.1532 9.46684C63.5047 10.4446 67.3543 12.9662 69.989 16.5647C72.6236 20.1632 73.8648 24.5947 73.4826 29.0382C73.1004 33.4817 71.1206 37.6361 67.9101 40.7318C64.6996 43.8275 60.4759 45.6547 56.0214 45.875" stroke="white" stroke-miterlimit="10"/>
<path d="M49.4018 44.9905C45.1929 43.628 41.6142 40.7977 39.3185 37.016C37.0228 33.2344 36.1632 28.7534 36.8966 24.3907C37.6299 20.028 39.9073 16.0743 43.3132 13.251C46.7191 10.4277 51.0265 8.92304 55.4495 9.01143" stroke="white" stroke-miterlimit="10"/>
<path d="M54.2637 45.8751C53.0047 45.8179 51.755 45.6314 50.5342 45.3187" stroke="white" stroke-miterlimit="10"/>
</svg>
