<svg width="80" height="45" viewBox="0 0 80 45" fill="none" xmlns="http://www.w3.org/2000/svg">
<path d="M33.9386 18.1339H0V46.1726H33.9386V18.1339Z" fill="#FFC727"/>
<path d="M47.3825 18.1339H33.9355V46.1762H47.3825V18.1339Z" fill="#FFC727"/>
<path opacity="0.1" d="M47.3825 18.1339H33.9355V46.1762H47.3825V18.1339Z" fill="black"/>
<path d="M46.4565 44.2455C45.4636 42.2502 44.4767 40.2488 43.4958 38.2415L40.5782 32.2125L37.7072 26.1547C36.7502 24.1306 35.8051 22.097 34.8721 20.0538C35.8673 22.0492 36.8542 24.0505 37.8328 26.0578L40.7468 32.0869L43.6178 38.1446C44.5748 40.1759 45.521 42.2095 46.4565 44.2455Z" fill="#FFC727"/>
<path d="M46.4553 20.0646C45.5199 22.103 44.5749 24.1366 43.6203 26.1654L40.7493 32.2232L37.8352 38.2523C36.8567 40.262 35.8698 42.2633 34.8745 44.2562C35.8076 42.2178 36.7526 40.1842 37.7096 38.1554L40.5806 32.0976L43.4982 26.0685C44.4768 24.0588 45.4625 22.0575 46.4553 20.0646Z" fill="#FFC727"/>
<path d="M19.3681 24.1952H18.8334H18.4279L18.1982 23.7251L17.8752 24.1952L17.441 23.2334L17.0247 24.1952H15.8404H15.2985L15.1047 23.5528L14.9181 24.1952H14.5664V18.1339H19.3681V24.1952Z" fill="white"/>
<path d="M67.0846 18.1339H41.7661V46.1726H67.0846V18.1339Z" fill="#FFC727"/>
<path d="M80.1587 18.1339H67.085V46.1726H80.1587V18.1339Z" fill="#FFC727"/>
<path opacity="0.1" d="M80.1587 18.1339H67.085V46.1726H80.1587V18.1339Z" fill="black"/>
<g opacity="0.1">
<path opacity="0.1" d="M65.2301 44.2419C63.3711 42.249 61.5289 40.2488 59.7035 38.2415L54.2558 32.2125L48.8727 26.1547C47.0855 24.1306 45.3198 22.097 43.5757 20.0538C45.4346 22.0492 47.2769 24.0493 49.1023 26.0542L54.55 32.0869L59.9331 38.1446C61.7179 40.1735 63.4836 42.2059 65.2301 44.2419Z" fill="black"/>
<path opacity="0.1" d="M65.2296 20.064C63.4807 22.1024 61.7151 24.136 59.9326 26.1649L54.5495 32.2227L49.1019 38.2517C47.2788 40.259 45.4366 42.2591 43.5752 44.2521C45.3241 42.2185 47.0898 40.1849 48.8722 38.1512L54.2553 32.0935L59.703 26.0608C61.526 24.0583 63.3683 22.0594 65.2296 20.064Z" fill="black"/>
</g>
<path d="M78.3165 41.4283H76.0269V44.6618H78.3165V41.4283Z" fill="white"/>
<path d="M34.563 0H5.65576V18.1303H34.563V0Z" fill="#FFC727"/>
<path opacity="0.1" d="M34.563 0H5.65576V18.1303H34.563V0Z" fill="black"/>
<path d="M47.6411 0.00354004H34.5674V18.1374H47.6411V0.00354004Z" fill="#FFC727"/>
<path opacity="0.2" d="M47.6411 0.00354004H34.5674V18.1374H47.6411V0.00354004Z" fill="black"/>
<path d="M46.7396 17.0644C45.7707 15.8203 44.8137 14.5691 43.8687 13.3106L41.03 9.53526L38.2308 5.74556C37.3001 4.47754 36.3814 3.20713 35.4746 1.93433C36.4316 3.18321 37.3886 4.43447 38.3456 5.68814L41.1807 9.46348L43.9799 13.2568C44.9106 14.52 45.8305 15.7892 46.7396 17.0644Z" fill="#FFC727"/>
<path d="M46.7396 1.93433C45.8281 3.20713 44.9082 4.47754 43.9799 5.74556L41.1807 9.53526L38.3456 13.3106C37.3886 14.5667 36.4316 15.8179 35.4746 17.0644C36.3814 15.7892 37.3001 14.52 38.2308 13.2568L41.03 9.46348L43.8687 5.68814C44.8113 4.43208 45.7683 3.18081 46.7396 1.93433Z" fill="#FFC727"/>
</svg>
