<svg width="66" height="33" viewBox="0 0 66 33" fill="none" xmlns="http://www.w3.org/2000/svg">
<path d="M67.115 22.5995C67.1157 24.3206 67.799 25.9712 69.0151 27.1892C70.2311 28.4071 71.8806 29.0931 73.6017 29.0965V37.4303H0V29.0965C0.864238 29.1136 1.72322 28.9583 2.52667 28.6394C3.33013 28.3206 4.06191 27.8446 4.67918 27.2395C5.29646 26.6344 5.78683 25.9122 6.12159 25.1153C6.45635 24.3183 6.62877 23.4626 6.62877 22.5982C6.62877 21.7338 6.45635 20.878 6.12159 20.0811C5.78683 19.2841 5.29646 18.562 4.67918 17.9568C4.06191 17.3517 3.33013 16.8758 2.52667 16.557C1.72322 16.2381 0.864238 16.0827 0 16.0999V0H73.6017V16.0999C71.8802 16.1033 70.2303 16.7896 69.0142 18.0081C67.798 19.2267 67.115 20.8779 67.115 22.5995Z" fill="#FFC100"/>
<path opacity="0.3" d="M73.6017 29.0964V37.4302H0V29.0964C1.72335 29.0964 3.37615 28.412 4.59498 27.1936C5.81381 25.9753 6.49888 24.3228 6.49956 22.5994H67.115C67.1157 24.3205 67.799 25.9711 69.0151 27.1891C70.2311 28.4071 71.8806 29.093 73.6017 29.0964Z" fill="white"/>
<g opacity="0.2">
<path opacity="0.2" d="M7.01289 22.8538H6.49909C6.43095 22.8538 6.36561 22.8267 6.31743 22.7785C6.26925 22.7303 6.24219 22.665 6.24219 22.5969C6.24219 22.5287 6.26925 22.4634 6.31743 22.4152C6.36561 22.367 6.43095 22.34 6.49909 22.34H7.01289C7.08102 22.34 7.14636 22.367 7.19454 22.4152C7.24272 22.4634 7.26979 22.5287 7.26979 22.5969C7.26979 22.665 7.24272 22.7303 7.19454 22.7785C7.14636 22.8267 7.08102 22.8538 7.01289 22.8538Z" fill="black"/>
<path opacity="0.2" d="M64.2582 22.8538H63.2306C63.1624 22.8538 63.0971 22.8267 63.0489 22.7785C63.0007 22.7303 62.9737 22.665 62.9737 22.5969C62.9737 22.5287 63.0007 22.4634 63.0489 22.4152C63.0971 22.367 63.1624 22.34 63.2306 22.34H64.2582C64.3263 22.34 64.3916 22.367 64.4398 22.4152C64.488 22.4634 64.5151 22.5287 64.5151 22.5969C64.5151 22.665 64.488 22.7303 64.4398 22.7785C64.3916 22.8267 64.3263 22.8538 64.2582 22.8538ZM60.8902 22.8538H59.8626C59.7945 22.8538 59.7291 22.8267 59.681 22.7785C59.6328 22.7303 59.6057 22.665 59.6057 22.5969C59.6057 22.5287 59.6328 22.4634 59.681 22.4152C59.7291 22.367 59.7945 22.34 59.8626 22.34H60.8902C60.9583 22.34 61.0237 22.367 61.0719 22.4152C61.12 22.4634 61.1471 22.5287 61.1471 22.5969C61.1471 22.665 61.12 22.7303 61.0719 22.7785C61.0237 22.8267 60.9583 22.8538 60.8902 22.8538ZM57.5223 22.8538H56.4947C56.4265 22.8538 56.3612 22.8267 56.313 22.7785C56.2648 22.7303 56.2378 22.665 56.2378 22.5969C56.2378 22.5287 56.2648 22.4634 56.313 22.4152C56.3612 22.367 56.4265 22.34 56.4947 22.34H57.5223C57.5904 22.34 57.6557 22.367 57.7039 22.4152C57.7521 22.4634 57.7792 22.5287 57.7792 22.5969C57.7792 22.665 57.7521 22.7303 57.7039 22.7785C57.6557 22.8267 57.5904 22.8538 57.5223 22.8538ZM54.1543 22.8538H53.1267C53.0586 22.8538 52.9932 22.8267 52.945 22.7785C52.8969 22.7303 52.8698 22.665 52.8698 22.5969C52.8698 22.5287 52.8969 22.4634 52.945 22.4152C52.9932 22.367 53.0586 22.34 53.1267 22.34H54.1543C54.2224 22.34 54.2878 22.367 54.336 22.4152C54.3841 22.4634 54.4112 22.5287 54.4112 22.5969C54.4112 22.665 54.3841 22.7303 54.336 22.7785C54.2878 22.8267 54.2224 22.8538 54.1543 22.8538ZM50.7889 22.8538H49.7613C49.6932 22.8538 49.6278 22.8267 49.5797 22.7785C49.5315 22.7303 49.5044 22.665 49.5044 22.5969C49.5044 22.5287 49.5315 22.4634 49.5797 22.4152C49.6278 22.367 49.6932 22.34 49.7613 22.34H50.7889C50.8571 22.34 50.9224 22.367 50.9706 22.4152C51.0188 22.4634 51.0458 22.5287 51.0458 22.5969C51.0458 22.665 51.0188 22.7303 50.9706 22.7785C50.9224 22.8267 50.8571 22.8538 50.7889 22.8538ZM47.421 22.8538H46.3934C46.3252 22.8538 46.2599 22.8267 46.2117 22.7785C46.1635 22.7303 46.1365 22.665 46.1365 22.5969C46.1365 22.5287 46.1635 22.4634 46.2117 22.4152C46.2599 22.367 46.3252 22.34 46.3934 22.34H47.421C47.4891 22.34 47.5544 22.367 47.6026 22.4152C47.6508 22.4634 47.6779 22.5287 47.6779 22.5969C47.6779 22.665 47.6508 22.7303 47.6026 22.7785C47.5544 22.8267 47.4891 22.8538 47.421 22.8538ZM44.053 22.8538H43.0254C42.9573 22.8538 42.8919 22.8267 42.8438 22.7785C42.7956 22.7303 42.7685 22.665 42.7685 22.5969C42.7685 22.5287 42.7956 22.4634 42.8438 22.4152C42.8919 22.367 42.9573 22.34 43.0254 22.34H44.053C44.1211 22.34 44.1865 22.367 44.2347 22.4152C44.2828 22.4634 44.3099 22.5287 44.3099 22.5969C44.3099 22.665 44.2828 22.7303 44.2347 22.7785C44.1865 22.8267 44.1211 22.8538 44.053 22.8538ZM40.6851 22.8538H39.6575C39.5893 22.8538 39.524 22.8267 39.4758 22.7785C39.4276 22.7303 39.4006 22.665 39.4006 22.5969C39.4006 22.5287 39.4276 22.4634 39.4758 22.4152C39.524 22.367 39.5893 22.34 39.6575 22.34H40.6851C40.7532 22.34 40.8185 22.367 40.8667 22.4152C40.9149 22.4634 40.942 22.5287 40.942 22.5969C40.942 22.665 40.9149 22.7303 40.8667 22.7785C40.8185 22.8267 40.7532 22.8538 40.6851 22.8538ZM37.3197 22.8538H36.2921C36.2239 22.8538 36.1586 22.8267 36.1104 22.7785C36.0622 22.7303 36.0352 22.665 36.0352 22.5969C36.0352 22.5287 36.0622 22.4634 36.1104 22.4152C36.1586 22.367 36.2239 22.34 36.2921 22.34H37.3197C37.3878 22.34 37.4531 22.367 37.5013 22.4152C37.5495 22.4634 37.5766 22.5287 37.5766 22.5969C37.5766 22.665 37.5495 22.7303 37.5013 22.7785C37.4531 22.8267 37.3878 22.8538 37.3197 22.8538ZM33.9517 22.8538H32.9241C32.856 22.8538 32.7906 22.8267 32.7425 22.7785C32.6943 22.7303 32.6672 22.665 32.6672 22.5969C32.6672 22.5287 32.6943 22.4634 32.7425 22.4152C32.7906 22.367 32.856 22.34 32.9241 22.34H33.9517C34.0199 22.34 34.0852 22.367 34.1334 22.4152C34.1816 22.4634 34.2086 22.5287 34.2086 22.5969C34.2086 22.665 34.1816 22.7303 34.1334 22.7785C34.0852 22.8267 34.0199 22.8538 33.9517 22.8538ZM30.5838 22.8538H29.5562C29.488 22.8538 29.4227 22.8267 29.3745 22.7785C29.3263 22.7303 29.2993 22.665 29.2993 22.5969C29.2993 22.5287 29.3263 22.4634 29.3745 22.4152C29.4227 22.367 29.488 22.34 29.5562 22.34H30.5838C30.6519 22.34 30.7172 22.367 30.7654 22.4152C30.8136 22.4634 30.8407 22.5287 30.8407 22.5969C30.8407 22.665 30.8136 22.7303 30.7654 22.7785C30.7172 22.8267 30.6519 22.8538 30.5838 22.8538ZM27.2158 22.8538H26.1882C26.1201 22.8538 26.0547 22.8267 26.0066 22.7785C25.9584 22.7303 25.9313 22.665 25.9313 22.5969C25.9313 22.5287 25.9584 22.4634 26.0066 22.4152C26.0547 22.367 26.1201 22.34 26.1882 22.34H27.2158C27.2839 22.34 27.3493 22.367 27.3975 22.4152C27.4456 22.4634 27.4727 22.5287 27.4727 22.5969C27.4727 22.665 27.4456 22.7303 27.3975 22.7785C27.3493 22.8267 27.2839 22.8538 27.2158 22.8538ZM23.8504 22.8538H22.8228C22.7547 22.8538 22.6893 22.8267 22.6412 22.7785C22.593 22.7303 22.5659 22.665 22.5659 22.5969C22.5659 22.5287 22.593 22.4634 22.6412 22.4152C22.6893 22.367 22.7547 22.34 22.8228 22.34H23.8504C23.9186 22.34 23.9839 22.367 24.0321 22.4152C24.0803 22.4634 24.1073 22.5287 24.1073 22.5969C24.1073 22.665 24.0803 22.7303 24.0321 22.7785C23.9839 22.8267 23.9186 22.8538 23.8504 22.8538ZM20.4825 22.8538H19.4549C19.3867 22.8538 19.3214 22.8267 19.2732 22.7785C19.225 22.7303 19.198 22.665 19.198 22.5969C19.198 22.5287 19.225 22.4634 19.2732 22.4152C19.3214 22.367 19.3867 22.34 19.4549 22.34H20.4825C20.5506 22.34 20.6159 22.367 20.6641 22.4152C20.7123 22.4634 20.7394 22.5287 20.7394 22.5969C20.7394 22.665 20.7123 22.7303 20.6641 22.7785C20.6159 22.8267 20.5506 22.8538 20.4825 22.8538ZM17.1145 22.8538H16.0869C16.0188 22.8538 15.9534 22.8267 15.9053 22.7785C15.8571 22.7303 15.83 22.665 15.83 22.5969C15.83 22.5287 15.8571 22.4634 15.9053 22.4152C15.9534 22.367 16.0188 22.34 16.0869 22.34H17.1145C17.1826 22.34 17.248 22.367 17.2962 22.4152C17.3443 22.4634 17.3714 22.5287 17.3714 22.5969C17.3714 22.665 17.3443 22.7303 17.2962 22.7785C17.248 22.8267 17.1826 22.8538 17.1145 22.8538ZM13.7491 22.8538H12.7215C12.6534 22.8538 12.5881 22.8267 12.5399 22.7785C12.4917 22.7303 12.4646 22.665 12.4646 22.5969C12.4646 22.5287 12.4917 22.4634 12.5399 22.4152C12.5881 22.367 12.6534 22.34 12.7215 22.34H13.7491C13.8173 22.34 13.8826 22.367 13.9308 22.4152C13.979 22.4634 14.006 22.5287 14.006 22.5969C14.006 22.665 13.979 22.7303 13.9308 22.7785C13.8826 22.8267 13.8173 22.8538 13.7491 22.8538ZM10.3812 22.8538H9.35358C9.28545 22.8538 9.2201 22.8267 9.17192 22.7785C9.12375 22.7303 9.09668 22.665 9.09668 22.5969C9.09668 22.5287 9.12375 22.4634 9.17192 22.4152C9.2201 22.367 9.28545 22.34 9.35358 22.34H10.3812C10.4493 22.34 10.5147 22.367 10.5628 22.4152C10.611 22.4634 10.6381 22.5287 10.6381 22.5969C10.6381 22.665 10.611 22.7303 10.5628 22.7785C10.5147 22.8267 10.4493 22.8538 10.3812 22.8538Z" fill="black"/>
</g>
<path d="M28.4443 14.9208V14.8719C28.4443 12.5598 30.0294 10.6408 32.3698 10.6408C34.7101 10.6408 36.2489 12.5547 36.2489 14.8257V14.8719C36.2489 17.1661 34.687 19.1056 32.3235 19.1056C30.0063 19.1056 28.4443 17.1892 28.4443 14.9208ZM34.1424 14.9208V14.8719C34.1424 13.5489 33.3871 12.4622 32.3235 12.4622C31.2111 12.4622 30.5483 13.5489 30.5483 14.8257V14.8719C30.5483 16.2207 31.319 17.2842 32.3698 17.2842C33.4821 17.2791 34.1424 16.1975 34.1424 14.9208ZM31.1649 25.9674L42.0163 11.1418C42.101 11.0064 42.22 10.8959 42.3613 10.8214C42.5025 10.747 42.6609 10.7113 42.8204 10.7179C42.9433 10.7155 43.0654 10.7376 43.1797 10.7828C43.2939 10.828 43.3981 10.8955 43.486 10.9813C43.574 11.0671 43.644 11.1695 43.6921 11.2826C43.7401 11.3957 43.7652 11.5173 43.7658 11.6401C43.7608 11.8617 43.6872 12.0762 43.5552 12.2541L32.6909 27.0747C32.5994 27.2089 32.4758 27.318 32.3313 27.392C32.1868 27.4661 32.026 27.5027 31.8637 27.4986C31.742 27.5006 31.6211 27.4782 31.5083 27.4326C31.3954 27.387 31.2929 27.3191 31.2069 27.2331C31.1208 27.147 31.053 27.0445 31.0074 26.9317C30.9617 26.8188 30.9393 26.698 30.9414 26.5763C30.9498 26.3533 31.028 26.1385 31.1649 25.9623V25.9674ZM38.448 23.3984V23.3496C38.448 21.0375 40.0305 19.1185 42.3709 19.1185C44.7112 19.1185 46.25 21.0324 46.25 23.3034V23.3496C46.25 25.6437 44.665 27.5833 42.3246 27.5833C39.9843 27.5833 38.448 25.654 38.448 23.3856V23.3984ZM44.146 23.3984V23.3496C44.146 22.0266 43.3882 20.9399 42.3246 20.9399C41.2122 20.9399 40.552 22.0266 40.552 23.3034V23.3496C40.552 24.6984 41.3073 25.7619 42.3709 25.7619C43.4807 25.7568 44.146 24.6624 44.146 23.3856V23.3984Z" fill="#263238"/>
</svg>
