<svg width="14" height="18" viewBox="0 0 14 18" fill="none" xmlns="http://www.w3.org/2000/svg">
<path fill-rule="evenodd" clip-rule="evenodd" d="M12.265 6.34659C12.265 9.61526 9.61526 12.265 6.34659 12.265C3.07792 12.265 0.428144 9.61526 0.428144 6.34659C0.428144 3.07792 3.07792 0.428144 6.34659 0.428144C9.61526 0.428144 12.265 3.07792 12.265 6.34659ZM11.1284 14.8525C10.3039 13.2035 8.19028 12.6932 6.34659 12.6932C2.84147 12.6932 0 9.85172 0 6.34659C0 2.84147 2.84147 0 6.34659 0C9.85172 0 12.6932 2.84147 12.6932 6.34659C12.6932 7.34881 12.4609 8.29678 12.0472 9.13957C11.2299 10.8046 10.578 12.7944 11.4075 14.4533L12.9804 17.5991C13.0332 17.7048 12.9904 17.8334 12.8846 17.8863C12.7789 17.9392 12.6503 17.8963 12.5974 17.7906L11.1284 14.8525Z" fill="#433B11"/>
</svg>
