<svg width="115" height="103" viewBox="0 0 115 103" fill="none" xmlns="http://www.w3.org/2000/svg">
<path d="M32.7984 15.8782L28.0439 27.5365C27.8389 28.026 27.2878 28.2579 26.8009 28.0646L20.1497 25.3207C19.6627 25.1146 19.432 24.5607 19.6243 24.0712L24.3788 12.4129C24.5838 11.9234 25.1349 11.6915 25.6218 11.8848L32.273 14.6286C32.76 14.8219 32.9907 15.3887 32.7984 15.8782Z" fill="#9EF1FF"/>
<path d="M24.9291 13.2245L20.6616 23.6976L27.5947 20.5415L24.9291 13.2245Z" fill="#D0F8FF"/>
<path d="M28.8636 21.0825L20.7515 24.7668L27.2104 27.4205L32.1187 15.3758L25.8392 12.7865L28.8636 21.0825Z" fill="#D0F8FF"/>
<path d="M38.796 14.5385L34.0415 26.1967C33.8365 26.6863 33.2854 26.9181 32.7984 26.7249L26.1473 23.981C25.6603 23.7749 25.4296 23.221 25.6218 22.7315L30.3763 11.0732C30.5814 10.5837 31.1324 10.3518 31.6194 10.545L38.2706 13.2889C38.7576 13.4821 39.001 14.049 38.796 14.5385Z" fill="#D0F8FF"/>
<path d="M30.9267 11.8848L26.6592 22.3579L33.5923 19.2018L30.9267 11.8848Z" fill="white"/>
<path d="M34.8611 19.7299L26.749 23.4271L33.2079 26.0808L38.1162 14.0361L31.8367 11.4468L34.8611 19.7299Z" fill="white"/>
<path d="M42.795 18.4676L38.0405 30.1258C37.8355 30.6153 37.2844 30.8472 36.7974 30.654L30.1463 27.9101C29.6593 27.704 29.4286 27.1501 29.6209 26.6605L34.3753 15.0023C34.5804 14.5128 35.1314 14.2809 35.6184 14.4741L42.2696 17.218C42.7566 17.4112 43.0001 17.978 42.795 18.4676Z" fill="#D0F8FF"/>
<path d="M34.9262 15.8139L30.6587 26.287L37.5918 23.1309L34.9262 15.8139Z" fill="white"/>
<path d="M38.8606 23.6719L30.7485 27.3562L37.2075 30.0099L42.1157 17.9651L35.8362 15.3759L38.8606 23.6719Z" fill="white"/>
<path d="M25.9684 93.6214C25.9684 93.6214 25.4301 94.3685 25.2892 95.6439C25.1482 96.9192 25.507 98.1043 25.507 98.1043C25.507 98.1043 31.6327 98.4521 34.042 98.0013C36.4385 97.5504 36.6563 97.1253 36.5923 96.4425C36.5282 95.7598 33.2731 95.9659 32.2991 95.1414C31.3252 94.317 29.9668 92.565 29.3901 92.8484C28.8134 93.1318 28.9287 94.2268 28.147 94.3041C27.3652 94.3943 26.3144 93.2091 25.9684 93.6214Z" fill="#09434C"/>
<path d="M4.19486 92.0369C4.19486 92.0369 3.28497 92.1529 2.25974 92.9C1.23452 93.6601 0.59375 94.7293 0.59375 94.7293C0.59375 94.7293 4.47679 99.5085 6.43754 100.977C8.38547 102.458 8.84682 102.33 9.30817 101.814C9.76952 101.312 7.4115 99.0319 7.36024 97.7566C7.30898 96.4812 7.68062 94.2784 7.0783 94.0465C6.47598 93.8147 5.74551 94.6391 5.16882 94.1109C4.57932 93.5957 4.7331 92.0241 4.19486 92.0369Z" fill="#09434C"/>
<path d="M15.8441 54.1636C15.8441 54.1636 18.5609 72.8169 18.5609 75.1228C18.5609 77.4286 5.5918 89.6795 5.5918 89.6795C5.5918 89.6795 6.02752 93.8533 9.14164 94.2655C9.89775 94.3686 24.4047 81.3448 25.2377 79.3867C26.1988 77.1581 28.8132 61.339 28.8132 61.339C28.8132 61.339 34.6954 70.2276 34.4391 72.0568C34.029 74.9295 25.2377 90.3622 25.2377 90.3622C25.2377 90.3622 26.4423 93.0288 30.7098 91.1867C30.7098 91.1867 42.6922 76.3466 44.1916 74.3885C47.767 69.7509 31.5685 48.9335 31.5685 48.9335L15.8441 54.1636Z" fill="#F2E900"/>
<path opacity="0.32" d="M37.2072 71.6189C37.2072 68.5143 29.3898 57.6676 29.3898 57.6676L28.826 61.3519C28.826 61.3519 34.7082 70.2405 34.4519 72.0697C34.0418 74.9424 25.2505 90.3751 25.2505 90.3751C25.2505 90.3751 25.5196 90.9806 26.2757 91.4186C30.5688 87.0515 37.2072 74.4143 37.2072 71.6189Z" fill="#0D5965"/>
<g opacity="0.5">
<path opacity="0.5" d="M23.3792 55.1427C23.2766 54.1379 23.0844 53.0429 22.8153 51.8578L15.8438 54.1637C15.8438 54.1637 16.2026 56.6499 16.6639 59.922C18.0864 60.682 19.4577 61.1844 20.2394 61.0298C21.5978 60.7593 23.3792 58.6853 23.3792 55.1427Z" fill="#0D5965"/>
</g>
<path d="M22.6617 52.5405C21.7646 43.5875 12.1275 25.5269 8.78272 19.4852C7.20643 19.6011 5.82238 20.1164 5.02783 21.3917C2.34943 25.733 5.60452 44.1285 8.57767 49.5261C9.71824 51.5872 11.0382 53.146 12.2557 54.2925C14.0114 55.9414 18.0738 58.2988 19.6501 58.0025C20.9445 57.7449 22.6617 55.8383 22.6617 52.5405Z" fill="#F2E900"/>
<path d="M33.9776 50.4923C33.9392 50.4279 20.4318 22.6542 17.4971 21.3917C17.4331 21.3659 17.2793 21.3015 17.1896 21.2629C15.1391 20.4256 12.4479 19.6269 10.2437 19.498C9.3594 19.4336 8.82116 19.498 8.78271 19.498C12.1275 25.5269 21.7646 43.5875 22.6617 52.5405C26.0834 50.8659 30.2612 49.4875 33.9776 50.4923Z" fill="#A5375C"/>
<g opacity="0.5">
<path opacity="0.5" d="M16.9204 35.5363C19.0349 40.1738 20.9572 44.953 21.9696 48.895C28.5567 49.9642 30.2612 49.3329 33.0805 48.6502C31.7093 45.8806 30.7353 43.9611 30.3509 43.214L16.9204 35.5363Z" fill="#531C2E"/>
</g>
<g opacity="0.5">
<path opacity="0.5" d="M17.3304 48.4826C18.33 48.7274 20.0088 48.8433 21.9695 48.8949C20.9571 44.9658 19.0348 40.1737 16.9203 35.5362L4.05371 28.1934C4.05371 28.2321 4.05371 28.2578 4.05371 28.2965C4.39972 33.8615 6.73211 39.1174 10.6023 43.1108C13.2295 45.8032 15.8182 48.1091 17.3304 48.4826Z" fill="#0D5965"/>
</g>
<path d="M45.883 47.8901H20.2524C19.2143 47.8901 18.3813 47.0528 18.3813 46.0093V20.2323C18.3813 19.1889 19.2143 18.3516 20.2524 18.3516H45.883C46.9211 18.3516 47.7541 19.1889 47.7541 20.2323V45.9964C47.7669 47.0399 46.9211 47.8901 45.883 47.8901Z" fill="#F7BD77"/>
<path d="M46.5239 47.8901H36.1819C35.5027 47.8901 34.9517 47.3362 34.9517 46.6534V19.6011C34.9517 18.9184 35.5027 18.3644 36.1819 18.3644H46.5239C47.2031 18.3644 47.7542 18.9184 47.7542 19.6011V46.6534C47.767 47.3362 47.2031 47.8901 46.5239 47.8901Z" fill="#F29863"/>
<path d="M35.3744 42.6858C35.5795 42.6987 39.1037 44.0513 41.8462 43.1624C43.1533 42.7373 44.3451 42.4797 43.8197 43.6906C43.2943 44.8886 40.885 44.3862 40.5518 44.7212C40.2186 45.0561 44.704 47.5294 45.9342 47.7356C47.1645 47.9417 45.1525 49.0109 44.6655 49.0109C44.1914 49.0109 44.5758 49.2041 44.0888 49.6808C43.6147 50.1574 42.4485 50.0543 41.8846 50.1574C40.0392 50.531 35.1437 47.1301 34.4133 46.3829C33.67 45.6487 35.3744 42.6858 35.3744 42.6858Z" fill="#FF7446"/>
<path d="M8.97456 19.4852C8.97456 19.4852 10.9225 21.688 12.0374 24.0068C13.1652 26.3384 19.4062 37.8163 20.0983 37.8163C20.7903 37.8163 36.2071 42.8661 36.2071 42.8661C36.2071 42.8661 35.1306 45.1076 35.1306 47.6067C35.1306 47.6067 18.5476 44.9144 17.3045 44.9144C16.0614 44.9144 14.6261 42.6986 13.3702 41.4491C12.1271 40.1995 5.92451 34.5314 4.14318 30.0871C2.34903 25.6299 3.31018 18.519 8.97456 19.4852Z" fill="#F2E900"/>
<path d="M14.7804 13.3792L16.7796 22.2678L8.9751 19.4852L10.5001 13.4049L14.7804 13.3792Z" fill="#FF7446"/>
<path opacity="0.68" d="M14.7803 13.3792L10.4999 13.4049L10.1411 14.8219C11.3714 16.0715 12.8451 17.0763 14.037 17.3597C14.5111 17.4756 15.0878 17.4756 15.6773 17.4112L14.7803 13.3792Z" fill="#FF7F4C"/>
<path d="M11.6022 4.82541C11.6022 4.82541 12.9349 4.83829 14.5753 5.90751C16.2029 6.97672 17.7022 9.97823 17.7022 9.97823C17.7022 9.97823 18.4455 11.8848 18.5481 12.9926C18.6506 14.1134 14.7163 15.9169 12.7684 15.6592C10.8204 15.4016 8.25736 13.1859 7.61659 11.1634C6.93738 9.1409 10.7307 4.70947 11.6022 4.82541Z" fill="#FF865E"/>
<path opacity="0.68" d="M15.1393 6.3713C14.9471 6.19095 14.7548 6.03637 14.5626 5.90755C12.9351 4.83834 11.5895 4.82546 11.5895 4.82546C11.1794 4.77393 10.1157 5.74008 9.18018 6.98964L9.84657 6.95099C9.84657 6.95099 12.0893 7.56933 14.3191 6.75776C14.6139 6.64182 14.8958 6.513 15.1393 6.3713Z" fill="#FF7F4C"/>
<path d="M9.8463 6.93808C9.8463 6.93808 10.6024 8.59986 11.0894 10.9057C11.5892 13.2116 11.3329 15.5562 11.3329 15.5562C9.70533 16.3935 7.07819 16.3162 4.83551 13.4049C2.59283 10.4935 5.13026 8.09746 5.69414 7.65947C6.25801 7.22148 5.37375 7.05401 5.77103 5.90751C6.1683 4.74813 6.87315 5.4824 7.62925 4.68372C8.38535 3.88503 6.39898 2.21036 7.80866 0.896393C9.23117 -0.417576 11.0766 2.12019 11.0766 2.12019C11.0766 2.12019 11.8711 -0.391812 13.3064 1.0381C14.7289 2.468 14.793 3.4728 13.6268 5.03153C12.4606 6.59026 9.8463 6.93808 9.8463 6.93808Z" fill="#0D074B"/>
<path d="M11.102 9.84945C11.102 9.84945 9.3335 8.98635 9.3335 10.4936C9.3335 12.0008 9.93582 12.8123 10.8201 12.4259C11.6915 12.0523 11.102 9.84945 11.102 9.84945Z" fill="#FF865E"/>
<path d="M86.111 56.8306H81.2412V99.1996H86.111V56.8306Z" fill="#FF2A00"/>
<path d="M86.1112 56.8306H83.6763V99.1996H86.1112V56.8306Z" fill="#BF2604"/>
<path d="M99.2852 57.0754H66.7086C66.2473 57.0754 65.8628 56.6889 65.8628 56.2252C65.8628 55.7614 66.2473 55.3749 66.7086 55.3749H99.2723C99.7337 55.3749 100.118 55.7614 100.118 56.2252C100.131 56.6889 99.7465 57.0754 99.2852 57.0754Z" fill="#F71700"/>
<path d="M99.6441 57.0754H80.7415C80.3826 57.0754 80.0879 56.7791 80.0879 56.4184V56.019C80.0879 55.6583 80.3826 55.3621 80.7415 55.3621H99.6313C99.9901 55.3621 100.285 55.6583 100.285 56.019V56.4184C100.285 56.7791 100.003 57.0754 99.6441 57.0754Z" fill="#910031"/>
<path d="M97.568 55.3749H68.144V47.0918C68.144 42.8536 71.5529 39.4269 75.7692 39.4269H89.9557C94.172 39.4269 97.5808 42.8536 97.5808 47.0918V55.3749H97.568Z" fill="#FE2B18"/>
<path opacity="0.59" d="M68.144 46.8985H97.568C97.5424 45.7778 97.2733 44.7215 96.8247 43.7811H68.8873C68.4388 44.7215 68.1697 45.7778 68.144 46.8985Z" fill="#FFF848"/>
<path opacity="0.59" d="M97.568 47.7745H68.144V49.2559H97.568V47.7745Z" fill="#FFF848"/>
<path d="M81.5745 55.3749V47.1175C81.5745 43.2271 78.7679 39.9937 75.1028 39.4527C71.2069 39.7747 68.144 43.1112 68.144 47.169V55.3749H81.5745Z" fill="#FFF83E"/>
<path d="M69.0537 55.3749V47.6328C69.0537 45.7906 69.6817 44.0387 70.835 42.6861C71.95 41.3721 73.4494 40.5605 75.0769 40.3931C76.6019 40.6636 77.9988 41.5138 79.024 42.7891C80.0749 44.116 80.6644 45.8035 80.6644 47.5684V55.3749H69.0537Z" fill="#A50038"/>
<path d="M76.2815 42.6732C76.6788 42.1966 77.1402 41.7972 77.6271 41.4623C76.8582 40.9212 75.9868 40.5477 75.0769 40.3931C73.4494 40.5605 71.95 41.3721 70.835 42.6732C69.6945 44.0129 69.0537 45.7649 69.0537 47.5941V55.362H74.513V47.5941C74.513 45.7649 75.141 44.0258 76.2815 42.6732Z" fill="#910031"/>
<path d="M83.9196 46.8985H83.7017C83.5223 46.8985 83.3813 46.7568 83.3813 46.5764V36.1291C83.3813 35.9488 83.5223 35.8071 83.7017 35.8071H83.9196C84.099 35.8071 84.24 35.9488 84.24 36.1291V46.5764C84.24 46.7568 84.099 46.8985 83.9196 46.8985Z" fill="#100083"/>
<path d="M85.2395 47.9033C85.2395 48.6891 84.5988 49.3332 83.817 49.3332C83.0353 49.3332 82.3945 48.6891 82.3945 47.9033C82.3945 47.1175 83.0353 46.4734 83.817 46.4734C84.5988 46.4734 85.2395 47.1175 85.2395 47.9033Z" fill="#FFF83E"/>
<path d="M84.5474 47.9033C84.5474 48.3155 84.2142 48.6376 83.8169 48.6376C83.4196 48.6376 83.0864 48.3026 83.0864 47.9033C83.0864 47.5039 83.4196 47.169 83.8169 47.169C84.2142 47.169 84.5474 47.5039 84.5474 47.9033Z" fill="#FF2A00"/>
<path d="M88.3283 40.1354H84.2402V37.2885H88.3283L87.2903 38.6153L88.3283 40.1354Z" fill="#F0D76D"/>
<path d="M81.5746 55.3749H64.0945C63.3512 55.3749 62.7617 54.7694 62.7617 54.0352H81.5746V55.3749Z" fill="#FE2B18"/>
<path d="M81.5747 55.3749H72.1811C71.5788 55.3749 71.0918 54.8854 71.0918 54.2799V54.0223H81.5747V55.3749Z" fill="#BF2604"/>
<path d="M17.5147 5.3451C18.3503 5.6019 19.1019 6.17119 19.5364 6.92362C20.0622 7.83446 20.1687 8.93463 20.2523 9.9952C20.2827 10.5057 20.3359 11.0558 20.2016 11.5557C20.0673 12.0557 19.7912 12.5847 19.3321 12.797C18.7938 13.055 18.129 12.9108 17.5266 12.7833C16.9243 12.6559 16.2992 12.4888 15.6969 12.3613C15.4468 12.2945 15.1967 12.2276 15.0428 12.0525C15.1678 12.0859 15.2639 11.9776 15.2578 11.8756C15.2517 11.7735 15.2457 11.6714 15.1771 11.5526C14.8966 10.9752 14.5933 10.3583 14.3129 9.781C14.1985 9.58299 13.9303 9.20987 13.9578 8.98278C14.0081 8.79529 14.4611 8.48097 14.5968 8.34979C15.5639 7.36906 16.5706 6.36543 17.5147 5.3451Z" fill="#F2E900"/>
<path d="M10.0888 12.537C10.0095 12.5828 10.0216 12.787 10.1634 12.7579C10.226 12.7746 10.2824 12.6892 10.2367 12.61C10.1056 12.4745 9.97445 12.339 9.7869 12.2889C9.639 12.2158 9.34928 12.1719 9.29891 12.3594C9.24855 12.5469 9.40252 12.722 9.51076 12.8179C9.68152 12.9305 9.90873 12.9577 10.1359 12.985C10.2381 12.9788 10.2717 12.8538 10.1466 12.8204C9.9591 12.7703 9.82335 12.9014 9.81264 13.066C9.81871 13.1681 9.82479 13.2702 9.87051 13.3494C9.91624 13.4286 9.92232 13.5307 10.0077 13.587C10.1388 13.7226 10.3371 13.6081 10.3874 13.4206C10.4439 13.3352 10.4378 13.2331 10.4317 13.131C10.4257 13.0289 10.4364 12.8643 10.4303 12.7622C10.4242 12.6601 10.2595 12.6496 10.2656 12.7517C10.2945 12.8934 10.261 13.0184 10.2899 13.1601C10.2731 13.2226 10.2853 13.4268 10.1831 13.433C10.0809 13.4392 10.0688 13.235 10.0231 13.1558C10.017 13.0537 10.0277 12.8891 10.1527 12.9225C10.1695 12.86 10.1467 12.8204 10.1634 12.7579C9.99875 12.7474 9.89658 12.7536 9.74868 12.6805C9.62365 12.6471 9.45288 12.5345 9.48646 12.4095C9.50325 12.347 9.56577 12.3637 9.62828 12.3804C9.6908 12.3971 9.75332 12.4138 9.81584 12.4306C9.94087 12.464 10.0491 12.5599 10.1177 12.6787C10.1345 12.6162 10.1742 12.5933 10.1909 12.5308C10.2138 12.5704 10.2138 12.5704 10.197 12.6329C10.2992 12.6267 10.2077 12.4683 10.0888 12.537Z" fill="#F2E900"/>
<path d="M14.8493 10.5274C15.0383 10.9463 15.2273 11.3652 15.552 11.6529C15.9164 11.9178 16.3937 12.0118 16.8481 12.0663C17.3025 12.1207 17.7569 12.1752 18.2113 12.2297C18.5407 12.2507 18.893 12.3113 19.233 12.1678C19.5335 12.0471 19.776 11.6431 19.5931 11.3263C19.4559 11.0887 19.183 10.9822 18.8933 10.9383C18.4557 10.8213 18.0409 10.744 17.6033 10.627C18.2774 10.2378 18.9515 9.84864 19.586 9.48234C19.403 9.16553 19.2598 8.82582 19.0769 8.509C18.4989 8.78992 17.9605 9.04793 17.3825 9.32885C17.8294 8.91242 18.2992 8.5356 18.7461 8.11917C18.8422 8.01089 19.0008 7.91931 19.0511 7.73183C19.1015 7.54434 19.0268 7.32344 18.9354 7.16504C18.8439 7.00663 18.6732 6.89401 18.5024 6.78139C18.0387 7.26031 17.6147 7.71634 17.151 8.19526C17.0945 8.28064 17.0152 8.32643 16.9131 8.33262C16.8109 8.33881 16.7255 8.28249 16.7027 8.24289C17.0017 7.75345 17.3007 7.26401 17.6393 6.75167C17.7522 6.5809 17.8254 6.43301 17.8133 6.22882C17.8011 6.02462 17.6472 5.84951 17.4657 5.90148C17.2842 5.95345 16.9791 6.3408 16.8205 6.43237C16.6055 6.60934 16.3736 6.8488 16.1585 7.02576C15.7513 7.41929 15.3044 7.83572 14.8972 8.22925C14.6257 8.4916 14.2123 8.78303 14.2534 9.12893C14.3463 9.65612 14.6832 10.148 14.8493 10.5274Z" fill="#B9C519"/>
<path d="M14.0357 8.92388C14.0331 8.99044 13.9696 8.91547 13.967 8.98203C12.9626 9.18865 11.9926 9.36619 10.9882 9.5728C10.8878 9.59347 10.6869 9.63479 10.6605 9.46419C10.6658 9.33108 10.9645 9.33565 10.9988 9.30658C11.3345 9.21552 11.6358 9.15353 11.9688 9.12903C12.1697 9.08771 14.0357 8.92388 14.0357 8.92388Z" fill="#F2E900"/>
<path d="M10.2882 12.7912C11.6104 12.6087 12.9325 12.4262 14.2943 12.2208C14.6801 12.1565 15.0263 12.115 15.4121 12.0507C15.4746 12.0674 15.5082 11.9424 15.4853 11.9028C15.4396 11.8236 15.3771 11.8069 15.3374 11.8298C14.0153 12.0123 12.6932 12.1948 11.3314 12.4002C10.9455 12.4646 10.5994 12.506 10.2136 12.5703C10.1511 12.5536 10.1175 12.6786 10.1403 12.7182C10.1632 12.7578 10.2257 12.7745 10.2882 12.7912Z" fill="#F2E900"/>
</svg>
