<svg width="17" height="16" viewBox="0 0 17 16" fill="none" xmlns="http://www.w3.org/2000/svg">
<path d="M8.498 2.45835C7.73508 1.27232 6.3752 0.5 4.84422 0.5V0.49993L4.83588 0.50007C2.44653 0.539938 0.5 2.34531 0.5 4.65625C0.5 4.77699 0.512642 4.89215 0.521879 4.97561C0.522917 4.985 0.523904 4.99393 0.52484 5.00245C0.501615 5.07336 0.494284 5.14937 0.504498 5.225L1 5.15809C0.504498 5.225 0.504551 5.2254 0.504607 5.22581L0.504729 5.2267L0.505016 5.22875L0.505764 5.23392L0.508018 5.24854C0.50988 5.26016 0.512492 5.27555 0.516034 5.29463C0.52312 5.33278 0.533928 5.38567 0.54991 5.45273C0.581879 5.58689 0.634516 5.77761 0.719399 6.02041C0.889232 6.50619 1.18769 7.19912 1.70669 8.06356C2.74495 9.79282 4.66214 12.2024 8.1884 15.0124C8.36827 15.1557 8.62271 15.1578 8.80497 15.0176L8.5 14.6213C8.80497 15.0176 8.80506 15.0175 8.80517 15.0174L8.80552 15.0171L8.80667 15.0162L8.81074 15.0131L8.82581 15.0014L8.88272 14.9568C8.9322 14.9179 9.00425 14.8607 9.0959 14.7867C9.27917 14.6388 9.54099 14.4236 9.85747 14.1526C10.4899 13.6112 11.3432 12.8451 12.2251 11.9472C13.1059 11.0505 14.0225 10.0149 14.777 8.93421C15.5276 7.85902 16.1397 6.70831 16.3762 5.58359C16.3771 5.57963 16.3779 5.57566 16.3786 5.57168C16.3827 5.55991 16.3917 5.53424 16.3994 5.50762C16.4038 5.49209 16.4095 5.47041 16.4143 5.44502C16.4168 5.43205 16.4196 5.41514 16.4216 5.39518C16.4356 5.3544 16.4623 5.26714 16.4623 5.15809C16.4623 5.10167 16.468 5.04854 16.4778 4.96519L16.4786 4.95789C16.4877 4.88055 16.5 4.77527 16.5 4.65625C16.5 2.34943 14.5186 0.5 12.1558 0.5C10.5933 0.5 9.25158 1.27356 8.498 2.45835Z" fill="#C91414" stroke="#C91414" stroke-miterlimit="10" stroke-linecap="round" stroke-linejoin="round"/>
</svg>
