<svg width="20" height="18" viewBox="0 0 20 18" fill="none" xmlns="http://www.w3.org/2000/svg">
<path d="M9.87064 3.63207C9.01064 2.38724 7.52416 1.58915 5.86657 1.58915V1.58907L5.85661 1.58923C3.22226 1.632 1.04001 3.57392 1.04001 6.1021C1.04001 6.23692 1.05451 6.36469 1.0646 6.45337C1.06493 6.45631 1.06526 6.4592 1.06558 6.46205C1.04078 6.54524 1.03363 6.63369 1.04584 6.72165L1.6535 6.63732C1.04584 6.72165 1.04591 6.72214 1.04598 6.72265L1.04613 6.72374L1.04649 6.72622L1.04739 6.73232L1.05005 6.74908C1.05222 6.76226 1.05522 6.77945 1.05925 6.80057C1.06731 6.84282 1.0795 6.90079 1.09739 6.97387C1.13319 7.12005 1.1918 7.32651 1.28589 7.58843C1.47417 8.11252 1.80392 8.85695 2.37569 9.78369C3.51947 11.6376 5.62725 14.2138 9.49717 17.2148C9.71542 17.3841 10.0198 17.3866 10.2409 17.2211L9.87312 16.73C10.2409 17.2211 10.241 17.221 10.2411 17.2209L10.2415 17.2206L10.2428 17.2196L10.2474 17.2162L10.264 17.2036L10.3267 17.1559C10.3811 17.1142 10.4603 17.053 10.561 16.9739C10.7623 16.8158 11.0497 16.5858 11.3972 16.2964C12.0913 15.7181 13.0281 14.8997 13.9965 13.9402C14.9635 12.9822 15.9712 11.8744 16.8016 10.717C17.6268 9.56667 18.3055 8.32809 18.5685 7.11096C18.569 7.10847 18.5695 7.10596 18.57 7.10346C18.5753 7.08878 18.5843 7.06315 18.5921 7.03652C18.5975 7.01822 18.6046 6.99211 18.6106 6.96125C18.6132 6.94794 18.6161 6.93104 18.6185 6.91124C18.6358 6.86064 18.6649 6.76054 18.6649 6.63732C18.6649 6.5836 18.6705 6.53226 18.6812 6.44283L18.6822 6.4342C18.6921 6.35193 18.7062 6.23481 18.7062 6.1021C18.7062 3.57857 16.486 1.58915 13.8797 1.58915C12.1881 1.58915 10.7202 2.38864 9.87064 3.63207ZM18.6055 6.94816C18.6054 6.94823 18.6059 6.94671 18.607 6.94339C18.6061 6.94642 18.6055 6.94808 18.6055 6.94816Z" stroke="#C91414" stroke-width="1.22698" stroke-miterlimit="10" stroke-linecap="round" stroke-linejoin="round"/>
</svg>
