<svg width="53" height="61" viewBox="0 0 53 61" fill="none" xmlns="http://www.w3.org/2000/svg">
<path d="M7.2752 7.28272C9.58105 4.97028 12.3212 3.13644 15.3382 1.88661C18.3552 0.636788 21.5895 -0.00436261 24.8551 2.23408e-05H28.3742C28.3742 2.23408e-05 44.9762 4.34623 44.9762 22.1316C44.9762 39.5164 33.4825 54.9037 28.3768 60.0172H24.8603L7.2752 42.4321C2.61675 37.7696 0 31.4483 0 24.8574C0 18.2665 2.61675 11.9452 7.2752 7.28272ZM24.8577 36.4135C27.1408 36.4135 29.3727 35.7364 31.271 34.468C33.1693 33.1995 34.6488 31.3965 35.5224 29.2872C36.396 27.1778 36.6244 24.8567 36.1788 22.6175C35.7332 20.3783 34.6336 18.3215 33.019 16.7073C31.4044 15.0931 29.3474 13.9939 27.1081 13.5488C24.8687 13.1037 22.5477 13.3327 20.4386 14.2068C18.3294 15.0808 16.5268 16.5607 15.2587 18.4593C13.9907 20.3579 13.3141 22.5899 13.3146 24.873C13.3208 27.9304 14.5397 30.8604 16.7038 33.0201C18.8679 35.1798 21.8003 36.3927 24.8577 36.3927V36.4135Z" fill="#263238"/>
<path d="M46.4122 6.81195C45.3828 5.78355 44.2692 4.84305 43.083 4.00031L43.2313 3.78703C44.4308 4.63873 45.5566 5.5897 46.5969 6.62988L46.4122 6.81195ZM41.5276 2.98333C40.9164 2.614 40.2818 2.26547 39.6445 1.94295L39.759 1.70886C40.404 2.02878 41.0439 2.37991 41.6629 2.74925L41.5276 2.98333Z" fill="#FFC100"/>
<path opacity="0.2" d="M46.4122 6.81195C45.3828 5.78355 44.2692 4.84305 43.083 4.00031L43.2313 3.78703C44.4308 4.63873 45.5566 5.5897 46.5969 6.62988L46.4122 6.81195ZM41.5276 2.98333C40.9164 2.614 40.2818 2.26547 39.6445 1.94295L39.759 1.70886C40.404 2.02878 41.0439 2.37991 41.6629 2.74925L41.5276 2.98333Z" fill="black"/>
<path d="M10.792 7.28272C15.4829 2.76637 21.7585 0.270609 28.2699 0.331851C34.7813 0.393092 41.0089 3.00644 45.614 7.61023C50.2192 12.214 52.8344 18.4408 52.8975 24.9522C52.9607 31.4636 50.4668 37.7399 45.9518 42.4321L28.3771 60.0094L10.792 42.4243C6.13467 37.7628 3.51855 31.4429 3.51855 24.8535C3.51855 18.2641 6.13467 11.9442 10.792 7.28272ZM28.3745 36.4135C30.6576 36.4135 32.8895 35.7364 34.7878 34.468C36.6861 33.1995 38.1656 31.3965 39.0392 29.2872C39.9128 27.1778 40.1412 24.8567 39.6956 22.6175C39.25 20.3783 38.1504 18.3216 36.5358 16.7073C34.9212 15.0931 32.8642 13.9939 30.6249 13.5488C28.3856 13.1037 26.0645 13.3327 23.9554 14.2068C21.8462 15.0808 20.0436 16.5607 18.7755 18.4593C17.5075 20.3579 16.8309 22.5899 16.8314 24.873C16.8376 27.9304 18.0565 30.8604 20.2206 33.0201C22.3847 35.1798 25.3172 36.3927 28.3745 36.3927V36.4135Z" fill="#FFC100"/>
<g style="mix-blend-mode:color-dodge" opacity="0.4">
<path d="M28.3765 58.6023C28.3677 58.6022 28.359 58.6003 28.351 58.5967C28.3429 58.5931 28.3357 58.5879 28.3297 58.5815L11.4807 41.735C8.14168 38.3947 5.86812 34.1393 4.94743 29.5069C4.02674 24.8745 4.50026 20.0731 6.30813 15.7099C8.11599 11.3466 11.177 7.61728 15.1042 4.99352C19.0314 2.36977 23.6483 0.96936 28.3713 0.96936C33.0943 0.96936 37.7113 2.36977 41.6384 4.99352C45.5656 7.61728 48.6266 11.3466 50.4345 15.7099C52.2423 20.0731 52.7159 24.8745 51.7952 29.5069C50.8745 34.1393 48.6009 38.3947 45.2619 41.735L28.4207 58.5737C28.416 58.5815 28.4096 58.5882 28.4019 58.5931C28.3943 58.5981 28.3856 58.6012 28.3765 58.6023ZM28.3765 1.09761C23.6793 1.09843 19.0877 2.492 15.1824 5.10212C11.2771 7.71224 8.23338 11.4217 6.4361 15.7615C4.63882 20.1013 4.16868 24.8766 5.08511 29.4836C6.00153 34.0906 8.26339 38.3224 11.5847 41.644L28.3869 58.4436L45.1813 41.6518L45.2255 41.696L45.1813 41.6518C48.5023 38.3284 50.7634 34.0949 51.6788 29.4867C52.5942 24.8784 52.1228 20.1022 50.3242 15.7618C48.5256 11.4214 45.4806 7.71167 41.5741 5.10153C37.6675 2.49139 33.0748 1.09804 28.3765 1.09761ZM28.3765 37.5111C25.8748 37.5111 23.4292 36.7692 21.3491 35.3792C19.269 33.9893 17.6478 32.0137 16.6906 29.7024C15.7333 27.391 15.483 24.8477 15.9713 22.394C16.4595 19.9404 17.6644 17.6867 19.4336 15.9179C21.2028 14.149 23.4568 12.9446 25.9105 12.4568C28.3642 11.9691 30.9075 12.2199 33.2187 13.1777C35.5298 14.1354 37.5051 15.757 38.8946 17.8374C40.2841 19.9177 41.0255 22.3635 41.025 24.8652C41.0174 28.2165 39.6815 31.4281 37.3101 33.7961C34.9387 36.1641 31.7252 37.4953 28.3739 37.4981L28.3765 37.5111ZM28.3765 12.3468C25.9006 12.3468 23.4803 13.081 21.4216 14.4565C19.363 15.8321 17.7585 17.7872 16.811 20.0746C15.8635 22.3621 15.6156 24.8791 16.0986 27.3074C16.5816 29.7358 17.7739 31.9663 19.5246 33.7171C21.2754 35.4678 23.5059 36.6601 25.9343 37.1431C28.3626 37.6261 30.8797 37.3782 33.1671 36.4307C35.4545 35.4832 37.4097 33.8787 38.7852 31.8201C40.1607 29.7614 40.8949 27.3411 40.8949 24.8652C40.8949 21.5435 39.5761 18.3576 37.2282 16.0078C34.8804 13.658 31.6956 12.3365 28.3739 12.3338L28.3765 12.3468Z" fill="#FAFAFA"/>
</g>
</svg>
