<svg width="128" height="117" viewBox="0 0 128 117" fill="none" xmlns="http://www.w3.org/2000/svg">
<g clip-path="url(#clip0)">
<path d="M98 20.5001C93.1 20.5001 88.6 21.9001 84.7 24.3001C82 15.0001 74.5 10.0001 65.1 10.0001C64.8 10.0001 64.4 10.0001 64.1 10.0001C58.6 10.3001 53.5 12.7001 49.8 16.8001C47.2 19.6001 45.5 23.1001 44.8 26.7001C40.7 23.8001 35.7 22.3001 30.1 22.3001C29.7 22.3001 29.3 22.3001 28.9 22.3001C22.2 22.6001 16.1 25.5001 11.6 30.5001C7.10001 35.5001 4.80001 41.9001 5.10001 48.5001C5.70001 62.0001 16.7 72.4001 30 72.4001C30.4 72.4001 30.8 72.4001 31.2 72.4001C37.9 72.1001 44 69.2001 48.5 64.2001C52.4 59.9001 54.6 54.5001 55 48.8001C58 50.4001 61.4 51.4001 65 51.4001C65.3 51.4001 65.7 51.4001 66 51.4001C68.6 51.3001 71 50.7001 73.3 49.7001C75.3 61.6001 85.6 70.6001 98 70.6001C111.8 70.6001 123 59.4001 123 45.6001C123.1 31.8001 111.8 20.5001 98 20.5001Z" fill="url(#paint0_radial)"/>
<path d="M65.9 49.7002C75.9 49.2002 83.7 40.7002 83.2 30.7002C83.2 29.8002 83 28.9002 82.8 27.8002C81 19.1002 73.2 13.0002 64.2 13.4002C54.2 13.9002 46.4 22.4002 46.9 32.4002C47.4 42.4002 55.9 50.2002 65.9 49.7002Z" fill="#F0D907"/>
<path d="M65.9 49.7002C75.9 49.2002 83.7 40.7002 83.2 30.7002C83.2 29.8002 83 28.9002 82.8 27.8002C81 19.1002 73.2 13.0002 64.2 13.4002C54.2 13.9002 46.4 22.4002 46.9 32.4002C47.4 42.4002 55.9 50.2002 65.9 49.7002Z" fill="url(#paint1_radial)"/>
<path d="M65 47.8002C56.3 47.8002 49.1 41.0002 48.7 32.3002C48.5 28.0002 50 23.8002 52.9 20.6002C55.8 17.4002 59.8 15.5002 64.2 15.3002C64.5 15.3002 64.7 15.3002 65 15.3002C72.8 15.3002 79.3 20.6002 80.9 28.3002C81.1 29.3002 81.2 30.1002 81.3 30.9002C81.5 35.2002 80 39.4002 77.1 42.6002C74.2 45.8002 70.2 47.7002 65.8 47.9002C65.6 47.8002 65.3 47.8002 65 47.8002Z" fill="url(#paint2_radial)"/>
<path d="M80.0001 30.8001C80.4001 39.1001 74.0001 46.1002 65.7001 46.5002C57.4001 46.9002 50.4001 40.5002 50.0001 32.2002C49.6001 23.9002 56.0001 16.9002 64.3001 16.5002C72.6001 16.2002 79.7001 22.5001 80.0001 30.8001Z" fill="white"/>
<path d="M79.3001 27.0001C79.2001 34.9001 73.0001 41.4001 65.1001 41.8001C58.2001 42.1001 52.1001 37.7001 50.1001 31.3001C50.1001 31.6001 50.0001 31.9001 50.1001 32.2001C50.5001 40.5001 57.5001 46.9001 65.8001 46.5001C74.1001 46.1001 80.5001 39.1001 80.1001 30.8001C80.0001 29.5001 79.7001 28.2001 79.3001 27.0001Z" fill="#E8E8E8"/>
<path d="M76.5001 27.1001C76.7001 31.2001 73.5001 34.7001 69.4001 34.9001C65.3001 35.1001 61.8001 31.9001 61.6001 27.8001C61.4001 23.7001 64.6001 20.2001 68.7001 20.0001C72.8001 19.8001 76.3001 23.0001 76.5001 27.1001Z" fill="black"/>
<path d="M67.7001 24.9001C67.8001 26.5001 66.5001 27.9001 64.9001 28.0001C63.3001 28.1001 61.9001 26.8001 61.8001 25.2001C61.7001 23.6001 63.0001 22.2001 64.6001 22.1001C66.3001 22.0001 67.7001 23.3001 67.7001 24.9001Z" fill="white"/>
<path d="M30.8 70.9001C43.2 70.3001 52.8 59.7001 52.2 47.3001C52.1 46.2001 52 45.1001 51.7 43.7001C49.5 32.8001 39.8 25.3001 28.6 25.8001C16.2 26.5001 6.6 37.0001 7.2 49.4001C7.8 61.9001 18.4 71.5001 30.8 70.9001Z" fill="#F0D907"/>
<path d="M30.8 70.9001C43.2 70.3001 52.8 59.7001 52.2 47.3001C52.1 46.2001 52 45.1001 51.7 43.7001C49.5 32.8001 39.8 25.3001 28.6 25.8001C16.2 26.5001 6.6 37.0001 7.2 49.4001C7.8 61.9001 18.4 71.5001 30.8 70.9001Z" fill="url(#paint3_radial)"/>
<path d="M29.7 69.1001C18.6 69.1001 9.60002 60.4001 9.00002 49.4001C8.70002 43.9001 10.6 38.6001 14.4 34.5001C18.1 30.4001 23.2 28.0001 28.7 27.7001C29 27.7001 29.4 27.7001 29.7 27.7001C39.6 27.7001 47.9 34.5001 49.8 44.1001C50.1 45.4001 50.2 46.4001 50.3 47.4001C50.6 52.9001 48.7 58.2001 44.9 62.3001C41.2 66.4001 36.1 68.8001 30.6 69.1001C30.3 69.0001 30 69.1001 29.7 69.1001Z" fill="url(#paint4_radial)"/>
<path d="M48.3 47.5001C48.8 57.8001 40.9 66.5001 30.6 67.0001C20.3 67.5001 11.6 59.6001 11.1 49.3001C10.6 39.0001 18.5 30.3001 28.8 29.8001C39.1 29.3001 47.8 37.2001 48.3 47.5001Z" fill="white"/>
<path d="M47.4 42.8C47.3 52.6 39.6 60.7001 29.8 61.2001C21.2 61.6 13.7 56.1 11.2 48.2001C11.2 48.6001 11.1 48.9 11.1 49.3C11.6 59.5 20.3 67.5 30.6 67C40.9 66.5 48.8 57.8 48.3 47.5C48.2 45.8 47.8 44.3 47.4 42.8Z" fill="#E8E8E8"/>
<path d="M43.8999 42.9001C44.0999 48.0001 40.1999 52.4001 35.0999 52.6001C29.9999 52.8001 25.5999 48.9001 25.3999 43.8001C25.1999 38.7001 29.0999 34.3001 34.1999 34.1001C39.2999 33.8001 43.6999 37.8001 43.8999 42.9001Z" fill="black"/>
<path d="M32.9999 40.2001C33.0999 42.2001 31.4999 44.0001 29.4999 44.1001C27.4999 44.2001 25.6999 42.6001 25.5999 40.6001C25.4999 38.6001 27.0999 36.8001 29.0999 36.7001C31.1999 36.5001 32.8999 38.1001 32.9999 40.2001Z" fill="white"/>
<path d="M99.9 69.7001C87.5 69.7001 77.4 59.6001 77.4 47.2001C77.4 46.1001 77.5 45.0001 77.8 43.6001C79.5 32.7001 88.9 24.6001 100 24.6001C112.4 24.6001 122.5 34.7001 122.5 47.1001C122.4 59.6001 112.3 69.7001 99.9 69.7001Z" fill="#F0D907"/>
<path d="M99.9 69.7001C87.5 69.7001 77.4 59.6001 77.4 47.2001C77.4 46.1001 77.5 45.0001 77.8 43.6001C79.5 32.7001 88.9 24.6001 100 24.6001C112.4 24.6001 122.5 34.7001 122.5 47.1001C122.4 59.6001 112.3 69.7001 99.9 69.7001Z" fill="url(#paint5_radial)"/>
<path d="M98.4001 67.2001C87.0001 67.2001 77.7001 57.9 77.7001 46.5C77.7001 45.5 77.8001 44.5 78.0001 43.2001C79.6001 33.1 88.1001 25.8 98.4001 25.8C109.8 25.8 119.1 35.1 119.1 46.5C119.1 57.9 109.8 67.2001 98.4001 67.2001Z" fill="url(#paint6_radial)"/>
<path d="M79.8 46.5001C79.8 56.8001 88.1 65.1001 98.4 65.1001C108.7 65.1001 117 56.8001 117 46.5001C117 36.2001 108.7 27.9001 98.4 27.9001C88.1 27.9001 79.8 36.3001 79.8 46.5001Z" fill="white"/>
<path d="M80.5 41.8002C81.1 51.6002 89.1 59.3002 99 59.3002C107.6 59.3002 114.8 53.4002 116.9 45.4002C116.9 45.8002 117 46.1002 117 46.5002C117 56.8002 108.7 65.1002 98.4 65.1002C88.1 65.1002 79.8 56.8002 79.8 46.5002C79.8 44.9002 80.1 43.3002 80.5 41.8002Z" fill="#E8E8E8"/>
<path d="M83.9 41.8001C83.9 46.9001 88.1 51.1001 93.2 51.1001C98.3 51.1001 102.5 47.0001 102.5 41.8001C102.5 36.7001 98.3 32.5001 93.2 32.5001C88.1 32.5001 83.9 36.6001 83.9 41.8001Z" fill="black"/>
<path d="M94.7001 38.5002C94.7001 40.5002 96.4001 42.2002 98.4001 42.2002C100.4 42.2002 102.1 40.5002 102.1 38.5002C102.1 36.5002 100.4 34.8002 98.4001 34.8002C96.3001 34.8002 94.7001 36.4002 94.7001 38.5002Z" fill="white"/>
<path d="M66.8 97.3001C80.4 97.2001 93 100 103.5 104.8C103.5 104.6 103.5 104.4 103.5 104.2C103.5 79.7001 86.1 59.9001 64.8 60.0001C43.5 60.1001 26.3 80.0001 26.4 104.5C26.4 105.3 26.5 106.1 26.5 107C37.6 101 51.6 97.3001 66.8 97.3001Z" fill="#D74100"/>
<path d="M95.2 101.5C92.2 94.4001 89.2 87.4001 87.7 83.1001C85 75.3001 83.8 88.3001 82.8 98.5001C87.1 99.3001 91.3 100.3 95.2 101.5Z" fill="white"/>
<path d="M47 99.5001C46.4 89.2001 45.8 75.9001 42.8 83.6001C40.9 88.3001 37 96.2001 33.4 103.8C37.6 102 42.2 100.5 47 99.5001Z" fill="white"/>
<path d="M67.1 90.9001C52 91.0001 38 94.3001 26.6 99.9001C26.5 101.4 26.4 103 26.4 104.6C26.4 105.4 26.5 106.2 26.5 107.1C37.6 101.1 51.6 97.4001 66.8 97.4001C80.4 97.3001 93 100.1 103.5 104.9C103.5 104.7 103.5 104.5 103.5 104.3C103.5 102 103.3 99.8001 103 97.6001C92.6 93.2001 80.2 90.8001 67.1 90.9001Z" fill="#FFFCE3"/>
<path d="M40.9 43.3002C38.7 43.3002 39.2 46.6002 41.3 46.6002C43.5 46.6002 43 43.3002 40.9 43.3002Z" fill="white"/>
<path d="M74.3001 30.9001C74.2001 30.3001 73.5001 29.8001 72.9001 29.7001C72.0001 29.6001 71.1001 30.2001 71.0001 31.1001C70.9001 31.8001 71.3001 32.6001 72.0001 32.9001C72.4001 33.1001 72.9001 33.1001 73.3001 32.9001C73.4001 32.8001 73.6001 32.8001 73.7001 32.7001C73.9001 32.5001 74.1001 32.3001 74.2001 32.1001C74.4001 31.7001 74.5001 31.3001 74.3001 30.9001Z" fill="white"/>
<path d="M74.2001 32.0001C74.1001 32.1001 74.1001 32.2001 74.0001 32.3001C74.1001 32.2001 74.2001 32.1001 74.2001 32.0001Z" fill="white"/>
<path d="M86.8 43.3002C85.9 43.3002 85 43.8002 84.9 44.8002C84.8 45.7002 85.5 46.7002 86.4 46.7002C87.3 46.7002 88.2 46.2002 88.3 45.2002C88.4 44.3002 87.8 43.3002 86.8 43.3002Z" fill="white"/>
</g>
<defs>
<radialGradient id="paint0_radial" cx="0" cy="0" r="1" gradientUnits="userSpaceOnUse" gradientTransform="translate(64.0398 41.2144) scale(47.223)">
<stop stop-color="#F4FF9E"/>
<stop offset="1" stop-color="#FFD900"/>
</radialGradient>
<radialGradient id="paint1_radial" cx="0" cy="0" r="1" gradientUnits="userSpaceOnUse" gradientTransform="translate(65.0575 31.5343) scale(18.1627)">
<stop stop-color="#F4FF9E"/>
<stop offset="1" stop-color="#FFD900"/>
</radialGradient>
<radialGradient id="paint2_radial" cx="0" cy="0" r="1" gradientUnits="userSpaceOnUse" gradientTransform="translate(65.0576 31.5339) scale(16.3135)">
<stop stop-color="#F4FF9E"/>
<stop offset="1" stop-color="#FFD900"/>
</radialGradient>
<radialGradient id="paint3_radial" cx="0" cy="0" r="1" gradientUnits="userSpaceOnUse" gradientTransform="translate(29.6946 48.3706) scale(22.5326)">
<stop stop-color="#F4FF9E"/>
<stop offset="1" stop-color="#FFD900"/>
</radialGradient>
<radialGradient id="paint4_radial" cx="0" cy="0" r="1" gradientUnits="userSpaceOnUse" gradientTransform="translate(29.6948 48.3702) scale(20.6837)">
<stop stop-color="#F4FF9E"/>
<stop offset="1" stop-color="#FFD900"/>
</radialGradient>
<radialGradient id="paint5_radial" cx="0" cy="0" r="1" gradientUnits="userSpaceOnUse" gradientTransform="translate(99.8659 47.1867) scale(22.5324)">
<stop stop-color="#F4FF9E"/>
<stop offset="1" stop-color="#FFD900"/>
</radialGradient>
<radialGradient id="paint6_radial" cx="0" cy="0" r="1" gradientUnits="userSpaceOnUse" gradientTransform="translate(98.3856 46.5357) scale(20.6832)">
<stop stop-color="#F4FF9E"/>
<stop offset="1" stop-color="#FFD900"/>
</radialGradient>
<clipPath id="clip0">
<rect width="118.1" height="97" fill="white" transform="translate(5 10.0001)"/>
</clipPath>
</defs>
</svg>
