<svg width="128" height="117" viewBox="0 0 128 117" fill="none" xmlns="http://www.w3.org/2000/svg">
<g clip-path="url(#clip0)">
<path d="M64.5 44.1001C64.5 58.3001 53 69.8001 38.8 69.8001C24.5 69.9001 13 58.3001 13 44.1001C13 29.9001 24.5 18.4001 38.7 18.4001C53 18.4001 64.5 29.9001 64.5 44.1001Z" fill="url(#paint0_radial)"/>
<path d="M114.9 41.4001C114.9 57.6001 102 70.8001 86.1 70.8001C70.2 70.8001 57.3 57.6001 57.3 41.4001C57.3 25.2001 70.2 12.0001 86.1 12.0001C102 12.0001 114.9 25.2001 114.9 41.4001Z" fill="url(#paint1_radial)"/>
<path d="M84.1 67.2001C70.5 67.2001 59.5 56.2001 59.5 42.6001C59.5 41.4001 59.6 40.2001 59.9 38.7001C61.8 26.7001 72 18.0001 84.1 18.0001C97.7 18.0001 108.7 29.0001 108.7 42.6001C108.7 56.2001 97.7 67.2001 84.1 67.2001Z" fill="#F0D907"/>
<path d="M84.1 67.2001C70.5 67.2001 59.5 56.2001 59.5 42.6001C59.5 41.4001 59.6 40.2001 59.9 38.7001C61.8 26.7001 72 18.0001 84.1 18.0001C97.7 18.0001 108.7 29.0001 108.7 42.6001C108.7 56.2001 97.7 67.2001 84.1 67.2001Z" fill="#2C7D05"/>
<path d="M84.1 64.3001C72.1 64.3001 62.4 54.6001 62.4 42.6001C62.4 41.5001 62.5 40.4001 62.7 39.2001C64.4 28.6001 73.4 20.9001 84.1 20.9001C96.1 20.9001 105.8 30.6001 105.8 42.6001C105.8 54.6001 96.1 64.3001 84.1 64.3001Z" fill="#1E5403"/>
<path d="M63.8 42.6002C63.8 53.8002 72.9 62.9002 84.1 62.9002C95.3 62.9002 104.4 53.8002 104.4 42.6002C104.4 31.4002 95.3 22.3002 84.1 22.3002C72.9 22.3002 63.8 31.4002 63.8 42.6002Z" fill="white"/>
<path d="M64.6 37.4001C65.2 48.0001 74 56.5001 84.8 56.5001C94.2 56.5001 102.1 50.1001 104.4 41.4001C104.4 41.8001 104.5 42.2001 104.5 42.6001C104.5 53.8001 95.4 62.9001 84.2 62.9001C73 62.9001 63.9 53.8001 63.9 42.6001C63.8 40.8001 64.1 39.1001 64.6 37.4001Z" fill="#E8E8E8"/>
<path d="M68.3 37.4002C68.3 43.0002 72.8001 47.5002 78.4001 47.5002C84.0001 47.5002 88.5 43.0002 88.5 37.4002C88.5 31.8002 84.0001 27.3002 78.4001 27.3002C72.9001 27.3002 68.3 31.8002 68.3 37.4002Z" fill="black"/>
<path d="M80.1001 33.8002C80.1001 36.0002 81.9001 37.8002 84.1001 37.8002C86.3001 37.8002 88.1001 36.0002 88.1001 33.8002C88.1001 31.6002 86.3001 29.8002 84.1001 29.8002C81.9001 29.8002 80.1001 31.6002 80.1001 33.8002Z" fill="white"/>
<path d="M36.5 65.2002C47.6 66.7002 57.9 58.9002 59.4 47.8002C59.5 46.8002 59.6 45.8002 59.5 44.6002C59.3 34.6002 51.9 26.3002 42 25.0002C30.9 23.4002 20.6 31.2002 19.1 42.3002C17.6 53.4002 25.4 63.7002 36.5 65.2002Z" fill="#F0D907"/>
<path d="M36.5 65.2002C47.6 66.7002 57.9 58.9002 59.4 47.8002C59.5 46.8002 59.6 45.8002 59.5 44.6002C59.3 34.6002 51.9 26.3002 42 25.0002C30.9 23.4002 20.6 31.2002 19.1 42.3002C17.6 53.4002 25.4 63.7002 36.5 65.2002Z" fill="#2C7D05"/>
<path d="M36.8 63.0001C46.7 64.3001 55.8 57.4001 57.2 47.5001C57.3 46.6001 57.4 45.7001 57.3 44.6001C57.1 35.7001 50.6 28.3001 41.7 27.1001C31.8 25.8001 22.7 32.7001 21.3 42.6001C20 52.5001 26.9 61.6001 36.8 63.0001Z" fill="#1E5403"/>
<path d="M55.9 47.3002C54.6 56.5002 46.2 62.9002 37 61.7002C27.8 60.4002 21.4 52.0002 22.6 42.8002C23.9 33.6002 32.3 27.2002 41.5 28.4002C50.7 29.6002 57.1 38.1002 55.9 47.3002Z" fill="white"/>
<path d="M55.8 43.0002C54.1 51.6002 46 57.6002 37.1 56.4002C29.4 55.3002 23.7 49.2002 22.8 41.8002C22.7 42.1002 22.6 42.4002 22.6 42.8002C21.4 52.0002 27.8 60.4002 37 61.7002C46.2 63.0002 54.7 56.5002 55.9 47.3002C56.1 45.8002 56 44.4002 55.8 43.0002Z" fill="#E8E8E8"/>
<path d="M52.8 42.5002C52.2 47.1002 48 50.3002 43.4 49.7002C38.8 49.1002 35.6 44.9002 36.2 40.3002C36.8 35.7002 41 32.5002 45.6 33.1002C50.2 33.7002 53.4 38.0002 52.8 42.5002Z" fill="black"/>
<path d="M52.3 38.2002C52.1 40.0002 50.4 41.3002 48.5 41.1002C46.7 40.9002 45.4 39.2002 45.6 37.3002C45.8 35.5002 47.5 34.2002 49.4 34.4002C51.3 34.7002 52.5 36.4002 52.3 38.2002Z" fill="white"/>
<path d="M41.8 45.2003C41.7 46.0003 40.9 46.6003 40.1 46.5003C39.3 46.4003 38.7 45.6003 38.8 44.8003C38.9 44.0003 39.7 43.4003 40.5 43.5003C41.3 43.6003 41.9 44.4003 41.8 45.2003Z" fill="white"/>
<path d="M74.2 42.8003C74.1 43.6003 73.3 44.2003 72.5 44.1003C71.7 44.0003 71.1 43.2003 71.2 42.4003C71.3 41.6003 72.1 41.0003 72.9 41.1003C73.7 41.2003 74.3 42.0003 74.2 42.8003Z" fill="white"/>
<g opacity="0.2">
<path opacity="0.2" d="M14.7 95.7001C14.7 95.7001 14.9 95.4001 15.3 94.7001C15.7 94.0001 16.3 93.0001 17.2 91.9001C18.1 90.7001 19.2 89.4001 20.6 87.8001C22 86.3001 23.7 84.7001 25.7 83.2001C27.7 81.6001 30 80.1001 32.6 78.7001C35.2 77.4001 38 76.0001 41 75.1001C44 74.1001 47.2 73.2001 50.5 72.7001C51.3 72.6001 52.2 72.5001 53 72.3001C53.8 72.2001 54.7 72.1001 55.5 72.1001C56.3 72.0001 57.2 72.0001 58 72.0001H59.3H59.9H60.1H60.3H60.6C63.7 72.1001 67.4 72.3001 70.6 72.9001C73.9 73.5001 77.1 74.3001 80.1 75.4001C81.6 75.9001 83.1 76.5001 84.5 77.1001C85.9 77.8001 87.2 78.4001 88.5 79.1001C89.8 79.8001 91 80.5001 92.1 81.3001C92.7 81.7001 93.2 82.1001 93.8 82.4001C94.3 82.8001 94.8 83.2001 95.3 83.6001C97.3 85.1001 99 86.8001 100.4 88.3001C101.8 89.8001 102.9 91.2001 103.8 92.4001C104.7 93.5001 105.2 94.6001 105.6 95.2001C106 95.9001 106.2 96.2001 106.2 96.2001C106.3 96.4001 106.3 96.7001 106 96.9001C105.8 97.0001 105.6 97.0001 105.4 96.9001L105.3 96.8001C105.3 96.8001 105 96.5001 104.4 96.1001C103.8 95.6001 102.9 94.9001 101.8 94.1001C100.7 93.2001 99.2 92.3001 97.7 91.3001C96.1 90.3001 94.2 89.3001 92.2 88.2001C91.7 87.9001 91.2 87.7001 90.6 87.4001C90.1 87.1001 89.5 86.9001 88.9 86.7001C87.8 86.2001 86.6 85.7001 85.4 85.3001C84.2 84.9001 82.9 84.4001 81.6 84.0001C80.3 83.7001 79 83.2001 77.6 82.9001C76.3 82.6001 74.9 82.3001 73.5 82.0001C72.8 81.8001 72.1 81.8001 71.4 81.7001C70.7 81.6001 70 81.4001 69.3 81.4001C68.6 81.3001 67.9 81.2001 67.1 81.2001C66.4 81.1001 65.7 81.1001 65 81.1001C63.7 81.0001 61.9 81.0001 60.3 80.9001H58.2C57.5 80.9001 56.7 80.9001 56 81.0001C55.3 81.1001 54.5 81.1001 53.8 81.1001C53.1 81.2001 52.3 81.2001 51.6 81.3001L50.5 81.4001L49.4 81.6001C48.7 81.7001 48 81.8001 47.3 81.9001C45.9 82.2001 44.5 82.4001 43.2 82.8001C40.5 83.4001 37.9 84.2001 35.5 85.0001C34.3 85.5001 33.1 85.9001 32 86.4001C31.4 86.6001 30.9 86.9001 30.3 87.1001C29.8 87.4001 29.2 87.6001 28.7 87.9001C27.6 88.4001 26.7 88.9001 25.8 89.4001C24.8 89.9001 24 90.4001 23.2 90.9001C22.3 91.4001 21.7 91.9001 20.9 92.4001C20.2 92.8001 19.6 93.3001 19 93.7001C18.4 94.1001 17.9 94.4001 17.5 94.8001C17.1 95.2001 16.7 95.5001 16.4 95.7001C15.8 96.2001 15.4 96.4001 15.4 96.4001L15.3 96.5001C15.1 96.7001 14.8 96.6001 14.6 96.4001C14.6 96.1001 14.6 95.8001 14.7 95.7001Z" fill="#315400"/>
</g>
<path d="M14.7 95.7001C14.7 95.7001 14.9 95.3001 15.3 94.7001C15.7 94.0001 16.3 93.1001 17.2 91.9001C18.1 90.7001 19.2 89.3001 20.6 87.8001C22 86.3001 23.7 84.7001 25.7 83.2001C27.7 81.6001 30 80.1001 32.6 78.7001C35.2 77.4001 38 76.0001 41 75.1001C42.5 74.5001 44.1 74.2001 45.7 73.7001C47.3 73.4001 48.9 72.9001 50.6 72.7001C51.4 72.6001 52.3 72.5001 53.1 72.3001C53.9 72.2001 54.8 72.1001 55.6 72.1001C56.4 72.0001 57.3 72.0001 58.1 72.0001H59.4H60H60.2H60.4H60.7C63.8 72.1001 67.5 72.3001 70.7 72.9001C74 73.5001 77.2 74.3001 80.2 75.4001C81.7 75.9001 83.2 76.5001 84.6 77.1001C86 77.8001 87.3 78.4001 88.6 79.1001C89.9 79.8001 91.1 80.5001 92.2 81.3001C92.8 81.7001 93.3 82.1001 93.9 82.4001C94.4 82.8001 94.9 83.2001 95.4 83.6001C97.4 85.1001 99.1 86.8001 100.5 88.3001C101.9 89.8001 103 91.2001 103.8 92.4001C104.7 93.6001 105.2 94.6001 105.6 95.2001C106 95.9001 106.2 96.2001 106.2 96.2001C106.3 96.4001 106.3 96.7001 106 96.9001C105.8 97.0001 105.5 97.0001 105.4 96.8001C105.4 96.8001 105.1 96.5001 104.6 96.0001C104.1 95.4001 103.3 94.6001 102.3 93.7001C101.3 92.7001 100 91.6001 98.5 90.4001C97 89.2001 95.2 87.9001 93.2 86.7001C92.7 86.4001 92.2 86.1001 91.7 85.8001C91.2 85.5001 90.6 85.2001 90 84.9001C88.9 84.3001 87.7 83.7001 86.5 83.2001C84 82.1001 81.4 81.1001 78.6 80.3001C75.8 79.4001 72.8 78.9001 69.8 78.4001C69 78.3001 68.3 78.2001 67.5 78.1001C66.7 78.0001 66 78.0001 65.2 77.9001C63.7 77.7001 62 77.7001 60.4 77.7001H60.1C60.2 77.7001 60.1 77.7001 60.1 77.7001H60H59.9H59.3H58.1C57.3 77.7001 56.5 77.7001 55.8 77.8001C55 77.9001 54.3 77.9001 53.5 78.0001C52.7 78.1001 52 78.2001 51.2 78.3001L50.1 78.4001L49 78.6001C48.3 78.7001 47.5 78.9001 46.8 79.0001C45.3 79.3001 43.9 79.6001 42.5 80.1001C39.7 80.9001 37 81.9001 34.5 82.9001C33.3 83.5001 32.1 84.0001 31 84.6001C30.4 84.9001 29.9 85.2001 29.3 85.4001C28.8 85.7001 28.3 86.0001 27.7 86.3001C25.7 87.5001 23.9 88.7001 22.3 89.9001C21.5 90.5001 20.9 91.1001 20.2 91.6001C19.5 92.1001 19 92.7001 18.5 93.1001C17.5 94.0001 16.7 94.8001 16.2 95.4001C15.7 95.9001 15.4 96.2001 15.4 96.2001C15.2 96.4001 14.9 96.4001 14.7 96.2001C14.6 96.1001 14.6 95.9001 14.7 95.7001Z" fill="#2C7D05"/>
<path d="M98.7 90.4001C97.2 89.2001 95.4 87.9001 93.4 86.7001C92.9 86.4001 92.4 86.1001 91.9 85.8001C91.4 85.5001 90.8 85.2001 90.2 84.9001C89.9 84.7001 89.5 84.5001 89.2 84.4001C92.4 91.1001 95.4 97.3001 97.1 101.5C99.7 108 100.8 101.5 101.6 92.9001C100.7 92.0001 99.7 91.2001 98.7 90.4001Z" fill="white"/>
<path d="M31.1 84.5001C30.5 84.8001 30 85.1001 29.4 85.3001C28.9 85.6001 28.4 85.9001 27.8 86.2001C25.8 87.4001 24 88.6001 22.4 89.8001C22 90.1001 21.6 90.4001 21.2 90.8001C22.4 99.7001 23.8 106.6 26.2 99.8001C27.6 95.8001 30 89.9001 32.7 83.6001C32.2 83.9001 31.6 84.2001 31.1 84.5001Z" fill="white"/>
</g>
<defs>
<radialGradient id="paint0_radial" cx="0" cy="0" r="1" gradientUnits="userSpaceOnUse" gradientTransform="translate(38.7473 44.1121) scale(25.747)">
<stop stop-color="#59CA00"/>
<stop offset="1" stop-color="#599100"/>
</radialGradient>
<radialGradient id="paint1_radial" cx="0" cy="0" r="1" gradientUnits="userSpaceOnUse" gradientTransform="translate(86.1187 41.4049) scale(28.8231 29.405)">
<stop stop-color="#59CA00"/>
<stop offset="1" stop-color="#599100"/>
</radialGradient>
<clipPath id="clip0">
<rect width="101.9" height="92.1" fill="white" transform="translate(13 12.0001)"/>
</clipPath>
</defs>
</svg>
