<svg width="128" height="117" viewBox="0 0 128 117" fill="none" xmlns="http://www.w3.org/2000/svg">
<g clip-path="url(#clip0)">
<path d="M69.3 79.9001C51.4 79.9001 36.8 65.3001 36.8 47.4001C36.8 45.8001 37 44.2001 37.3 42.3001C39.9 26.5001 53.3 15.0001 69.3 15.0001C87.2001 15.0001 101.8 29.6001 101.8 47.5001C101.8 65.4001 87.3 79.9001 69.3 79.9001Z" fill="#F0D907"/>
<path d="M69.3 79.9001C51.4 79.9001 36.8 65.3001 36.8 47.4001C36.8 45.8001 37 44.2001 37.3 42.3001C39.9 26.5001 53.3 15.0001 69.3 15.0001C87.2001 15.0001 101.8 29.6001 101.8 47.5001C101.8 65.4001 87.3 79.9001 69.3 79.9001Z" fill="#F0D907"/>
<path d="M69.3 77.0001C53 77.0001 39.8 63.8001 39.8 47.5001C39.8 46.1001 39.9 44.6001 40.3 42.8001C42.5 28.4001 54.8 18.0001 69.3 18.0001C85.6 18.0001 98.8001 31.2001 98.8001 47.5001C98.8001 63.8001 85.6 77.0001 69.3 77.0001Z" fill="#F0D907"/>
<path d="M42.5 47.5001C42.5 62.3001 54.5 74.3001 69.3 74.3001C84.1 74.3001 96.1 62.3001 96.1 47.5001C96.1 32.7001 84.1 20.7001 69.3 20.7001C54.5 20.6001 42.5 32.7001 42.5 47.5001Z" fill="white"/>
<path d="M43.5 40.6001C44.3 54.6001 55.9 65.8001 70.1 65.8001C82.5 65.8001 92.9 57.3001 95.9 45.8001C95.9 46.3001 96.1 46.9001 96.1 47.4001C96.1 62.2001 84.1 74.2001 69.3 74.2001C54.5 74.2001 42.5 62.2001 42.5 47.4001C42.5 45.1001 43 42.8001 43.5 40.6001Z" fill="#E8E8E8"/>
<path d="M48.5 40.6001C48.5 48.0001 54.5 54.0001 61.9 54.0001C69.3 54.0001 75.3 48.0001 75.3 40.6001C75.3 33.2001 69.3 27.2001 61.9 27.2001C54.5 27.2001 48.5 33.2001 48.5 40.6001Z" fill="black"/>
<path d="M64 35.9001C64 38.8001 66.4 41.2001 69.3 41.2001C72.2 41.2001 74.6 38.8001 74.6 35.9001C74.6 33.0001 72.2 30.6001 69.3 30.6001C66.4 30.5001 64 32.9001 64 35.9001Z" fill="white"/>
<path d="M76.5 3.30012C76.5 3.30012 75.9999 3.00012 75.0999 2.70012C74.4999 2.50012 73.6999 2.40012 72.7999 2.20012C71.9999 2.10012 71.0999 2.00012 70.0999 2.00012C68.1999 2.00012 65.9999 2.40012 63.7999 2.90012C62.6999 3.20012 61.6 3.50012 60.4 3.90012C59.2999 4.30012 58.1999 4.70012 57.0999 5.20012C55.9999 5.70012 54.9999 6.20012 53.9999 6.80012C52.9999 7.40012 51.9999 8.00012 51.1999 8.70012C50.2999 9.30012 49.4999 10.0001 48.7999 10.7001C47.9999 11.3001 47.4999 12.1001 46.8999 12.7001C46.2999 13.3001 45.9999 14.0001 45.4999 14.6001C45.0999 15.1001 44.7999 15.7001 44.5999 16.1001C44.1999 17.0001 43.8999 17.4001 43.8999 17.4001C43.7999 17.6001 43.8999 17.8001 44.0999 17.9001C44.1999 18.0001 44.3999 17.9001 44.4999 17.8001C44.4999 17.8001 44.8999 17.4001 45.5999 16.8001C45.8999 16.5001 46.2999 16.1001 46.8999 15.7001C47.3999 15.3001 47.8999 14.8001 48.5999 14.5001C49.2999 14.1001 49.9999 13.6001 50.7999 13.3001C51.5999 12.9001 52.3999 12.5001 53.2999 12.1001C54.1999 11.7001 55.0999 11.5001 56.0999 11.1001C57.0999 10.9001 58.0999 10.6001 59.0999 10.4001C60.0999 10.2001 61.0999 10.0001 62.0999 9.90012C63.0999 9.80012 64.0999 9.70012 64.9999 9.70012C66.8999 9.70012 68.5999 9.80012 69.9999 9.90012C70.7999 10.0001 71.3999 10.1001 71.9999 10.0001C72.3999 10.0001 72.7999 10.0001 73.1999 10.0001C74.1999 10.1001 74.6999 10.1001 74.6999 10.1001C76.8999 10.1001 78.5999 8.40012 78.5 6.30012C78.5 5.10012 77.7 3.90012 76.5 3.30012Z" fill="#F0D907"/>
<path d="M25 57.9001C25 57.9001 25.5 99.9001 42.3 111.3C59.1 122.6 79.4 106 89.2 94.2001C60.5 102.3 25 57.9001 25 57.9001Z" fill="#B24900"/>
<path d="M80.9 95.2001C70.2 104.6 55.2 112.5 42.3 103.7C30.2 95.5001 26.5 71.3001 25.5 58.5001C25.2 58.1001 25 57.9001 25 57.9001C25 57.9001 25.5 99.9001 42.3 111.3C59.1 122.6 79.4 106 89.2 94.2001C86.5 95.0001 83.7 95.3001 80.9 95.2001Z" fill="#F0BE07"/>
<path d="M31.9 65.6001C33.6 73.7001 36.5 84.3001 41.2 90.7001C49.4 101.9 51.8 102.4 51.8 102.4L54.7 85.2001C45.4 79.1001 37.3 71.3001 31.9 65.6001Z" fill="white"/>
<path d="M62.1 88.8002L61.3 99.4002C61.3 99.4002 63.3 99.5002 71.5 93.0002C68.3 91.9002 65.1 90.5002 62.1 88.8002Z" fill="white"/>
<path d="M53.3001 42.3001C52.2001 42.4001 51.2001 43.2001 51.0001 44.4001C50.9001 45.1001 51.0001 45.8001 51.4001 46.3001C51.6001 46.5001 52.6001 47.6001 53.0001 47.4001C54.0001 47.7001 55.0001 47.1001 55.5001 46.3001C56.7001 44.6001 55.4001 42.2001 53.3001 42.3001Z" fill="white"/>
</g>
<defs>
<clipPath id="clip0">
<rect width="76.8" height="113.1" fill="white" transform="translate(25 2.00012)"/>
</clipPath>
</defs>
</svg>
