<svg width="127" height="74" viewBox="0 0 127 74" fill="none" xmlns="http://www.w3.org/2000/svg">
<g filter="url(#filter0_i)">
<path fill-rule="evenodd" clip-rule="evenodd" d="M124.172 35.7678C125.609 35.2601 126.638 33.8901 126.638 32.2798C126.638 30.2372 124.982 28.5813 122.938 28.5813C121.327 28.5813 119.956 29.6113 119.448 31.0486C121.147 31.0755 124.172 31.4295 124.172 32.6907V35.7678ZM124.152 35.7749C123.772 35.9067 123.363 35.9783 122.938 35.9783C120.895 35.9783 119.239 34.3224 119.239 32.2798C119.239 32.0773 119.255 31.8785 119.286 31.6848C119.449 32.8248 120.067 34.3344 121.705 34.3344C123.456 34.3344 124.042 35.1976 124.152 35.7749Z" fill="#CD8B1A"/>
<path d="M23.8755 13.2375C23.8755 17.6313 23.9199 22.0251 23.9199 26.3745C23.9199 31.079 20.1475 34.8071 15.4874 34.8071C14.1559 34.8071 12.8245 34.8071 11.4487 34.8071V4.84939H15.5318C20.4582 4.84939 23.8755 8.2224 23.8755 13.2375ZM15.4874 35.4728C23.7868 35.4728 28.9351 27.3953 28.9351 19.806C28.9351 12.2611 23.7868 4.13928 15.4874 4.13928H2.17288V4.84939H6.43353V34.8071H2.17288V35.4728H15.4874ZM45.0668 26.1526H37.0781C37.0781 24.9543 37.0781 23.2678 37.0781 22.1583C37.0781 19.8504 38.7202 18.1639 41.0724 18.1639C43.3803 18.1639 45.0668 19.8504 45.0668 22.1583V26.1526ZM50.0819 26.8183C50.0375 21.8032 46.3095 17.4982 41.0724 17.4982C36.1461 17.4982 32.0629 21.5369 32.0629 26.4633C32.0629 31.6116 35.8798 35.4728 41.0724 35.4728C42.8921 35.4728 45.7325 34.7183 45.7325 32.2329C45.7325 31.2565 44.9336 30.4576 43.9572 30.4576C42.9808 30.4576 42.182 31.2565 42.182 32.2329C42.182 33.2093 42.9808 34.0526 43.9572 34.0526L44.0016 34.0082C43.2027 34.5408 42.0044 34.8071 41.0724 34.8071C38.8533 34.8071 37.0781 32.9874 37.0781 30.8127V26.8183H50.0819ZM65.524 26.1526H57.5353C57.5353 24.9543 57.5353 23.2678 57.5353 22.1583C57.5353 19.8504 59.1774 18.1639 61.5296 18.1639C63.8375 18.1639 65.524 19.8504 65.524 22.1583V26.1526ZM70.5391 26.8183C70.4947 21.8032 66.7667 17.4982 61.5296 17.4982C56.6033 17.4982 52.5201 21.5369 52.5201 26.4633C52.5201 31.6116 56.337 35.4728 61.5296 35.4728C63.3493 35.4728 66.1897 34.7183 66.1897 32.2329C66.1897 31.2565 65.3908 30.4576 64.4144 30.4576C63.438 30.4576 62.6392 31.2565 62.6392 32.2329C62.6392 33.2093 63.438 34.0526 64.4144 34.0526L64.4588 34.0082C63.6599 34.5408 62.4616 34.8071 61.5296 34.8071C59.3105 34.8071 57.5353 32.9874 57.5353 30.8127V26.8183H70.5391ZM96.3124 18.1639V17.4538H87.1254V18.1639H91.1641L85.1726 30.0582L79.1811 18.1639H83.2198V17.4538H69.6834V18.1639H74.0772L82.9979 35.8278C86.1046 29.7032 89.0338 23.9335 91.9186 18.1639H96.3124ZM108.52 30.8127C108.52 33.0318 106.7 34.8071 104.525 34.8071C101.996 34.8071 100.487 33.3425 100.487 30.8127C100.487 25.0431 100.487 27.9279 100.487 22.1583C100.487 19.9392 102.306 18.1639 104.525 18.1639C106.7 18.1639 108.52 19.9392 108.52 22.1139V30.8127ZM117.796 35.4728V34.8071H113.535V17.4538H108.52V18.3858C107.277 17.8089 105.901 17.4538 104.525 17.4538C99.5103 17.4538 95.4716 21.4925 95.4716 26.4633C95.4716 31.434 99.4659 35.4728 104.525 35.4728C105.857 35.4728 107.277 35.1177 108.52 34.5408V35.4728H117.796Z" fill="#272727"/>
<path d="M83.8569 50.6936C83.8569 52.3156 82.5268 53.6132 80.9373 53.6132C79.0881 53.6132 77.9852 52.5427 77.9852 50.6936C77.9852 46.4763 77.9852 48.585 77.9852 44.3677C77.9852 42.7456 79.3152 41.448 80.9373 41.448C82.5268 41.448 83.8569 42.7456 83.8569 44.3352V50.6936ZM90.637 54.0999V53.6132H87.5227V40.929H83.8569V41.6102C82.9486 41.1885 81.9429 40.929 80.9373 40.929C77.2715 40.929 74.3194 43.8811 74.3194 47.5144C74.3194 51.1478 77.239 54.0999 80.9373 54.0999C81.9105 54.0999 82.9486 53.8403 83.8569 53.4186V54.0999H90.637ZM104.236 50.7909C104.236 52.6076 103.101 53.743 101.284 53.743H98.3644V41.4805H101.284C102.906 41.4805 104.236 42.8105 104.236 44.4326V50.7909ZM101.284 54.1972C105.177 54.1972 107.87 51.2126 107.87 47.4171C107.87 43.5242 105.112 40.9939 101.284 40.9614H91.6168V41.4805H94.6986V63.2805H91.6168V63.7671H98.3644V54.1972H101.284ZM121.502 50.7909C121.502 52.6076 120.366 53.743 118.55 53.743H115.63V41.4805H118.55C120.172 41.4805 121.502 42.8105 121.502 44.4326V50.7909ZM118.55 54.1972C122.443 54.1972 125.135 51.2126 125.135 47.4171C125.135 43.5242 122.378 40.9939 118.55 40.9614H108.883V41.4805H111.964V63.2805H108.883V63.7671H115.63V54.1972H118.55Z" fill="#84570A"/>
</g>
<defs>
<filter id="filter0_i" x="2.17285" y="4.13928" width="124.465" height="59.6278" filterUnits="userSpaceOnUse" color-interpolation-filters="sRGB">
<feFlood flood-opacity="0" result="BackgroundImageFix"/>
<feBlend mode="normal" in="SourceGraphic" in2="BackgroundImageFix" result="shape"/>
<feColorMatrix in="SourceAlpha" type="matrix" values="0 0 0 0 0 0 0 0 0 0 0 0 0 0 0 0 0 0 127 0" result="hardAlpha"/>
<feOffset/>
<feGaussianBlur stdDeviation="7.39695"/>
<feComposite in2="hardAlpha" operator="arithmetic" k2="-1" k3="1"/>
<feColorMatrix type="matrix" values="0 0 0 0 0 0 0 0 0 0 0 0 0 0 0 0 0 0 0.25 0"/>
<feBlend mode="normal" in2="shape" result="effect1_innerShadow"/>
</filter>
</defs>
</svg>
