<svg width="99" height="83" viewBox="0 0 99 83" fill="none" xmlns="http://www.w3.org/2000/svg">
<path d="M28.3794 2.47875C28.7988 2.47875 29.1761 2.10137 29.1761 1.68206C29.1761 0.815485 28.5611 0.186517 27.6946 0.186517H22.1457V0.41015H23.4735V9.84467H22.1457V10.0543H26.3947V9.84467H25.0669V5.23224H27.7644V5.02258H25.0669V0.41015H27.6946C28.1838 0.41015 28.5611 0.591851 28.7708 0.983209C28.659 0.927301 28.5192 0.88537 28.3794 0.88537C27.9462 0.88537 27.5827 1.2348 27.5827 1.68206C27.5827 2.11535 27.9462 2.47875 28.3794 2.47875ZM32.5284 8.58673C32.5284 9.27161 31.9554 9.84467 31.2705 9.84467C30.5717 9.84467 30.0126 9.27161 30.0126 8.58673V5.8612C30.0126 5.16235 30.5717 4.60327 31.2705 4.60327C31.9554 4.60327 32.5284 5.16235 32.5284 5.8612V8.58673ZM31.2705 10.0543C32.822 10.0543 34.1078 8.76843 34.1078 7.21698C34.1078 5.65155 32.8359 4.37963 31.2705 4.37963C29.7051 4.37963 28.4332 5.65155 28.4332 7.21698C28.4332 8.74048 29.747 10.0543 31.2705 10.0543ZM39.3569 6.64392C39.7902 6.64392 40.1536 6.29449 40.1536 5.8612C40.1536 5.0086 39.5386 4.37963 38.686 4.37963C38.1129 4.37963 37.6657 4.61724 37.4281 5.07849V4.39361C36.4636 4.37963 35.4713 4.37963 34.5208 4.37963V4.60327H35.8486V9.84467H34.5208V10.0543H38.7279V9.84467H37.4281V5.8612C37.4281 5.12042 37.9312 4.60327 38.686 4.60327C39.1752 4.60327 39.5386 4.78497 39.7482 5.17633C39.6364 5.10644 39.4967 5.06451 39.3569 5.06451C38.9236 5.06451 38.5742 5.42791 38.5742 5.8612C38.5742 6.29449 38.9236 6.64392 39.3569 6.64392ZM57.5469 0.41015V0.186517H54.6537L51.0057 7.46857L47.8748 0.186517C46.1556 0.186517 46.7007 0.186517 44.9676 0.186517V0.41015H46.3094V9.84467H44.9676V10.0543H47.8748V9.84467H46.533V0.815485L50.2369 9.45331C51.6906 6.56006 53.1442 3.65283 54.6118 0.759577V9.84467H53.256V10.0543H57.5469V9.84467H56.2051V0.41015H57.5469ZM62.2706 8.58673C62.2706 9.27161 61.6976 9.84467 61.0127 9.84467C60.3139 9.84467 59.7548 9.27161 59.7548 8.58673V5.8612C59.7548 5.16235 60.3139 4.60327 61.0127 4.60327C61.6976 4.60327 62.2706 5.16235 62.2706 5.8612V8.58673ZM61.0127 10.0543C62.5642 10.0543 63.85 8.76843 63.85 7.21698C63.85 5.65155 62.5781 4.37963 61.0127 4.37963C59.4473 4.37963 58.1754 5.65155 58.1754 7.21698C58.1754 8.74048 59.4892 10.0543 61.0127 10.0543ZM69.0991 6.64392C69.5324 6.64392 69.8958 6.29449 69.8958 5.8612C69.8958 5.0086 69.2808 4.37963 68.4282 4.37963C67.8551 4.37963 67.4079 4.61724 67.1703 5.07849V4.39361C66.2058 4.37963 65.2135 4.37963 64.263 4.37963V4.60327H65.5908V9.84467H64.263V10.0543H68.4701V9.84467H67.1703V5.8612C67.1703 5.12042 67.6734 4.60327 68.4282 4.60327C68.9174 4.60327 69.2808 4.78497 69.4904 5.17633C69.3786 5.10644 69.2389 5.06451 69.0991 5.06451C68.6658 5.06451 68.3164 5.42791 68.3164 5.8612C68.3164 6.29449 68.6658 6.64392 69.0991 6.64392ZM74.7599 7.11914H72.244C72.244 6.74176 72.244 6.21063 72.244 5.8612C72.244 5.1344 72.7612 4.60327 73.502 4.60327C74.2288 4.60327 74.7599 5.1344 74.7599 5.8612V7.11914ZM76.3393 7.32879C76.3253 5.74939 75.1513 4.39361 73.502 4.39361C71.9505 4.39361 70.6646 5.66552 70.6646 7.21698C70.6646 8.83832 71.8667 10.0543 73.502 10.0543C74.075 10.0543 74.9696 9.81671 74.9696 9.034C74.9696 8.7265 74.718 8.47491 74.4105 8.47491C74.103 8.47491 73.8514 8.7265 73.8514 9.034C73.8514 9.34149 74.103 9.60706 74.4105 9.60706L74.4245 9.59308C74.1729 9.7608 73.7955 9.84467 73.502 9.84467C72.8031 9.84467 72.244 9.27161 72.244 8.58673V7.32879H76.3393ZM15.5875 27.0543C16.4541 27.0543 17.0691 26.4254 17.0691 25.5728C17.0691 25.1255 16.7196 24.7761 16.2724 24.7761C15.8391 24.7761 15.4757 25.1255 15.4757 25.5728C15.4757 26.006 15.8391 26.3694 16.2724 26.3694C16.4121 26.3694 16.5519 26.3275 16.6637 26.2576C16.4541 26.649 16.0767 26.8447 15.5875 26.8447H12.9598V22.2322H15.6574V22.0226H12.9598V17.4101H15.6154C16.3562 17.4101 16.7895 17.9692 16.8594 18.7519H17.0691C17.0691 17.8155 16.4541 17.2005 15.5875 17.2005H10.0386V17.4101H11.3664V26.8447H10.0386V27.0543H15.5875ZM24.6932 27.0543V26.8447H23.3235L21.8419 23.9095C22.6526 23.3364 23.3095 22.6655 23.3514 21.6033H24.6932V21.3796H21.8139V21.6033H23.1418C23.0998 22.5537 22.5128 23.1687 21.7441 23.7138L20.584 21.3796C19.6195 21.3796 18.6691 21.3796 17.7047 21.3796V21.6033H19.0744L20.556 24.5385C19.7453 25.1115 19.0884 25.7824 19.0465 26.8447H17.7047V27.0543H20.584V26.8447H19.2561C19.2981 25.8802 19.8851 25.2792 20.6538 24.7202L21.8139 27.0543H24.6932ZM28.1518 22.959C28.4453 22.959 28.7108 22.7214 28.7108 22.4C28.7108 21.6452 27.8443 21.3796 27.2852 21.3796C25.4961 21.3796 24.4339 22.386 24.4339 24.217C24.4339 25.7824 25.6918 27.0543 27.2433 27.0543C27.8582 27.0543 28.7108 26.8866 28.7108 26.048C28.7108 25.7405 28.4453 25.4749 28.1518 25.4749C27.8443 25.4749 27.5927 25.7265 27.5927 26.034C27.5927 26.3415 27.8443 26.5931 28.1518 26.5931C28.1518 26.5931 28.1657 26.5931 28.1797 26.5931C27.9142 26.7748 27.5368 26.8447 27.2433 26.8447C26.5584 26.8447 25.9993 26.2716 25.9993 25.5867V22.8612C25.9993 22.1484 26.5724 21.6033 27.2852 21.6033C27.5647 21.6033 27.9142 21.6732 28.1797 21.8409C28.1657 21.8409 28.1518 21.8409 28.1518 21.8409C27.8443 21.8409 27.5927 22.0925 27.5927 22.4C27.5927 22.7075 27.8443 22.959 28.1518 22.959ZM29.4842 27.0543C32.5032 27.0543 31.7205 27.0543 33.6773 27.0543V26.8447H32.3634V21.3377H29.4842V21.5474H30.798V26.8447H29.4842V27.0543ZM31.5807 20.1776C32.014 20.1776 32.3634 19.8142 32.3634 19.3809C32.3634 18.9476 32.014 18.5842 31.5807 18.5842C31.1474 18.5842 30.798 18.9476 30.798 19.3809C30.798 19.8142 31.1474 20.1776 31.5807 20.1776ZM39.6885 21.5474V21.3237H37.0049V17.1865H34.0977V17.4101H35.4255V21.3237H34.0977V21.5474H35.4255V26.8447H34.0977V27.0543H38.3188V26.8447H37.0049V21.5474H39.6885ZM40.1035 27.0543C43.1225 27.0543 42.3398 27.0543 44.2966 27.0543V26.8447H42.9827V21.3377H40.1035V21.5474H41.4173V26.8447H40.1035V27.0543ZM42.2 20.1776C42.6333 20.1776 42.9827 19.8142 42.9827 19.3809C42.9827 18.9476 42.6333 18.5842 42.2 18.5842C41.7667 18.5842 41.4173 18.9476 41.4173 19.3809C41.4173 19.8142 41.7667 20.1776 42.2 20.1776ZM53.1032 27.0543V26.8447H51.7614V22.8612C51.7614 21.9946 51.1464 21.3796 50.2799 21.3796C49.3434 21.3796 48.337 22.0086 47.6382 22.6096V21.3796H44.717V21.6033H46.0588V26.8447H44.717V27.0543H47.6382C47.6382 24.5245 47.6382 25.3072 47.6382 22.9031C48.2811 22.2881 49.2875 21.6452 50.182 21.6033V26.8447H48.8402V27.0543H53.1032ZM55.1003 25.6287C55.1003 24.6922 55.1003 23.7977 55.1003 22.8752C55.1003 22.1763 55.6594 21.6172 56.3582 21.6172C57.1549 21.6172 56.9173 21.6172 57.6162 21.6172V26.9006C57.4065 26.9006 56.6518 26.9146 56.4421 26.9146C55.869 26.9146 55.1003 26.7608 55.1003 25.6287ZM60.5374 21.6172V21.4076C57.2248 21.3936 58.0075 21.3936 56.3582 21.3936C54.7928 21.3936 53.5209 22.6795 53.5209 24.2589C53.5209 25.8523 54.7788 27.0963 56.3582 27.0963H57.6162V29.7379C57.6162 30.4787 57.0711 31.0238 56.3303 31.0238C55.883 31.0238 55.5056 30.8002 55.296 30.4368C55.4078 30.5067 55.5476 30.5346 55.6734 30.5346C56.1066 30.5346 56.4701 30.1852 56.4701 29.7379C56.4701 29.3046 56.1066 28.9412 55.6734 28.9412C55.2401 28.9412 54.8906 29.3046 54.8906 29.7379C54.8906 30.6045 55.4917 31.2195 56.3582 31.2195C58.0075 31.2195 59.2096 30.0314 59.2096 28.4101V21.6172H60.5374ZM69.2595 25.5867C69.2595 26.2856 68.6864 26.8447 68.0016 26.8447C67.2049 26.8447 66.7297 26.3834 66.7297 25.5867C66.7297 23.7697 66.7297 24.6782 66.7297 22.8612C66.7297 22.1624 67.3027 21.6033 68.0016 21.6033C68.6864 21.6033 69.2595 22.1624 69.2595 22.8472V25.5867ZM72.1807 27.0543V26.8447H70.8389V21.3796H69.2595V21.6732C68.8681 21.4915 68.4349 21.3796 68.0016 21.3796C66.4222 21.3796 65.1502 22.6515 65.1502 24.217C65.1502 25.7824 66.4082 27.0543 68.0016 27.0543C68.4209 27.0543 68.8681 26.9425 69.2595 26.7608V27.0543H72.1807ZM80.9891 27.0543V26.8447H79.6473V22.8612C79.6473 21.9946 79.0323 21.3796 78.1657 21.3796C77.2293 21.3796 76.2229 22.0086 75.5241 22.6096V21.3796H72.6029V21.6033H73.9447V26.8447H72.6029V27.0543H75.5241C75.5241 24.5245 75.5241 25.3072 75.5241 22.9031C76.167 22.2881 77.1734 21.6452 78.0679 21.6033V26.8447H76.7261V27.0543H80.9891ZM85.516 26.8447C85.0967 26.8307 84.6774 26.8447 84.2581 26.8447C83.5592 26.8447 82.9862 26.2716 82.9862 25.5728V22.8193C82.9862 22.1763 83.6151 21.5474 84.2581 21.5474H85.516V26.8447ZM88.4372 27.0543V26.8447H87.0954V17.2005H84.1882V17.4101H85.516V21.3237H84.2581C82.6368 21.3237 81.4068 22.5677 81.4068 24.189C81.4068 25.7684 82.6787 27.0543 84.2581 27.0543H88.4372ZM20.0737 36.4788C20.493 36.4788 20.8704 36.1014 20.8704 35.6821C20.8704 34.8155 20.2554 34.1865 19.3889 34.1865H13.84V34.4101H15.1678V43.8447H13.84V44.0543H18.089V43.8447H16.7612V39.2322H19.4587V39.0226H16.7612V34.4101H19.3889C19.8781 34.4101 20.2554 34.5919 20.4651 34.9832C20.3533 34.9273 20.2135 34.8854 20.0737 34.8854C19.6404 34.8854 19.277 35.2348 19.277 35.6821C19.277 36.1154 19.6404 36.4788 20.0737 36.4788ZM21.5061 44.0543C22.9038 44.0543 24.3015 44.0543 25.6992 44.0543V43.7049H24.4273V34.2005C23.4489 34.2005 22.4845 34.1865 21.5061 34.1865V34.5359H22.778V43.7049H21.5061V44.0543ZM30.2288 42.5867C30.2288 43.2856 29.6558 43.8447 28.9709 43.8447C28.1742 43.8447 27.699 43.3834 27.699 42.5867C27.699 40.7697 27.699 41.6782 27.699 39.8612C27.699 39.1624 28.272 38.6033 28.9709 38.6033C29.6558 38.6033 30.2288 39.1624 30.2288 39.8472V42.5867ZM33.15 44.0543V43.8447H31.8082V38.3796H30.2288V38.6732C29.8375 38.4915 29.4042 38.3796 28.9709 38.3796C27.3915 38.3796 26.1196 39.6515 26.1196 41.217C26.1196 42.7824 27.3775 44.0543 28.9709 44.0543C29.3902 44.0543 29.8375 43.9425 30.2288 43.7608V44.0543H33.15ZM35.6687 44.0403C36.8987 44.0403 37.8492 43.1738 37.8492 41.9019C37.8492 40.4902 36.9826 39.8612 35.7107 39.7494C35.3613 39.7214 35.1376 39.5397 35.1376 39.1763C35.1376 38.8269 35.3613 38.6033 35.7107 38.6033C35.8644 38.6033 35.9902 38.6452 36.0881 38.7291C36.0741 38.7291 36.0601 38.7291 36.0461 38.7291C35.8085 38.7291 35.5989 38.9247 35.5989 39.1763C35.5989 39.4139 35.8085 39.6236 36.0461 39.6236C36.2837 39.6236 36.4934 39.4139 36.4934 39.1763C36.4934 38.7291 36.144 38.3796 35.7107 38.3796C35.2494 38.3796 34.928 38.7151 34.928 39.1763C34.928 39.6236 35.2494 39.959 35.7107 39.959C36.0322 39.959 36.2837 40.2106 36.2837 40.5321V43.2716C36.2837 43.5791 36.0182 43.8447 35.7107 43.8447C34.7742 43.8447 34.1452 43.3694 33.8937 42.5308C34.0195 42.6287 34.1872 42.6846 34.3549 42.6846C34.7882 42.6846 35.1376 42.3351 35.1376 41.9019C35.1376 41.4686 34.7882 41.1191 34.3549 41.1191C33.9216 41.1191 33.5722 41.4686 33.5722 41.9019C33.5722 43.1458 34.4108 44.0403 35.6687 44.0403ZM46.6538 44.0543V43.8447H45.312V39.8193C45.312 38.9527 44.6971 38.3237 43.8305 38.3237C42.894 38.3237 41.8737 38.9527 41.1888 39.5677V34.1865H38.2676V34.4101H39.6094V43.8447H38.2676V44.0543H41.1888V39.8612C41.8318 39.2462 42.8381 38.5893 43.7326 38.5474V43.8447H42.3908V44.0543H46.6538ZM55.0078 44.0543C56.9506 44.0543 58.544 42.4609 58.544 40.5041C58.544 38.5334 56.9506 36.954 55.0078 36.954C54.267 36.954 53.7358 36.4228 53.7358 35.6821C53.7358 34.9273 54.267 34.4101 55.0078 34.4101C55.455 34.4101 55.8743 34.6338 56.098 34.9972C55.9722 34.9273 55.8324 34.8854 55.6926 34.8854C55.2593 34.8854 54.8959 35.2348 54.8959 35.6821C54.8959 36.1154 55.2593 36.4788 55.6926 36.4788C56.1259 36.4788 56.4893 36.1154 56.4893 35.6821C56.4893 34.7596 55.9023 34.1865 55.0078 34.1865C54.1272 34.1865 53.5262 34.7875 53.5262 35.6821C53.5262 36.5626 54.1412 37.1497 55.0078 37.1636C56.1679 37.1776 56.9506 37.9324 56.9506 39.1204V41.8739C56.9506 42.9641 56.084 43.8447 55.0078 43.8447C53.1907 43.8447 52.0586 42.7964 51.7511 41.1052C51.8909 41.231 52.0726 41.3008 52.2683 41.3008C52.7015 41.3008 53.051 40.9374 53.051 40.5041C53.051 40.0569 52.7015 39.7075 52.2683 39.7075C51.835 39.7075 51.4716 40.0709 51.4716 40.5041C51.4716 42.5867 52.8413 44.0543 55.0078 44.0543ZM63.6427 42.5867C63.6427 43.2856 63.0697 43.8447 62.3848 43.8447C61.5881 43.8447 61.1129 43.3834 61.1129 42.5867C61.1129 40.7697 61.1129 41.6782 61.1129 39.8612C61.1129 39.1624 61.686 38.6033 62.3848 38.6033C63.0697 38.6033 63.6427 39.1624 63.6427 39.8472V42.5867ZM66.5639 44.0543V43.8447H65.2221V38.3796H63.6427V38.6732C63.2514 38.4915 62.8181 38.3796 62.3848 38.3796C60.8054 38.3796 59.5335 39.6515 59.5335 41.217C59.5335 42.7824 60.7914 44.0543 62.3848 44.0543C62.8041 44.0543 63.2514 43.9425 63.6427 43.7608V44.0543H66.5639ZM66.9861 44.0543C68.3838 44.0543 69.7815 44.0543 71.1792 44.0543V43.7049H69.9073V34.2005C68.9289 34.2005 67.9645 34.1865 66.9861 34.1865V34.5359H68.258V43.7049H66.9861V44.0543ZM75.6949 41.1191H73.179C73.179 40.7418 73.179 40.2106 73.179 39.8612C73.179 39.1344 73.6962 38.6033 74.437 38.6033C75.1638 38.6033 75.6949 39.1344 75.6949 39.8612V41.1191ZM77.2743 41.3288C77.2603 39.7494 76.0863 38.3936 74.437 38.3936C72.8855 38.3936 71.5996 39.6655 71.5996 41.217C71.5996 42.8383 72.8016 44.0543 74.437 44.0543C75.01 44.0543 75.9046 43.8167 75.9046 43.034C75.9046 42.7265 75.653 42.4749 75.3455 42.4749C75.038 42.4749 74.7864 42.7265 74.7864 43.034C74.7864 43.3415 75.038 43.6071 75.3455 43.6071L75.3594 43.5931C75.1079 43.7608 74.7305 43.8447 74.437 43.8447C73.7381 43.8447 73.179 43.2716 73.179 42.5867V41.3288H77.2743ZM80.1387 44.0403C81.3687 44.0403 82.3191 43.1738 82.3191 41.9019C82.3191 40.4902 81.4526 39.8612 80.1807 39.7494C79.8312 39.7214 79.6076 39.5397 79.6076 39.1763C79.6076 38.8269 79.8312 38.6033 80.1807 38.6033C80.3344 38.6033 80.4602 38.6452 80.558 38.7291C80.5441 38.7291 80.5301 38.7291 80.5161 38.7291C80.2785 38.7291 80.0688 38.9247 80.0688 39.1763C80.0688 39.4139 80.2785 39.6236 80.5161 39.6236C80.7537 39.6236 80.9634 39.4139 80.9634 39.1763C80.9634 38.7291 80.6139 38.3796 80.1807 38.3796C79.7194 38.3796 79.3979 38.7151 79.3979 39.1763C79.3979 39.6236 79.7194 39.959 80.1807 39.959C80.5021 39.959 80.7537 40.2106 80.7537 40.5321V43.2716C80.7537 43.5791 80.4882 43.8447 80.1807 43.8447C79.2442 43.8447 78.6152 43.3694 78.3636 42.5308C78.4894 42.6287 78.6572 42.6846 78.8249 42.6846C79.2582 42.6846 79.6076 42.3351 79.6076 41.9019C79.6076 41.4686 79.2582 41.1191 78.8249 41.1191C78.3916 41.1191 78.0422 41.4686 78.0422 41.9019C78.0422 43.1458 78.8808 44.0403 80.1387 44.0403ZM82.9892 44.7392C83.8837 44.7392 84.4288 44.1941 84.4288 43.3415C84.4288 42.9222 84.0934 42.5728 83.688 42.5728C83.2827 42.5728 82.9472 42.9222 82.9472 43.3415C82.9472 43.7608 83.2827 44.0823 83.688 44.0823C83.8138 44.0823 83.9396 44.0543 84.0514 43.9984C83.8558 44.3478 83.4923 44.5295 82.9892 44.5295V44.7392ZM12.4509 54.0518C12.4509 55.4355 12.4649 56.8193 12.4649 58.189C12.4649 59.6706 11.2769 60.8447 9.80928 60.8447C9.38997 60.8447 8.97066 60.8447 8.53737 60.8447V51.4101H9.82326C11.3747 51.4101 12.4509 52.4724 12.4509 54.0518ZM9.80928 61.0543C12.423 61.0543 14.0443 58.5105 14.0443 56.1204C14.0443 53.7443 12.423 51.1865 9.80928 51.1865H5.61616V51.4101H6.95796V60.8447H5.61616V61.0543H9.80928ZM19.1247 59.5867C19.1247 60.2716 18.5516 60.8447 17.8667 60.8447C17.1679 60.8447 16.6088 60.2716 16.6088 59.5867V56.8612C16.6088 56.1624 17.1679 55.6033 17.8667 55.6033C18.5516 55.6033 19.1247 56.1624 19.1247 56.8612V59.5867ZM17.8667 61.0543C19.4182 61.0543 20.7041 59.7684 20.7041 58.217C20.7041 56.6515 19.4322 55.3796 17.8667 55.3796C16.3013 55.3796 15.0294 56.6515 15.0294 58.217C15.0294 59.7405 16.3432 61.0543 17.8667 61.0543ZM26.5985 56.8612L25.3405 59.3491L23.4396 55.6033C23.7192 55.6033 23.244 55.6033 25.9695 55.6033L26.5985 56.8612ZM33.0139 55.6033V55.3796H30.1067V55.6033H31.3926L29.4917 59.3491L27.5908 55.6033H28.8627V55.3796H20.4346V55.6033H21.8183L24.6556 61.1661L26.7243 57.0988L28.7929 61.1661L31.6302 55.6033H33.0139ZM41.8151 61.0543V60.8447H40.4733V56.8612C40.4733 55.9946 39.8583 55.3796 38.9917 55.3796C38.0553 55.3796 37.0489 56.0086 36.3501 56.6096V55.3796H33.4289V55.6033H34.7707V60.8447H33.4289V61.0543H36.3501C36.3501 58.5245 36.3501 59.3072 36.3501 56.9031C36.993 56.2881 37.9994 55.6452 38.8939 55.6033V60.8447H37.5521V61.0543H41.8151ZM42.2328 61.0543C43.6305 61.0543 45.0282 61.0543 46.4259 61.0543V60.7049H45.154V51.2005C44.1756 51.2005 43.2112 51.1865 42.2328 51.1865V51.5359H43.5047V60.7049H42.2328V61.0543ZM50.9416 59.5867C50.9416 60.2716 50.3685 60.8447 49.6836 60.8447C48.9848 60.8447 48.4257 60.2716 48.4257 59.5867V56.8612C48.4257 56.1624 48.9848 55.6033 49.6836 55.6033C50.3685 55.6033 50.9416 56.1624 50.9416 56.8612V59.5867ZM49.6836 61.0543C51.2351 61.0543 52.521 59.7684 52.521 58.217C52.521 56.6515 51.2491 55.3796 49.6836 55.3796C48.1182 55.3796 46.8463 56.6515 46.8463 58.217C46.8463 59.7405 48.1601 61.0543 49.6836 61.0543ZM57.3981 59.5867C57.3981 60.2856 56.825 60.8447 56.1402 60.8447C55.3435 60.8447 54.8683 60.3834 54.8683 59.5867C54.8683 57.7697 54.8683 58.6782 54.8683 56.8612C54.8683 56.1624 55.4413 55.6033 56.1402 55.6033C56.825 55.6033 57.3981 56.1624 57.3981 56.8472V59.5867ZM60.3193 61.0543V60.8447H58.9775V55.3796H57.3981V55.6732C57.0068 55.4915 56.5735 55.3796 56.1402 55.3796C54.5608 55.3796 53.2889 56.6515 53.2889 58.217C53.2889 59.7824 54.5468 61.0543 56.1402 61.0543C56.5595 61.0543 57.0068 60.9425 57.3981 60.7608V61.0543H60.3193ZM64.8507 60.8447C64.4314 60.8307 64.0121 60.8447 63.5928 60.8447C62.8939 60.8447 62.3209 60.2716 62.3209 59.5728V56.8193C62.3209 56.1763 62.9498 55.5474 63.5928 55.5474H64.8507V60.8447ZM67.7719 61.0543V60.8447H66.4301V51.2005H63.5229V51.4101H64.8507V55.3237H63.5928C61.9715 55.3237 60.7415 56.5677 60.7415 58.189C60.7415 59.7684 62.0134 61.0543 63.5928 61.0543H67.7719ZM77.9753 55.5474V55.3237H75.2917V51.1865H72.3845V51.4101H73.7123V55.3237H72.3845V55.5474H73.7123V60.8447H72.3845V61.0543H76.6055V60.8447H75.2917V55.5474H77.9753ZM86.7765 61.0543V60.8447H85.4347V56.8193C85.4347 55.9527 84.8197 55.3237 83.9531 55.3237C83.0166 55.3237 81.9963 55.9527 81.3114 56.5677V51.1865H78.3902V51.4101H79.732V60.8447H78.3902V61.0543H81.3114V56.8612C81.9544 56.2462 82.9607 55.5893 83.8553 55.5474V60.8447H82.5135V61.0543H86.7765ZM91.2894 58.1191H88.7735C88.7735 57.7418 88.7735 57.2106 88.7735 56.8612C88.7735 56.1344 89.2907 55.6033 90.0315 55.6033C90.7583 55.6033 91.2894 56.1344 91.2894 56.8612V58.1191ZM92.8688 58.3288C92.8548 56.7494 91.6808 55.3936 90.0315 55.3936C88.48 55.3936 87.1941 56.6655 87.1941 58.217C87.1941 59.8383 88.3962 61.0543 90.0315 61.0543C90.6045 61.0543 91.4991 60.8167 91.4991 60.034C91.4991 59.7265 91.2475 59.4749 90.94 59.4749C90.6325 59.4749 90.3809 59.7265 90.3809 60.034C90.3809 60.3415 90.6325 60.6071 90.94 60.6071L90.954 60.5931C90.7024 60.7608 90.325 60.8447 90.0315 60.8447C89.3326 60.8447 88.7735 60.2716 88.7735 59.5867V58.3288H92.8688ZM6.84101 71.0518C6.84101 72.4355 6.85499 73.8193 6.85499 75.189C6.85499 76.6706 5.66694 77.8447 4.19934 77.8447C3.78003 77.8447 3.36072 77.8447 2.92743 77.8447V68.4101H4.21332C5.76477 68.4101 6.84101 69.4724 6.84101 71.0518ZM4.19934 78.0543C6.81305 78.0543 8.43439 75.5105 8.43439 73.1204C8.43439 70.7443 6.81305 68.1865 4.19934 68.1865H0.00622586V68.4101H1.34802V77.8447H0.00622586V78.0543H4.19934ZM13.5147 75.1191H10.9989C10.9989 74.7418 10.9989 74.2106 10.9989 73.8612C10.9989 73.1344 11.516 72.6033 12.2568 72.6033C12.9836 72.6033 13.5147 73.1344 13.5147 73.8612V75.1191ZM15.0941 75.3288C15.0802 73.7494 13.9061 72.3936 12.2568 72.3936C10.7053 72.3936 9.41945 73.6655 9.41945 75.217C9.41945 76.8383 10.6215 78.0543 12.2568 78.0543C12.8299 78.0543 13.7244 77.8167 13.7244 77.034C13.7244 76.7265 13.4728 76.4749 13.1653 76.4749C12.8578 76.4749 12.6062 76.7265 12.6062 77.034C12.6062 77.3415 12.8578 77.6071 13.1653 77.6071L13.1793 77.5931C12.9277 77.7608 12.5503 77.8447 12.2568 77.8447C11.5579 77.8447 10.9989 77.2716 10.9989 76.5867V75.3288H15.0941ZM19.9573 75.1191H17.4414C17.4414 74.7418 17.4414 74.2106 17.4414 73.8612C17.4414 73.1344 17.9586 72.6033 18.6993 72.6033C19.4261 72.6033 19.9573 73.1344 19.9573 73.8612V75.1191ZM21.5367 75.3288C21.5227 73.7494 20.3486 72.3936 18.6993 72.3936C17.1479 72.3936 15.862 73.6655 15.862 75.217C15.862 76.8383 17.064 78.0543 18.6993 78.0543C19.2724 78.0543 20.1669 77.8167 20.1669 77.034C20.1669 76.7265 19.9153 76.4749 19.6079 76.4749C19.3004 76.4749 19.0488 76.7265 19.0488 77.034C19.0488 77.3415 19.3004 77.6071 19.6079 77.6071L19.6218 77.5931C19.3702 77.7608 18.9929 77.8447 18.6993 77.8447C18.0005 77.8447 17.4414 77.2716 17.4414 76.5867V75.3288H21.5367ZM29.6534 72.6033V72.3796H26.7602V72.6033H28.0321L26.1452 76.3491L24.2583 72.6033H25.5302V72.3796H21.2672V72.6033H22.6509L25.4603 78.1661C26.4387 76.2373 27.3612 74.4203 28.2697 72.6033H29.6534ZM33.4979 76.5867C33.4979 77.2856 32.9248 77.8447 32.2399 77.8447C31.4433 77.8447 30.968 77.3834 30.968 76.5867C30.968 74.7697 30.968 75.6782 30.968 73.8612C30.968 73.1624 31.5411 72.6033 32.2399 72.6033C32.9248 72.6033 33.4979 73.1624 33.4979 73.8472V76.5867ZM36.4191 78.0543V77.8447H35.0773V72.3796H33.4979V72.6732C33.1065 72.4915 32.6732 72.3796 32.2399 72.3796C30.6605 72.3796 29.3886 73.6515 29.3886 75.217C29.3886 76.7824 30.6466 78.0543 32.2399 78.0543C32.6593 78.0543 33.1065 77.9425 33.4979 77.7608V78.0543H36.4191ZM45.1409 76.5867C45.1409 77.2856 44.5678 77.8447 43.8829 77.8447C43.0863 77.8447 42.611 77.3834 42.611 76.5867C42.611 74.7697 42.611 75.6782 42.611 73.8612C42.611 73.1624 43.1841 72.6033 43.8829 72.6033C44.5678 72.6033 45.1409 73.1624 45.1409 73.8472V76.5867ZM48.0621 78.0543V77.8447H46.7203V72.3796H45.1409V72.6732C44.7495 72.4915 44.3162 72.3796 43.8829 72.3796C42.3035 72.3796 41.0316 73.6515 41.0316 75.217C41.0316 76.7824 42.2896 78.0543 43.8829 78.0543C44.3023 78.0543 44.7495 77.9425 45.1409 77.7608V78.0543H48.0621ZM53.9213 76.6287C53.9213 77.4114 53.4321 77.9006 52.6494 77.9006H51.3915V72.6172H52.6494C53.3483 72.6172 53.9213 73.1903 53.9213 73.8892V76.6287ZM52.6494 78.0963C54.3266 78.0963 55.4867 76.8104 55.4867 75.175C55.4867 73.4978 54.2987 72.4076 52.6494 72.3936H48.4842V72.6172H49.8121V82.0098H48.4842V82.2195H51.3915V78.0963H52.6494ZM61.3603 76.6287C61.3603 77.4114 60.8711 77.9006 60.0884 77.9006H58.8304V72.6172H60.0884C60.7872 72.6172 61.3603 73.1903 61.3603 73.8892V76.6287ZM60.0884 78.0963C61.7656 78.0963 62.9257 76.8104 62.9257 75.175C62.9257 73.4978 61.7377 72.4076 60.0884 72.3936H55.9232V72.6172H57.251V82.0098H55.9232V82.2195H58.8304V78.0963H60.0884ZM77.5461 78.0543V77.8447H76.2044V68.4101H77.5461V68.1865H74.6529V68.4101H75.9947V77.5372L70.6555 68.1865C69.691 68.1865 68.7266 68.1865 67.7622 68.1865V68.4101H69.104V77.8447H67.7622V78.0543H70.6555V77.8447H69.3137V68.7037L74.5411 77.8447H73.2692V78.0543H77.5461ZM82.2671 76.5867C82.2671 77.2716 81.6941 77.8447 81.0092 77.8447C80.3103 77.8447 79.7512 77.2716 79.7512 76.5867V73.8612C79.7512 73.1624 80.3103 72.6033 81.0092 72.6033C81.6941 72.6033 82.2671 73.1624 82.2671 73.8612V76.5867ZM81.0092 78.0543C82.5606 78.0543 83.8465 76.7684 83.8465 75.217C83.8465 73.6515 82.5746 72.3796 81.0092 72.3796C79.4437 72.3796 78.1718 73.6515 78.1718 75.217C78.1718 76.7405 79.4857 78.0543 81.0092 78.0543ZM89.7409 73.8612L88.483 76.3491L86.5821 72.6033C86.8616 72.6033 86.3864 72.6033 89.1119 72.6033L89.7409 73.8612ZM96.1564 72.6033V72.3796H93.2492V72.6033H94.535L92.6342 76.3491L90.7333 72.6033H92.0052V72.3796H83.577V72.6033H84.9608L87.7981 78.1661L89.8667 74.0988L91.9353 78.1661L94.7727 72.6033H96.1564ZM97.5218 78.0543C97.9271 78.0543 98.2626 77.7189 98.2626 77.3135C98.2626 76.9082 97.9271 76.5728 97.5218 76.5728C97.1164 76.5728 96.781 76.9082 96.781 77.3135C96.781 77.7189 97.1164 78.0543 97.5218 78.0543Z" fill="black"/>
</svg>
