<svg width="169" height="116" viewBox="0 0 169 116" fill="none" xmlns="http://www.w3.org/2000/svg">
<g clip-path="url(#clip0)">
<path d="M158.629 113.297H112.171L112.171 6.69202H158.629V113.297Z" fill="#FEDD31"/>
<path d="M130.403 113.33H127.364L127.364 0.397995H130.403V113.33Z" fill="#C9B714"/>
<path d="M130.397 0.40094C130.397 0.688226 130.375 113.283 130.375 113.283H158.494V6.62786L130.397 0.40094Z" fill="#E8C929"/>
<path d="M155.275 15.9791L155.139 45.7922C155.023 45.7779 154.901 45.7707 154.786 45.7707C153.252 45.7707 151.963 47.0132 151.956 48.5861L136.352 46.6684C136.36 45.232 135.287 44.0254 133.861 43.8459L133.998 12.6394C134.199 12.6825 134.401 12.7041 134.595 12.7041C136.115 12.7041 137.418 11.4759 137.425 9.88867L153.029 13.1925C153.022 14.5355 153.958 15.699 155.275 15.9791ZM154.181 16.7476C153.108 16.2377 152.316 15.2537 152.042 14.0974L138.289 11.1815C137.8 12.5532 136.568 13.5731 135.085 13.7598L134.955 43.0056C136.129 43.4652 137.008 44.4707 137.324 45.6845L151.063 47.3723C151.502 46.0364 152.647 45.0094 154.058 44.7436L154.181 16.7476Z" fill="#FEDD31"/>
<path d="M155.225 70.2978L155.16 105.828C155.16 105.828 155.16 105.828 155.153 105.828C153.591 105.828 152.323 107.092 152.316 108.65L148.241 108.643C148.241 107.085 146.973 105.821 145.411 105.813V69.9387C145.497 69.9459 145.576 69.9459 145.656 69.9459C147.204 69.9459 148.485 68.689 148.485 67.1161L152.626 67.4752C152.633 68.9475 153.756 70.1757 155.225 70.2978ZM154.131 71.1668C152.928 70.7287 152.006 69.7232 151.675 68.4879L149.407 68.294C148.989 69.6227 147.881 70.6497 146.505 70.9514V104.887C147.794 105.26 148.809 106.28 149.184 107.559L151.387 107.566C151.762 106.28 152.784 105.268 154.073 104.894L154.131 71.1668Z" fill="#FEDD31"/>
<path d="M143.596 69.2994V105.806H143.589C142.026 105.806 140.752 107.07 140.752 108.636L137.418 108.629C137.404 107.078 136.144 105.828 134.588 105.821L134.307 69.005C134.394 69.0121 134.473 69.0121 134.552 69.0121C136.108 69.0121 137.397 67.7481 137.382 66.1608L140.997 66.4697C141.004 67.9492 142.127 69.1701 143.596 69.2994ZM142.502 70.1685C141.285 69.7375 140.363 68.7392 140.039 67.4895L138.311 67.3387C138.124 67.942 137.8 68.4878 137.346 68.9475C136.806 69.4862 136.136 69.8525 135.416 70.0176L135.683 104.894C136.964 105.268 137.98 106.273 138.361 107.552H139.823C140.198 106.266 141.22 105.246 142.509 104.88V70.1685H142.502Z" fill="#FEDD31"/>
<path d="M136.813 59.1223C136.181 59.1223 135.668 58.1287 135.668 56.903C135.668 55.6773 136.181 54.6837 136.813 54.6837C137.445 54.6837 137.958 55.6773 137.958 56.903C137.958 58.1287 137.445 59.1223 136.813 59.1223Z" fill="#F7CC7F"/>
<path d="M139.039 56.1201V57.8654H136.641C136.569 57.5781 136.533 57.2549 136.533 56.9173C136.533 56.6372 136.562 56.3715 136.612 56.1201H139.039Z" fill="#F47458"/>
<path d="M140.687 56.903C140.687 58.7488 139.917 60.2427 138.959 60.2427C138.001 60.2427 137.231 58.7488 137.231 56.903C137.231 55.0572 138.001 53.5633 138.959 53.5633C139.917 53.5633 140.687 55.0572 140.687 56.903Z" fill="#FAE0B2"/>
<path d="M139.427 60.2427C138.473 60.2427 137.699 58.7474 137.699 56.903C137.699 55.0585 138.473 53.5633 139.427 53.5633C140.382 53.5633 141.155 55.0585 141.155 56.903C141.155 58.7474 140.382 60.2427 139.427 60.2427Z" fill="#FAE0B2"/>
<path d="M20.575 108.011C20.575 108.011 20.5606 108.119 20.5606 108.299C20.5606 108.837 20.6686 110.022 21.5111 110.898C22.6343 112.062 22.6415 113.513 21.4534 113.764C20.2653 114.015 17.4355 113.685 17.4355 113.685C17.4355 113.685 16.7947 112.579 17.2339 109.613C17.6731 106.647 17.9252 103.4 17.9252 103.4L21.151 102.898L20.575 108.011Z" fill="#FF7446"/>
<path d="M21.2083 109.268C21.2083 109.268 22.4036 110.891 22.6844 111.566C22.9652 112.242 22.9076 113.922 22.6844 114.094C20.7475 115.617 17.0824 114.245 17.0824 114.245C17.0824 114.245 16.8303 113.125 16.7007 111.753C16.5711 110.381 16.6431 109.103 17.0824 109.103C17.5216 109.103 17.5936 109.821 18.5873 109.62C19.5738 109.426 20.1858 109.067 21.2083 109.268Z" fill="#001653"/>
<path d="M16.7725 112.443C17.5213 112.73 18.5294 113.075 19.4727 113.204C20.4808 113.348 21.8345 112.902 22.8498 112.45C22.9002 113.168 22.8282 113.972 22.6769 114.087C20.74 115.61 17.0749 114.238 17.0749 114.238C17.0749 114.238 16.9021 113.484 16.7725 112.443Z" fill="white"/>
<path d="M16.7728 112.443C19.5522 113.276 20.0635 113.419 22.8501 112.457C22.3821 112.708 21.8996 112.909 21.3884 113.075C20.3155 113.405 19.6819 113.376 19.0122 113.225C18.2201 113.046 17.4641 112.773 16.7728 112.443Z" fill="#957447"/>
<path d="M52.8477 57.5997C52.0556 57.8941 50.9971 58.3394 50.9971 58.3394C50.8603 58.009 53.4813 57.456 53.8486 56.6588C54.043 56.235 50.8387 57.8008 50.6155 57.614C50.5219 57.535 54.2374 56.3284 54.0718 56.0411C53.9278 55.7969 50.1619 57.1185 50.1403 56.9389C50.1115 56.6875 53.4021 56.0268 53.1069 55.6605C52.9557 55.4737 48.9666 56.5511 48.5345 56.6157C48.0089 56.6157 49.917 55.3229 49.2618 55.1505C48.3833 54.9135 46.1655 57.4488 45.9927 57.4847C45.4887 57.5853 41.2188 58.1096 39.1306 56.745C37.4457 55.6461 35.8039 53.9511 35.4007 52.4931C35.0047 51.0639 34.4646 49.0242 34.9255 47.4441C33.0245 47.1568 31.1812 47.0922 29.2514 47.322C29.1362 49.6849 31.9732 59.0648 33.1613 59.8333C35.7751 61.5283 40.4339 61.1117 43.7174 60.846C46.3672 60.6305 48.9594 60.1062 51.3428 58.8996C51.8756 58.6267 52.5885 58.3251 53.0061 57.8582C53.1285 57.7289 52.9989 57.5422 52.8477 57.5997Z" fill="#F25C12"/>
<path d="M33.752 39.4935C35.1705 40.9515 36.5962 49.685 36.0706 51.7678C35.1633 53.4556 31.0518 53.7501 29.7197 54.5545C26.6522 53.2976 28.7548 47.6524 28.7548 47.6524L27.6387 36.6638C27.6387 36.6638 31.059 36.714 33.752 39.4935Z" fill="#E6A500"/>
<path d="M29.8849 106.058C29.4673 107.372 29.8777 108.816 30.9506 109.685C31.3178 109.986 31.7499 110.266 32.2395 110.475C34.1188 111.293 36.5526 111.107 36.8911 112.795C37.2295 114.475 24.9741 112.32 24.9741 112.32C24.9741 112.32 25.8238 108.227 25.8814 107.544C25.939 106.862 25.8094 104.341 25.8094 104.341L30.5402 104.004L29.8849 106.058Z" fill="#FF7446"/>
<path d="M25.4707 109.426C25.4707 109.426 25.3195 110.08 24.9811 111.179C24.6354 112.277 24.8514 113.319 24.8514 113.319C24.8514 113.319 36.3291 113.865 36.7972 113.498C37.2652 113.139 37.0204 111.818 36.9052 111.696C36.79 111.581 35.3283 111.186 34.5866 110.726C33.8377 110.266 31.2887 108.528 30.4247 108.6C29.5606 108.672 29.1646 109.304 27.5301 109.376C25.8883 109.448 25.8811 109.11 25.4707 109.426Z" fill="#001653"/>
<path d="M36.7974 113.498C36.3293 113.857 24.8517 113.319 24.8517 113.319C24.8517 113.319 24.7077 112.636 24.8373 111.796C30.8281 112.902 36.8982 111.703 36.8982 111.703C37.0206 111.818 37.2582 113.132 36.7974 113.498Z" fill="white"/>
<path d="M24.8375 111.789C28.9274 112.608 33.4638 112.428 36.8984 111.696C30.6484 112.637 25.608 111.911 25.9608 111.94C25.9536 111.94 24.7655 111.782 24.8375 111.789Z" fill="#957447"/>
<path d="M15.9736 66.3834C14.0007 73.5656 16.4488 105.792 16.4488 105.792L22.3461 105.39C22.3461 105.39 23.6854 73.3357 24.6575 72.3662C24.9455 72.0789 25.2479 72.1722 25.4856 72.3302C25.7232 72.4954 25.8888 72.7396 25.9752 73.0126C26.58 74.9876 30.0507 86.5078 29.3523 89.0287C28.589 91.7867 25.1687 106.582 25.1687 106.582L30.1155 106.776C30.1155 106.776 36.8984 95.4783 36.8984 87.5923C36.8984 79.7063 35.7967 69.2491 32.5925 64.9973C31.1308 63.0581 23.9518 61.5642 23.9518 61.5642C23.9518 61.5642 16.5929 64.1354 15.9736 66.3834Z" fill="#021F6E"/>
<path d="M26.6306 106.56C26.6306 106.56 30.0437 90.7884 30.8141 87.8438C31.3686 85.7035 29.2876 77.5087 28.1139 73.1778C27.7611 71.8779 26.1913 71.3536 25.1257 72.1795C25.1257 72.1795 30.1229 86.2637 29.3524 89.0216C28.5819 91.7796 25.1689 106.575 25.1689 106.575L30.1157 106.769C30.1157 106.769 30.1301 106.747 30.1517 106.711L26.6306 106.56Z" fill="#021753"/>
<path d="M17.1983 64.8896C16.5647 65.3852 16.111 65.8879 15.9742 66.3835C14.0013 73.5656 16.4494 105.792 16.4494 105.792L17.9111 105.691C17.8319 104.528 15.715 74.1905 17.1983 64.8896Z" fill="#021753"/>
<path d="M33.7227 66.9149C33.377 66.1823 33.0026 65.5359 32.5922 64.9901C32.4193 64.7674 32.1745 64.5448 31.8721 64.3365C31.0512 64.7531 29.9208 65.2127 28.351 65.6939C23.6275 67.1447 18.5295 66.369 16.4125 65.6365C16.1965 65.8878 16.0453 66.1464 15.9805 66.3906C15.8077 67.0154 15.6709 67.827 15.5628 68.7894C16.6213 69.5723 22.7634 71.4683 28.3582 69.6944C31.9009 68.5596 33.2186 67.8773 33.7227 66.9149Z" fill="#021753"/>
<path d="M16.4557 108.227C17.9678 108.715 21.6041 108.593 22.4681 108.227C23.2674 107.889 23.325 104.916 22.4681 104.758C21.2656 104.528 17.8598 104.557 16.4557 104.758C15.5916 104.88 15.6276 107.961 16.4557 108.227Z" fill="#5D70A2"/>
<path d="M25.4205 106.905C26.9326 107.394 30.5689 107.271 31.433 106.905C32.2322 106.568 32.2898 103.594 31.433 103.436C30.2305 103.206 26.8246 103.235 25.4205 103.436C24.5564 103.551 24.5924 106.632 25.4205 106.905Z" fill="#5D70A2"/>
<path d="M23.1667 36.4195C23.1667 36.4195 18.2487 36.1681 16.2398 38.5454C14.2308 40.9227 14.3964 65.8735 15.2101 66.5702C16.0238 67.2668 23.0155 69.3712 28.5599 67.7337C34.1115 66.0962 34.4644 63.8481 34.4644 63.8481C34.4644 63.8481 32.9882 47.0635 32.9882 42.4813C32.9882 37.899 28.4951 35.1842 23.1667 36.4195Z" fill="#FCC332"/>
<path d="M18.8324 61.6936C18.4004 60.487 18.8612 56.6589 19.3581 53.8794C19.7469 53.9512 20.1141 54.0446 20.4669 54.1451C21.0646 52.3137 21.583 47.5519 21.6046 44.5569C21.6406 38.9405 18.7892 37.3102 18.7892 37.3102C18.2276 37.1809 17.3203 37.7124 15.909 39.1775C14.2744 43.6305 14.6201 64.3366 15.3833 64.9902C15.7074 65.2703 16.3482 67.0227 17.99 67.3675C18.4148 65.7012 19.2285 62.8068 18.8324 61.6936Z" fill="#E6A500"/>
<path d="M22.7419 36.4698C21.6762 37.4466 21.5898 37.4681 22.6987 38.7466C23.8076 40.0322 27.4727 41.4901 27.9984 41.2388C29.2945 40.6283 28.092 38.5885 27.2207 37.1162C26.9543 36.6637 23.8076 35.493 22.7419 36.4698Z" fill="#E6A500"/>
<path d="M27.5087 32.771C27.5087 32.771 27.7967 39.5222 27.5087 39.8239C27.2207 40.1184 23.1092 38.6891 22.7492 37.8488C22.3891 37.0085 24.2469 24.7988 24.2469 24.7988L27.5087 32.771Z" fill="#F25C12"/>
<path opacity="0.6" d="M27.6313 37.224C26.9041 37.0947 26.2777 36.9079 26.0905 36.6997C24.4127 34.8108 25.6728 31.7368 25.536 30.9396C25.2768 29.3523 24.7368 28.038 25.0032 26.6662L27.5017 32.7638C27.5089 32.771 27.6097 35.213 27.6313 37.224Z" fill="#B5450E"/>
<path d="M49.5788 40.4415C49.8597 41.1454 49.2764 41.8277 48.6643 41.526C48.5203 41.4542 48.4123 41.3249 48.3547 41.1813C48.0739 40.4774 48.6571 39.7951 49.2692 40.0968C49.406 40.1686 49.514 40.2979 49.5788 40.4415Z" fill="#00424C"/>
<path d="M49.1969 40.7863L48.9881 41.0807L48.8585 40.7288C48.6929 40.2763 47.296 36.2615 48.8369 35.3422C49.2905 35.0693 49.7226 35.1555 50.0178 35.5792C50.6946 36.5488 50.4858 38.9764 49.1969 40.7863ZM49.7154 35.8665C49.5713 35.6654 49.3985 35.6008 49.1825 35.6726C49.1321 35.6869 49.0817 35.7157 49.0241 35.7444C48.088 36.2974 48.6785 38.8614 49.1033 40.1758C50.133 38.5095 50.1762 36.5272 49.7154 35.8665Z" fill="#00424C"/>
<path d="M49.0024 40.5636L48.6784 40.6354C48.3832 40.7001 48.0952 40.7288 47.8072 40.7288C46.3743 40.7288 45.1214 39.989 44.819 39.1344C44.6605 38.6819 44.783 38.251 45.1718 37.9493C46.4535 36.951 48.556 39.9244 48.7936 40.262L49.0024 40.5636ZM48.268 40.2404C47.6704 39.4432 46.5543 38.2007 45.7766 38.2007C45.6398 38.2007 45.5102 38.2366 45.4022 38.33C45.1718 38.5095 45.107 38.7106 45.1934 38.962C45.431 39.6371 46.7415 40.42 48.268 40.2404Z" fill="#00424C"/>
<path d="M59.256 58.3179H39.9153C38.8569 58.3179 38 57.4632 38 56.4075V42.7829C38 41.7272 38.8569 40.8725 39.9153 40.8725H59.256C60.3145 40.8725 61.1714 41.7272 61.1714 42.7829V56.4075C61.1714 57.4632 60.3145 58.3179 59.256 58.3179Z" fill="#FCC332"/>
<path d="M59.6594 40.8725H52.4156V58.3179H59.6594C60.4947 58.3179 61.1787 57.2334 61.1787 55.8975V43.2929C61.1715 41.957 60.4947 40.8725 59.6594 40.8725Z" fill="#F29913"/>
<path d="M45.8989 40.8725H45.3301C42.2411 46.4387 44.1348 56.192 44.5956 58.3179H45.0421C44.7252 56.8887 42.5147 46.2807 45.8701 40.9228C45.8773 40.9084 45.8917 40.894 45.8989 40.8725Z" fill="#00424C"/>
<path d="M56.585 58.2533C56.585 58.2748 56.5778 58.2964 56.5778 58.3179H57.0026C58.2483 48.3778 56.873 43.1205 55.9441 40.8725H55.4185C56.2681 42.7542 57.8955 47.9325 56.585 58.2533Z" fill="#00424C"/>
<path d="M22.1877 77.1782H7.75059C7.47697 77.1782 7.25374 76.9556 7.25374 76.6826V67.3386C7.25374 67.0657 7.47697 66.8431 7.75059 66.8431H22.1877C22.4614 66.8431 22.6846 67.0657 22.6846 67.3386V76.6898C22.6774 76.9627 22.4614 77.1782 22.1877 77.1782Z" fill="#50BFA5"/>
<path d="M22.09 75.9896H9.021L9.021 68.0318H22.09V75.9896Z" fill="white"/>
<path d="M22.7348 74.2838H21.9139C21.7627 74.2838 21.6331 74.1617 21.6331 74.0037V70.0104C21.6331 69.8596 21.7555 69.7303 21.9139 69.7303H22.7348C22.886 69.7303 23.0156 69.8524 23.0156 70.0104V74.0037C23.0084 74.1617 22.886 74.2838 22.7348 74.2838Z" fill="#F29913"/>
<path d="M17.6441 61.6935C18.6162 64.6454 15.1887 71.0303 16.5856 73.0772C17.9753 75.1241 17.2768 77.2644 15.5919 78.3274C13.907 79.3903 11.8116 77.9036 11.9772 77.092C12.1428 76.2804 12.6036 74.1042 12.8125 73.1059C13.0213 72.1076 9.09695 64.1211 11.862 59.2803C13.4965 56.4074 11.0771 51.4589 12.3588 48.2629C13.5037 50.3888 18.9258 49.0601 18.6162 51.3943C18.1121 53.3909 17.0968 60.0344 17.6441 61.6935Z" fill="#F25C12"/>
<path d="M29.9208 25.7684C29.9208 25.7684 30.6265 28.196 30.6265 30.1783C30.6265 32.1677 30.5761 35.608 29.1648 35.608C27.7535 35.608 25.7301 35.2201 25.2621 32.4047C24.7941 29.5893 25.2621 26.4867 26.6734 25.7613C28.0919 25.043 29.9208 25.7684 29.9208 25.7684Z" fill="#FF7446"/>
<path d="M29.3738 27.5568C28.9921 27.3988 28.6033 27.7363 28.6753 28.1529C28.7905 28.8208 28.7617 29.5462 28.1425 29.6971C26.94 29.9915 26.3783 29.6971 26.1767 29.8982C25.9823 30.0993 26.7455 31.1766 26.1767 31.3849C25.6079 31.586 25.3054 29.654 24.8014 29.654C24.2973 29.654 24.1893 32.4406 24.8014 33.0727C25.4134 33.7047 24.715 34.5594 23.9085 34.5594C23.1021 34.5594 24.0093 35.5721 22.922 35.9096C21.8348 36.2472 20.9635 36.2472 20.6106 34.8754C20.2578 33.5036 20.6106 32.7423 20.6106 32.7423C20.6106 32.7423 19.5018 31.4495 19.7826 30.1639C19.941 29.4529 20.661 28.1745 20.661 28.1745C20.661 28.1745 21.2227 26.6518 21.3739 25.7756C21.5251 24.8994 23.6925 24.0232 25.1686 23.8652C26.6519 23.7072 25.9103 22.8094 27.1488 22.8094C28.3873 22.8094 28.5601 24.4469 28.5601 24.4469C28.5601 24.4469 30.3386 23.3911 30.4178 23.4414C31.4475 24.0663 30.5907 25.1723 30.5907 25.1723C30.5907 25.1723 31.4403 25.2657 31.6131 26.3646C31.7859 27.4634 31.0659 28.1385 29.9354 27.7794C29.7338 27.7004 29.5394 27.6286 29.3738 27.5568Z" fill="#100062"/>
<path d="M30.6051 23.5563C30.3891 23.5851 30.1011 23.6569 29.7554 23.7574C29.2226 24.0519 28.5745 24.4397 28.5745 24.4397C28.5745 24.4397 26.2559 25.0861 24.931 25.7182C23.2317 26.5297 21.7412 27.3413 20.7331 27.9805C20.6899 28.0955 20.6683 28.1673 20.6683 28.1673C20.6683 28.1673 20.4019 28.6413 20.1571 29.1656C21.2083 28.9358 23.2677 28.1457 25.5647 27.054C28.1569 25.8187 30.7491 23.6784 30.6051 23.5563Z" fill="#0C004A"/>
<path d="M25.5868 29.5031C25.5868 29.5031 24.9891 28.4042 24.4563 29.0147C23.9235 29.6324 24.2043 32.2251 25.0251 32.2251C25.8388 32.2323 25.882 30.1998 25.5868 29.5031Z" fill="#FF7446"/>
<path d="M18.9331 37.3676C18.9331 37.3676 20.6036 38.6388 20.5748 44.2481C20.5604 47.243 19.6748 52.3136 19.1347 54.1451C16.8809 53.434 13.7055 53.3909 11.4085 54.1451C11.0988 51.6959 11.7253 46.4673 12.1141 44.7795C13.079 40.6283 16.5425 36.4195 18.9331 37.3676Z" fill="#FCC332"/>
<path d="M29.0572 23.8507C27.9483 21.5237 25.1328 20.5469 22.7782 21.6602C20.4237 22.7806 19.4156 25.5744 20.5245 27.9015C20.5677 27.9876 20.6109 28.081 20.6613 28.16L29.1724 24.1165C29.1364 24.0303 29.1004 23.9369 29.0572 23.8507Z" fill="#FCB500"/>
<path d="M27.2858 24.9066C27.2498 24.8132 27.2138 24.727 27.1706 24.6337C26.2417 22.6873 24.1248 21.689 22.0798 22.0624C22.2958 21.9116 22.5262 21.7752 22.7783 21.6602C25.1328 20.5398 27.9483 21.5166 29.0572 23.8508C29.1004 23.937 29.1364 24.0303 29.1724 24.1237L20.6613 28.1673C20.6469 28.1385 27.2858 24.9066 27.2858 24.9066Z" fill="#FCC332"/>
<path d="M32.9738 22.4287C32.8802 22.242 28.4519 24.0447 25.6149 25.3877C22.785 26.738 20.5601 27.9805 20.6465 28.1672C20.7401 28.354 25.4348 27.2551 28.2719 25.912C31.1089 24.5618 33.0674 22.6154 32.9738 22.4287Z" fill="#FC9700"/>
<g clip-path="url(#clip1)">
<path d="M74.6511 35.9814C75.688 37.1162 75.4575 37.2527 75.5944 37.3963C75.7528 37.5615 78.7554 38.2007 78.7554 38.2007C78.7554 38.2007 87.5833 40.1399 88.0657 40.2261L97.2249 38.1504L99.457 42.5746C99.457 42.5746 89.441 44.5569 88.901 44.5712C88.361 44.5784 76.7392 40.5062 75.7024 40.183C75.7024 40.183 74.3271 40.2692 73.463 40.2979C72.5989 40.3266 71.7709 39.946 71.526 39.9172C71.49 39.91 70.6836 39.7592 69.7403 39.2924C68.9266 38.8902 69.8771 38.883 69.8771 38.883C69.8771 38.883 71.5116 39.3427 71.526 39.2062C71.5404 39.0985 70.626 38.8974 69.7259 38.4664C69.4955 38.3515 69.2651 38.2438 69.0562 38.1361C68.509 37.8631 68.5162 37.4322 69.1354 37.6189C69.3515 37.6836 69.7187 37.8057 69.9635 37.9278C70.2299 38.0642 70.5108 38.093 70.7556 38.172C71.2308 38.3228 71.5764 38.4449 71.5692 38.4162C71.562 38.3874 71.6772 38.3443 71.4396 38.2222C71.1444 38.0714 70.4531 37.8919 70.0427 37.6333C69.8123 37.4897 69.3011 37.2096 69.3011 37.2096C69.3011 37.2096 68.4586 36.6565 68.5378 36.5416C68.7178 36.2902 69.3083 36.5416 69.6035 36.7858C69.8699 36.8433 70.3955 37.1449 70.3955 37.1449C70.3955 37.1449 71.5908 37.5112 71.6484 37.3388C71.67 37.267 71.0508 36.9079 70.4315 36.4842C69.7763 36.0317 69.3299 35.6726 69.3947 35.5289C69.4955 35.2991 70.0427 35.6223 70.0427 35.6223C70.0427 35.6223 70.5252 35.9024 70.698 35.9886C70.8924 36.082 71.5044 36.319 71.5044 36.319C71.5044 36.319 73.6718 37.0444 73.7078 36.872C73.7438 36.6996 73.6718 36.2256 73.5566 36.1322C73.4414 36.0389 73.1318 35.9886 73.0166 35.8952C72.8941 35.8019 72.6637 35.5792 72.7645 35.414C72.8653 35.2488 73.7654 35.4715 73.7654 35.4715C73.7654 35.4715 74.3559 35.651 74.6511 35.9814Z" fill="#F8A492"/>
<path d="M68.0455 52.7826C69.4065 53.6085 69.3273 53.7091 69.5073 53.8097C69.7161 53.9317 72.9635 53.7881 72.9635 53.7881C72.9635 53.7881 82.5259 53.429 83.0371 53.3931L91.8506 49.1269L95.3213 52.7898C95.3213 52.7898 85.6005 57.1853 85.0533 57.3217C84.506 57.4654 71.509 56.4886 70.3569 56.4383C70.3569 56.4383 68.9744 56.8692 68.096 57.1063C67.2175 57.3504 66.267 57.1996 66.0078 57.2284C65.9718 57.2355 65.1005 57.2858 64.0132 57.0775C63.07 56.898 64.042 56.6538 64.042 56.6538C64.042 56.6538 65.8422 56.6825 65.8206 56.546C65.799 56.4383 64.8197 56.4814 63.7756 56.2875C63.5092 56.2372 63.2428 56.1869 62.998 56.1438C62.3643 56.0218 62.2563 55.6052 62.9404 55.6339C63.1852 55.6411 63.5812 55.6698 63.8692 55.7273C64.1788 55.7919 64.4813 55.7488 64.7477 55.7632C65.2733 55.7919 65.6334 55.8135 65.619 55.7919C65.6046 55.7632 65.7414 55.6986 65.4606 55.6411C65.1221 55.5693 64.3661 55.5693 63.8764 55.4256C63.5956 55.3466 63.0052 55.2102 63.0052 55.2102C63.0052 55.2102 62.2995 54.7936 62.3067 54.7361C62.3355 54.4345 62.8323 54.5781 63.1996 54.7361C63.4804 54.7218 64.1068 54.8798 64.1068 54.8798C64.1068 54.8798 65.4317 54.9301 65.4389 54.7505C65.4389 54.6787 64.6757 54.6284 63.8908 54.377C62.9908 54.0898 62.7603 53.6876 62.7891 53.5295C62.8251 53.2854 63.3364 53.5152 63.3364 53.5152C63.3364 53.5152 64.0348 53.8312 64.2293 53.8671C64.4597 53.9102 67.4335 53.9605 67.4263 53.7881C67.4191 53.6157 67.1311 53.3859 66.9871 53.3284C66.8431 53.271 66.5622 53.1848 66.411 53.1273C66.267 53.0699 66.1662 52.7682 66.2238 52.5887C66.2814 52.4091 66.9295 52.5025 66.9295 52.5025C66.9295 52.5025 67.6495 52.5456 68.0455 52.7826Z" fill="#F8A492"/>
<path d="M108.647 106.052C109.64 107.192 109.502 109.562 109.709 109.709C110.141 110.014 110.997 107.812 110.997 107.812L109.787 103.545C109.787 103.545 107.349 101.185 104.566 98.2452C103.731 99.0317 102.954 99.8675 102.285 100.792C105.028 102.797 107.447 104.675 108.647 106.052Z" fill="#FFA283"/>
<path d="M109.797 103.545C109.797 103.545 109.945 103.181 110.721 103.486C111.498 103.79 113.553 107.114 113.553 107.114L113.042 107.664C113.042 107.664 111.39 105.324 111.272 105.442C111.154 105.57 112.609 108.175 112.393 108.559C112.177 108.942 110.358 111.037 109.748 111.046C109.138 111.046 109.6 109.326 109.6 109.326C109.6 109.326 110.711 108.461 110.711 108.205C110.711 107.949 109.797 103.545 109.797 103.545Z" fill="#C91414"/>
<path d="M95.9432 110.093C95.8154 111.597 94.0062 113.141 94.0456 113.396C94.1242 113.917 96.307 113.013 96.307 113.013L98.5488 109.188C98.5488 109.188 98.5685 105.796 98.7553 101.755C97.6147 101.696 96.4643 101.716 95.3336 101.873C95.7761 105.236 96.1005 108.274 95.9432 110.093Z" fill="#FFA283"/>
<path d="M98.5489 109.188C98.5489 109.188 98.9225 109.041 99.2371 109.817C99.5518 110.584 98.5784 114.38 98.5784 114.38L97.8311 114.389C97.8311 114.389 98.3817 111.577 98.2047 111.577C98.0278 111.577 97.1625 114.429 96.7397 114.547C96.3169 114.655 93.5442 114.802 93.1214 114.36C92.6986 113.927 94.2619 113.062 94.2619 113.062C94.2619 113.062 95.6483 113.269 95.8351 113.092C96.0023 112.905 98.5489 109.188 98.5489 109.188Z" fill="#C91414"/>
<path d="M97.6738 36.4409C97.6738 36.4409 96.4251 36.1656 94.9502 36.4409C93.4753 36.7162 87.7094 40.5052 87.09 39.8858C86.4705 39.2664 82.0493 38.6256 82.0493 38.6256L80.3691 42.8262C80.3691 42.8262 82.3994 43.9924 84.1496 44.9264C85.8998 45.8604 91.1462 45.2465 93.8108 44.0863C96.4754 42.936 97.6738 36.4409 97.6738 36.4409Z" fill="#F2E900"/>
<path d="M93.1314 40.2557C88.8444 44.1 88.8936 43.8346 88.8936 45.3094C88.8936 45.506 89.1901 45.3465 89.1901 45.3465C90.3209 45.2186 91.1255 45.742 92.1088 45.3094C94.0851 44.454 96.1991 39.9706 97.1528 37.7289C95.7959 38.309 94.3899 39.1152 93.1314 40.2557Z" fill="#DBCF60"/>
<path d="M95.8057 62.4172L91.0567 60.0083L91.214 62.0239C91.214 62.0239 86.8484 81.629 87.9004 84.5884C90.3585 91.5102 104.596 103.171 104.596 103.171L107.398 100.605C107.398 100.605 96.4252 85.5126 96.4252 82.6318C96.4252 79.751 100.004 63.42 100.004 63.42L95.8057 62.4172Z" fill="black"/>
<path opacity="0.51" d="M96.4248 82.6417C96.4248 79.7609 100.004 63.4298 100.004 63.4298L95.8053 62.4172L91.0563 60.0083L91.2136 62.0239C91.2136 62.0239 90.5548 64.9735 89.8174 68.749C92.2755 70.3909 92.4132 83.0743 93.8487 93.0636L98.1848 86.7416C97.1327 84.8932 96.4248 83.3791 96.4248 82.6417Z" fill="black"/>
<path d="M91.0562 60.0083C91.0562 60.0083 91.3216 63.3217 91.3216 63.7838C91.3216 64.2459 95.4906 100.841 94.173 106.75H99.1482C99.1482 106.75 104.595 73.2226 104.595 67.697C104.595 62.1714 101.95 58.5139 101.95 58.5139L91.0562 60.0083Z" fill="#282828"/>
<path d="M101.95 58.5335L91.0562 60.0083C91.0562 60.0083 91.3216 63.3217 91.3216 63.7838C91.3216 63.833 91.3708 64.3148 91.4593 65.1505C93.5634 64.3934 96.169 63.4004 97.6734 62.6236C100.456 61.1783 101.262 59.6249 102.58 59.5757C102.216 58.8973 101.95 58.5335 101.95 58.5335Z" fill="#F7604B"/>
<path d="M95.8845 31.0726C95.8845 31.0726 97.5167 35.2709 96.9759 37.9944C96.4351 40.7179 95.4224 43.0481 95.4224 43.0481L102.649 37.5225L101.568 29.5093L95.8845 31.0726Z" fill="#FF7446"/>
<path opacity="0.68" d="M101.685 30.4237L101.567 29.5191L95.8843 31.0726C95.8843 31.0726 96.2972 32.1443 96.6414 33.5502C97.487 33.3831 98.4505 33.0881 99.5419 32.6457C100.555 32.2426 101.272 31.4167 101.685 30.4237Z" fill="#FF4900"/>
<path d="M103.583 36.2836C103.583 36.2836 98.2538 36.4016 94.3995 40.2459C90.5452 44.0903 90.5845 43.8248 90.5845 45.2996C90.5845 46.7744 90.1224 52.9981 90.1224 56.6556C90.1224 60.3131 89.6603 62.3385 90.1224 62.4073C93.4752 62.9481 98.9519 58.445 102.295 58.9858C102.295 58.9858 105.294 54.3549 104.783 52.5655C104.281 50.776 105.097 49.5667 105.441 46.3418C105.805 43.1267 106.621 36.2836 103.583 36.2836Z" fill="#F2E900"/>
<path d="M103.2 37.3553C103.2 37.3553 102.629 43.048 100.329 45.9288C98.0277 48.8194 90.4568 52.5163 90.1323 52.3688C90.0045 54.6498 89.63 53.3531 89.6104 55.4277C90.9279 56.2831 92.5059 56.6163 93.3908 56.3115C95.023 55.751 103.377 47.8067 104.596 44.867C105.815 41.9272 106.228 37.3553 103.2 37.3553Z" fill="#DBCF60"/>
<path d="M103.2 37.3553C103.2 37.3553 100.172 37.2864 97.8708 39.9804C95.57 42.6744 91.7627 47.8668 91.2908 47.8668C90.8287 47.8668 89.1905 49.547 89.1905 49.547C89.1905 49.547 88.1367 48.1509 88.1367 51.6511C88.1367 55.1513 91.3388 55.5386 92.971 55.0076C94.6032 54.4865 103.367 47.0988 104.586 44.3557C105.815 41.6125 106.228 37.3553 103.2 37.3553Z" fill="#FEFA92"/>
<path d="M98.9123 23.0595C98.9123 23.0595 97.0834 23.0988 96.0314 24.1509C94.9793 25.2029 92.3344 31.0333 93.2291 31.928C94.1239 32.8227 96.4148 33.0194 100.072 31.5347C103.74 30.0599 103.583 23.0595 98.9123 23.0595Z" fill="#FFA283"/>
<path d="M97.0541 23.0595C97.0541 23.0595 98.2635 23.8363 97.8505 26.4024C97.4375 28.9686 99.3844 30.2172 100.082 31.5347C100.781 32.8522 100.476 35.1923 103.74 35.1923C107.004 35.1923 107.24 32.0853 107.24 29.824C107.24 27.5724 105.51 24.0427 103.583 22.5089C101.489 20.8473 96.1888 20.1591 97.0541 23.0595Z" fill="#C91414"/>
<path d="M104.625 23.5511C105.884 25.2815 106.818 27.6117 106.818 29.2537C106.818 31.5052 106.582 34.622 103.278 34.622C102.167 34.622 101.469 34.3565 100.997 33.9632C101.42 34.6613 102.167 35.2021 103.731 35.2021C106.995 35.2021 107.231 32.0951 107.231 29.8338C107.241 27.9952 106.09 25.311 104.625 23.5511Z" fill="#910D0D"/>
<path d="M106.228 27.4544C106.228 27.4544 106.11 29.4012 107.241 30.0599C108.372 30.7187 109.03 30.7187 109.384 30.0599C109.738 29.4012 111.135 30.0206 110.899 28.5458C110.663 27.071 110.741 26.0583 109.611 25.7043C108.48 25.3504 108.018 25.7043 106.887 25.7043C105.766 25.7043 106.228 27.4544 106.228 27.4544Z" fill="#C91414"/>
<path d="M78.1075 41.5725C78.1075 41.5725 80.3311 43.7531 80.7857 43.7218C81.2403 43.6906 83.3061 38.4441 82.8709 37.9493C82.4358 37.4545 80.324 37.1736 80.1466 37.3771C79.9512 37.588 77.6782 41.1637 78.1075 41.5725Z" fill="#FEFA92"/>
</g>
</g>
<defs>
<clipPath id="clip0">
<rect width="168.86" height="115.094" fill="white" transform="matrix(-1 0 0 1 169 0.401001)"/>
</clipPath>
<clipPath id="clip1">
<rect width="72.2487" height="115.094" fill="white" transform="translate(41.3047 -0.439087)"/>
</clipPath>
</defs>
</svg>
