<svg width="71" height="61" viewBox="0 0 71 61" fill="none" xmlns="http://www.w3.org/2000/svg">
<path d="M17.5807 0H13.9414V0.480752H17.5807V0Z" fill="#FFC100"/>
<path d="M0.480752 5.45173H0C0.00124977 4.01038 0.572731 2.62807 1.58966 1.60664C2.60659 0.585202 3.98636 0.00761891 5.42769 0H11.9659V0.480752H5.42769C4.11387 0.488368 2.85638 1.0153 1.92961 1.94658C1.00283 2.87785 0.481999 4.13788 0.480752 5.45173Z" fill="#FFC100"/>
<path d="M62.1898 1.68268H5.42737C3.34842 1.68268 1.66309 3.368 1.66309 5.44696V14.7928C1.66309 16.8717 3.34842 18.5571 5.42737 18.5571H62.1898C64.2687 18.5571 65.954 16.8717 65.954 14.7928V5.44696C65.954 3.368 64.2687 1.68268 62.1898 1.68268Z" fill="#FFC100"/>
<path d="M26.129 7.57666L26.9559 9.24968L28.8067 9.5189L27.4655 10.8217L27.7827 12.6678L26.129 11.7977L24.4752 12.6678L24.7925 10.8217L23.4512 9.5189L25.3021 9.24968L26.129 7.57666Z" fill="white"/>
<path d="M33.6378 7.57666L34.4646 9.24968L36.3155 9.5189L34.9742 10.8217L35.2915 12.6678L33.6378 11.7977L31.984 12.6678L32.3013 10.8217L30.96 9.5189L32.8109 9.24968L33.6378 7.57666Z" fill="white"/>
<path d="M41.1475 7.57666L41.9744 9.24968L43.8253 9.5189L42.4888 10.8217L42.8013 12.6678L41.1475 11.7977L39.4937 12.6678L39.811 10.8217L38.4697 9.5189L40.3206 9.24968L41.1475 7.57666Z" fill="white"/>
<path d="M48.6563 7.57666L49.4832 9.24968L51.3341 9.5189L49.9976 10.8217L50.3101 12.6678L48.6563 11.7977L47.0025 12.6678L47.3198 10.8217L45.9785 9.5189L47.8294 9.24968L48.6563 7.57666Z" fill="white"/>
<path opacity="0.3" d="M56.166 8.66317L56.5602 9.46603C56.5954 9.53572 56.6471 9.59578 56.7108 9.64102C56.7745 9.68625 56.8482 9.71529 56.9256 9.72564L57.8102 9.85544L57.1708 10.4804C57.1151 10.5345 57.0734 10.6012 57.0491 10.6748C57.0248 10.7485 57.0187 10.8269 57.0313 10.9035L57.1804 11.7881L56.3919 11.3938C56.3214 11.36 56.2443 11.342 56.166 11.341C56.0891 11.3407 56.0133 11.3588 55.9448 11.3938L55.1516 11.8121L55.2862 10.9131C55.2988 10.8366 55.2927 10.7581 55.2685 10.6844C55.2442 10.6108 55.2024 10.5441 55.1468 10.49L54.5074 9.86505L55.392 9.73525C55.4716 9.72592 55.5476 9.69685 55.6131 9.65067C55.6785 9.60449 55.7315 9.54267 55.767 9.47084L56.1612 8.66798L56.166 8.66317ZM56.1612 7.58148L55.3343 9.2545L53.4834 9.52372L54.8247 10.8314L54.5074 12.6726L56.1612 11.8025L57.815 12.6726L57.4977 10.8314L58.839 9.52372L56.9881 9.2545L56.1612 7.58148Z" fill="white"/>
<path opacity="0.2" d="M13.3891 15.8937C16.5779 15.8937 19.1629 13.3086 19.1629 10.1198C19.1629 6.93104 16.5779 4.34601 13.3891 4.34601C10.2003 4.34601 7.61523 6.93104 7.61523 10.1198C7.61523 13.3086 10.2003 15.8937 13.3891 15.8937Z" fill="white"/>
<path d="M18.1583 10.1199C18.1596 11.1807 17.8067 12.2117 17.1556 13.0493C16.5045 13.8869 15.5925 14.4832 14.5642 14.7437C13.5358 15.0043 12.4499 14.9141 11.4785 14.4876C10.5072 14.061 9.70597 13.3225 9.20192 12.389C8.82097 11.6935 8.62249 10.9128 8.62502 10.1199C8.66435 8.88186 9.18378 7.70773 10.0734 6.84591C10.963 5.98409 12.1531 5.5022 13.3917 5.5022C14.6303 5.5022 15.8203 5.98409 16.71 6.84591C17.5996 7.70773 18.119 8.88186 18.1583 10.1199Z" fill="white"/>
<path d="M17.5817 12.389C17.1741 13.1452 16.5694 13.7771 15.8318 14.2175C15.0941 14.6579 14.251 14.8905 13.3919 14.8905C12.5328 14.8905 11.6897 14.6579 10.952 14.2175C10.2144 13.7771 9.60972 13.1452 9.20215 12.389C10.4426 11.5611 11.9006 11.1193 13.3919 11.1193C14.8833 11.1193 16.3412 11.5611 17.5817 12.389Z" fill="#263238"/>
<path d="M15.5135 8.50932C15.5135 8.92959 15.3889 9.34042 15.1554 9.68987C14.9219 10.0393 14.59 10.3117 14.2018 10.4725C13.8135 10.6333 13.3862 10.6754 12.974 10.5934C12.5618 10.5114 12.1832 10.309 11.886 10.0119C11.5889 9.71469 11.3865 9.33607 11.3045 8.92387C11.2225 8.51168 11.2646 8.08443 11.4254 7.69615C11.5863 7.30787 11.8586 6.976 12.2081 6.74251C12.5575 6.50902 12.9683 6.3844 13.3886 6.3844C13.9522 6.3844 14.4926 6.60827 14.8911 7.00677C15.2896 7.40527 15.5135 7.94576 15.5135 8.50932Z" fill="#FFC3BD"/>
<path d="M58.2771 60.3248H48.6572V60.8055H58.2771V60.3248Z" fill="#FFC100"/>
<path d="M62.1898 42.2485H5.42737C3.34842 42.2485 1.66309 43.9338 1.66309 46.0128V55.3586C1.66309 57.4375 3.34842 59.1229 5.42737 59.1229H62.1898C64.2687 59.1229 65.954 57.4375 65.954 55.3586V46.0128C65.954 43.9338 64.2687 42.2485 62.1898 42.2485Z" fill="#FFC100"/>
<path d="M26.129 48.1377L26.9559 49.8155L28.8067 50.0799L27.4655 51.3876L27.7827 53.2289L26.129 52.3587L24.4752 53.2289L24.7925 51.3876L23.4512 50.0799L25.3021 49.8155L26.129 48.1377Z" fill="white"/>
<path d="M33.6378 48.1377L34.4646 49.8155L36.3155 50.0799L34.9742 51.3876L35.2915 53.2289L33.6378 52.3587L31.984 53.2289L32.3013 51.3876L30.96 50.0799L32.8109 49.8155L33.6378 48.1377Z" fill="white"/>
<path d="M41.1475 48.1377L41.9744 49.8155L43.8253 50.0799L42.4888 51.3876L42.8013 53.2289L41.1475 52.3587L39.4937 53.2289L39.811 51.3876L38.4697 50.0799L40.3206 49.8155L41.1475 48.1377Z" fill="white"/>
<path d="M48.6563 48.1377L49.4832 49.8155L51.3341 50.0799L49.9976 51.3876L50.3101 53.2289L48.6563 52.3587L47.0025 53.2289L47.3198 51.3876L45.9785 50.0799L47.8294 49.8155L48.6563 48.1377Z" fill="white"/>
<path d="M56.1661 48.1377L56.993 49.8155L58.8439 50.0799L57.5074 51.3876L57.8199 53.2289L56.1661 52.3587L54.5123 53.2289L54.8296 51.3876L53.4883 50.0799L55.3392 49.8155L56.1661 48.1377Z" fill="white"/>
<path opacity="0.2" d="M17.4747 54.7677C19.7295 52.5128 19.7295 48.857 17.4747 46.6022C15.2199 44.3474 11.5641 44.3474 9.30928 46.6022C7.05446 48.857 7.05445 52.5128 9.30928 54.7676C11.5641 57.0225 15.2199 57.0225 17.4747 54.7677Z" fill="white"/>
<path d="M18.1583 50.6809C18.1606 51.7422 17.8085 52.7739 17.1578 53.6123C16.5072 54.4507 15.5952 55.0478 14.5665 55.309C13.5378 55.5702 12.4514 55.4804 11.4796 55.0539C10.5078 54.6275 9.70616 53.8887 9.20192 52.9549C8.82096 52.2576 8.62251 51.4754 8.62502 50.6809C8.66434 49.4429 9.18378 48.2688 10.0734 47.4069C10.963 46.5451 12.1531 46.0632 13.3917 46.0632C14.6303 46.0632 15.8203 46.5451 16.71 47.4069C17.5996 48.2688 18.119 49.4429 18.1583 50.6809Z" fill="white"/>
<path opacity="0.5" d="M17.5817 52.9548C17.173 53.7098 16.5679 54.3403 15.8304 54.7797C15.0929 55.2191 14.2504 55.451 13.3919 55.451C12.5334 55.451 11.6909 55.2191 10.9534 54.7797C10.2159 54.3403 9.61083 53.7098 9.20215 52.9548C10.4426 52.127 11.9006 51.6852 13.3919 51.6852C14.8833 51.6852 16.3412 52.127 17.5817 52.9548Z" fill="#FFC100"/>
<path d="M15.5135 49.0511C15.5145 49.4716 15.3906 49.8829 15.1577 50.233C14.9248 50.5831 14.5933 50.8562 14.2051 51.0177C13.8169 51.1793 13.3895 51.2221 12.977 51.1406C12.5645 51.0592 12.1854 50.8572 11.8878 50.5602C11.5901 50.2632 11.3872 49.8846 11.3049 49.4723C11.2225 49.0599 11.2643 48.6325 11.425 48.2439C11.5856 47.8553 11.858 47.5232 12.2075 47.2895C12.5571 47.0558 12.9681 46.931 13.3886 46.931C13.9513 46.931 14.4911 47.1542 14.8894 47.5517C15.2878 47.9492 15.5122 48.4884 15.5135 49.0511Z" fill="#FFB573"/>
<path d="M62.1898 21.9656H5.42737C3.34842 21.9656 1.66309 23.6509 1.66309 25.7299V35.0757C1.66309 37.1546 3.34842 38.84 5.42737 38.84H62.1898C64.2687 38.84 65.954 37.1546 65.954 35.0757V25.7299C65.954 23.6509 64.2687 21.9656 62.1898 21.9656Z" fill="#FFC100"/>
<path d="M64.2092 31.845L60.1709 38.84H70.2667L64.2092 31.845Z" fill="#FFC100"/>
<path d="M26.129 27.8548L26.9559 29.5326L28.8067 29.8018L27.4655 31.1047L27.7827 32.946L26.129 32.0758L24.4752 32.946L24.7925 31.1047L23.4512 29.8018L25.3021 29.5326L26.129 27.8548Z" fill="white"/>
<path d="M33.6378 27.8548L34.4646 29.5326L36.3155 29.8018L34.9742 31.1047L35.2915 32.946L33.6378 32.0758L31.984 32.946L32.3013 31.1047L30.96 29.8018L32.8109 29.5326L33.6378 27.8548Z" fill="white"/>
<path opacity="0.3" d="M41.1474 28.9412L41.5417 29.7441C41.5763 29.8147 41.6277 29.8757 41.6914 29.9218C41.7551 29.9679 41.8291 29.9977 41.907 30.0085L42.7868 30.1431L42.1474 30.7681C42.0918 30.8221 42.05 30.8889 42.0257 30.9625C42.0015 31.0362 41.9954 31.1146 42.008 31.1912L42.157 32.0758L41.3686 31.6575C41.2991 31.62 41.2215 31.6002 41.1426 31.5998C41.0652 31.5996 40.989 31.6194 40.9215 31.6575L40.1282 32.0758L40.2773 31.1912C40.2899 31.1146 40.2838 31.0362 40.2595 30.9625C40.2353 30.8889 40.1935 30.8221 40.1379 30.7681L39.4985 30.1431L40.383 30.0133C40.4609 30.0025 40.535 29.9727 40.5987 29.9266C40.6624 29.8805 40.7138 29.8195 40.7484 29.7489L41.1426 28.9461L41.1474 28.9412ZM41.1426 27.8596L40.3157 29.5374L38.4648 29.8066L39.8061 31.1094L39.4888 32.9507L41.1426 32.0806L42.7964 32.9507L42.4791 31.1094L43.8204 29.8066L41.9695 29.5374L41.1426 27.8596Z" fill="white"/>
<path opacity="0.3" d="M48.6563 28.9413L49.0505 29.7441C49.0852 29.8147 49.1366 29.8758 49.2003 29.9219C49.264 29.968 49.338 29.9977 49.4159 30.0086L50.3005 30.1384L49.6611 30.7633C49.6054 30.8174 49.5637 30.8841 49.5394 30.9578C49.5151 31.0314 49.509 31.1099 49.5217 31.1864L49.6707 32.071L48.8823 31.6527C48.8128 31.6153 48.7352 31.5954 48.6563 31.595C48.5788 31.5948 48.5026 31.6147 48.4352 31.6527L47.6419 32.071L47.791 31.1864C47.8036 31.1099 47.7975 31.0314 47.7732 30.9578C47.7489 30.8841 47.7072 30.8174 47.6515 30.7633L47.0121 30.1384L47.8967 30.0086C47.9746 29.9977 48.0486 29.968 48.1123 29.9219C48.176 29.8758 48.2275 29.8147 48.2621 29.7441L48.6563 28.9413ZM48.6563 27.8548L47.8294 29.5326L45.9785 29.8018L47.3198 31.1047L47.0025 32.946L48.6563 32.0758L50.3101 32.946L49.9976 31.1047L51.3389 29.8018L49.488 29.5326L48.6611 27.8548H48.6563Z" fill="white"/>
<path opacity="0.3" d="M56.1661 28.9413L56.5603 29.7441C56.5949 29.8147 56.6463 29.8758 56.71 29.9219C56.7737 29.968 56.8478 29.9977 56.9257 30.0086L57.8102 30.1384L57.1708 30.7633C57.1152 30.8174 57.0735 30.8841 57.0492 30.9578C57.0249 31.0314 57.0188 31.1099 57.0314 31.1864L57.1805 32.071L56.392 31.6527C56.3226 31.6153 56.245 31.5954 56.1661 31.595C56.0886 31.5948 56.0124 31.6147 55.9449 31.6527L55.1517 32.071L55.3007 31.1864C55.3133 31.1099 55.3072 31.0314 55.283 30.9578C55.2587 30.8841 55.2169 30.8174 55.1613 30.7633L54.5219 30.1384L55.4065 30.0086C55.4844 29.9977 55.5584 29.968 55.6221 29.9219C55.6858 29.8758 55.7372 29.8147 55.7719 29.7441L56.1661 28.9413ZM56.1661 27.8548L55.3392 29.5326L53.4883 29.8018L54.8296 31.1047L54.5123 32.946L56.1661 32.0758L57.8199 32.946L57.5026 31.1047L58.8439 29.8018L56.993 29.5326L56.1661 27.8548Z" fill="white"/>
<path opacity="0.2" d="M13.3891 36.1766C16.5779 36.1766 19.1629 33.5915 19.1629 30.4027C19.1629 27.2139 16.5779 24.6289 13.3891 24.6289C10.2003 24.6289 7.61523 27.2139 7.61523 30.4027C7.61523 33.5915 10.2003 36.1766 13.3891 36.1766Z" fill="white"/>
<path d="M18.1578 30.4028C18.159 31.4636 17.8061 32.4946 17.1551 33.3322C16.504 34.1698 15.592 34.7661 14.5636 35.0266C13.5352 35.2872 12.4493 35.197 11.478 34.7705C10.5066 34.3439 9.70542 33.6054 9.20138 32.6719C8.82042 31.9764 8.62194 31.1957 8.62447 30.4028C8.60419 29.764 8.71247 29.1278 8.94288 28.5317C9.1733 27.9357 9.52115 27.3921 9.96578 26.9331C10.4104 26.4741 10.9427 26.1092 11.5312 25.8599C12.1196 25.6107 12.7521 25.4823 13.3911 25.4823C14.0302 25.4823 14.6627 25.6107 15.2511 25.8599C15.8395 26.1092 16.3718 26.4741 16.8165 26.9331C17.2611 27.3921 17.609 27.9357 17.8394 28.5317C18.0698 29.1278 18.1781 29.764 18.1578 30.4028Z" fill="white"/>
<path d="M17.5817 32.6719C17.173 33.4269 16.5679 34.0574 15.8304 34.4968C15.0929 34.9362 14.2504 35.1681 13.3919 35.1681C12.5334 35.1681 11.6909 34.9362 10.9534 34.4968C10.2159 34.0574 9.61083 33.4269 9.20215 32.6719C10.4426 31.8441 11.9006 31.4023 13.3919 31.4023C14.8833 31.4023 16.3412 31.8441 17.5817 32.6719Z" fill="#FFC100"/>
<path d="M15.5135 28.773C15.5135 29.1933 15.3889 29.6041 15.1554 29.9535C14.9219 30.303 14.59 30.5753 14.2018 30.7362C13.8135 30.897 13.3862 30.9391 12.974 30.8571C12.5618 30.7751 12.1832 30.5727 11.886 30.2755C11.5889 29.9784 11.3865 29.5997 11.3045 29.1876C11.2225 28.7754 11.2646 28.3481 11.4254 27.9598C11.5863 27.5716 11.8586 27.2397 12.2081 27.0062C12.5575 26.7727 12.9683 26.6481 13.3886 26.6481C13.6678 26.6474 13.9444 26.702 14.2025 26.8085C14.4606 26.9151 14.6951 27.0716 14.8926 27.269C15.09 27.4665 15.2465 27.701 15.3531 27.9591C15.4596 28.2172 15.5142 28.4938 15.5135 28.773Z" fill="#B55B52"/>
</svg>
